<svg width="152" height="37" viewBox="0 0 152 37" fill="none" xmlns="http://www.w3.org/2000/svg">
<path d="M44.4531 24.4051H55.2808V21.1266H48.3015V8.77734H44.4531V24.4051Z" fill="white"/>
<path d="M61.6935 22.2193C60.1498 22.2193 59.3453 20.8642 59.3453 18.8315C59.3453 16.7988 60.1498 15.4218 61.6935 15.4218C63.2372 15.4218 64.0634 16.7988 64.0634 18.8315C64.0634 20.8642 63.2372 22.2193 61.6935 22.2193ZM61.7152 24.7547C65.3027 24.7547 67.6508 22.1974 67.6508 18.8315C67.6508 15.4655 65.3027 12.9082 61.7152 12.9082C58.1495 12.9082 55.7578 15.4655 55.7578 18.8315C55.7578 22.1974 58.1495 24.7547 61.7152 24.7547Z" fill="white"/>
<path d="M73.8622 28.2741C75.5146 28.2741 76.9714 27.9025 77.9498 27.0282C78.8412 26.2195 79.4283 24.9955 79.4283 23.3125V13.2146H76.0365V14.4167H75.993C75.3407 13.4769 74.3406 12.8867 72.8621 12.8867C70.1008 12.8867 68.1875 15.2036 68.1875 18.4821C68.1875 21.9137 70.5139 23.7934 73.0143 23.7934C74.3623 23.7934 75.2103 23.247 75.8625 22.5038H75.9495V23.6185C75.9495 24.9737 75.319 25.7605 73.8188 25.7605C72.6447 25.7605 72.0576 25.2578 71.8619 24.6677H68.4267C68.7745 27.0064 70.7966 28.2741 73.8622 28.2741ZM73.8405 21.1487C72.5142 21.1487 71.6445 20.0558 71.6445 18.3728C71.6445 16.668 72.5142 15.5751 73.8405 15.5751C75.319 15.5751 76.1017 16.8428 76.1017 18.351C76.1017 19.9247 75.3842 21.1487 73.8405 21.1487Z" fill="white"/>
<path d="M86.4044 22.2193C84.8607 22.2193 84.0562 20.8642 84.0562 18.8315C84.0562 16.7988 84.8607 15.4218 86.4044 15.4218C87.9481 15.4218 88.7743 16.7988 88.7743 18.8315C88.7743 20.8642 87.9481 22.2193 86.4044 22.2193ZM86.4261 24.7547C90.0136 24.7547 92.3613 22.1974 92.3613 18.8315C92.3613 15.4655 90.0136 12.9082 86.4261 12.9082C82.8604 12.9082 80.4688 15.4655 80.4688 18.8315C80.4688 22.1974 82.8604 24.7547 86.4261 24.7547Z" fill="white"/>
<path d="M93.3984 24.4051H96.9424V13.2143H93.3984V24.4051ZM93.3984 11.6625H96.9424V8.77734H93.3984V11.6625Z" fill="white"/>
<path d="M98.4766 28.0992H102.021V23.247H102.064C102.76 24.1868 103.782 24.7551 105.217 24.7551C108.13 24.7551 110.065 22.4382 110.065 18.81C110.065 15.444 108.261 12.8867 105.304 12.8867C103.782 12.8867 102.695 13.5643 101.934 14.5697H101.868V13.2146H98.4766V28.0992ZM104.303 22.0011C102.782 22.0011 101.912 20.7553 101.912 18.9411C101.912 17.127 102.695 15.75 104.238 15.75C105.76 15.75 106.478 17.0177 106.478 18.9411C106.478 20.8427 105.652 22.0011 104.303 22.0011Z" fill="white"/>
<path d="M115.836 24.7551C118.749 24.7551 120.902 23.4874 120.902 21.0394C120.902 18.1761 118.597 17.6734 116.64 17.3456C115.227 17.0833 113.966 16.974 113.966 16.1871C113.966 15.4877 114.64 15.1599 115.51 15.1599C116.488 15.1599 117.162 15.4659 117.292 16.4713H120.554C120.38 14.2637 118.684 12.8867 115.531 12.8867C112.9 12.8867 110.726 14.1107 110.726 16.4713C110.726 19.0941 112.792 19.6187 114.727 19.9465C116.205 20.2088 117.553 20.3181 117.553 21.3235C117.553 22.0448 116.879 22.4383 115.814 22.4383C114.64 22.4383 113.901 21.8918 113.77 20.7771H110.422C110.531 23.247 112.574 24.7551 115.836 24.7551Z" fill="white"/>
<path d="M125.718 24.7335C127.262 24.7335 128.24 24.1215 129.045 23.0287H129.11V24.4057H132.502V13.2148H128.958V19.466C128.958 20.7992 128.219 21.7172 127.001 21.7172C125.87 21.7172 125.327 21.0397 125.327 19.8157V13.2148H121.805V20.5588C121.805 23.0505 123.153 24.7335 125.718 24.7335Z" fill="white"/>
<path d="M134.039 24.4054H137.583V18.1324C137.583 16.7991 138.235 15.8593 139.344 15.8593C140.41 15.8593 140.91 16.5587 140.91 17.7608V24.4054H144.454V18.1324C144.454 16.7991 145.084 15.8593 146.215 15.8593C147.28 15.8593 147.78 16.5587 147.78 17.7608V24.4054H151.324V17.127C151.324 14.6134 150.063 12.8867 147.541 12.8867C146.106 12.8867 144.91 13.4987 144.041 14.8539H143.997C143.432 13.6517 142.323 12.8867 140.866 12.8867C139.257 12.8867 138.192 13.6517 137.496 14.8101H137.431V13.2146H134.039V24.4054Z" fill="white"/>
<path fill-rule="evenodd" clip-rule="evenodd" d="M17.9055 36.5254C27.7944 36.5254 35.811 28.4665 35.811 18.5254C35.811 8.58428 27.7944 0.525391 17.9055 0.525391C8.01655 0.525391 0 8.58428 0 18.5254C0 28.4665 8.01655 36.5254 17.9055 36.5254ZM23.4914 8.91055C23.7633 7.93964 22.826 7.36551 21.9701 7.97857L10.0209 16.536C9.0926 17.2008 9.23862 18.5254 10.2403 18.5254H13.3868V18.5009H19.5192L14.5224 20.2733L12.3196 28.1403C12.0477 29.1112 12.9849 29.6853 13.841 29.0722L25.7901 20.5148C26.7184 19.85 26.5723 18.5254 25.5708 18.5254H20.7991L23.4914 8.91055Z" fill="#BFF747"/>
</svg>
