<svg width="152" height="37" viewBox="0 0 152 37" fill="none" xmlns="http://www.w3.org/2000/svg">
<path d="M44.8125 24.3583H55.6402V21.0797H48.6609V8.73047H44.8125V24.3583Z" fill="white"/>
<path d="M62.0528 22.1724C60.5091 22.1724 59.7047 20.8173 59.7047 18.7846C59.7047 16.7519 60.5091 15.3749 62.0528 15.3749C63.5965 15.3749 64.4227 16.7519 64.4227 18.7846C64.4227 20.8173 63.5965 22.1724 62.0528 22.1724ZM62.0746 24.7078C65.662 24.7078 68.0102 22.1506 68.0102 18.7846C68.0102 15.4186 65.662 12.8613 62.0746 12.8613C58.5088 12.8613 56.1172 15.4186 56.1172 18.7846C56.1172 22.1506 58.5088 24.7078 62.0746 24.7078Z" fill="white"/>
<path d="M74.2216 28.2272C75.874 28.2272 77.3308 27.8556 78.3092 26.9814C79.2006 26.1726 79.7876 24.9486 79.7876 23.2657V13.1677H76.3958V14.3698H76.3524C75.7001 13.43 74.6999 12.8398 73.2215 12.8398C70.4602 12.8398 68.5469 15.1567 68.5469 18.4352C68.5469 21.8668 70.8733 23.7465 73.3737 23.7465C74.7217 23.7465 75.5696 23.2001 76.2219 22.4569H76.3089V23.5717C76.3089 24.9268 75.6783 25.7136 74.1781 25.7136C73.004 25.7136 72.417 25.2109 72.2213 24.6208H68.786C69.1339 26.9595 71.1559 28.2272 74.2216 28.2272ZM74.1999 21.1018C72.8736 21.1018 72.0039 20.009 72.0039 18.326C72.0039 16.6211 72.8736 15.5283 74.1999 15.5283C75.6783 15.5283 76.4611 16.796 76.4611 18.3041C76.4611 19.8778 75.7436 21.1018 74.1999 21.1018Z" fill="white"/>
<path d="M86.7638 22.1724C85.2201 22.1724 84.4156 20.8173 84.4156 18.7846C84.4156 16.7519 85.2201 15.3749 86.7638 15.3749C88.3075 15.3749 89.1337 16.7519 89.1337 18.7846C89.1337 20.8173 88.3075 22.1724 86.7638 22.1724ZM86.7855 24.7078C90.373 24.7078 92.7207 22.1506 92.7207 18.7846C92.7207 15.4186 90.373 12.8613 86.7855 12.8613C83.2198 12.8613 80.8281 15.4186 80.8281 18.7846C80.8281 22.1506 83.2198 24.7078 86.7855 24.7078Z" fill="white"/>
<path d="M93.7578 24.3583H97.3018V13.1674H93.7578V24.3583ZM93.7578 11.6156H97.3018V8.73047H93.7578V11.6156Z" fill="white"/>
<path d="M98.8359 28.0524H102.38V23.2001H102.423C103.119 24.1399 104.141 24.7082 105.576 24.7082C108.49 24.7082 110.425 22.3914 110.425 18.7631C110.425 15.3971 108.62 12.8398 105.663 12.8398C104.141 12.8398 103.054 13.5174 102.293 14.5228H102.228V13.1677H98.8359V28.0524ZM104.663 21.9542C103.141 21.9542 102.271 20.7084 102.271 18.8942C102.271 17.0801 103.054 15.7031 104.598 15.7031C106.12 15.7031 106.837 16.9708 106.837 18.8942C106.837 20.7958 106.011 21.9542 104.663 21.9542Z" fill="white"/>
<path d="M116.195 24.7082C119.109 24.7082 121.261 23.4405 121.261 20.9925C121.261 18.1292 118.956 17.6265 117 17.2987C115.586 17.0364 114.325 16.9271 114.325 16.1403C114.325 15.4408 114.999 15.113 115.869 15.113C116.847 15.113 117.521 15.419 117.652 16.4244H120.913C120.739 14.2168 119.043 12.8398 115.891 12.8398C113.26 12.8398 111.086 14.0638 111.086 16.4244C111.086 19.0472 113.151 19.5718 115.086 19.8997C116.565 20.162 117.913 20.2712 117.913 21.2767C117.913 21.9979 117.239 22.3914 116.173 22.3914C114.999 22.3914 114.26 21.8449 114.13 20.7302H110.781C110.89 23.2001 112.934 24.7082 116.195 24.7082Z" fill="white"/>
<path d="M126.078 24.6866C127.621 24.6866 128.6 24.0746 129.404 22.9818H129.469V24.3588H132.861V13.168H129.317V19.4191C129.317 20.7524 128.578 21.6704 127.36 21.6704C126.23 21.6704 125.686 20.9928 125.686 19.7688V13.168H122.164V20.5119C122.164 23.0036 123.512 24.6866 126.078 24.6866Z" fill="white"/>
<path d="M134.398 24.3585H137.942V18.0855C137.942 16.7523 138.595 15.8124 139.704 15.8124C140.769 15.8124 141.269 16.5118 141.269 17.714V24.3585H144.813V18.0855C144.813 16.7523 145.444 15.8124 146.574 15.8124C147.639 15.8124 148.14 16.5118 148.14 17.714V24.3585H151.684V17.0801C151.684 14.5666 150.423 12.8398 147.9 12.8398C146.465 12.8398 145.27 13.4518 144.4 14.807H144.356C143.791 13.6048 142.682 12.8398 141.226 12.8398C139.617 12.8398 138.551 13.6048 137.855 14.7633H137.79V13.1677H134.398V24.3585Z" fill="white"/>
<path fill-rule="evenodd" clip-rule="evenodd" d="M8.41485 3.76347C7.13402 4.6638 5.9758 5.72827 4.97037 6.92655C9.07905 6.54309 14.299 7.16924 20.3593 10.2154C26.8309 13.4682 32.0421 13.5782 35.6688 12.8749C35.3397 11.8733 34.9254 10.9107 34.4347 9.99553C30.283 10.4357 24.9606 9.85306 18.7578 6.73537C14.819 4.75555 11.3469 3.94 8.41485 3.76347ZM32.0095 6.52537C28.7309 2.84289 23.9663 0.525391 18.6633 0.525391C17.1059 0.525391 15.5949 0.725287 14.1544 1.10092C16.1054 1.63607 18.1779 2.41898 20.3593 3.51543C24.9006 5.79807 28.8214 6.53303 32.0095 6.52537ZM36.4442 16.3907C32.0627 17.2604 26.0124 17.0818 18.7578 13.4353C11.9756 10.0263 6.57748 10.0692 2.93682 10.8826C2.7489 10.9245 2.56541 10.9686 2.38634 11.0145C1.90969 12.0566 1.52921 13.1525 1.25621 14.2904C1.54779 14.2121 1.84909 14.1377 2.15996 14.0682C6.57671 13.0815 12.8172 13.1244 20.3593 16.9154C27.1416 20.3244 32.5397 20.2815 36.1804 19.4681C36.3051 19.4403 36.428 19.4115 36.5489 19.3818C36.5621 19.098 36.5688 18.8125 36.5688 18.5254C36.5688 17.8031 36.5265 17.0908 36.4442 16.3907ZM35.9643 23.1805C31.6253 23.943 25.7512 23.6503 18.7578 20.1353C11.9756 16.7263 6.57748 16.7692 2.93682 17.5825C2.1287 17.763 1.40173 17.9829 0.760436 18.215C0.758687 18.3182 0.757812 18.4217 0.757812 18.5254C0.757812 28.4665 8.77436 36.5254 18.6633 36.5254C26.9509 36.5254 33.9235 30.8652 35.9643 23.1805Z" fill="#BFF747"/>
</svg>
