<svg width="150" height="37" viewBox="0 0 150 37" fill="none" xmlns="http://www.w3.org/2000/svg">
<path d="M44.1484 24.3363H54.8485V21.0963H47.9515V8.89258H44.1484V24.3363Z" fill="white"/>
<path d="M61.186 22.176C59.6605 22.176 58.8655 20.8369 58.8655 18.8281C58.8655 16.8193 59.6605 15.4586 61.186 15.4586C62.7115 15.4586 63.528 16.8193 63.528 18.8281C63.528 20.8369 62.7115 22.176 61.186 22.176ZM61.2075 24.6816C64.7527 24.6816 67.0732 22.1544 67.0732 18.8281C67.0732 15.5018 64.7527 12.9746 61.2075 12.9746C57.6838 12.9746 55.3203 15.5018 55.3203 18.8281C55.3203 22.1544 57.6838 24.6816 61.2075 24.6816Z" fill="white"/>
<path d="M73.2094 28.1592C74.8424 28.1592 76.282 27.792 77.2488 26.928C78.1298 26.1289 78.7099 24.9193 78.7099 23.2561V13.2771H75.3581V14.4651H75.3151C74.6705 13.5363 73.6821 12.9531 72.2211 12.9531C69.4923 12.9531 67.6016 15.2427 67.6016 18.4826C67.6016 21.8737 69.9006 23.7313 72.3715 23.7313C73.7036 23.7313 74.5416 23.1913 75.1862 22.4569H75.2721V23.5585C75.2721 24.8977 74.649 25.6753 73.1665 25.6753C72.0062 25.6753 71.4261 25.1785 71.2327 24.5953H67.8379C68.1817 26.9065 70.1799 28.1592 73.2094 28.1592ZM73.188 21.1178C71.8773 21.1178 71.0179 20.0378 71.0179 18.3746C71.0179 16.6899 71.8773 15.6099 73.188 15.6099C74.649 15.6099 75.4225 16.8626 75.4225 18.353C75.4225 19.9082 74.7135 21.1178 73.188 21.1178Z" fill="white"/>
<path d="M85.6001 22.176C84.0746 22.176 83.2796 20.8369 83.2796 18.8281C83.2796 16.8193 84.0746 15.4586 85.6001 15.4586C87.1256 15.4586 87.9421 16.8193 87.9421 18.8281C87.9421 20.8369 87.1256 22.176 85.6001 22.176ZM85.6216 24.6816C89.1668 24.6816 91.4868 22.1544 91.4868 18.8281C91.4868 15.5018 89.1668 12.9746 85.6216 12.9746C82.0978 12.9746 79.7344 15.5018 79.7344 18.8281C79.7344 22.1544 82.0978 24.6816 85.6216 24.6816Z" fill="white"/>
<path d="M92.5156 24.3363H96.0179V13.2773H92.5156V24.3363ZM92.5156 11.7437H96.0179V8.89258H92.5156V11.7437Z" fill="white"/>
<path d="M97.5391 27.9864H101.041V23.1913H101.084C101.772 24.1201 102.782 24.6817 104.2 24.6817C107.079 24.6817 108.991 22.3921 108.991 18.8066C108.991 15.4803 107.208 12.9531 104.286 12.9531C102.782 12.9531 101.707 13.6227 100.955 14.6163H100.891V13.2771H97.5391V27.9864ZM103.297 21.9601C101.793 21.9601 100.934 20.729 100.934 18.9362C100.934 17.1434 101.707 15.7827 103.233 15.7827C104.737 15.7827 105.446 17.0354 105.446 18.9362C105.446 20.8154 104.629 21.9601 103.297 21.9601Z" fill="white"/>
<path d="M114.686 24.6817C117.565 24.6817 119.692 23.4289 119.692 21.0098C119.692 18.1802 117.415 17.6834 115.481 17.3594C114.084 17.1002 112.838 16.9922 112.838 16.2147C112.838 15.5235 113.504 15.1995 114.364 15.1995C115.331 15.1995 115.997 15.5019 116.126 16.4955H119.348C119.177 14.3139 117.501 12.9531 114.385 12.9531C111.785 12.9531 109.637 14.1627 109.637 16.4955C109.637 19.0874 111.678 19.6058 113.59 19.9298C115.051 20.189 116.383 20.297 116.383 21.2906C116.383 22.0033 115.717 22.3921 114.665 22.3921C113.504 22.3921 112.774 21.8521 112.645 20.7506H109.336C109.443 23.1913 111.463 24.6817 114.686 24.6817Z" fill="white"/>
<path d="M124.453 24.6603C125.979 24.6603 126.946 24.0555 127.741 22.9756H127.805V24.3363H131.157V13.2773H127.655V19.4548C127.655 20.7724 126.924 21.6796 125.721 21.6796C124.604 21.6796 124.067 21.01 124.067 19.8004V13.2773H120.586V20.5348C120.586 22.9972 121.918 24.6603 124.453 24.6603Z" fill="white"/>
<path d="M132.68 24.3361H136.182V18.137C136.182 16.8194 136.827 15.8907 137.922 15.8907C138.975 15.8907 139.469 16.5819 139.469 17.7698V24.3361H142.972V18.137C142.972 16.8194 143.595 15.8907 144.712 15.8907C145.765 15.8907 146.259 16.5819 146.259 17.7698V24.3361H149.761V17.1434C149.761 14.6595 148.515 12.9531 146.023 12.9531C144.605 12.9531 143.423 13.5579 142.563 14.8971H142.52C141.962 13.7091 140.866 12.9531 139.426 12.9531C137.836 12.9531 136.784 13.7091 136.096 14.8539H136.032V13.2771H132.68V24.3361Z" fill="white"/>
<path d="M22.7845 1.47385L19.2635 0.525391L16.2963 11.6578L13.6174 1.60738L10.0963 2.55584L12.9906 13.4145L5.78145 6.16736L3.20383 8.75858L11.1114 16.7079L1.26378 14.0553L0.320312 17.595L11.0801 20.4933C10.9569 19.9591 10.8917 19.4026 10.8917 18.8307C10.8917 14.783 14.1558 11.5016 18.1823 11.5016C22.2088 11.5016 25.4729 14.783 25.4729 18.8307C25.4729 19.3989 25.4085 19.952 25.2869 20.483L35.0655 23.117L36.0089 19.5774L25.2064 16.6675L35.0547 14.0147L34.1112 10.4751L23.3091 13.3848L30.5182 6.13761L27.9406 3.54639L20.1427 11.3854L22.7845 1.47385Z" fill="#BFF747"/>
<path d="M25.2746 20.5254C24.9728 21.8084 24.3354 22.961 23.4609 23.8845L30.5451 31.0061L33.1227 28.4149L25.2746 20.5254Z" fill="#BFF747"/>
<path d="M23.3906 23.959C22.5055 24.8677 21.3871 25.5458 20.1328 25.8953L22.7106 35.5665L26.2317 34.618L23.3906 23.959Z" fill="#BFF747"/>
<path d="M20.0014 25.9298C19.4195 26.0802 18.8095 26.1601 18.181 26.1601C17.5076 26.1601 16.8554 26.0683 16.2364 25.8965L13.6562 35.5765L17.1773 36.5249L20.0014 25.9298Z" fill="#BFF747"/>
<path d="M16.1147 25.8634C14.8796 25.4965 13.7811 24.8098 12.9141 23.8984L5.8125 31.0375L8.39011 33.6288L16.1147 25.8634Z" fill="#BFF747"/>
<path d="M12.8522 23.8331C12.0001 22.9161 11.3794 21.7788 11.084 20.5156L1.27344 23.1582L2.2169 26.6979L12.8522 23.8331Z" fill="#BFF747"/>
</svg>
