<svg width="160" height="160" viewBox="0 0 160 160" fill="none" xmlns="http://www.w3.org/2000/svg">
<circle cx="80" cy="80" r="80" fill="black"/>
<circle cx="79.9941" cy="80.002" r="33.9902" fill="#BFF747"/>
<circle cx="79.9922" cy="80.0039" r="20" fill="#BFF747"/>
<path d="M85.0868 76.7125L74.1318 87.6676L72.332 85.8678L83.2858 74.9128H73.6316V72.3672H87.6324V86.3681H85.0868V76.7125Z" fill="black"/>
<path d="M86.0864 26.1731C85.3434 26.0999 84.6694 25.8975 84.0644 25.5659C83.4594 25.2344 82.9438 24.8038 82.5178 24.2741C82.0917 23.7445 81.7761 23.1414 81.5708 22.4647C81.3748 21.789 81.3148 21.0657 81.3908 20.2948C81.4667 19.524 81.6621 18.8259 81.977 18.2005C82.302 17.5667 82.72 17.0358 83.2311 16.6079C83.7523 16.1717 84.3415 15.8546 84.9987 15.6568C85.6568 15.4497 86.3573 15.3828 87.1003 15.456C87.8433 15.5292 88.495 15.7201 89.0554 16.0285C89.6251 16.3378 90.0936 16.7216 90.4611 17.1798C90.8295 17.6287 91.0776 18.108 91.2056 18.6176L89.4403 19.2595C89.2983 18.7016 89.0117 18.2326 88.5802 17.8525C88.1488 17.4724 87.5988 17.2494 86.9301 17.1835C86.28 17.1194 85.689 17.2159 85.1573 17.473C84.6349 17.7309 84.2078 18.1155 83.8761 18.6267C83.5537 19.1389 83.3568 19.7571 83.2854 20.4815C83.214 21.206 83.2906 21.8559 83.5152 22.4313C83.7501 22.9983 84.1031 23.4598 84.5745 23.8157C85.0458 24.1716 85.6065 24.3816 86.2566 24.4457C86.786 24.4978 87.2836 24.4437 87.7496 24.2833C88.2164 24.1137 88.6033 23.8517 88.9101 23.4975C89.2179 23.1339 89.3979 22.6875 89.45 22.1581L89.5283 21.364L90.3179 22.2014L86.4729 21.8225L86.6308 20.2204L91.5066 20.701L91.4037 21.7458C91.325 22.5445 91.1207 23.2371 90.791 23.8235C90.4613 24.4099 90.0436 24.8892 89.5381 25.2614C89.0427 25.6252 88.4966 25.8855 87.8997 26.0424C87.3038 26.1899 86.6993 26.2335 86.0864 26.1731Z" fill="#BFF747"/>
<path d="M91.7725 26.8557L94.6172 16.8223L101.284 18.7124L100.825 20.3285L95.9906 18.9577L95.2613 21.53L99.8268 22.8244L99.3686 24.4406L94.8031 23.1461L94.0623 25.7589L98.8972 27.1297L98.439 28.7458L91.7725 26.8557Z" fill="#BFF747"/>
<path d="M101.708 30.1535L105.447 22.2436L103.005 21.089L103.723 19.5703L110.304 22.6812L109.586 24.1999L107.181 23.0632L103.442 30.9731L101.708 30.1535Z" fill="#BFF747"/>
<path d="M114.481 38.2181C113.968 37.7991 113.567 37.3156 113.28 36.7676C113 36.2255 112.836 35.6584 112.79 35.0662C112.756 34.4726 112.85 33.8927 113.071 33.3265L114.731 33.7955C114.548 34.4175 114.532 35.0128 114.682 35.5813C114.838 36.1425 115.148 36.612 115.61 36.9897C115.871 37.2022 116.127 37.3454 116.38 37.4194C116.646 37.492 116.889 37.4973 117.108 37.4353C117.335 37.3793 117.53 37.2501 117.696 37.0476C117.89 36.8091 117.977 36.5549 117.957 36.285C117.949 36.0139 117.84 35.7198 117.629 35.4029L116.486 33.6381C116.016 32.9294 115.782 32.2501 115.782 31.6C115.783 30.9499 115.999 30.3611 116.429 29.8333C116.807 29.3707 117.253 29.0537 117.766 28.8825C118.286 28.7171 118.829 28.7021 119.393 28.8374C119.97 28.9715 120.523 29.2539 121.051 29.6847C121.535 30.0802 121.909 30.5299 122.172 31.0339C122.441 31.5307 122.596 32.0489 122.637 32.5886C122.692 33.127 122.626 33.6576 122.44 34.1805L120.783 33.7311C120.954 33.1964 120.97 32.6908 120.829 32.2143C120.693 31.7305 120.416 31.3174 119.997 30.9751C119.751 30.7744 119.499 30.6407 119.24 30.574C118.987 30.5001 118.745 30.4948 118.512 30.5581C118.293 30.62 118.101 30.7522 117.936 30.9546C117.753 31.1787 117.663 31.4365 117.665 31.7281C117.674 32.0124 117.789 32.3225 118.008 32.6585L119.113 34.3376C119.585 35.0725 119.83 35.7542 119.847 36.3825C119.871 37.0168 119.662 37.605 119.219 38.1472C118.842 38.6099 118.389 38.9209 117.861 39.0804C117.333 39.2398 116.777 39.2496 116.193 39.1097C115.608 38.9698 115.038 38.6726 114.481 38.2181Z" fill="#BFF747"/>
<path d="M119.859 43.0454L126.383 37.2159L124.583 35.2013L125.836 34.082L130.686 39.5101L129.433 40.6293L127.661 38.646L121.137 44.4755L119.859 43.0454Z" fill="#BFF747"/>
<path d="M123.477 47.048L134.211 44.5035L135.53 46.5844L128.648 55.2063L127.539 53.4564L129.033 51.6307L126.875 48.2255L124.578 48.7861L123.477 47.048ZM128.586 47.7873L130.16 50.2702L133.617 46.0238L133.902 46.4731L128.586 47.7873Z" fill="#BFF747"/>
<path d="M129.043 56.253L138.695 52.3027L140.164 55.8914C140.433 56.5478 140.549 57.176 140.512 57.7759C140.487 58.3809 140.304 58.9196 139.963 59.392C139.631 59.8608 139.141 60.2278 138.493 60.4929C137.828 60.7651 137.197 60.8368 136.599 60.7082C136.006 60.5881 135.487 60.3063 135.043 59.8627L132.076 63.6635L131.26 61.6683L134.526 57.5636L134.319 58.9794L133.327 56.5568L129.765 58.0149L129.043 56.253ZM134.882 55.9205L135.64 57.7731C135.771 58.0927 135.945 58.3443 136.161 58.528C136.386 58.7082 136.637 58.8171 136.915 58.8548C137.192 58.8924 137.478 58.8512 137.772 58.731C138.074 58.6072 138.307 58.4364 138.469 58.2185C138.641 57.997 138.74 57.745 138.765 57.4623C138.799 57.1761 138.751 56.8732 138.62 56.5536L137.862 54.701L134.882 55.9205Z" fill="#BFF747"/>
<path d="M132.766 66.6885L141.309 64.803L140.727 62.1648L142.367 61.8027L143.936 68.9109L142.296 69.2729L141.722 66.6757L133.179 68.5613L132.766 66.6885Z" fill="#BFF747"/>
<path d="M134.152 73.9416L144.566 73.3848L144.936 80.3042L143.259 80.3938L142.991 75.3755L140.321 75.5183L140.574 80.257L138.897 80.3467L138.643 75.608L135.931 75.753L136.2 80.7713L134.522 80.861L134.152 73.9416Z" fill="#BFF747"/>
<path d="M134.487 82.6988L144.84 83.9551L144.43 87.3319C144.297 88.4251 143.96 89.3478 143.417 90.0998C142.883 90.8622 142.2 91.4186 141.368 91.7688C140.545 92.1202 139.624 92.2341 138.605 92.1104C137.595 91.9879 136.723 91.6565 135.99 91.1162C135.265 90.5771 134.73 89.8729 134.385 89.0037C134.047 88.1449 133.944 87.1689 134.077 86.0757L134.487 82.6988ZM135.925 84.7911L135.74 86.3197C135.654 87.0238 135.724 87.648 135.95 88.1924C136.183 88.7472 136.542 89.1997 137.026 89.5498C137.519 89.9011 138.122 90.12 138.836 90.2066C139.558 90.2943 140.196 90.226 140.75 90.0018C141.304 89.7775 141.756 89.4234 142.106 88.9395C142.455 88.4648 142.672 87.8754 142.757 87.1713L142.943 85.6427L135.925 84.7911Z" fill="#BFF747"/>
<path d="M136.006 100.295L137.185 99.557L138.099 101.017L139.198 99.7198L140.263 100.607L139.176 101.909L140.843 102.567L140.329 103.869L138.662 103.211L138.566 104.903L137.182 104.824L137.266 103.126L135.602 103.567L135.25 102.209L136.914 101.768L136.006 100.295Z" fill="#BFF747"/>
<path d="M123.277 112.794C123.719 112.193 124.237 111.717 124.831 111.366C125.426 111.015 126.059 110.792 126.732 110.696C127.405 110.601 128.085 110.637 128.771 110.806C129.452 110.983 130.105 111.301 130.729 111.76C131.353 112.219 131.853 112.743 132.23 113.333C132.609 113.937 132.852 114.567 132.959 115.225C133.067 115.896 133.039 116.564 132.873 117.231C132.715 117.902 132.415 118.539 131.973 119.14C131.53 119.741 131.033 120.204 130.482 120.528C129.925 120.86 129.356 121.067 128.774 121.149C128.2 121.236 127.661 121.205 127.158 121.055L127.508 119.209C128.06 119.372 128.609 119.365 129.156 119.188C129.704 119.011 130.176 118.652 130.574 118.111C130.962 117.585 131.18 117.028 131.231 116.439C131.276 115.858 131.164 115.295 130.893 114.749C130.618 114.21 130.187 113.725 129.601 113.293C129.014 112.862 128.416 112.596 127.807 112.495C127.199 112.407 126.622 112.475 126.076 112.699C125.529 112.922 125.062 113.297 124.675 113.823C124.36 114.252 124.152 114.707 124.052 115.19C123.959 115.678 123.987 116.144 124.135 116.589C124.29 117.039 124.582 117.422 125.011 117.737L125.653 118.21L124.53 118.461L126.82 115.349L128.116 116.303L125.213 120.249L124.367 119.627C123.721 119.152 123.23 118.622 122.894 118.039C122.558 117.456 122.359 116.852 122.298 116.228C122.238 115.616 122.293 115.013 122.463 114.42C122.64 113.832 122.912 113.291 123.277 112.794Z" fill="#BFF747"/>
<path d="M119.778 117.349L126.961 124.91L121.937 129.683L120.78 128.465L124.424 125.004L122.582 123.065L119.142 126.334L117.985 125.116L121.425 121.847L119.555 119.878L115.911 123.34L114.754 122.122L119.778 117.349Z" fill="#BFF747"/>
<path d="M111.871 124.228L116.782 131.468L119.018 129.952L119.961 131.342L113.937 135.428L112.994 134.038L115.195 132.545L110.284 125.304L111.871 124.228Z" fill="#BFF747"/>
<path d="M98.4429 131.124C99.0648 130.895 99.6848 130.796 100.303 130.828C100.912 130.862 101.484 131.01 102.017 131.271C102.545 131.545 102.996 131.921 103.371 132.399L102.123 133.589C101.681 133.115 101.176 132.798 100.611 132.639C100.048 132.488 99.4863 132.515 98.9258 132.721C98.6104 132.837 98.3566 132.985 98.1643 133.165C97.9664 133.357 97.8384 133.563 97.7802 133.784C97.7132 134.007 97.7248 134.241 97.815 134.487C97.9212 134.776 98.0958 134.98 98.3386 135.1C98.5758 135.231 98.8846 135.287 99.2648 135.266L101.366 135.18C102.215 135.136 102.919 135.28 103.478 135.611C104.038 135.943 104.435 136.428 104.67 137.067C104.876 137.628 104.922 138.173 104.808 138.702C104.686 139.234 104.423 139.709 104.019 140.125C103.61 140.554 103.086 140.886 102.447 141.121C101.86 141.337 101.282 141.43 100.715 141.4C100.15 141.379 99.6248 141.249 99.1392 141.01C98.6481 140.783 98.2247 140.456 97.8692 140.03L99.0992 138.832C99.4723 139.252 99.8998 139.522 100.382 139.643C100.867 139.773 101.364 139.744 101.872 139.558C102.17 139.448 102.413 139.299 102.602 139.11C102.794 138.93 102.922 138.724 102.986 138.492C103.044 138.271 103.028 138.039 102.938 137.793C102.838 137.522 102.662 137.313 102.41 137.167C102.161 137.03 101.835 136.971 101.434 136.989L99.4267 137.086C98.5538 137.118 97.8425 136.982 97.2929 136.677C96.7345 136.375 96.3345 135.896 96.093 135.239C95.8869 134.678 95.8495 134.13 95.9808 133.595C96.112 133.06 96.3866 132.576 96.8044 132.144C97.2223 131.712 97.7685 131.372 98.4429 131.124Z" fill="#BFF747"/>
<path d="M91.5245 133.298L93.2021 141.885L95.8537 141.367L96.1758 143.016L89.0316 144.411L88.7095 142.763L91.3199 142.253L89.6423 133.666L91.5245 133.298Z" fill="#BFF747"/>
<path d="M86.2539 134.357L82.9586 144.885L80.4958 144.956L76.599 134.635L78.6699 134.575L79.4761 136.793L83.506 136.677L84.197 134.416L86.2539 134.357ZM83.0087 138.372L80.0703 138.456L81.9551 143.598L81.4234 143.613L83.0087 138.372Z" fill="#BFF747"/>
<path d="M75.4251 134.439L73.9023 144.756L70.0663 144.19C69.3646 144.086 68.7652 143.866 68.2678 143.528C67.7599 143.198 67.3897 142.766 67.1573 142.232C66.9235 141.707 66.8577 141.098 66.9599 140.406C67.0648 139.695 67.3248 139.116 67.74 138.667C68.146 138.218 68.6528 137.915 69.2607 137.76L67.5037 133.27L69.6364 133.584L71.5023 138.487L70.3899 137.587L72.9796 137.969L73.5417 134.161L75.4251 134.439ZM72.7343 139.631L70.754 139.339C70.4124 139.288 70.1074 139.309 69.8391 139.402C69.5693 139.503 69.3475 139.664 69.1736 139.884C68.9997 140.103 68.8896 140.37 68.8433 140.684C68.7956 141.007 68.8239 141.294 68.9284 141.545C69.0314 141.806 69.198 142.019 69.4282 142.185C69.6571 142.361 69.9423 142.473 70.2839 142.524L72.2642 142.816L72.7343 139.631Z" fill="#BFF747"/>
<path d="M64.5592 132.325L61.8286 140.637L64.3954 141.48L63.8711 143.076L56.9555 140.804L57.4798 139.208L60.0066 140.038L62.7372 131.726L64.5592 132.325Z" fill="#BFF747"/>
<path d="M57.594 129.815L52.7539 139.053L46.6161 135.837L47.3957 134.349L51.8472 136.681L53.0881 134.313L48.8846 132.11L49.6642 130.623L53.8677 132.825L55.128 130.419L50.6766 128.087L51.4562 126.599L57.594 129.815Z" fill="#BFF747"/>
<path d="M49.9814 125.685L43.6133 133.943L40.9195 131.866C40.0474 131.194 39.4266 130.432 39.0572 129.582C38.6747 128.733 38.5454 127.861 38.6693 126.967C38.7875 126.08 39.1601 125.23 39.7869 124.417C40.4081 123.612 41.1382 123.032 41.9773 122.677C42.8107 122.33 43.6894 122.229 44.6133 122.376C45.5241 122.525 46.4155 122.935 47.2876 123.607L49.9814 125.685ZM47.448 125.852L46.2286 124.912C45.6669 124.479 45.0945 124.22 44.5114 124.136C43.9152 124.053 43.343 124.131 42.7947 124.368C42.2408 124.612 41.7445 125.019 41.3057 125.588C40.8612 126.165 40.5939 126.748 40.5039 127.339C40.4139 127.929 40.4875 128.499 40.7247 129.047C40.9545 129.589 41.3503 130.077 41.9119 130.51L43.1314 131.451L47.448 125.852Z" fill="#BFF747"/>
<path d="M34.0603 118.001L34.0958 119.392L32.3745 119.436L32.9317 121.042L31.6266 121.507L31.0583 119.91L29.6438 121.01L28.7845 119.905L30.199 118.805L28.7908 117.86L29.5632 116.71L30.9824 117.646L31.4491 115.988L32.7971 116.376L32.3304 118.034L34.0603 118.001Z" fill="#BFF747"/>
<path d="M29.7589 100.681C30.0516 101.368 30.1979 102.056 30.1977 102.746C30.1976 103.436 30.0676 104.095 29.8078 104.723C29.5479 105.351 29.1706 105.918 28.6757 106.423C28.1772 106.919 27.5717 107.319 26.8591 107.623C26.1466 107.927 25.4404 108.091 24.7406 108.115C24.0286 108.134 23.3622 108.023 22.7415 107.78C22.1084 107.532 21.5473 107.168 21.0581 106.687C20.5603 106.209 20.1651 105.627 19.8724 104.94C19.5797 104.253 19.434 103.59 19.4353 102.95C19.4329 102.302 19.5444 101.707 19.7697 101.164C19.9865 100.626 20.2876 100.178 20.6731 99.8206L22.0841 101.06C21.663 101.453 21.3894 101.93 21.2632 102.491C21.1371 103.052 21.2058 103.641 21.4692 104.259C21.7254 104.86 22.0939 105.332 22.5748 105.675C23.052 106.009 23.5945 106.199 24.2022 106.245C24.8062 106.281 25.4431 106.157 26.1127 105.872C26.7823 105.586 27.3155 105.207 27.7123 104.733C28.0968 104.255 28.3319 103.724 28.4177 103.139C28.5034 102.555 28.4182 101.962 28.1621 101.361C27.9535 100.872 27.667 100.461 27.3025 100.13C26.9294 99.802 26.5138 99.5885 26.0557 99.4896C25.589 99.3943 25.111 99.4509 24.6216 99.6595L23.8876 99.9723L24.2427 98.8775L25.7575 102.432L24.2766 103.063L22.3557 98.5557L23.3215 98.1441C24.0598 97.8294 24.7653 97.6758 25.4381 97.6833C26.1108 97.6908 26.7318 97.8268 27.3011 98.0914C27.8581 98.3511 28.3488 98.705 28.7731 99.1531C29.1888 99.6049 29.5174 100.114 29.7589 100.681Z" fill="#BFF747"/>
<path d="M27.6255 95.3517L17.457 97.668L15.918 90.9118L17.5559 90.5387L18.6721 95.4386L21.279 94.8448L20.225 90.2178L21.8629 89.8447L22.9169 94.4717L25.5648 93.8685L24.4486 88.9686L26.0865 88.5955L27.6255 95.3517Z" fill="#BFF747"/>
<path d="M25.7597 85.068L17.0264 85.593L17.1885 88.2898L15.5117 88.3906L15.0749 81.1245L16.7517 81.0237L16.9113 83.6786L25.6446 83.1536L25.7597 85.068Z" fill="#BFF747"/>
<path d="M26.6776 69.9186C26.5574 70.5702 26.3263 71.1539 25.9844 71.6697C25.6443 72.1764 25.2258 72.5927 24.7292 72.9186C24.2251 73.2337 23.6716 73.4305 23.0687 73.5091L22.6811 71.8291C23.3141 71.6896 23.8436 71.4172 24.2695 71.0118C24.6863 70.6047 24.9488 70.1074 25.0571 69.5201C25.1181 69.1897 25.1201 68.8959 25.0631 68.6386C24.9987 68.3705 24.8866 68.1553 24.7267 67.993C24.5686 67.8214 24.361 67.712 24.104 67.6646C23.8012 67.6087 23.5365 67.6548 23.3099 67.8028C23.0758 67.9399 22.8707 68.1773 22.6945 68.5149L21.6982 70.3667C21.3031 71.1194 20.8205 71.652 20.2505 71.9644C19.6804 72.2768 19.0604 72.3712 18.3904 72.2476C17.8031 72.1393 17.3108 71.9014 16.9135 71.5339C16.518 71.1573 16.2438 70.6891 16.0908 70.1295C15.9303 69.559 15.9118 68.9387 16.0354 68.2688C16.1488 67.6539 16.3631 67.1098 16.6781 66.6365C16.984 66.1614 17.3635 65.7759 17.8167 65.4799C18.2624 65.1731 18.7591 64.9753 19.3069 64.8865L19.7108 66.5553C19.1597 66.6624 18.7092 66.8925 18.3594 67.2455C18.0004 67.5968 17.7718 68.0386 17.6736 68.5709C17.616 68.883 17.6203 69.1685 17.6864 69.4274C17.7434 69.6846 17.8555 69.8999 18.0228 70.0731C18.1827 70.2354 18.3911 70.3403 18.6481 70.3877C18.9326 70.4402 19.2019 70.3949 19.456 70.252C19.701 70.1074 19.9178 69.858 20.1065 69.5037L21.0463 67.7269C21.4631 66.9592 21.9428 66.4166 22.4853 66.0991C23.0296 65.7725 23.6459 65.6726 24.3342 65.7996C24.9215 65.9079 25.4121 66.155 25.806 66.5408C26.1998 66.9266 26.4761 67.4094 26.6349 67.9891C26.7937 68.5688 26.8079 69.2119 26.6776 69.9186Z" fill="#BFF747"/>
<path d="M28.329 62.8644L20.0855 59.9332L19.1804 62.4788L17.5977 61.916L20.0364 55.0575L21.6191 55.6202L20.7281 58.1262L28.9715 61.0574L28.329 62.8644Z" fill="#BFF747"/>
<path d="M30.1038 57.7775L22.7361 49.5664L23.933 47.4129L34.7963 49.3349L33.7898 51.1458L31.4716 50.7061L29.513 54.23L31.1035 55.9788L30.1038 57.7775ZM28.31 52.9367L29.7381 50.3672L24.3555 49.3614L24.6139 48.8965L28.31 52.9367Z" fill="#BFF747"/>
<path d="M35.5253 48.4953L27.4336 41.916L29.8799 38.9074C30.3273 38.3571 30.8231 37.9544 31.3674 37.6993C31.9102 37.4311 32.4707 37.3335 33.0487 37.4066C33.6196 37.4738 34.1765 37.7281 34.7196 38.1697C35.2771 38.623 35.6425 39.1426 35.8156 39.7285C35.9947 40.3071 35.9958 40.8974 35.8191 41.4994L40.5767 42.2826L39.2167 43.9553L34.049 43.0551L35.3909 42.5585L33.7395 44.5896L36.7263 47.0182L35.5253 48.4953ZM32.4361 43.5298L33.699 41.9767C33.9168 41.7087 34.0545 41.4358 34.1121 41.1579C34.1625 40.8741 34.1377 40.6013 34.0377 40.3396C33.9378 40.078 33.7647 39.847 33.5185 39.6468C33.2651 39.4408 33.0037 39.3185 32.7344 39.2799C32.4578 39.2354 32.1893 39.2697 31.929 39.3828C31.6614 39.49 31.4187 39.6776 31.2009 39.9455L29.938 41.4986L32.4361 43.5298Z" fill="#BFF747"/>
<path d="M42.8916 40.2298L37.1275 33.6478L35.095 35.4278L33.9883 34.1641L39.4644 29.3683L40.5711 30.6321L38.5702 32.3843L44.3343 38.9663L42.8916 40.2298Z" fill="#BFF747"/>
<path d="M48.6008 35.5077L43.1016 26.6465L48.9892 22.9927L49.875 24.42L45.605 27.0699L47.0148 29.3417L51.047 26.8394L51.9327 28.2667L47.9006 30.769L49.3326 33.0765L53.6026 30.4265L54.4884 31.8539L48.6008 35.5077Z" fill="#BFF747"/>
<path d="M56.031 31.0413L52.1602 21.3574L55.3188 20.0948C56.3414 19.6861 57.3127 19.539 58.2329 19.6536C59.1583 19.7561 59.9744 20.0882 60.6814 20.6498C61.3848 21.2028 61.9271 21.9559 62.3081 22.9091C62.6856 23.8537 62.8137 24.7774 62.6921 25.6803C62.5671 26.5744 62.2065 27.3819 61.6102 28.1027C61.0191 28.8113 60.2122 29.37 59.1897 29.7788L56.031 31.0413ZM57.1753 28.7749L58.6052 28.2034C59.2638 27.9401 59.7777 27.5789 60.1469 27.1198C60.5213 26.6485 60.7459 26.1165 60.8206 25.5238C60.8918 24.9225 60.794 24.2882 60.5273 23.621C60.2571 22.945 59.8907 22.4181 59.4281 22.0402C58.9655 21.6623 58.4378 21.4361 57.8452 21.3614C57.2612 21.2833 56.6399 21.3758 55.9813 21.6391L54.5515 22.2106L57.1753 28.7749Z" fill="#BFF747"/>
<path d="M70.63 21.2994L69.4033 20.6424L70.2162 19.1245L68.5447 18.8148L68.7857 17.4503L70.4552 17.7462L70.1985 15.9729L71.5839 15.7723L71.8406 17.5457L73.3576 16.7886L73.9756 18.0287L72.4605 18.7997L73.6704 20.0248L72.6665 21.0047L71.4567 19.7795L70.63 21.2994Z" fill="#BFF747"/>
</svg>
