<svg width="40" height="40" viewBox="0 0 40 40" fill="none" xmlns="http://www.w3.org/2000/svg">
<path fill-rule="evenodd" clip-rule="evenodd" d="M8.43396 25.2862C8.43396 27.6131 6.55757 29.4911 4.23261 29.4911C1.90765 29.4911 0.03125 27.6068 0.03125 25.2862C0.03125 22.9656 1.90765 21.0813 4.23261 21.0813H8.43396V25.2862ZM10.5315 25.2862C10.5315 22.9593 12.4079 21.0813 14.7328 21.0813C17.0578 21.0813 18.9342 22.9593 18.9342 25.2862V35.7952C18.9342 38.1221 17.0578 40.0001 14.7328 40.0001C12.4079 40.0001 10.5315 38.1221 10.5315 35.7952V25.2862Z" fill="#E01E5A"/>
<path fill-rule="evenodd" clip-rule="evenodd" d="M14.7332 8.40977C12.4082 8.40977 10.5318 6.5318 10.5318 4.20488C10.5318 1.87797 12.4082 0 14.7332 0C17.0581 0 18.9345 1.87797 18.9345 4.20488V8.40977H14.7332ZM14.7332 10.5407C17.0581 10.5407 18.9345 12.4186 18.9345 14.7455C18.9345 17.0725 17.0581 18.9504 14.7332 18.9504H4.20136C1.8764 18.9504 0 17.0661 0 14.7455C0 12.425 1.8764 10.5407 4.20136 10.5407H14.7332Z" fill="#36C5F0"/>
<path fill-rule="evenodd" clip-rule="evenodd" d="M31.5666 14.7455C31.5666 12.4186 33.443 10.5407 35.768 10.5407C38.093 10.5407 39.9694 12.4186 39.9694 14.7455C39.9694 17.0725 38.093 18.9504 35.768 18.9504H31.5666V14.7455ZM29.4691 14.7455C29.4691 17.0725 27.5927 18.9504 25.2678 18.9504C22.9428 18.9504 21.0664 17.0725 21.0664 14.7455V4.20488C21.0664 1.87797 22.9428 0 25.2678 0C27.5927 0 29.4691 1.87797 29.4691 4.20488V14.7455Z" fill="#2EB67D"/>
<path fill-rule="evenodd" clip-rule="evenodd" d="M25.2678 31.5903C27.5927 31.5903 29.4691 33.4683 29.4691 35.7952C29.4691 38.1221 27.5927 40.0001 25.2678 40.0001C22.9428 40.0001 21.0664 38.1221 21.0664 35.7952V31.5903H25.2678ZM25.2678 29.4911C22.9428 29.4911 21.0664 27.6131 21.0664 25.2862C21.0664 22.9593 22.9428 21.0813 25.2678 21.0813H35.7996C38.1245 21.0813 40.0009 22.9593 40.0009 25.2862C40.0009 27.6131 38.1245 29.4911 35.7996 29.4911H25.2678Z" fill="#ECB22E"/>
</svg>
