<svg width="40" height="40" viewBox="0 0 40 40" fill="none" xmlns="http://www.w3.org/2000/svg">
<mask id="mask0_445_76" style="mask-type:luminance" maskUnits="userSpaceOnUse" x="0" y="0" width="40" height="40">
<path d="M0 0H39.9997V40H0V0Z" fill="white"/>
</mask>
<g mask="url(#mask0_445_76)">
<path d="M2.84376 20.0004C2.84376 26.7919 6.79044 32.6605 12.5134 35.442L4.32919 13.0178C3.34808 15.2148 2.8419 17.5942 2.84376 20.0004ZM31.5835 19.1346C31.5835 17.0142 30.8218 15.5457 30.1686 14.4027C29.2989 12.9894 28.484 11.7926 28.484 10.3793C28.484 8.80214 29.6799 7.33401 31.3648 7.33401C31.4408 7.33401 31.513 7.34348 31.5874 7.34772C28.5346 4.55118 24.4678 2.84375 20.001 2.84375C14.007 2.84375 8.73359 5.91909 5.66576 10.5772C6.06829 10.5892 6.44798 10.5974 6.76987 10.5974C8.56448 10.5974 11.3424 10.3796 11.3424 10.3796C12.2673 10.3251 12.3763 11.6836 11.4528 11.7929C11.4528 11.7929 10.523 11.9023 9.48871 11.9565L15.7367 30.5408L19.4917 19.2798L16.8183 11.9562C15.8944 11.902 15.0191 11.7926 15.0191 11.7926C14.0945 11.7384 14.2029 10.3248 15.1275 10.3793C15.1275 10.3793 17.9609 10.5971 19.6468 10.5971C21.4411 10.5971 24.2193 10.3793 24.2193 10.3793C25.1449 10.3248 25.2536 11.6832 24.3294 11.7926C24.3294 11.7926 23.3979 11.902 22.3656 11.9562L28.5659 30.3997L30.277 24.681C31.019 22.3078 31.5835 20.6034 31.5835 19.1346Z" fill="white"/>
<path d="M20.3001 21.5L15.1523 36.4581C16.7261 36.9219 18.3584 37.1574 19.9991 37.1574C21.9971 37.1574 23.9131 36.8117 25.6966 36.1849C25.6488 36.11 25.6079 36.0309 25.5745 35.9485L20.3001 21.5ZM35.0539 11.7676C35.1277 12.3141 35.1695 12.9011 35.1695 13.5318C35.1695 15.2729 34.8443 17.2301 33.8649 19.6773L28.6241 34.8297C33.7249 31.8552 37.1557 26.3291 37.1557 19.9992C37.1603 17.122 36.4373 14.2904 35.0539 11.7676Z" fill="white"/>
<path d="M20.0002 0C8.97236 0 0 8.9717 0 19.9995C0 31.0286 8.97203 40.0003 20.0002 40.0003C31.0276 40.0003 40.0013 31.0289 40.0013 19.9995C40.001 8.9717 31.0276 0 20.0002 0ZM20.0002 39.0833C9.47806 39.0833 0.917052 30.5223 0.917052 19.9995C0.917052 9.47773 9.47773 0.917379 20.0002 0.917379C30.5219 0.917379 39.0823 9.47773 39.0823 19.9995C39.0823 30.5223 30.5216 39.0833 20.0002 39.0833Z" fill="white"/>
</g>
</svg>
