<svg width="40" height="40" viewBox="0 0 40 40" fill="none" xmlns="http://www.w3.org/2000/svg">
<path d="M31.3011 20.5735C26.496 20.5735 22.6014 24.4681 22.6014 29.2724C22.6014 34.0771 26.496 37.9725 31.3011 37.9725C36.1054 37.9725 40 34.0771 40 29.2724C40 24.4681 36.1054 20.5735 31.3011 20.5735ZM8.69932 20.5739C3.89502 20.5743 0 24.4681 0 29.2728C0 34.0771 3.89502 37.9721 8.69932 37.9721C13.504 37.9721 17.399 34.0771 17.399 29.2728C17.399 24.4681 13.5044 20.5739 8.69932 20.5739ZM28.6993 9.69932C28.6993 14.5036 24.8047 18.3995 20.0004 18.3995C15.1953 18.3995 11.3007 14.5036 11.3007 9.69932C11.3007 4.89502 15.1953 1 20.0004 1C24.8047 1 28.6989 4.89502 28.6989 9.69932H28.6993Z" fill="url(#paint0_radial_445_72)"/>
<defs>
<radialGradient id="paint0_radial_445_72" cx="0" cy="0" r="1" gradientUnits="userSpaceOnUse" gradientTransform="translate(20.0001 2021.62) scale(2650.52 2449.91)">
<stop stop-color="#FFB900"/>
<stop offset="0.6" stop-color="#F95D8F"/>
<stop offset="0.9991" stop-color="#F95353"/>
</radialGradient>
</defs>
</svg>
