<svg width="40" height="40" viewBox="0 0 40 40" fill="none" xmlns="http://www.w3.org/2000/svg">
<g clip-path="url(#clip0_445_73)">
<path d="M39.9981 20.4442C40.0222 19.0693 39.8774 17.6965 39.5668 16.3555H20.4062V23.7776H31.6533C31.4402 25.0789 30.9608 26.3247 30.2438 27.4398C29.5268 28.5549 28.587 29.5163 27.4811 30.2663L27.4419 30.5149L33.5004 35.1144L33.9199 35.1555C37.7746 31.6665 39.9973 26.533 39.9973 20.4442" fill="#4285F4"/>
<path d="M20.4071 39.9996C25.9171 39.9996 30.5429 38.2217 33.9219 35.1551L27.4819 30.2659C25.7587 31.444 23.4458 32.2663 20.4071 32.2663C17.8263 32.2515 15.3159 31.4407 13.2319 29.9488C11.1479 28.457 9.59623 26.3599 8.79697 23.9551L8.55779 23.9751L2.25812 28.7528L2.17578 28.9772C3.87244 32.2909 6.47624 35.0769 9.69603 37.0234C12.9158 38.97 16.6247 40.0005 20.4079 39.9996" fill="#34A853"/>
<path d="M8.79798 23.9563C8.3516 22.6832 8.12126 21.347 8.11614 20.0009C8.12436 18.657 8.3462 17.3225 8.77367 16.0455L8.7623 15.7803L2.38539 10.9258L2.1768 11.023C0.745525 13.8078 0 16.8826 0 20.0007C0 23.1188 0.745525 26.1936 2.1768 28.9784L8.79798 23.9563Z" fill="#FBBC05"/>
<path d="M20.4079 7.73277C23.3322 7.68827 26.1604 8.75557 28.299 10.7107L34.0588 5.19944C30.3647 1.80321 25.4727 -0.0602593 20.4079 -0.000561849C16.6247 -0.00144395 12.9159 1.02898 9.69611 2.97548C6.47632 4.92199 3.87249 7.70784 2.17578 11.0215L8.77501 16.044C9.58214 13.6396 11.139 11.5441 13.2261 10.053C15.3131 8.56188 17.8251 7.75033 20.4079 7.73277Z" fill="#EB4335"/>
</g>
<defs>
<clipPath id="clip0_445_73">
<rect width="40" height="40" fill="white"/>
</clipPath>
</defs>
</svg>
