<svg width="30" height="31" viewBox="0 0 30 31" fill="none" xmlns="http://www.w3.org/2000/svg">
<g clip-path="url(#clip0_1379_172)">
<path d="M14.9989 12.0932C22.6914 12.0932 28.9275 9.69472 28.9275 6.73605C28.9275 3.77738 22.6914 1.37891 14.9989 1.37891C7.30635 1.37891 1.07031 3.77738 1.07031 6.73605C1.07031 9.69472 7.30635 12.0932 14.9989 12.0932Z" stroke="white" stroke-width="1.5" stroke-linecap="round" stroke-linejoin="round"/>
<path d="M1.07031 6.73828V23.8811C1.07031 26.8383 7.30603 29.2383 14.9989 29.2383C22.6917 29.2383 28.9275 26.8383 28.9275 23.8811V6.73828" stroke="white" stroke-width="1.5" stroke-linecap="round" stroke-linejoin="round"/>
<path d="M28.9275 15.3086C28.9275 18.2657 22.6917 20.6657 14.9989 20.6657C7.30603 20.6657 1.07031 18.2657 1.07031 15.3086" stroke="white" stroke-width="1.5" stroke-linecap="round" stroke-linejoin="round"/>
</g>
<defs>
<clipPath id="clip0_1379_172">
<rect width="30" height="30" fill="white" transform="translate(0 0.308594)"/>
</clipPath>
</defs>
</svg>
