<svg width="40" height="41" viewBox="0 0 40 41" fill="none" xmlns="http://www.w3.org/2000/svg">
<path d="M4.28292 18.0332H7.14007C7.51895 18.0332 7.88231 18.1837 8.15022 18.4516C8.41813 18.7195 8.56864 19.0829 8.56864 19.4618V26.6046C8.56864 26.9835 8.41813 27.3469 8.15022 27.6148C7.88231 27.8827 7.51895 28.0332 7.14007 28.0332H4.28292C3.52516 28.0332 2.79844 27.7322 2.26262 27.1964C1.7268 26.6605 1.42578 25.9338 1.42578 25.1761V20.8903C1.42578 20.1326 1.7268 19.4059 2.26262 18.87C2.79844 18.3342 3.52516 18.0332 4.28292 18.0332V18.0332Z" stroke="#BFF747" stroke-linecap="round" stroke-linejoin="round"/>
<path d="M35.7093 28.0332H32.8521C32.4732 28.0332 32.1099 27.8827 31.842 27.6148C31.5741 27.3469 31.4235 26.9835 31.4235 26.6046V19.4618C31.4235 19.0829 31.5741 18.7195 31.842 18.4516C32.1099 18.1837 32.4732 18.0332 32.8521 18.0332H35.7093C36.467 18.0332 37.1937 18.3342 37.7296 18.87C38.2654 19.4059 38.5664 20.1326 38.5664 20.8903V25.1761C38.5664 25.9338 38.2654 26.6605 37.7296 27.1964C37.1937 27.7322 36.467 28.0332 35.7093 28.0332V28.0332Z" stroke="#BFF747" stroke-linecap="round" stroke-linejoin="round"/>
<path d="M27.1406 35.8903C28.6561 35.8903 30.1096 35.2883 31.1812 34.2167C32.2529 33.145 32.8549 31.6916 32.8549 30.1761V28.0332" stroke="#BFF747" stroke-linecap="round" stroke-linejoin="round"/>
<path d="M23.5681 32.3203C24.5153 32.3203 25.4237 32.6966 26.0935 33.3664C26.7632 34.0361 27.1395 34.9445 27.1395 35.8917C27.1395 36.8389 26.7632 37.7473 26.0935 38.4171C25.4237 39.0869 24.5153 39.4632 23.5681 39.4632H19.2824C18.3352 39.4632 17.4268 39.0869 16.757 38.4171C16.0872 37.7473 15.7109 36.8389 15.7109 35.8917C15.7109 34.9445 16.0872 34.0361 16.757 33.3664C17.4268 32.6966 18.3352 32.3203 19.2824 32.3203H23.5681Z" stroke="#BFF747" stroke-linecap="round" stroke-linejoin="round"/>
<path d="M7.14062 18.0346V15.1775C7.14063 11.7675 8.49521 8.49726 10.9064 6.08608C13.3176 3.6749 16.5878 2.32031 19.9978 2.32031C23.4077 2.32031 26.678 3.6749 29.0891 6.08608C31.5003 8.49726 32.8549 11.7675 32.8549 15.1775V18.0346" stroke="#BFF747" stroke-linecap="round" stroke-linejoin="round"/>
<path d="M15.7109 12.3203V16.606" stroke="#BFF747" stroke-linecap="round" stroke-linejoin="round"/>
<path d="M24.2852 12.3203V16.606" stroke="#BFF747" stroke-linecap="round" stroke-linejoin="round"/>
<path d="M15.7109 22.3203C15.7109 26.1203 24.2824 26.1203 24.2824 22.3203" stroke="#BFF747" stroke-linecap="round" stroke-linejoin="round"/>
</svg>
