<svg width="40" height="41" viewBox="0 0 40 41" fill="none" xmlns="http://www.w3.org/2000/svg">
<path d="M12.8544 37.6755C19.1662 37.6755 24.2829 32.5588 24.2829 26.2469C24.2829 19.9351 19.1662 14.8184 12.8544 14.8184C6.54253 14.8184 1.42578 19.9351 1.42578 26.2469C1.42578 32.5588 6.54253 37.6755 12.8544 37.6755Z" stroke="#BFF747" stroke-width="1.5" stroke-linecap="round" stroke-linejoin="round"/>
<path d="M27.1395 37.6755C33.4513 37.6755 38.5681 32.5588 38.5681 26.2469C38.5681 19.9351 33.4513 14.8184 27.1395 14.8184C20.8277 14.8184 15.7109 19.9351 15.7109 26.2469C15.7109 32.5588 20.8277 37.6755 27.1395 37.6755Z" stroke="#BFF747" stroke-width="1.5" stroke-linecap="round" stroke-linejoin="round"/>
<path d="M19.995 26.2458C26.3068 26.2458 31.4235 21.1291 31.4235 14.8172C31.4235 8.50542 26.3068 3.38867 19.995 3.38867C13.6832 3.38867 8.56641 8.50542 8.56641 14.8172C8.56641 21.1291 13.6832 26.2458 19.995 26.2458Z" stroke="#BFF747" stroke-width="1.5" stroke-linecap="round" stroke-linejoin="round"/>
</svg>
