<svg width="40" height="41" viewBox="0 0 40 41" fill="none" xmlns="http://www.w3.org/2000/svg">
<path d="M14.9433 7.08789L16.1719 3.91646C16.3791 3.3795 16.7436 2.91764 17.2178 2.59135C17.6919 2.26507 18.2535 2.08959 18.829 2.08789H21.1719C21.7474 2.08959 22.3091 2.26507 22.7832 2.59135C23.2573 2.91764 23.6218 3.3795 23.829 3.91646L25.0576 7.08789L29.229 9.48789L32.6005 8.97361C33.1618 8.89741 33.7332 8.98982 34.2419 9.2391C34.7507 9.48838 35.1738 9.88328 35.4576 10.3736L36.6005 12.3736C36.8933 12.8717 37.0282 13.447 36.9874 14.0234C36.9466 14.5998 36.732 15.1503 36.3719 15.6022L34.2862 18.2593V23.0593L36.429 25.7165C36.7892 26.1684 37.0038 26.7189 37.0446 27.2953C37.0854 27.8717 36.9505 28.4469 36.6576 28.945L35.5148 30.945C35.231 31.4354 34.8078 31.8303 34.2991 32.0795C33.7904 32.3288 33.219 32.4212 32.6576 32.345L29.2862 31.8307L25.1148 34.2307L23.8862 37.4022C23.679 37.9391 23.3145 38.401 22.8403 38.7273C22.3662 39.0536 21.8046 39.229 21.229 39.2307H18.829C18.2535 39.229 17.6919 39.0536 17.2178 38.7273C16.7436 38.401 16.3791 37.9391 16.1719 37.4022L14.9433 34.2307L10.7719 31.8307L7.40047 32.345C6.83909 32.4212 6.26773 32.3288 5.75899 32.0795C5.25025 31.8303 4.82711 31.4354 4.54333 30.945L3.40047 28.945C3.10762 28.4469 2.97269 27.8717 3.0135 27.2953C3.0543 26.7189 3.26893 26.1684 3.62904 25.7165L5.71475 23.0593V18.2593L3.5719 15.6022C3.21178 15.1503 2.99716 14.5998 2.95635 14.0234C2.91555 13.447 3.05047 12.8717 3.34333 12.3736L4.48618 10.3736C4.76996 9.88328 5.19311 9.48838 5.70185 9.2391C6.21058 8.98982 6.78195 8.89741 7.34333 8.97361L10.7148 9.48789L14.9433 7.08789Z" stroke="#BFF747" stroke-width="1.5" stroke-linecap="round" stroke-linejoin="round"/>
<path d="M20.0011 29.2307C24.735 29.2307 28.5725 25.3932 28.5725 20.6593C28.5725 15.9254 24.735 12.0879 20.0011 12.0879C15.2672 12.0879 11.4297 15.9254 11.4297 20.6593C11.4297 25.3932 15.2672 29.2307 20.0011 29.2307Z" stroke="#BFF747" stroke-width="1.5" stroke-linecap="round" stroke-linejoin="round"/>
<path d="M20 12.0879V20.6593H28.5714" stroke="#BFF747" stroke-width="1.5" stroke-linecap="round" stroke-linejoin="round"/>
<path d="M20.0025 20.6582L13.9453 26.7153" stroke="#BFF747" stroke-width="1.5" stroke-linecap="round" stroke-linejoin="round"/>
</svg>
