<svg width="69" height="69" viewBox="0 0 69 69" fill="none" xmlns="http://www.w3.org/2000/svg">
<g clip-path="url(#clip0_1459_934)">
<path d="M67.0848 14.3085C65.8058 8.53376 60.2077 3.24384 54.4171 2.12025C50.8896 1.41501 41.0482 0.543764 34.5391 0.615482C28.0299 0.543764 18.1885 1.41501 14.661 2.12025C8.87039 3.24384 3.27234 8.53376 1.99336 14.3085C1.26555 17.8147 0.549688 22.5853 0.539062 29.0971C0.549688 35.6089 1.26555 40.3782 1.99336 43.8845C3.27234 49.6592 8.87039 54.9491 14.661 56.0727C16.5655 56.4538 20.3109 56.8828 24.3789 57.1856C24.8398 57.9095 25.3391 58.6798 25.8797 59.4966C28.0379 62.7651 29.6901 65.0428 30.9412 66.6299C33.0237 69.2716 36.0558 69.2716 38.1383 66.6299C39.3894 65.0428 41.0402 62.7651 43.1998 59.4966C43.7403 58.6785 44.2384 57.9095 44.7005 57.1856C48.7686 56.8828 52.5139 56.4538 54.4198 56.0727C60.2104 54.9491 65.8084 49.6592 67.0874 43.8845C67.8152 40.3782 68.5311 35.6089 68.5417 29.0971C68.5311 22.5853 67.8152 17.816 67.0874 14.3098L67.0848 14.3085ZM38.2937 48.8397C38.1502 49.6485 37.4171 50.3817 36.6083 50.5251C36.1182 50.6061 35.4502 50.6831 34.5377 50.6845C33.6266 50.6845 32.9586 50.6074 32.4672 50.5251C31.6584 50.3817 30.9252 49.6485 30.7818 48.8397C30.7008 48.3496 30.6237 47.6816 30.6224 46.7692C30.6224 45.8581 30.6995 45.19 30.7818 44.6986C30.9252 43.8898 31.6584 43.1567 32.4672 43.0132C32.9573 42.9322 33.6253 42.8552 34.5377 42.8538C35.4488 42.8538 36.1169 42.9309 36.6083 43.0132C37.4171 43.1567 38.1502 43.8898 38.2937 44.6986C38.3747 45.1887 38.4517 45.8567 38.453 46.7692C38.453 47.6802 38.376 48.3483 38.2937 48.8397ZM46.3793 27.0863C45.354 28.5367 43.8173 29.8608 41.5436 31.2513C38.6655 33.0257 38.2047 33.7549 38.2047 35.1826V35.747C38.2047 37.7711 36.5578 39.418 34.5338 39.418C32.5097 39.418 30.8628 37.7711 30.8628 35.747V34.4388C30.8628 32.7548 31.2838 31.3257 32.1498 30.0706C32.9891 28.8541 34.2469 27.773 36.1129 26.664C39.5514 24.6413 40.1809 23.5057 40.1809 21.9983C40.1809 20.1044 38.5673 18.8799 36.0717 18.8799C33.3358 18.8799 31.5548 20.123 30.7778 22.576C30.2652 24.1937 28.767 25.2801 27.0511 25.2801C26.9555 25.2801 26.8598 25.2761 26.7642 25.2695C25.553 25.1818 24.4679 24.5536 23.7879 23.5456C23.1145 22.5481 22.9379 21.3223 23.3031 20.1814C24.1398 17.573 25.7442 15.4028 27.9423 13.9047C30.1682 12.388 32.9798 11.5871 36.0704 11.5871C39.1609 11.5871 42.2595 12.6111 44.4588 14.4705C46.722 16.3843 47.9691 19.022 47.9691 21.9C47.9691 23.8763 47.4498 25.5736 46.3793 27.0863Z" fill="black"/>
</g>
<defs>
<clipPath id="clip0_1459_934">
<rect width="68" height="68" fill="white" transform="translate(0.539062 0.611328)"/>
</clipPath>
</defs>
</svg>
