<svg width="40" height="41" viewBox="0 0 40 41" fill="none" xmlns="http://www.w3.org/2000/svg">
<path d="M4.27902 17.2246H7.13616C7.51504 17.2246 7.8784 17.3751 8.14631 17.643C8.41422 17.9109 8.56473 18.2743 8.56473 18.6532V25.796C8.56473 26.1749 8.41422 26.5383 8.14631 26.8062C7.8784 27.0741 7.51504 27.2246 7.13616 27.2246H4.27902C3.52126 27.2246 2.79453 26.9236 2.25871 26.3878C1.72289 25.852 1.42188 25.1252 1.42188 24.3675V20.0818C1.42188 19.324 1.72289 18.5973 2.25871 18.0614C2.79453 17.5256 3.52126 17.2246 4.27902 17.2246V17.2246Z" stroke="#BFF747" stroke-linecap="round" stroke-linejoin="round"/>
<path d="M35.7054 27.2246H32.8482C32.4693 27.2246 32.106 27.0741 31.8381 26.8062C31.5702 26.5383 31.4196 26.1749 31.4196 25.796V18.6532C31.4196 18.2743 31.5702 17.9109 31.8381 17.643C32.106 17.3751 32.4693 17.2246 32.8482 17.2246H35.7054C36.4631 17.2246 37.1898 17.5256 37.7257 18.0614C38.2615 18.5973 38.5625 19.324 38.5625 20.0818V24.3675C38.5625 25.1252 38.2615 25.852 37.7257 26.3878C37.1898 26.9236 36.4631 27.2246 35.7054 27.2246V27.2246Z" stroke="#BFF747" stroke-linecap="round" stroke-linejoin="round"/>
<path d="M27.1406 35.0818C28.6561 35.0818 30.1096 34.4797 31.1812 33.4081C32.2529 32.3364 32.8549 30.883 32.8549 29.3675V27.2246" stroke="#BFF747" stroke-linecap="round" stroke-linejoin="round"/>
<path d="M23.5603 31.5117C24.5075 31.5117 25.4159 31.888 26.0856 32.5578C26.7554 33.2275 27.1317 34.1359 27.1317 35.0831C27.1317 36.0303 26.7554 36.9388 26.0856 37.6085C25.4159 38.2783 24.5075 38.6546 23.5603 38.6546H19.2746C18.3274 38.6546 17.4189 38.2783 16.7492 37.6085C16.0794 36.9388 15.7031 36.0303 15.7031 35.0831C15.7031 34.1359 16.0794 33.2275 16.7492 32.5578C17.4189 31.888 18.3274 31.5117 19.2746 31.5117H23.5603Z" stroke="#BFF747" stroke-linecap="round" stroke-linejoin="round"/>
<path d="M7.14062 17.226V14.3689C7.14063 10.9589 8.49521 7.68867 10.9064 5.27749C13.3176 2.86631 16.5878 1.51172 19.9978 1.51172C23.4077 1.51172 26.678 2.86631 29.0891 5.27749C31.5003 7.68867 32.8549 10.9589 32.8549 14.3689V17.226" stroke="#BFF747" stroke-linecap="round" stroke-linejoin="round"/>
<path d="M15.7031 11.5117V15.7974" stroke="#BFF747" stroke-linecap="round" stroke-linejoin="round"/>
<path d="M24.2812 11.5117V15.7974" stroke="#BFF747" stroke-linecap="round" stroke-linejoin="round"/>
<path d="M15.7031 21.5117C15.7031 25.3117 24.2746 25.3117 24.2746 21.5117" stroke="#BFF747" stroke-linecap="round" stroke-linejoin="round"/>
</svg>
