<svg width="30" height="30" viewBox="0 0 30 30" fill="none" xmlns="http://www.w3.org/2000/svg">
<g clip-path="url(#clip0_1666_226)">
<path d="M14.9989 28.9353C22.6914 28.9353 28.9275 22.6992 28.9275 15.0067C28.9275 7.31416 22.6914 1.07812 14.9989 1.07812C7.30635 1.07812 1.07031 7.31416 1.07031 15.0067C1.07031 22.6992 7.30635 28.9353 14.9989 28.9353Z" stroke="white" stroke-width="1.5" stroke-linecap="round" stroke-linejoin="round"/>
<path d="M14.9973 1.07812C14.9973 1.07812 6.27585 8.77098 14.9973 15.0067C22.4973 20.3638 14.9973 28.9353 14.9973 28.9353" stroke="white" stroke-width="1.5" stroke-linecap="round" stroke-linejoin="round"/>
<path d="M19.2835 11.7935C20.4669 11.7935 21.4263 10.8341 21.4263 9.65067C21.4263 8.4672 20.4669 7.50781 19.2835 7.50781C18.1 7.50781 17.1406 8.4672 17.1406 9.65067C17.1406 10.8341 18.1 11.7935 19.2835 11.7935Z" stroke="white" stroke-width="1.5" stroke-linecap="round" stroke-linejoin="round"/>
<path d="M10.7132 22.5045C11.8966 22.5045 12.856 21.5451 12.856 20.3616C12.856 19.1781 11.8966 18.2188 10.7132 18.2188C9.5297 18.2188 8.57031 19.1781 8.57031 20.3616C8.57031 21.5451 9.5297 22.5045 10.7132 22.5045Z" stroke="white" stroke-width="1.5" stroke-linecap="round" stroke-linejoin="round"/>
</g>
<defs>
<clipPath id="clip0_1666_226">
<rect width="30" height="30" fill="white" transform="translate(0 0.0078125)"/>
</clipPath>
</defs>
</svg>
