<svg width="30" height="31" viewBox="0 0 30 31" fill="none" xmlns="http://www.w3.org/2000/svg">
<g clip-path="url(#clip0_1379_166)">
<path d="M15.0011 19.596C17.6639 19.596 19.8225 17.4374 19.8225 14.7746C19.8225 12.1118 17.6639 9.95312 15.0011 9.95312C12.3383 9.95312 10.1797 12.1118 10.1797 14.7746C10.1797 17.4374 12.3383 19.596 15.0011 19.596Z" stroke="white" stroke-width="1.5" stroke-linecap="round" stroke-linejoin="round"/>
<path d="M23.5725 29.237C22.7613 27.663 21.5324 26.3427 20.0204 25.421C18.5084 24.4993 16.7719 24.0117 15.0011 24.0117C13.2304 24.0117 11.4938 24.4993 9.98184 25.421C8.46988 26.3427 7.24091 27.663 6.42969 29.237" stroke="white" stroke-width="1.5" stroke-linecap="round" stroke-linejoin="round"/>
<path d="M25.7167 22.9361C27.2374 20.9527 28.1727 18.5834 28.4169 16.0961C28.6612 13.6088 28.2045 11.1027 27.0987 8.86145C25.9928 6.62015 24.2819 4.733 22.1594 3.41343C20.0368 2.09386 17.5874 1.39453 15.0882 1.39453C12.5889 1.39453 10.1395 2.09386 8.01699 3.41343C5.89448 4.733 4.18354 6.62015 3.07769 8.86145C1.97184 11.1027 1.5152 13.6088 1.75941 16.0961C2.00363 18.5834 2.93895 20.9527 4.4596 22.9361" stroke="white" stroke-width="1.5" stroke-linecap="round" stroke-linejoin="round"/>
</g>
<defs>
<clipPath id="clip0_1379_166">
<rect width="30" height="30" fill="white" transform="translate(0 0.308594)"/>
</clipPath>
</defs>
</svg>
