<svg width="40" height="41" viewBox="0 0 40 41" fill="none" xmlns="http://www.w3.org/2000/svg">
<g clip-path="url(#clip0_1403_2505)">
<path d="M19.9989 25.9099C23.5493 25.9099 26.4275 23.0317 26.4275 19.4813C26.4275 15.9309 23.5493 13.0527 19.9989 13.0527C16.4485 13.0527 13.5703 15.9309 13.5703 19.4813C13.5703 23.0317 16.4485 25.9099 19.9989 25.9099Z" stroke="#BFF747" stroke-width="1.5" stroke-linecap="round" stroke-linejoin="round"/>
<path d="M31.4275 38.7658C30.3458 36.6671 28.7072 34.9068 26.6913 33.6779C24.6753 32.4489 22.3599 31.7988 19.9989 31.7988C17.6379 31.7988 15.3225 32.4489 13.3065 33.6779C11.2906 34.9068 9.65194 36.6671 8.57031 38.7658" stroke="#BFF747" stroke-width="1.5" stroke-linecap="round" stroke-linejoin="round"/>
<path d="M34.2864 30.3667C36.3139 27.7221 37.561 24.563 37.8867 21.2466C38.2123 17.9302 37.6034 14.5888 36.1289 11.6004C34.6545 8.61202 32.3732 6.09582 29.5432 4.33639C26.7132 2.57697 23.4473 1.64453 20.115 1.64453C16.7826 1.64453 13.5167 2.57697 10.6867 4.33639C7.8567 6.09582 5.57545 8.61202 4.10098 11.6004C2.62651 14.5888 2.01766 17.9302 2.34328 21.2466C2.6689 24.563 3.916 27.7221 5.94354 30.3667" stroke="#BFF747" stroke-width="1.5" stroke-linecap="round" stroke-linejoin="round"/>
</g>
<defs>
<clipPath id="clip0_1403_2505">
<rect width="40" height="40" fill="white" transform="translate(0 0.195312)"/>
</clipPath>
</defs>
</svg>
