<svg width="40" height="40" viewBox="0 0 40 40" fill="none" xmlns="http://www.w3.org/2000/svg">
<path fill-rule="evenodd" clip-rule="evenodd" d="M35.2515 0H4.75492C3.49495 -1.14498e-06 2.2865 0.5004 1.39497 1.3913C0.503445 2.2822 0.00173693 3.49075 3.88672e-05 4.75152V35.2228C-0.00249229 35.8493 0.118628 36.47 0.35645 37.0495C0.594271 37.629 0.944112 38.1558 1.38589 38.5996C1.82768 39.0435 2.35271 39.3957 2.93085 39.636C3.509 39.8763 4.12888 40 4.75492 40H35.2515C35.877 39.9992 36.4962 39.8748 37.0736 39.6342C37.651 39.3935 38.1753 39.0411 38.6164 38.5974C39.0575 38.1536 39.4067 37.6271 39.6442 37.048C39.8816 36.469 40.0025 35.8487 40 35.2228V4.75152C39.9983 3.49186 39.4974 2.28428 38.6073 1.39356C37.7172 0.502847 36.5103 0.00169652 35.2515 0ZM17.2509 28.8105C17.2501 29.0199 17.2079 29.227 17.1269 29.4201C17.0458 29.6131 16.9275 29.7882 16.7786 29.9354C16.6298 30.0826 16.4533 30.1989 16.2595 30.2776C16.0656 30.3564 15.8581 30.396 15.6488 30.3944H8.98432C8.56564 30.3927 8.16469 30.225 7.86924 29.9282C7.57378 29.6314 7.4079 29.2295 7.40791 28.8105V8.96441C7.4079 8.54546 7.57378 8.14357 7.86924 7.84673C8.16469 7.54988 8.56564 7.38227 8.98432 7.38057H15.6488C16.0681 7.38226 16.4697 7.54967 16.7662 7.84633C17.0627 8.143 17.23 8.54487 17.2317 8.96441L17.2509 28.8105ZM32.6305 19.6986C32.6306 19.9082 32.589 20.1158 32.5082 20.3092C32.4275 20.5026 32.3092 20.6781 32.1602 20.8254C32.0111 20.9727 31.8344 21.089 31.6401 21.1675C31.4459 21.2459 31.238 21.285 31.0285 21.2825H24.364C23.9447 21.2808 23.5431 21.1134 23.2466 20.8167C22.9501 20.52 22.7828 20.1182 22.7812 19.6986V8.96441C22.7828 8.54487 22.9501 8.143 23.2466 7.84633C23.5431 7.54967 23.9447 7.38226 24.364 7.38057H31.0285C31.4472 7.38227 31.8481 7.54988 32.1436 7.84673C32.439 8.14357 32.6049 8.54546 32.6049 8.96441L32.6305 19.6986Z" fill="url(#paint0_linear_445_74)"/>
<defs>
<linearGradient id="paint0_linear_445_74" x1="6228.53" y1="2537.6" x2="6228.53" y2="0" gradientUnits="userSpaceOnUse">
<stop stop-color="#0052CC"/>
<stop offset="1" stop-color="#2684FF"/>
</linearGradient>
</defs>
</svg>
