<svg width="26" height="26" viewBox="0 0 26 26" fill="none" xmlns="http://www.w3.org/2000/svg">
<g clip-path="url(#clip0_1433_53)">
<path d="M6.42634 11.4777C9.13845 11.4777 11.3371 9.27908 11.3371 6.56696C11.3371 3.85485 9.13845 1.65625 6.42634 1.65625C3.71423 1.65625 1.51562 3.85485 1.51562 6.56696C1.51562 9.27908 3.71423 11.4777 6.42634 11.4777Z" stroke="black" stroke-width="1.5" stroke-linecap="round" stroke-linejoin="round"/>
<path d="M19.817 11.4777C22.5291 11.4777 24.7277 9.27908 24.7277 6.56696C24.7277 3.85485 22.5291 1.65625 19.817 1.65625C17.1049 1.65625 14.9062 3.85485 14.9062 6.56696C14.9062 9.27908 17.1049 11.4777 19.817 11.4777Z" stroke="black" stroke-width="1.5" stroke-linecap="round" stroke-linejoin="round"/>
<path d="M6.42634 24.8722C9.13845 24.8722 11.3371 22.6736 11.3371 19.9615C11.3371 17.2494 9.13845 15.0508 6.42634 15.0508C3.71423 15.0508 1.51562 17.2494 1.51562 19.9615C1.51562 22.6736 3.71423 24.8722 6.42634 24.8722Z" stroke="black" stroke-width="1.5" stroke-linecap="round" stroke-linejoin="round"/>
<path d="M19.817 24.8722C22.5291 24.8722 24.7277 22.6736 24.7277 19.9615C24.7277 17.2494 22.5291 15.0508 19.817 15.0508C17.1049 15.0508 14.9062 17.2494 14.9062 19.9615C14.9062 22.6736 17.1049 24.8722 19.817 24.8722Z" stroke="black" stroke-width="1.5" stroke-linecap="round" stroke-linejoin="round"/>
</g>
<defs>
<clipPath id="clip0_1433_53">
<rect width="25" height="25" fill="white" transform="translate(0.625 0.763672)"/>
</clipPath>
</defs>
</svg>
