<svg width="25" height="25" viewBox="0 0 25 25" fill="none" xmlns="http://www.w3.org/2000/svg">
<g clip-path="url(#clip0_1461_2180)">
<path d="M23.2442 7.86328H22.5595V15.3891C22.5595 16.5609 21.8773 17.6205 20.5096 17.6205H7.10938V17.9783C7.10938 19.0142 8.28765 20.06 9.49765 20.06H19.7427L23.6622 22.3645L23.0938 20.06H23.2442C24.4534 20.06 24.999 19.0167 24.999 17.9783V9.64981C24.999 8.61383 24.4534 7.86328 23.2442 7.86328Z" fill="black"/>
<path d="M18.5093 2.63477H2.94529C1.57592 2.63477 0 3.85126 0 5.02385V14.4566C0 15.5365 1.33522 16.3163 2.61596 16.4366L1.78246 19.6007L7.12334 16.4586H18.5093C19.8787 16.4586 21.1423 15.6284 21.1423 14.4566V6.82501V5.02385C21.1423 3.85126 19.8779 2.63477 18.5093 2.63477ZM5.31974 10.5973C4.54316 10.5973 3.91377 9.9679 3.91377 9.19133C3.91377 8.41476 4.54316 7.78536 5.31974 7.78536C6.0955 7.78536 6.7257 8.41476 6.7257 9.19133C6.7257 9.9679 6.0955 10.5973 5.31974 10.5973ZM10.5712 10.5973C9.79459 10.5973 9.1652 9.9679 9.1652 9.19133C9.1652 8.41476 9.79459 7.78536 10.5712 7.78536C11.3477 7.78536 11.9771 8.41476 11.9771 9.19133C11.9771 9.9679 11.3477 10.5973 10.5712 10.5973ZM15.8234 10.5973C15.0468 10.5973 14.4166 9.9679 14.4166 9.19133C14.4166 8.41476 15.0468 7.78536 15.8234 7.78536C16.5984 7.78536 17.2294 8.41476 17.2294 9.19133C17.2294 9.9679 16.5984 10.5973 15.8234 10.5973Z" fill="black"/>
</g>
<defs>
<clipPath id="clip0_1461_2180">
<rect width="24.9992" height="25" fill="white"/>
</clipPath>
</defs>
</svg>
