<svg width="31" height="31" viewBox="0 0 31 31" fill="none" xmlns="http://www.w3.org/2000/svg">
<g clip-path="url(#clip0_1459_636)">
<path d="M8.62666 4.14258C12.6194 4.14258 15.5017 7.43889 15.5016 12.3196C15.476 19.411 10.145 24.4249 2.4543 25.3877C1.74079 25.4771 1.46566 24.4887 2.12272 24.1965C5.07371 22.8843 6.56411 21.2192 6.75661 19.5711C6.90044 18.3398 6.23107 17.2612 5.39057 17.0592C3.21159 16.5356 1.75166 13.8221 1.75166 11.0176C1.75166 7.22062 4.8297 4.14258 8.62666 4.14258Z" fill="#BFF747"/>
<path d="M23.6267 4.14258C27.6194 4.14258 30.5017 7.43889 30.5016 12.3196C30.476 19.411 25.145 24.4249 17.4543 25.3877C16.7408 25.4771 16.4657 24.4887 17.1227 24.1965C20.0737 22.8843 21.5641 21.2192 21.7566 19.5711C21.9004 18.3398 21.2311 17.2612 20.3906 17.0592C18.2116 16.5356 16.7517 13.8221 16.7517 11.0176C16.7517 7.22062 19.8297 4.14258 23.6267 4.14258Z" fill="#BFF747"/>
</g>
<defs>
<clipPath id="clip0_1459_636">
<rect width="30" height="30" fill="white" transform="translate(0.5 0.392578)"/>
</clipPath>
</defs>
</svg>
