<svg width="114" height="16" viewBox="0 0 114 16" fill="none" xmlns="http://www.w3.org/2000/svg">
<path d="M17.5977 4.7168C17.5781 4.80794 17.5358 4.87956 17.4707 4.93164C17.4056 4.98372 17.334 5.00977 17.2559 5.00977C17.1387 5.00977 17.0443 4.97396 16.9727 4.90234C16.901 4.82422 16.8652 4.73633 16.8652 4.63867C16.8652 4.54102 16.875 4.44661 16.8945 4.35547C16.9141 4.25781 16.9238 4.16341 16.9238 4.07227C16.9238 3.59701 16.7773 3.17057 16.4844 2.79297C16.1914 2.41536 15.7747 2.09961 15.2344 1.8457C14.7005 1.58529 14.0495 1.38672 13.2812 1.25C12.513 1.11328 11.6569 1.04492 10.7129 1.04492C9.99023 1.04492 9.26107 1.09375 8.52539 1.19141C7.79622 1.28255 7.0931 1.41927 6.41602 1.60156C5.74544 1.77734 5.11719 2.00195 4.53125 2.27539C3.94531 2.54232 3.43424 2.85482 2.99805 3.21289C2.56836 3.56445 2.22982 3.95833 1.98242 4.39453C1.73503 4.82422 1.61133 5.29622 1.61133 5.81055C1.61133 6.20768 1.69596 6.55924 1.86523 6.86523C2.04102 7.16471 2.27865 7.42839 2.57812 7.65625C2.8776 7.8776 3.22917 8.06966 3.63281 8.23242C4.04297 8.38867 4.48568 8.52214 4.96094 8.63281C5.4362 8.73698 5.93099 8.82487 6.44531 8.89648C6.95964 8.96159 7.47721 9.01693 7.99805 9.0625L9.50195 9.18945C10.2507 9.25456 10.9212 9.32292 11.5137 9.39453C12.1061 9.46615 12.627 9.55729 13.0762 9.66797C13.8249 9.85677 14.3783 10.127 14.7363 10.4785C15.0944 10.8301 15.2734 11.2988 15.2734 11.8848C15.2734 12.4512 15.1172 12.9492 14.8047 13.3789C14.4922 13.8086 14.0658 14.1699 13.5254 14.4629C12.985 14.7559 12.3535 14.9772 11.6309 15.127C10.9082 15.2767 10.1335 15.3516 9.30664 15.3516C8.4082 15.3516 7.61719 15.2897 6.93359 15.166C6.25651 15.0488 5.68685 14.9186 5.22461 14.7754C4.76888 14.6257 4.42057 14.4889 4.17969 14.3652C3.9388 14.2415 3.80859 14.1732 3.78906 14.1602C3.67188 14.0951 3.61328 13.9909 3.61328 13.8477C3.61328 13.737 3.65234 13.6491 3.73047 13.584C3.80859 13.5124 3.89323 13.4766 3.98438 13.4766C4.05599 13.4766 4.12109 13.4961 4.17969 13.5352C4.1862 13.5352 4.29688 13.5938 4.51172 13.7109C4.73307 13.8216 5.05859 13.9453 5.48828 14.082C5.92448 14.2188 6.46159 14.3424 7.09961 14.4531C7.73763 14.5638 8.47982 14.6191 9.32617 14.6191C10.166 14.6191 10.9082 14.5508 11.5527 14.4141C12.1973 14.2773 12.7376 14.0885 13.1738 13.8477C13.6165 13.6003 13.9486 13.3138 14.1699 12.9883C14.3978 12.6562 14.5117 12.2982 14.5117 11.9141C14.5117 11.6862 14.4694 11.4909 14.3848 11.3281C14.3066 11.1589 14.196 11.0156 14.0527 10.8984C13.9095 10.7747 13.737 10.6706 13.5352 10.5859C13.3398 10.5013 13.125 10.4297 12.8906 10.3711C12.6432 10.306 12.3763 10.2507 12.0898 10.2051C11.8099 10.1595 11.5202 10.1204 11.2207 10.0879C10.9212 10.0553 10.6185 10.026 10.3125 10C10.013 9.97396 9.7168 9.94792 9.42383 9.92188L7.91992 9.79492C6.73503 9.69727 5.69987 9.54753 4.81445 9.3457C3.93555 9.13737 3.20312 8.8737 2.61719 8.55469C2.03125 8.22917 1.5918 7.8418 1.29883 7.39258C1.00586 6.94336 0.859375 6.41927 0.859375 5.82031C0.859375 5.20833 0.996094 4.64844 1.26953 4.14062C1.54948 3.6263 1.92708 3.16406 2.40234 2.75391C2.88411 2.34375 3.44401 1.98893 4.08203 1.68945C4.72656 1.38346 5.41341 1.12956 6.14258 0.927734C6.87174 0.725911 7.62695 0.576172 8.4082 0.478516C9.18945 0.374349 9.95768 0.322266 10.7129 0.322266C11.6569 0.322266 12.4772 0.380859 13.1738 0.498047C13.877 0.608724 14.4759 0.755208 14.9707 0.9375C15.472 1.11328 15.8822 1.3151 16.2012 1.54297C16.5202 1.77083 16.7773 1.99544 16.9727 2.2168C17.4349 2.75716 17.666 3.3724 17.666 4.0625C17.666 4.29036 17.6432 4.50846 17.5977 4.7168ZM24.2285 12.2461C24.2025 12.2982 24.1471 12.4089 24.0625 12.5781C23.9844 12.7409 23.8802 12.9297 23.75 13.1445C23.6263 13.3594 23.4798 13.584 23.3105 13.8184C23.1413 14.0527 22.9525 14.2676 22.7441 14.4629C22.5358 14.6582 22.3112 14.821 22.0703 14.9512C21.8294 15.0749 21.5755 15.1367 21.3086 15.1367C20.931 15.1367 20.612 15.0163 20.3516 14.7754C20.0977 14.5345 19.9121 14.2318 19.7949 13.8672C19.5736 14.2383 19.3099 14.5345 19.0039 14.7559C18.6979 14.9707 18.3919 15.0781 18.0859 15.0781C17.8451 15.0781 17.627 15.0358 17.4316 14.9512C17.2363 14.86 17.0703 14.7363 16.9336 14.5801C16.7969 14.4173 16.6895 14.2285 16.6113 14.0137C16.5397 13.7988 16.5039 13.5645 16.5039 13.3105C16.5039 12.8027 16.5885 12.3568 16.7578 11.9727C16.9336 11.582 17.1549 11.2565 17.4219 10.9961C17.6888 10.7357 17.9818 10.5404 18.3008 10.4102C18.6263 10.2799 18.9388 10.2148 19.2383 10.2148C19.4401 10.2148 19.6257 10.2441 19.7949 10.3027C19.9642 10.3548 20.1074 10.4134 20.2246 10.4785C20.3483 10.5436 20.4427 10.6055 20.5078 10.6641C20.5729 10.7161 20.6087 10.7454 20.6152 10.752C20.6868 10.8366 20.7227 10.9245 20.7227 11.0156C20.7227 11.1133 20.6868 11.2012 20.6152 11.2793C20.5436 11.3509 20.459 11.3867 20.3613 11.3867C20.2572 11.3867 20.1693 11.3509 20.0977 11.2793C20.0846 11.2663 20.0553 11.2435 20.0098 11.2109C19.9642 11.1719 19.9023 11.1328 19.8242 11.0938C19.7461 11.0547 19.6517 11.0221 19.541 10.9961C19.4368 10.9635 19.3164 10.9473 19.1797 10.9473C18.9779 10.9473 18.763 10.9928 18.5352 11.084C18.3073 11.1751 18.099 11.3184 17.9102 11.5137C17.7214 11.7025 17.5618 11.9434 17.4316 12.2363C17.3079 12.5228 17.2461 12.8646 17.2461 13.2617C17.2461 13.3854 17.2591 13.5124 17.2852 13.6426C17.3112 13.7663 17.3568 13.8802 17.4219 13.9844C17.487 14.0885 17.5749 14.1732 17.6855 14.2383C17.7962 14.3034 17.9329 14.3359 18.0957 14.3359C18.2129 14.3359 18.3464 14.2969 18.4961 14.2188C18.6523 14.1406 18.7988 14.0202 18.9355 13.8574C19.0788 13.6947 19.2057 13.4896 19.3164 13.2422C19.4336 12.9948 19.515 12.7018 19.5605 12.3633C19.5736 12.2721 19.6159 12.1973 19.6875 12.1387C19.7591 12.0736 19.8438 12.041 19.9414 12.041C20.0326 12.041 20.1107 12.0768 20.1758 12.1484C20.2474 12.2201 20.2865 12.3014 20.293 12.3926C20.2995 12.5163 20.3125 12.6921 20.332 12.9199C20.3516 13.1413 20.3939 13.3626 20.459 13.584C20.5306 13.8053 20.6348 13.9974 20.7715 14.1602C20.9082 14.3229 21.097 14.4043 21.3379 14.4043C21.4941 14.4043 21.6471 14.362 21.7969 14.2773C21.9531 14.1927 22.1029 14.082 22.2461 13.9453C22.3958 13.8021 22.5358 13.6426 22.666 13.4668C22.8027 13.2845 22.9264 13.1022 23.0371 12.9199C23.1478 12.7376 23.2454 12.5618 23.3301 12.3926C23.4147 12.2233 23.4863 12.0768 23.5449 11.9531C23.5775 11.8815 23.623 11.8262 23.6816 11.7871C23.7467 11.748 23.8151 11.7285 23.8867 11.7285C23.9974 11.7285 24.0853 11.7708 24.1504 11.8555C24.222 11.9336 24.2578 12.0182 24.2578 12.1094C24.2578 12.1549 24.248 12.2005 24.2285 12.2461ZM24.5801 10.957C24.554 11.1328 24.5215 11.2988 24.4824 11.4551C24.4434 11.6048 24.4043 11.7383 24.3652 11.8555C24.3327 11.9661 24.3034 12.0573 24.2773 12.1289C24.2513 12.2005 24.235 12.2396 24.2285 12.2461C24.1634 12.3958 24.0495 12.4707 23.8867 12.4707C23.7956 12.4707 23.7109 12.4382 23.6328 12.373C23.5547 12.3014 23.5156 12.2135 23.5156 12.1094C23.5156 12.0703 23.5221 12.041 23.5352 12.0215C23.5482 12.002 23.5677 11.9629 23.5938 11.9043C23.6198 11.8457 23.6523 11.748 23.6914 11.6113C23.7305 11.4746 23.7793 11.263 23.8379 10.9766C23.7272 10.9766 23.6133 10.9733 23.4961 10.9668C23.3789 10.9603 23.2715 10.9375 23.1738 10.8984C23.0697 10.8594 22.985 10.7975 22.9199 10.7129C22.8548 10.6283 22.8223 10.5111 22.8223 10.3613C22.8223 10.2507 22.8548 10.1009 22.9199 9.91211C22.9785 9.72331 23.0599 9.53776 23.1641 9.35547C23.2682 9.17318 23.3854 9.01693 23.5156 8.88672C23.6458 8.75 23.776 8.68164 23.9062 8.68164C24.056 8.68164 24.1764 8.73698 24.2676 8.84766C24.3652 8.95833 24.4401 9.09505 24.4922 9.25781C24.5443 9.41406 24.5801 9.58008 24.5996 9.75586C24.6257 9.93164 24.6387 10.0846 24.6387 10.2148C24.7493 10.2148 24.8568 10.2148 24.9609 10.2148C25.0716 10.2083 25.1758 10.2051 25.2734 10.2051C25.6445 10.2051 25.9277 10.2865 26.123 10.4492C26.3184 10.612 26.416 10.8789 26.416 11.25C26.416 11.3997 26.4062 11.556 26.3867 11.7188C26.3672 11.8815 26.3444 12.0508 26.3184 12.2266C26.2923 12.3958 26.2695 12.5651 26.25 12.7344C26.2305 12.9036 26.2207 13.0697 26.2207 13.2324C26.2207 13.4668 26.2533 13.6621 26.3184 13.8184C26.3835 13.9681 26.4648 14.0885 26.5625 14.1797C26.6602 14.2708 26.7643 14.3359 26.875 14.375C26.9857 14.4076 27.0866 14.4238 27.1777 14.4238C27.4577 14.4238 27.7214 14.3327 27.9688 14.1504C28.2161 13.9681 28.444 13.75 28.6523 13.4961C28.8607 13.2357 29.0462 12.9622 29.209 12.6758C29.3783 12.3893 29.5182 12.1387 29.6289 11.9238C29.6615 11.8652 29.707 11.8197 29.7656 11.7871C29.8242 11.7546 29.8861 11.7383 29.9512 11.7383C30.0684 11.7383 30.1595 11.7773 30.2246 11.8555C30.2897 11.9271 30.3223 12.0085 30.3223 12.0996C30.3223 12.1647 30.3092 12.2233 30.2832 12.2754C30.1335 12.5423 29.9577 12.8451 29.7559 13.1836C29.5605 13.5156 29.3359 13.8281 29.082 14.1211C28.8281 14.4141 28.5417 14.6615 28.2227 14.8633C27.9102 15.0651 27.5651 15.166 27.1875 15.166C26.9531 15.166 26.7318 15.1204 26.5234 15.0293C26.3151 14.9447 26.1328 14.821 25.9766 14.6582C25.8268 14.4889 25.7064 14.2839 25.6152 14.043C25.5241 13.7956 25.4785 13.5189 25.4785 13.2129C25.4785 12.8874 25.5111 12.5651 25.5762 12.2461C25.6413 11.9206 25.6738 11.6113 25.6738 11.3184C25.6738 11.1947 25.6445 11.1035 25.5859 11.0449C25.5339 10.9798 25.4134 10.9473 25.2246 10.9473C25.1335 10.9473 25.0326 10.9473 24.9219 10.9473C24.8177 10.9473 24.7038 10.9505 24.5801 10.957ZM23.9258 10.2344C23.9258 10.1888 23.9225 10.1302 23.916 10.0586C23.916 9.98047 23.9095 9.9056 23.8965 9.83398C23.89 9.76237 23.877 9.70052 23.8574 9.64844C23.8444 9.59635 23.8281 9.57031 23.8086 9.57031C23.7891 9.57031 23.763 9.59635 23.7305 9.64844C23.7044 9.69401 23.6751 9.7526 23.6426 9.82422C23.61 9.88932 23.5807 9.96094 23.5547 10.0391C23.5286 10.1172 23.5091 10.1823 23.4961 10.2344H23.9258ZM37.1777 12.2461C37.1517 12.2982 37.0964 12.4089 37.0117 12.5781C36.9336 12.7409 36.8294 12.9297 36.6992 13.1445C36.5755 13.3594 36.429 13.584 36.2598 13.8184C36.0905 14.0527 35.9017 14.2676 35.6934 14.4629C35.485 14.6582 35.2604 14.821 35.0195 14.9512C34.7786 15.0749 34.5247 15.1367 34.2578 15.1367C33.8802 15.1367 33.5612 15.0163 33.3008 14.7754C33.0469 14.5345 32.8613 14.2318 32.7441 13.8672C32.5228 14.2383 32.2591 14.5345 31.9531 14.7559C31.6471 14.9707 31.3411 15.0781 31.0352 15.0781C30.7943 15.0781 30.5762 15.0358 30.3809 14.9512C30.1855 14.86 30.0195 14.7363 29.8828 14.5801C29.7461 14.4173 29.6387 14.2285 29.5605 14.0137C29.4889 13.7988 29.4531 13.5645 29.4531 13.3105C29.4531 12.8027 29.5378 12.3568 29.707 11.9727C29.8828 11.582 30.1042 11.2565 30.3711 10.9961C30.638 10.7357 30.931 10.5404 31.25 10.4102C31.5755 10.2799 31.888 10.2148 32.1875 10.2148C32.3893 10.2148 32.5749 10.2441 32.7441 10.3027C32.9134 10.3548 33.0566 10.4134 33.1738 10.4785C33.2975 10.5436 33.3919 10.6055 33.457 10.6641C33.5221 10.7161 33.5579 10.7454 33.5645 10.752C33.6361 10.8366 33.6719 10.9245 33.6719 11.0156C33.6719 11.1133 33.6361 11.2012 33.5645 11.2793C33.4928 11.3509 33.4082 11.3867 33.3105 11.3867C33.2064 11.3867 33.1185 11.3509 33.0469 11.2793C33.0339 11.2663 33.0046 11.2435 32.959 11.2109C32.9134 11.1719 32.8516 11.1328 32.7734 11.0938C32.6953 11.0547 32.6009 11.0221 32.4902 10.9961C32.3861 10.9635 32.2656 10.9473 32.1289 10.9473C31.9271 10.9473 31.7122 10.9928 31.4844 11.084C31.2565 11.1751 31.0482 11.3184 30.8594 11.5137C30.6706 11.7025 30.5111 11.9434 30.3809 12.2363C30.2572 12.5228 30.1953 12.8646 30.1953 13.2617C30.1953 13.3854 30.2083 13.5124 30.2344 13.6426C30.2604 13.7663 30.306 13.8802 30.3711 13.9844C30.4362 14.0885 30.5241 14.1732 30.6348 14.2383C30.7454 14.3034 30.8822 14.3359 31.0449 14.3359C31.1621 14.3359 31.2956 14.2969 31.4453 14.2188C31.6016 14.1406 31.748 14.0202 31.8848 13.8574C32.028 13.6947 32.1549 13.4896 32.2656 13.2422C32.3828 12.9948 32.4642 12.7018 32.5098 12.3633C32.5228 12.2721 32.5651 12.1973 32.6367 12.1387C32.7083 12.0736 32.793 12.041 32.8906 12.041C32.9818 12.041 33.0599 12.0768 33.125 12.1484C33.1966 12.2201 33.2357 12.3014 33.2422 12.3926C33.2487 12.5163 33.2617 12.6921 33.2812 12.9199C33.3008 13.1413 33.3431 13.3626 33.4082 13.584C33.4798 13.8053 33.584 13.9974 33.7207 14.1602C33.8574 14.3229 34.0462 14.4043 34.2871 14.4043C34.4434 14.4043 34.5964 14.362 34.7461 14.2773C34.9023 14.1927 35.0521 14.082 35.1953 13.9453C35.3451 13.8021 35.485 13.6426 35.6152 13.4668C35.752 13.2845 35.8757 13.1022 35.9863 12.9199C36.097 12.7376 36.1947 12.5618 36.2793 12.3926C36.3639 12.2233 36.4355 12.0768 36.4941 11.9531C36.5267 11.8815 36.5723 11.8262 36.6309 11.7871C36.696 11.748 36.7643 11.7285 36.8359 11.7285C36.9466 11.7285 37.0345 11.7708 37.0996 11.8555C37.1712 11.9336 37.207 12.0182 37.207 12.1094C37.207 12.1549 37.1973 12.2005 37.1777 12.2461ZM37.2754 14.1406C37.3796 13.9193 37.5 13.6816 37.6367 13.4277C37.7734 13.1673 37.9199 12.9036 38.0762 12.6367C38.2324 12.3633 38.3984 12.0931 38.5742 11.8262C38.75 11.5592 38.9323 11.3086 39.1211 11.0742C39.3099 10.8464 39.4987 10.6836 39.6875 10.5859C39.8828 10.4818 40.0651 10.4297 40.2344 10.4297C40.4036 10.4297 40.5501 10.4655 40.6738 10.5371C40.804 10.6022 40.9082 10.6934 40.9863 10.8105C41.071 10.9277 41.1328 11.0645 41.1719 11.2207C41.2174 11.377 41.2402 11.5462 41.2402 11.7285C41.2402 11.8783 41.224 12.0801 41.1914 12.334C41.1654 12.5814 41.1523 12.8418 41.1523 13.1152C41.1523 13.2715 41.1589 13.4277 41.1719 13.584C41.1914 13.7337 41.2207 13.8704 41.2598 13.9941C41.3053 14.1113 41.3704 14.209 41.4551 14.2871C41.5397 14.3587 41.6504 14.3945 41.7871 14.3945C41.9434 14.3945 42.0996 14.3522 42.2559 14.2676C42.4121 14.1764 42.5651 14.0592 42.7148 13.916C42.8646 13.7663 43.0078 13.6035 43.1445 13.4277C43.2812 13.2454 43.4049 13.0664 43.5156 12.8906C43.6263 12.7083 43.724 12.5358 43.8086 12.373C43.8932 12.2038 43.9616 12.0638 44.0137 11.9531C44.0788 11.8034 44.1927 11.7285 44.3555 11.7285C44.4661 11.7285 44.554 11.7676 44.6191 11.8457C44.6842 11.9238 44.7168 12.0085 44.7168 12.0996C44.7168 12.1517 44.707 12.2005 44.6875 12.2461C44.6615 12.2982 44.6094 12.4056 44.5312 12.5684C44.4596 12.7311 44.3587 12.9199 44.2285 13.1348C44.1048 13.3496 43.9583 13.5742 43.7891 13.8086C43.6198 14.043 43.431 14.2611 43.2227 14.4629C43.0208 14.6582 42.7995 14.821 42.5586 14.9512C42.3242 15.0749 42.0768 15.1367 41.8164 15.1367C41.5169 15.1367 41.276 15.0749 41.0938 14.9512C40.9115 14.821 40.7682 14.6582 40.6641 14.4629C40.5664 14.2676 40.498 14.0495 40.459 13.8086C40.4264 13.5677 40.4102 13.3333 40.4102 13.1055C40.4102 12.9883 40.4134 12.8646 40.4199 12.7344C40.4329 12.5977 40.446 12.4642 40.459 12.334C40.472 12.2038 40.4818 12.0833 40.4883 11.9727C40.5013 11.8555 40.5078 11.7578 40.5078 11.6797C40.5078 11.4779 40.4785 11.3411 40.4199 11.2695C40.3678 11.1979 40.306 11.1621 40.2344 11.1621C40.1302 11.1621 40.0098 11.224 39.873 11.3477C39.7428 11.4648 39.6029 11.6211 39.4531 11.8164C39.3099 12.0117 39.1634 12.2331 39.0137 12.4805C38.8704 12.7214 38.7305 12.9622 38.5938 13.2031C38.457 13.444 38.3333 13.6751 38.2227 13.8965C38.112 14.1113 38.0208 14.2904 37.9492 14.4336C37.8125 14.707 37.6725 14.8893 37.5293 14.9805C37.3926 15.0781 37.2689 15.127 37.1582 15.127C36.9564 15.127 36.8001 15.0488 36.6895 14.8926C36.5853 14.7298 36.5332 14.5345 36.5332 14.3066V13.6914C36.5332 12.4609 36.5332 11.2891 36.5332 10.1758C36.5397 9.05599 36.556 8.01758 36.582 7.06055C36.6146 6.09701 36.6634 5.22786 36.7285 4.45312C36.8001 3.67188 36.9043 3.00781 37.041 2.46094C37.1777 1.90755 37.3503 1.48112 37.5586 1.18164C37.7734 0.882161 38.0404 0.732422 38.3594 0.732422C38.6328 0.732422 38.8639 0.807292 39.0527 0.957031C39.2415 1.10677 39.3945 1.31185 39.5117 1.57227C39.6289 1.82617 39.7135 2.12565 39.7656 2.4707C39.8177 2.80924 39.8438 3.16732 39.8438 3.54492C39.8438 4.31315 39.7721 5.06836 39.6289 5.81055C39.4922 6.54622 39.3066 7.26562 39.0723 7.96875C38.8379 8.67188 38.5645 9.35872 38.252 10.0293C37.9395 10.6934 37.6107 11.3411 37.2656 11.9727C37.2656 12.0898 37.2656 12.2298 37.2656 12.3926C37.2656 12.5553 37.2656 12.7181 37.2656 12.8809C37.2656 13.0436 37.2656 13.1966 37.2656 13.3398C37.2656 13.4831 37.2656 13.597 37.2656 13.6816L37.2754 14.1406ZM37.2754 10.5371C37.5488 9.93815 37.7962 9.35547 38.0176 8.78906C38.2454 8.21615 38.4375 7.64648 38.5938 7.08008C38.7565 6.51367 38.8835 5.94076 38.9746 5.36133C39.0658 4.77539 39.1113 4.16667 39.1113 3.53516C39.1113 3.43099 39.1048 3.26497 39.0918 3.03711C39.0853 2.80924 39.056 2.57812 39.0039 2.34375C38.9583 2.10938 38.8835 1.9043 38.7793 1.72852C38.6816 1.55273 38.5417 1.46484 38.3594 1.46484C38.2161 1.46484 38.0924 1.5625 37.9883 1.75781C37.8841 1.94661 37.793 2.20703 37.7148 2.53906C37.6367 2.86458 37.5716 3.24544 37.5195 3.68164C37.4674 4.11784 37.4251 4.58008 37.3926 5.06836C37.36 5.55664 37.334 6.05794 37.3145 6.57227C37.3014 7.08659 37.2917 7.58789 37.2852 8.07617C37.2786 8.55794 37.2754 9.01042 37.2754 9.43359C37.2754 9.85677 37.2754 10.2246 37.2754 10.5371ZM71.3086 2.39258C71.0286 2.80273 70.7161 3.29427 70.3711 3.86719C70.026 4.4401 69.6582 5.08138 69.2676 5.79102C68.9355 6.38346 68.6068 7.01497 68.2812 7.68555C67.9622 8.34961 67.6562 9.01042 67.3633 9.66797C67.0703 10.319 66.8001 10.9473 66.5527 11.5527C66.3053 12.1517 66.0905 12.6823 65.9082 13.1445C65.7259 13.6003 65.5827 13.9681 65.4785 14.248C65.3743 14.5215 65.3223 14.6615 65.3223 14.668C65.2572 14.8307 65.14 14.9121 64.9707 14.9121C64.8861 14.9121 64.8112 14.8861 64.7461 14.834C64.681 14.7754 64.6387 14.7038 64.6191 14.6191C64.6191 14.6126 64.5866 14.4759 64.5215 14.209C64.4629 13.9355 64.3815 13.5742 64.2773 13.125C64.1732 12.6693 64.0527 12.1484 63.916 11.5625C63.7858 10.9701 63.6458 10.3548 63.4961 9.7168C63.3529 9.07227 63.2064 8.42122 63.0566 7.76367C62.9069 7.10612 62.7669 6.48112 62.6367 5.88867C62.2005 7.11914 61.7611 8.20964 61.3184 9.16016C60.8822 10.1042 60.4329 10.9277 59.9707 11.6309C59.5085 12.3275 59.0299 12.9134 58.5352 13.3887C58.0469 13.8639 57.5326 14.248 56.9922 14.541C56.4583 14.8275 55.8952 15.0326 55.3027 15.1562C54.7168 15.2799 54.0951 15.3418 53.4375 15.3418C53.099 15.3418 52.7376 15.3027 52.3535 15.2246C51.9694 15.153 51.5885 15.0391 51.2109 14.8828C50.8333 14.7266 50.472 14.5312 50.127 14.2969C49.7819 14.0625 49.4759 13.7858 49.209 13.4668C48.9421 13.1413 48.7305 12.7767 48.5742 12.373C48.418 11.9629 48.3398 11.5072 48.3398 11.0059C48.3398 10.4785 48.4505 9.99674 48.6719 9.56055C48.8932 9.11784 49.1927 8.74023 49.5703 8.42773C49.9479 8.10872 50.3841 7.86133 50.8789 7.68555C51.3802 7.50977 51.9076 7.42188 52.4609 7.42188C52.8646 7.42188 53.2259 7.45768 53.5449 7.5293C53.8704 7.5944 54.1569 7.67904 54.4043 7.7832C54.6517 7.88737 54.8633 8.0013 55.0391 8.125C55.2148 8.2487 55.3613 8.36263 55.4785 8.4668C55.5957 8.57096 55.6803 8.66211 55.7324 8.74023C55.7845 8.81185 55.8138 8.84766 55.8203 8.84766C55.8594 8.91927 55.8789 8.98763 55.8789 9.05273C55.8789 9.14388 55.8431 9.22852 55.7715 9.30664C55.7064 9.38477 55.6185 9.42383 55.5078 9.42383C55.3776 9.42383 55.2734 9.36849 55.1953 9.25781C55.1888 9.2513 55.1367 9.19271 55.0391 9.08203C54.9414 8.96484 54.7819 8.83789 54.5605 8.70117C54.3392 8.56445 54.0527 8.44076 53.7012 8.33008C53.3561 8.2194 52.9329 8.16406 52.4316 8.16406C51.9759 8.16406 51.543 8.23568 51.1328 8.37891C50.7292 8.51562 50.3743 8.71094 50.0684 8.96484C49.7689 9.21875 49.528 9.52148 49.3457 9.87305C49.1699 10.2181 49.082 10.599 49.082 11.0156C49.082 11.4258 49.1504 11.8001 49.2871 12.1387C49.4238 12.4772 49.6061 12.7799 49.834 13.0469C50.0618 13.3138 50.3255 13.5449 50.625 13.7402C50.9245 13.9355 51.237 14.0983 51.5625 14.2285C51.888 14.3522 52.2135 14.4466 52.5391 14.5117C52.8711 14.5703 53.1836 14.5996 53.4766 14.5996C53.9714 14.5996 54.4531 14.5638 54.9219 14.4922C55.3971 14.4141 55.8626 14.2708 56.3184 14.0625C56.7806 13.8542 57.2331 13.5677 57.6758 13.2031C58.1185 12.8385 58.5579 12.3633 58.9941 11.7773C59.4303 11.1914 59.86 10.485 60.2832 9.6582C60.7129 8.83138 61.1426 7.85482 61.5723 6.72852C61.7025 6.38997 61.8294 6.02539 61.9531 5.63477C62.0768 5.24414 62.2038 4.85026 62.334 4.45312C62.2233 3.88021 62.1419 3.39193 62.0898 2.98828C62.0443 2.58464 62.0215 2.24935 62.0215 1.98242C62.0215 1.69596 62.0443 1.4681 62.0898 1.29883C62.1354 1.12956 62.194 1.0026 62.2656 0.917969C62.3372 0.826823 62.4154 0.771484 62.5 0.751953C62.5846 0.725911 62.666 0.712891 62.7441 0.712891C62.8092 0.712891 62.8809 0.725911 62.959 0.751953C63.0436 0.777995 63.1185 0.836589 63.1836 0.927734C63.2552 1.01237 63.3138 1.13932 63.3594 1.30859C63.4049 1.47786 63.4277 1.70573 63.4277 1.99219C63.4277 2.30469 63.3984 2.66602 63.3398 3.07617C63.2812 3.48633 63.1934 3.9388 63.0762 4.43359C63.1608 4.83073 63.2585 5.27344 63.3691 5.76172C63.4798 6.25 63.5938 6.75781 63.7109 7.28516C63.8281 7.80599 63.9486 8.33984 64.0723 8.88672C64.196 9.43359 64.3164 9.96745 64.4336 10.4883C64.5508 11.0091 64.6615 11.5072 64.7656 11.9824C64.8763 12.4577 64.9772 12.8874 65.0684 13.2715C65.2441 12.8288 65.459 12.2949 65.7129 11.6699C65.9668 11.0384 66.25 10.3711 66.5625 9.66797C66.875 8.95833 67.2038 8.23893 67.5488 7.50977C67.9004 6.77409 68.2585 6.08073 68.623 5.42969C69.1374 4.50521 69.6094 3.71419 70.0391 3.05664C70.4688 2.39258 70.8398 1.8457 71.1523 1.41602C71.4648 0.986328 71.709 0.670573 71.8848 0.46875C72.0671 0.260417 72.1647 0.146484 72.1777 0.126953C72.2493 0.0553385 72.3372 0.0195312 72.4414 0.0195312C72.5521 0.0195312 72.64 0.0585938 72.7051 0.136719C72.7767 0.208333 72.8125 0.292969 72.8125 0.390625C72.8125 0.436198 72.8027 0.481771 72.7832 0.527344C72.7832 0.533854 72.7441 0.63151 72.666 0.820312C72.5944 1.0026 72.5 1.25651 72.3828 1.58203C72.2721 1.90104 72.1484 2.27865 72.0117 2.71484C71.875 3.14453 71.7415 3.61003 71.6113 4.11133C71.4811 4.60612 71.3639 5.12695 71.2598 5.67383C71.1621 6.21419 71.0905 6.75456 71.0449 7.29492C71.0254 7.54232 71.0091 7.80273 70.9961 8.07617C70.9831 8.3431 70.9766 8.61328 70.9766 8.88672C70.9766 9.31641 70.9961 9.74935 71.0352 10.1855C71.0742 10.6217 71.1393 11.0417 71.2305 11.4453C71.3216 11.849 71.4453 12.2298 71.6016 12.5879C71.7578 12.9395 71.9499 13.2487 72.1777 13.5156C72.4056 13.7826 72.6758 13.9974 72.9883 14.1602C73.3073 14.3229 73.6751 14.4108 74.0918 14.4238C74.196 14.4303 74.2773 14.4759 74.3359 14.5605C74.401 14.6387 74.4336 14.7233 74.4336 14.8145C74.4336 14.9056 74.3978 14.987 74.3262 15.0586C74.2546 15.1302 74.1699 15.166 74.0723 15.166C73.9681 15.166 73.8639 15.1562 73.7598 15.1367C73.291 15.0716 72.8776 14.9382 72.5195 14.7363C72.1615 14.528 71.8522 14.2741 71.5918 13.9746C71.3314 13.6686 71.1133 13.3236 70.9375 12.9395C70.7682 12.5488 70.6315 12.1322 70.5273 11.6895C70.4232 11.2467 70.3483 10.7878 70.3027 10.3125C70.2637 9.83073 70.2441 9.3457 70.2441 8.85742C70.2441 8.27799 70.2734 7.69857 70.332 7.11914C70.3906 6.53971 70.4688 5.97656 70.5664 5.42969C70.6641 4.8763 70.778 4.34245 70.9082 3.82812C71.0384 3.3138 71.1719 2.83529 71.3086 2.39258ZM76.5918 7.30469C76.5918 7.55208 76.5039 7.76367 76.3281 7.93945C76.1589 8.10872 75.9505 8.19336 75.7031 8.19336C75.4557 8.19336 75.2441 8.10872 75.0684 7.93945C74.8991 7.76367 74.8145 7.55208 74.8145 7.30469C74.8145 7.18099 74.8372 7.06706 74.8828 6.96289C74.9284 6.85221 74.9902 6.75781 75.0684 6.67969C75.153 6.59505 75.2474 6.52995 75.3516 6.48438C75.4622 6.4388 75.5794 6.41602 75.7031 6.41602C75.8268 6.41602 75.9408 6.4388 76.0449 6.48438C76.1556 6.52995 76.25 6.59505 76.3281 6.67969C76.4128 6.75781 76.4779 6.85221 76.5234 6.96289C76.569 7.06706 76.5918 7.18099 76.5918 7.30469ZM75.0098 13.0273C75.0098 12.0898 75.0684 11.1556 75.1855 10.2246C75.1986 10.1335 75.2376 10.0553 75.3027 9.99023C75.3743 9.91862 75.4655 9.88281 75.5762 9.88281C75.6738 9.88281 75.7552 9.92188 75.8203 10C75.8854 10.0716 75.918 10.1562 75.918 10.2539C75.918 10.293 75.9082 10.4102 75.8887 10.6055C75.8757 10.8008 75.8561 11.0352 75.8301 11.3086C75.8105 11.5755 75.791 11.862 75.7715 12.168C75.7585 12.4674 75.752 12.7441 75.752 12.998C75.752 13.3431 75.7845 13.623 75.8496 13.8379C75.9212 14.0462 76.0091 14.209 76.1133 14.3262C76.224 14.4434 76.3379 14.5215 76.4551 14.5605C76.5788 14.5996 76.696 14.6191 76.8066 14.6191C76.9889 14.6191 77.1777 14.554 77.373 14.4238C77.5684 14.2936 77.7669 14.1113 77.9688 13.877C78.1771 13.6426 78.3854 13.3626 78.5938 13.0371C78.8021 12.7051 79.0072 12.3372 79.209 11.9336C79.2415 11.8685 79.2871 11.8197 79.3457 11.7871C79.4043 11.748 79.4694 11.7285 79.541 11.7285C79.6452 11.7285 79.7298 11.7676 79.7949 11.8457C79.8665 11.9238 79.9023 12.0085 79.9023 12.0996C79.9023 12.1647 79.8893 12.2201 79.8633 12.2656C79.7852 12.4154 79.6875 12.5977 79.5703 12.8125C79.4531 13.0273 79.3197 13.2487 79.1699 13.4766C79.0202 13.7044 78.8542 13.9323 78.6719 14.1602C78.4961 14.3815 78.3073 14.5833 78.1055 14.7656C77.9036 14.9414 77.6921 15.0846 77.4707 15.1953C77.2493 15.306 77.0247 15.3613 76.7969 15.3613C76.5039 15.3613 76.2467 15.2995 76.0254 15.1758C75.804 15.0521 75.6152 14.8861 75.459 14.6777C75.3092 14.4694 75.1953 14.2253 75.1172 13.9453C75.0456 13.6589 75.0098 13.3529 75.0098 13.0273ZM76.0449 7.30469C76.0449 7.21354 76.0091 7.13542 75.9375 7.07031C75.8724 6.9987 75.7943 6.96289 75.7031 6.96289C75.612 6.96289 75.5339 6.9987 75.4688 7.07031C75.4036 7.13542 75.3711 7.21354 75.3711 7.30469C75.3711 7.39583 75.4036 7.47396 75.4688 7.53906C75.5339 7.60417 75.612 7.63672 75.7031 7.63672C75.7943 7.63672 75.8724 7.60417 75.9375 7.53906C76.0091 7.47396 76.0449 7.39583 76.0449 7.30469ZM87.1094 5.19531C87.1094 5.29948 87.0736 5.38411 87.002 5.44922C86.9303 5.50781 86.8424 5.53711 86.7383 5.53711H81.7871V5.64453C81.7871 6.04167 81.7578 6.46484 81.6992 6.91406C81.6406 7.36328 81.5592 7.8125 81.4551 8.26172C81.3574 8.70443 81.2435 9.13737 81.1133 9.56055C80.9896 9.98372 80.8594 10.3743 80.7227 10.7324C80.5924 11.0905 80.4622 11.403 80.332 11.6699C80.2018 11.9303 80.0846 12.1257 79.9805 12.2559C80.0651 12.5553 80.166 12.8353 80.2832 13.0957C80.4004 13.3496 80.5306 13.5742 80.6738 13.7695C80.8236 13.9583 80.9831 14.1081 81.1523 14.2188C81.3216 14.3294 81.5039 14.3848 81.6992 14.3848C81.9271 14.3848 82.1517 14.2904 82.373 14.1016C82.6009 13.9062 82.8092 13.6784 82.998 13.418C83.1934 13.151 83.3626 12.8841 83.5059 12.6172C83.6556 12.3438 83.763 12.1257 83.8281 11.9629C83.8932 11.8066 84.0072 11.7285 84.1699 11.7285C84.2806 11.7285 84.3685 11.7676 84.4336 11.8457C84.5052 11.9238 84.541 12.0085 84.541 12.0996C84.541 12.1452 84.5312 12.1908 84.5117 12.2363C84.4922 12.2819 84.4434 12.3861 84.3652 12.5488C84.2936 12.7116 84.196 12.9004 84.0723 13.1152C83.9551 13.3301 83.8151 13.5579 83.6523 13.7988C83.4961 14.0332 83.3171 14.248 83.1152 14.4434C82.9199 14.6387 82.7083 14.8014 82.4805 14.9316C82.2526 15.0618 82.0117 15.127 81.7578 15.127C81.3086 15.127 80.9049 14.9805 80.5469 14.6875C80.1888 14.3945 79.8828 13.9844 79.6289 13.457C79.3815 12.9297 79.1927 12.3047 79.0625 11.582C78.9323 10.8594 78.8672 10.0684 78.8672 9.20898C78.8672 8.99414 78.8704 8.74349 78.877 8.45703C78.8835 8.16406 78.8965 7.85807 78.916 7.53906C78.9355 7.21354 78.9648 6.88151 79.0039 6.54297C79.043 6.19792 79.0951 5.86263 79.1602 5.53711H75.6543C75.5501 5.53711 75.4622 5.50781 75.3906 5.44922C75.319 5.38411 75.2832 5.29948 75.2832 5.19531C75.2832 5.09115 75.319 5.00977 75.3906 4.95117C75.4622 4.88607 75.5501 4.85352 75.6543 4.85352H79.3262C79.3913 4.61914 79.4661 4.4043 79.5508 4.20898C79.6419 4.01367 79.7428 3.8444 79.8535 3.70117C79.9707 3.55794 80.0977 3.44727 80.2344 3.36914C80.3776 3.28451 80.5339 3.24219 80.7031 3.24219C80.8659 3.24219 81.0059 3.28451 81.123 3.36914C81.2467 3.44727 81.3509 3.55794 81.4355 3.70117C81.5202 3.8444 81.5853 4.01367 81.6309 4.20898C81.6829 4.4043 81.722 4.61914 81.748 4.85352H86.7383C86.8424 4.85352 86.9303 4.88607 87.002 4.95117C87.0736 5.00977 87.1094 5.09115 87.1094 5.19531ZM79.7559 11.2793C79.9512 10.8496 80.127 10.3874 80.2832 9.89258C80.446 9.39128 80.5827 8.88672 80.6934 8.37891C80.8105 7.87109 80.8984 7.37305 80.957 6.88477C81.0221 6.39648 81.0547 5.94727 81.0547 5.53711H79.9023C79.8112 5.94076 79.7363 6.44206 79.6777 7.04102C79.6257 7.63346 79.5996 8.35612 79.5996 9.20898C79.5996 9.68424 79.6126 10.0846 79.6387 10.4102C79.6647 10.7292 79.7038 11.0189 79.7559 11.2793ZM80.6641 3.97461C80.6055 3.97461 80.5208 4.03971 80.4102 4.16992C80.2995 4.29362 80.1888 4.52148 80.0781 4.85352H81.0156C80.9831 4.58008 80.9342 4.36523 80.8691 4.20898C80.8105 4.05273 80.7422 3.97461 80.6641 3.97461ZM79.9121 11.9824V11.9922V11.9824ZM90.2539 12.2656C90.2148 12.3372 90.1465 12.4674 90.0488 12.6562C89.9577 12.8451 89.8307 13.0599 89.668 13.3008C89.5117 13.5352 89.3229 13.7793 89.1016 14.0332C88.8802 14.2871 88.6263 14.5215 88.3398 14.7363C88.0534 14.9447 87.7311 15.1172 87.373 15.2539C87.0215 15.3906 86.6374 15.459 86.2207 15.459C85.8496 15.459 85.5208 15.3906 85.2344 15.2539C84.9479 15.1237 84.7038 14.9382 84.502 14.6973C84.3001 14.4499 84.1471 14.1602 84.043 13.8281C83.9388 13.4961 83.8867 13.1283 83.8867 12.7246C83.8867 12.334 83.9421 11.9694 84.0527 11.6309C84.1634 11.2858 84.3132 10.9863 84.502 10.7324C84.6973 10.4785 84.9219 10.2799 85.1758 10.1367C85.4297 9.98698 85.6999 9.91211 85.9863 9.91211C86.2012 9.91211 86.3965 9.95117 86.5723 10.0293C86.748 10.1009 86.8945 10.1986 87.0117 10.3223C87.1354 10.446 87.2298 10.5827 87.2949 10.7324C87.3665 10.8822 87.4023 11.0319 87.4023 11.1816C87.4023 11.3249 87.3828 11.4583 87.3438 11.582C87.3112 11.7057 87.2656 11.8164 87.207 11.9141C87.1549 12.0052 87.0931 12.0801 87.0215 12.1387C86.9499 12.1908 86.8783 12.2168 86.8066 12.2168C86.696 12.2168 86.6048 12.181 86.5332 12.1094C86.4681 12.0378 86.4355 11.9499 86.4355 11.8457C86.4355 11.7936 86.4453 11.748 86.4648 11.709C86.4909 11.6699 86.5169 11.6309 86.543 11.5918C86.5755 11.5462 86.6016 11.4941 86.6211 11.4355C86.6471 11.3704 86.6602 11.2891 86.6602 11.1914C86.6602 11.0547 86.5951 10.931 86.4648 10.8203C86.3411 10.7096 86.1816 10.6543 85.9863 10.6543C85.804 10.6543 85.6283 10.7096 85.459 10.8203C85.2962 10.931 85.153 11.0807 85.0293 11.2695C84.9056 11.4518 84.8047 11.6699 84.7266 11.9238C84.6549 12.1712 84.6191 12.4349 84.6191 12.7148C84.6191 12.9818 84.6517 13.2357 84.7168 13.4766C84.7819 13.7174 84.8796 13.9323 85.0098 14.1211C85.14 14.3034 85.3027 14.4499 85.498 14.5605C85.6999 14.6712 85.9375 14.7266 86.2109 14.7266C86.5625 14.7266 86.888 14.6647 87.1875 14.541C87.487 14.4108 87.7604 14.248 88.0078 14.0527C88.2552 13.8574 88.4733 13.6458 88.6621 13.418C88.8509 13.1836 89.0104 12.9655 89.1406 12.7637C89.2773 12.5553 89.3815 12.3763 89.4531 12.2266C89.5312 12.0703 89.5768 11.9727 89.5898 11.9336C89.6159 11.8685 89.6582 11.8197 89.7168 11.7871C89.7819 11.748 89.8503 11.7285 89.9219 11.7285C90.0326 11.7285 90.1204 11.7676 90.1855 11.8457C90.2572 11.9238 90.293 12.0117 90.293 12.1094C90.293 12.1484 90.2799 12.2005 90.2539 12.2656ZM90.3613 14.1406C90.4655 13.9193 90.5859 13.6816 90.7227 13.4277C90.8594 13.1673 91.0059 12.9036 91.1621 12.6367C91.3184 12.3633 91.4844 12.0931 91.6602 11.8262C91.8359 11.5592 92.0182 11.3086 92.207 11.0742C92.3958 10.8464 92.5846 10.6836 92.7734 10.5859C92.9688 10.4818 93.151 10.4297 93.3203 10.4297C93.4896 10.4297 93.6361 10.4655 93.7598 10.5371C93.89 10.6022 93.9941 10.6934 94.0723 10.8105C94.1569 10.9277 94.2188 11.0645 94.2578 11.2207C94.3034 11.377 94.3262 11.5462 94.3262 11.7285C94.3262 11.8783 94.3099 12.0801 94.2773 12.334C94.2513 12.5814 94.2383 12.8418 94.2383 13.1152C94.2383 13.2715 94.2448 13.4277 94.2578 13.584C94.2773 13.7337 94.3066 13.8704 94.3457 13.9941C94.3913 14.1113 94.4564 14.209 94.541 14.2871C94.6257 14.3587 94.7363 14.3945 94.873 14.3945C95.0293 14.3945 95.1855 14.3522 95.3418 14.2676C95.498 14.1764 95.651 14.0592 95.8008 13.916C95.9505 13.7663 96.0938 13.6035 96.2305 13.4277C96.3672 13.2454 96.4909 13.0664 96.6016 12.8906C96.7122 12.7083 96.8099 12.5358 96.8945 12.373C96.9792 12.2038 97.0475 12.0638 97.0996 11.9531C97.1647 11.8034 97.2786 11.7285 97.4414 11.7285C97.5521 11.7285 97.64 11.7676 97.7051 11.8457C97.7702 11.9238 97.8027 12.0085 97.8027 12.0996C97.8027 12.1517 97.793 12.2005 97.7734 12.2461C97.7474 12.2982 97.6953 12.4056 97.6172 12.5684C97.5456 12.7311 97.4447 12.9199 97.3145 13.1348C97.1908 13.3496 97.0443 13.5742 96.875 13.8086C96.7057 14.043 96.5169 14.2611 96.3086 14.4629C96.1068 14.6582 95.8854 14.821 95.6445 14.9512C95.4102 15.0749 95.1628 15.1367 94.9023 15.1367C94.6029 15.1367 94.362 15.0749 94.1797 14.9512C93.9974 14.821 93.8542 14.6582 93.75 14.4629C93.6523 14.2676 93.584 14.0495 93.5449 13.8086C93.5124 13.5677 93.4961 13.3333 93.4961 13.1055C93.4961 12.9883 93.4993 12.8646 93.5059 12.7344C93.5189 12.5977 93.5319 12.4642 93.5449 12.334C93.5579 12.2038 93.5677 12.0833 93.5742 11.9727C93.5872 11.8555 93.5938 11.7578 93.5938 11.6797C93.5938 11.4779 93.5645 11.3411 93.5059 11.2695C93.4538 11.1979 93.3919 11.1621 93.3203 11.1621C93.2161 11.1621 93.0957 11.224 92.959 11.3477C92.8288 11.4648 92.6888 11.6211 92.5391 11.8164C92.3958 12.0117 92.2493 12.2331 92.0996 12.4805C91.9564 12.7214 91.8164 12.9622 91.6797 13.2031C91.543 13.444 91.4193 13.6751 91.3086 13.8965C91.1979 14.1113 91.1068 14.2904 91.0352 14.4336C90.8984 14.707 90.7585 14.8893 90.6152 14.9805C90.4785 15.0781 90.3548 15.127 90.2441 15.127C90.0423 15.127 89.8861 15.0488 89.7754 14.8926C89.6712 14.7298 89.6191 14.5345 89.6191 14.3066V13.6914C89.6191 12.4609 89.6191 11.2891 89.6191 10.1758C89.6257 9.05599 89.6419 8.01758 89.668 7.06055C89.7005 6.09701 89.7493 5.22786 89.8145 4.45312C89.8861 3.67188 89.9902 3.00781 90.127 2.46094C90.2637 1.90755 90.4362 1.48112 90.6445 1.18164C90.8594 0.882161 91.1263 0.732422 91.4453 0.732422C91.7188 0.732422 91.9499 0.807292 92.1387 0.957031C92.3275 1.10677 92.4805 1.31185 92.5977 1.57227C92.7148 1.82617 92.7995 2.12565 92.8516 2.4707C92.9036 2.80924 92.9297 3.16732 92.9297 3.54492C92.9297 4.31315 92.8581 5.06836 92.7148 5.81055C92.5781 6.54622 92.3926 7.26562 92.1582 7.96875C91.9238 8.67188 91.6504 9.35872 91.3379 10.0293C91.0254 10.6934 90.6966 11.3411 90.3516 11.9727C90.3516 12.0898 90.3516 12.2298 90.3516 12.3926C90.3516 12.5553 90.3516 12.7181 90.3516 12.8809C90.3516 13.0436 90.3516 13.1966 90.3516 13.3398C90.3516 13.4831 90.3516 13.597 90.3516 13.6816L90.3613 14.1406ZM90.3613 10.5371C90.6348 9.93815 90.8822 9.35547 91.1035 8.78906C91.3314 8.21615 91.5234 7.64648 91.6797 7.08008C91.8424 6.51367 91.9694 5.94076 92.0605 5.36133C92.1517 4.77539 92.1973 4.16667 92.1973 3.53516C92.1973 3.43099 92.1908 3.26497 92.1777 3.03711C92.1712 2.80924 92.1419 2.57812 92.0898 2.34375C92.0443 2.10938 91.9694 1.9043 91.8652 1.72852C91.7676 1.55273 91.6276 1.46484 91.4453 1.46484C91.3021 1.46484 91.1784 1.5625 91.0742 1.75781C90.9701 1.94661 90.8789 2.20703 90.8008 2.53906C90.7227 2.86458 90.6576 3.24544 90.6055 3.68164C90.5534 4.11784 90.5111 4.58008 90.4785 5.06836C90.446 5.55664 90.4199 6.05794 90.4004 6.57227C90.3874 7.08659 90.3776 7.58789 90.3711 8.07617C90.3646 8.55794 90.3613 9.01042 90.3613 9.43359C90.3613 9.85677 90.3613 10.2246 90.3613 10.5371ZM98.2812 13.8965C98.418 14.0853 98.5938 14.2383 98.8086 14.3555C99.0234 14.4661 99.2871 14.5215 99.5996 14.5215C99.9186 14.5215 100.208 14.4466 100.469 14.2969C100.729 14.1406 100.967 13.9388 101.182 13.6914C101.396 13.444 101.589 13.1673 101.758 12.8613C101.927 12.5553 102.08 12.2493 102.217 11.9434C102.249 11.8717 102.295 11.8197 102.354 11.7871C102.412 11.748 102.477 11.7285 102.549 11.7285C102.66 11.7285 102.747 11.7676 102.812 11.8457C102.884 11.9238 102.92 12.0085 102.92 12.0996C102.92 12.1322 102.917 12.1615 102.91 12.1875C102.904 12.207 102.894 12.2298 102.881 12.2559C102.432 13.2454 101.94 13.9909 101.406 14.4922C100.879 14.9935 100.28 15.2507 99.6094 15.2637C99.1797 15.2637 98.8086 15.179 98.4961 15.0098C98.1836 14.847 97.9264 14.6354 97.7246 14.375C97.5228 14.1081 97.373 13.8086 97.2754 13.4766C97.1777 13.1445 97.1289 12.8125 97.1289 12.4805C97.1289 12.1484 97.168 11.8424 97.2461 11.5625C97.3307 11.2826 97.4479 11.0384 97.5977 10.8301C97.7539 10.6217 97.9362 10.459 98.1445 10.3418C98.3594 10.2246 98.5938 10.166 98.8477 10.166C98.9974 10.166 99.1439 10.1986 99.2871 10.2637C99.4368 10.3223 99.5703 10.4102 99.6875 10.5273C99.8047 10.638 99.8991 10.7747 99.9707 10.9375C100.042 11.1003 100.078 11.2858 100.078 11.4941C100.078 11.7611 100.033 12.0117 99.9414 12.2461C99.8503 12.4805 99.7233 12.6986 99.5605 12.9004C99.4043 13.1022 99.2155 13.2878 98.9941 13.457C98.7728 13.6263 98.5352 13.7728 98.2812 13.8965ZM97.9883 13.2617C98.1901 13.1771 98.3724 13.0697 98.5352 12.9395C98.7044 12.8092 98.8477 12.666 98.9648 12.5098C99.082 12.3535 99.1732 12.1908 99.2383 12.0215C99.3034 11.8457 99.3359 11.6699 99.3359 11.4941C99.3359 11.2988 99.2871 11.1523 99.1895 11.0547C99.0918 10.9505 98.9779 10.8984 98.8477 10.8984C98.6719 10.8984 98.5221 10.9473 98.3984 11.0449C98.2747 11.1426 98.1738 11.2695 98.0957 11.4258C98.0176 11.582 97.959 11.7578 97.9199 11.9531C97.8874 12.1419 97.8711 12.3307 97.8711 12.5195C97.8711 12.6367 97.8809 12.7604 97.9004 12.8906C97.9264 13.0208 97.9557 13.1445 97.9883 13.2617ZM107.783 12.2656C107.712 12.4154 107.62 12.5944 107.51 12.8027C107.406 13.0046 107.285 13.2161 107.148 13.4375C107.012 13.6589 106.859 13.8802 106.689 14.1016C106.52 14.3164 106.335 14.5117 106.133 14.6875C105.938 14.8568 105.726 14.9935 105.498 15.0977C105.277 15.2083 105.039 15.2637 104.785 15.2637C104.395 15.2637 104.059 15.1432 103.779 14.9023C103.499 14.6615 103.262 14.3457 103.066 13.9551C102.871 13.5645 102.712 13.1217 102.588 12.627C102.471 12.1257 102.38 11.6178 102.314 11.1035C102.249 10.5827 102.204 10.0781 102.178 9.58984C102.158 9.10156 102.148 8.66862 102.148 8.29102C102.148 7.74414 102.165 7.17773 102.197 6.5918C102.236 6.00586 102.295 5.43294 102.373 4.87305C102.451 4.31315 102.549 3.78255 102.666 3.28125C102.79 2.77995 102.933 2.34049 103.096 1.96289C103.265 1.58529 103.457 1.28581 103.672 1.06445C103.887 0.843099 104.131 0.732422 104.404 0.732422C104.619 0.732422 104.811 0.784505 104.98 0.888672C105.156 0.986328 105.303 1.14909 105.42 1.37695C105.537 1.60482 105.628 1.90104 105.693 2.26562C105.758 2.63021 105.791 3.07617 105.791 3.60352C105.791 4.25456 105.723 4.92839 105.586 5.625C105.449 6.3151 105.264 7.01172 105.029 7.71484C104.795 8.41797 104.518 9.12109 104.199 9.82422C103.88 10.5208 103.538 11.2012 103.174 11.8652C103.337 12.6921 103.555 13.3431 103.828 13.8184C104.102 14.2871 104.43 14.5215 104.814 14.5215C105.075 14.5215 105.326 14.4206 105.566 14.2188C105.807 14.0104 106.029 13.7663 106.23 13.4863C106.432 13.2064 106.608 12.9232 106.758 12.6367C106.914 12.3438 107.035 12.1094 107.119 11.9336C107.152 11.8685 107.197 11.8197 107.256 11.7871C107.314 11.748 107.38 11.7285 107.451 11.7285C107.562 11.7285 107.65 11.7676 107.715 11.8457C107.786 11.9238 107.822 12.0117 107.822 12.1094C107.822 12.1484 107.809 12.2005 107.783 12.2656ZM102.891 8.33984C102.891 8.75651 102.9 9.1569 102.92 9.54102C102.939 9.92513 102.965 10.293 102.998 10.6445C103.271 10.1172 103.532 9.55729 103.779 8.96484C104.027 8.36589 104.245 7.76367 104.434 7.1582C104.622 6.54622 104.772 5.94076 104.883 5.3418C105 4.73633 105.059 4.16016 105.059 3.61328C105.059 2.84505 104.997 2.29492 104.873 1.96289C104.749 1.63086 104.583 1.46484 104.375 1.46484C104.238 1.46484 104.105 1.55924 103.975 1.74805C103.851 1.93685 103.734 2.19401 103.623 2.51953C103.512 2.84505 103.411 3.22917 103.32 3.67188C103.229 4.11458 103.151 4.58984 103.086 5.09766C103.027 5.60547 102.979 6.13607 102.939 6.68945C102.907 7.24284 102.891 7.79297 102.891 8.33984ZM112.686 12.2656C112.614 12.4154 112.523 12.5944 112.412 12.8027C112.308 13.0046 112.188 13.2161 112.051 13.4375C111.914 13.6589 111.761 13.8802 111.592 14.1016C111.423 14.3164 111.237 14.5117 111.035 14.6875C110.84 14.8568 110.628 14.9935 110.4 15.0977C110.179 15.2083 109.941 15.2637 109.688 15.2637C109.297 15.2637 108.962 15.1432 108.682 14.9023C108.402 14.6615 108.164 14.3457 107.969 13.9551C107.773 13.5645 107.614 13.1217 107.49 12.627C107.373 12.1257 107.282 11.6178 107.217 11.1035C107.152 10.5827 107.106 10.0781 107.08 9.58984C107.061 9.10156 107.051 8.66862 107.051 8.29102C107.051 7.74414 107.067 7.17773 107.1 6.5918C107.139 6.00586 107.197 5.43294 107.275 4.87305C107.354 4.31315 107.451 3.78255 107.568 3.28125C107.692 2.77995 107.835 2.34049 107.998 1.96289C108.167 1.58529 108.359 1.28581 108.574 1.06445C108.789 0.843099 109.033 0.732422 109.307 0.732422C109.521 0.732422 109.714 0.784505 109.883 0.888672C110.059 0.986328 110.205 1.14909 110.322 1.37695C110.439 1.60482 110.531 1.90104 110.596 2.26562C110.661 2.63021 110.693 3.07617 110.693 3.60352C110.693 4.25456 110.625 4.92839 110.488 5.625C110.352 6.3151 110.166 7.01172 109.932 7.71484C109.697 8.41797 109.421 9.12109 109.102 9.82422C108.783 10.5208 108.441 11.2012 108.076 11.8652C108.239 12.6921 108.457 13.3431 108.73 13.8184C109.004 14.2871 109.333 14.5215 109.717 14.5215C109.977 14.5215 110.228 14.4206 110.469 14.2188C110.71 14.0104 110.931 13.7663 111.133 13.4863C111.335 13.2064 111.51 12.9232 111.66 12.6367C111.816 12.3438 111.937 12.1094 112.021 11.9336C112.054 11.8685 112.1 11.8197 112.158 11.7871C112.217 11.748 112.282 11.7285 112.354 11.7285C112.464 11.7285 112.552 11.7676 112.617 11.8457C112.689 11.9238 112.725 12.0117 112.725 12.1094C112.725 12.1484 112.712 12.2005 112.686 12.2656ZM107.793 8.33984C107.793 8.75651 107.803 9.1569 107.822 9.54102C107.842 9.92513 107.868 10.293 107.9 10.6445C108.174 10.1172 108.434 9.55729 108.682 8.96484C108.929 8.36589 109.147 7.76367 109.336 7.1582C109.525 6.54622 109.674 5.94076 109.785 5.3418C109.902 4.73633 109.961 4.16016 109.961 3.61328C109.961 2.84505 109.899 2.29492 109.775 1.96289C109.652 1.63086 109.486 1.46484 109.277 1.46484C109.141 1.46484 109.007 1.55924 108.877 1.74805C108.753 1.93685 108.636 2.19401 108.525 2.51953C108.415 2.84505 108.314 3.22917 108.223 3.67188C108.132 4.11458 108.053 4.58984 107.988 5.09766C107.93 5.60547 107.881 6.13607 107.842 6.68945C107.809 7.24284 107.793 7.79297 107.793 8.33984ZM113.984 14.6875C113.984 14.8372 113.932 14.9609 113.828 15.0586C113.73 15.1628 113.607 15.2148 113.457 15.2148C113.307 15.2148 113.18 15.1628 113.076 15.0586C112.979 14.9609 112.93 14.8372 112.93 14.6875C112.93 14.5443 112.979 14.4238 113.076 14.3262C113.18 14.222 113.307 14.1699 113.457 14.1699C113.607 14.1699 113.73 14.222 113.828 14.3262C113.932 14.4238 113.984 14.5443 113.984 14.6875Z" fill="black"/>
</svg>
