<svg width="19" height="20" viewBox="0 0 19 20" fill="none" xmlns="http://www.w3.org/2000/svg">
<path d="M17.2509 14.3162C16.7451 13.892 13.7786 12.0135 13.2856 12.0998C13.0541 12.1408 12.877 12.3382 12.4031 12.9036C12.1839 13.1819 11.9432 13.4425 11.6832 13.6831C11.2068 13.568 10.7456 13.3971 10.3093 13.1738C8.59825 12.3408 7.21593 10.9581 6.38339 9.24675C6.16015 8.81044 5.98921 8.3493 5.87413 7.8729C6.11472 7.61289 6.37536 7.37218 6.65365 7.153C7.21846 6.67904 7.41638 6.50311 7.45747 6.27047C7.54369 5.77626 5.66348 2.81098 5.24103 2.30519C5.06395 2.0957 4.90307 1.95508 4.69705 1.95508C4.09983 1.95508 1.39844 5.29536 1.39844 5.72823C1.39844 5.76353 1.45631 9.24096 5.84809 13.7091C10.3163 18.1009 13.7937 18.1588 13.829 18.1588C14.2619 18.1588 17.6021 15.4574 17.6021 14.8602C17.6021 14.6542 17.4615 14.4933 17.2509 14.3162Z" fill="black"/>
<path d="M13.5543 9.47729H14.7117C14.7103 8.24985 14.2221 7.07309 13.3542 6.20517C12.4862 5.33724 11.3095 4.84903 10.082 4.84766V6.00506C11.0026 6.00598 11.8853 6.3721 12.5362 7.02307C13.1872 7.67404 13.5533 8.55668 13.5543 9.47729Z" fill="black"/>
<path d="M16.4478 9.47823H17.6052C17.6029 7.48367 16.8095 5.57146 15.3992 4.16109C13.9888 2.75073 12.0766 1.95738 10.082 1.95508V3.11249C11.7697 3.11448 13.3877 3.78579 14.5811 4.97917C15.7745 6.17254 16.4458 7.79054 16.4478 9.47823Z" fill="black"/>
</svg>
