<svg width="40" height="40" viewBox="0 0 40 40" fill="none" xmlns="http://www.w3.org/2000/svg">
<path d="M14.9433 6.42969L16.1719 3.25826C16.3791 2.7213 16.7436 2.25943 17.2178 1.93315C17.6919 1.60687 18.2535 1.43139 18.829 1.42969H21.1719C21.7474 1.43139 22.3091 1.60687 22.7832 1.93315C23.2573 2.25943 23.6218 2.7213 23.829 3.25826L25.0576 6.42969L29.229 8.82969L32.6005 8.3154C33.1618 8.2392 33.7332 8.33162 34.2419 8.5809C34.7507 8.83018 35.1738 9.22507 35.4576 9.7154L36.6005 11.7154C36.8933 12.2135 37.0282 12.7888 36.9874 13.3652C36.9466 13.9416 36.732 14.4921 36.3719 14.944L34.2862 17.6011V22.4011L36.429 25.0583C36.7892 25.5102 37.0038 26.0607 37.0446 26.6371C37.0854 27.2135 36.9505 27.7887 36.6576 28.2868L35.5148 30.2868C35.231 30.7772 34.8078 31.1721 34.2991 31.4213C33.7904 31.6706 33.219 31.763 32.6576 31.6868L29.2862 31.1725L25.1148 33.5725L23.8862 36.744C23.679 37.2809 23.3145 37.7428 22.8403 38.0691C22.3662 38.3954 21.8046 38.5708 21.229 38.5725H18.829C18.2535 38.5708 17.6919 38.3954 17.2178 38.0691C16.7436 37.7428 16.3791 37.2809 16.1719 36.744L14.9433 33.5725L10.7719 31.1725L7.40047 31.6868C6.83909 31.763 6.26773 31.6706 5.75899 31.4213C5.25025 31.1721 4.82711 30.7772 4.54333 30.2868L3.40047 28.2868C3.10762 27.7887 2.97269 27.2135 3.0135 26.6371C3.0543 26.0607 3.26893 25.5102 3.62904 25.0583L5.71475 22.4011V17.6011L3.5719 14.944C3.21178 14.4921 2.99716 13.9416 2.95635 13.3652C2.91555 12.7888 3.05047 12.2135 3.34333 11.7154L4.48618 9.7154C4.76996 9.22507 5.19311 8.83018 5.70185 8.5809C6.21058 8.33162 6.78195 8.2392 7.34333 8.3154L10.7148 8.82969L14.9433 6.42969Z" stroke="#BFF747" stroke-width="1.5" stroke-linecap="round" stroke-linejoin="round"/>
<path d="M20.0011 28.5725C24.735 28.5725 28.5725 24.735 28.5725 20.0011C28.5725 15.2672 24.735 11.4297 20.0011 11.4297C15.2672 11.4297 11.4297 15.2672 11.4297 20.0011C11.4297 24.735 15.2672 28.5725 20.0011 28.5725Z" stroke="#BFF747" stroke-width="1.5" stroke-linecap="round" stroke-linejoin="round"/>
<path d="M20 11.4297V20.0011H28.5714" stroke="#BFF747" stroke-width="1.5" stroke-linecap="round" stroke-linejoin="round"/>
<path d="M19.9985 20L13.9414 26.0571" stroke="#BFF747" stroke-width="1.5" stroke-linecap="round" stroke-linejoin="round"/>
</svg>
