<svg width="26" height="26" viewBox="0 0 26 26" fill="none" xmlns="http://www.w3.org/2000/svg">
<path d="M23.4633 18.4297C22.7805 17.857 18.7758 15.3211 18.1102 15.4375C17.7977 15.493 17.5586 15.7594 16.9188 16.5227C16.6229 16.8983 16.2979 17.2502 15.9469 17.575C15.3037 17.4196 14.6812 17.1889 14.0922 16.8875C11.7823 15.7629 9.91612 13.8962 8.79219 11.5859C8.49081 10.9969 8.26005 10.3744 8.10469 9.73125C8.42948 9.38023 8.78134 9.05527 9.15703 8.75938C9.91953 8.11953 10.1867 7.88203 10.2422 7.56797C10.3586 6.90078 7.82031 2.89766 7.25 2.21484C7.01094 1.93203 6.79375 1.74219 6.51562 1.74219C5.70937 1.74219 2.0625 6.25156 2.0625 6.83594C2.0625 6.88359 2.14062 11.5781 8.06953 17.6102C14.1016 23.5391 18.7961 23.6172 18.8438 23.6172C19.4281 23.6172 23.9375 19.9703 23.9375 19.1641C23.9375 18.8859 23.7477 18.6688 23.4633 18.4297Z" fill="#BFF747"/>
<path d="M18.4688 11.8984H20.0312C20.0294 10.2414 19.3703 8.65277 18.1986 7.48108C17.0269 6.30938 15.4383 5.6503 13.7812 5.64844V7.21094C15.0241 7.21218 16.2156 7.70644 17.0944 8.58524C17.9733 9.46405 18.4675 10.6556 18.4688 11.8984Z" fill="#BFF747"/>
<path d="M22.375 11.8984H23.9375C23.9344 9.20578 22.8634 6.6243 20.9594 4.72031C19.0554 2.81632 16.4739 1.74529 13.7812 1.74219V3.30469C16.0596 3.30738 18.2439 4.21365 19.855 5.82471C21.466 7.43577 22.3723 9.62006 22.375 11.8984Z" fill="#BFF747"/>
</svg>
