<svg width="138" height="30" viewBox="0 0 138 30" fill="none" xmlns="http://www.w3.org/2000/svg">
<path d="M50.7458 20.6147C47.5945 20.6147 45.0402 18.004 45.0402 14.7828C45.0402 11.5621 47.5945 8.95098 50.7461 8.95098C53.8974 8.95098 56.4514 11.5621 56.4514 14.7828C56.4514 18.004 53.897 20.6147 50.7458 20.6147ZM56.4697 21.3543C56.4697 21.8885 57.3849 23.3887 58.5063 23.3887H59.2324C59.5141 23.3887 59.7442 23.1582 59.7442 22.8769V6.917H59.7416C59.7345 6.78657 59.6779 6.66378 59.5832 6.57377C59.4886 6.48376 59.3631 6.43336 59.2324 6.43288H56.9822C56.7099 6.43288 56.4876 6.64842 56.4723 6.917H56.4697V8.21397C55.0913 6.51581 52.9172 5.81092 50.7372 5.81092C45.782 5.81092 41.7656 9.8277 41.7656 14.7832C41.7656 19.7387 45.782 23.7555 50.7372 23.7555C52.9172 23.7555 55.293 22.9098 56.4697 21.3525V21.3551V21.3543ZM65.1211 19.069C66.6231 20.1093 68.263 20.6147 69.8386 20.6147C71.3403 20.6147 72.8917 19.8362 72.8917 18.4817C72.8917 16.6738 69.5099 16.3921 67.3855 15.67C65.26 14.9479 63.4296 13.4549 63.4296 11.0373C63.4296 7.33837 66.7259 5.81055 69.8024 5.81055C71.7516 5.81055 73.7624 6.45305 75.0665 7.37423C75.5159 7.71416 75.242 8.10526 75.242 8.10526L73.9974 9.88261C73.8577 10.0828 73.5678 10.2427 73.2619 10.0391C72.4232 9.48479 71.4894 8.95061 69.802 8.95061C67.7135 8.95061 66.795 9.81761 66.795 10.8919C66.795 12.1807 68.2641 12.5856 69.9851 13.0249C72.9847 13.8329 76.257 14.8053 76.257 18.4821C76.257 21.7413 73.2081 23.7555 69.8386 23.7555C67.2854 23.7555 65.1114 23.0275 63.2881 21.6898C62.9085 21.3095 63.1738 20.9565 63.1738 20.9565L64.4121 19.1881C64.6642 18.8571 64.9817 18.9729 65.1211 19.069ZM93.1336 21.3547C93.1336 21.8885 94.0484 23.3887 95.1694 23.3887H95.896C96.1776 23.3887 96.4081 23.1582 96.4081 22.8769V6.917H96.4051C96.3979 6.78663 96.3412 6.66394 96.2466 6.57397C96.1519 6.484 96.0265 6.43354 95.896 6.43288H93.6457C93.373 6.43288 93.1511 6.64842 93.1362 6.917H93.1336V8.21397C91.7548 6.51581 89.5807 5.81092 87.4011 5.81092C82.4459 5.81092 78.4288 9.8277 78.4288 14.7828C78.4288 19.738 82.4459 23.7551 87.4011 23.7551C89.5807 23.7551 91.9565 22.9094 93.1332 21.3521V21.3547H93.1336ZM87.4097 20.6151C84.258 20.6151 81.7037 18.004 81.7037 14.7828C81.7037 11.5621 84.258 8.95098 87.4097 8.95098C90.5606 8.95098 93.1153 11.5621 93.1153 14.7828C93.1153 18.004 90.5606 20.6147 87.4097 20.6147V20.6151ZM116.57 21.9031L116.569 13.645C116.569 8.98983 113.633 5.84902 108.949 5.84902C106.714 5.84902 104.885 7.14188 104.237 8.25244V8.23675L104.234 8.24945C104.232 7.12582 103.321 6.47136 102.197 6.47136H101.475C101.193 6.47136 100.962 6.70221 100.962 6.98387V22.9442H100.965C100.98 23.2131 101.203 23.4287 101.475 23.4287H103.725C103.759 23.4287 103.793 23.4245 103.826 23.4186C103.841 23.4152 103.854 23.4092 103.869 23.4051C103.886 23.4003 103.903 23.3962 103.919 23.3894C103.94 23.3812 103.958 23.37 103.976 23.3595C103.985 23.3539 103.995 23.3502 104.004 23.3446C104.026 23.3294 104.047 23.3127 104.067 23.2945C104.07 23.2912 104.074 23.2889 104.077 23.286C104.171 23.1963 104.227 23.074 104.234 22.9442H104.237V13.5169C104.237 11.0167 106.264 8.98945 108.765 8.98945C111.265 8.98945 113.292 11.0167 113.292 13.5169L113.294 21.3973L113.294 21.3943C113.294 21.4014 113.296 21.4089 113.296 21.416V22.9442H113.299C113.314 23.2131 113.536 23.4287 113.808 23.4287H116.058C116.093 23.4287 116.126 23.4245 116.159 23.4186C116.173 23.4156 116.185 23.41 116.198 23.407C116.216 23.4014 116.235 23.3965 116.253 23.3894C116.271 23.382 116.288 23.3711 116.305 23.3614C116.316 23.3558 116.327 23.3513 116.337 23.3446C116.358 23.3304 116.377 23.3143 116.396 23.2979C116.401 23.2942 116.406 23.2904 116.411 23.2856C116.432 23.2654 116.451 23.243 116.468 23.2198C116.527 23.1401 116.562 23.0448 116.567 22.9457L116.568 22.9442H116.57L116.57 21.9031ZM134.12 21.3547C134.12 21.8885 135.034 23.3887 136.156 23.3887H136.882C137.164 23.3887 137.394 23.1582 137.394 22.8769V6.917H137.392C137.384 6.7866 137.328 6.66391 137.233 6.57395C137.138 6.48398 137.013 6.43353 136.882 6.43288H134.632C134.502 6.43326 134.376 6.48362 134.281 6.57364C134.187 6.66366 134.13 6.78651 134.123 6.917H134.12V8.21397C132.74 6.51581 130.567 5.81092 128.387 5.81092C123.432 5.81092 119.415 9.8277 119.415 14.7828C119.415 19.738 123.432 23.7551 128.387 23.7551C130.567 23.7551 132.942 22.9094 134.119 21.3521L134.12 21.3547ZM128.396 20.6151C125.245 20.6151 122.69 18.004 122.69 14.7828C122.69 11.5621 125.245 8.95098 128.396 8.95098C131.546 8.95098 134.101 11.5621 134.101 14.7828C134.101 18.004 131.546 20.6147 128.396 20.6147V20.6151Z" fill="white"/>
<path d="M25.1609 15.636C21.3919 15.636 18.3371 18.6908 18.3371 22.4591C18.3371 26.2278 21.3919 29.2832 25.1609 29.2832C28.9292 29.2832 31.984 26.2278 31.984 22.4591C31.984 18.6908 28.9292 15.636 25.1609 15.636ZM7.43283 15.6363C3.6645 15.6366 0.609375 18.6908 0.609375 22.4594C0.609375 26.2278 3.6645 29.2829 7.43283 29.2829C11.2015 29.2829 14.2566 26.2278 14.2566 22.4594C14.2566 18.6908 11.2018 15.6363 7.43283 15.6363ZM23.1202 7.10666C23.1202 10.875 20.0654 13.9308 16.297 13.9308C12.528 13.9308 9.47325 10.875 9.47325 7.10666C9.47325 3.33833 12.528 0.283203 16.297 0.283203C20.0654 0.283203 23.1198 3.33833 23.1198 7.10666H23.1202Z" fill="url(#paint0_radial_166_158)"/>
<defs>
<radialGradient id="paint0_radial_166_158" cx="0" cy="0" r="1" gradientUnits="userSpaceOnUse" gradientTransform="translate(16.2967 1585.19) scale(2078.98 1921.63)">
<stop stop-color="#FFB900"/>
<stop offset="0.6" stop-color="#F95D8F"/>
<stop offset="0.9991" stop-color="#F95353"/>
</radialGradient>
</defs>
</svg>
