<svg width="98" height="30" viewBox="0 0 98 30" fill="none" xmlns="http://www.w3.org/2000/svg">
<g clip-path="url(#clip0_166_168)">
<path d="M89.083 14.1819H85.681C83.4909 14.1819 82.3176 15.8219 82.3176 18.5551V28.4353H75.8652V14.1809H73.1271C70.937 14.1809 69.7647 15.821 69.7647 18.5541V28.4343H63.3114V8.90979H69.7647V11.8778C70.8211 9.57376 72.2679 8.90979 74.4194 8.90979H82.3186V11.8778C83.375 9.57376 84.8218 8.90979 86.9732 8.90979H89.084L89.083 14.1819ZM61.9032 20.1952H48.4505C48.8023 22.3823 50.1709 23.6319 52.4779 23.6319C54.1982 23.6319 55.4112 22.9283 55.8027 21.6797L61.5117 23.2801C60.1045 26.6772 56.6232 28.7474 52.4779 28.7474C45.4775 28.7474 42.2707 23.3188 42.2707 18.673C42.2707 14.1046 45.0861 8.63727 52.0865 8.63727C59.5169 8.63727 61.9805 14.1819 61.9805 18.2826C61.9854 18.921 61.9596 19.5592 61.9032 20.1952ZM55.6461 16.4076C55.4895 14.7279 54.2765 13.1671 52.0874 13.1671C50.0529 13.1671 48.8419 14.0639 48.4505 16.4076H55.6461ZM31.0091 28.4343H36.6785L43.7572 8.91178H37.2662L33.8245 20.2735L30.3045 8.91078H23.8512L31.0091 28.4343ZM4.57248 28.4343H10.9862V14.1819H17.0887V28.4353H23.4627V8.91078H10.9862V7.70079C10.9862 6.37286 11.9246 5.55331 13.4111 5.55331H17.0877V0.28125H12.3557C7.70103 0.28125 4.57248 3.13233 4.57248 7.30935V8.91078H0.935547V14.1828H4.57248V28.4343Z" fill="white"/>
<path d="M93.0737 29.0193C95.2767 29.0193 97.0624 27.2355 97.0624 25.0355C97.0624 22.8355 95.2767 21.0527 93.0737 21.0527C90.8707 21.0527 89.084 22.8365 89.084 25.0365C89.084 27.2365 90.8707 29.0193 93.0737 29.0193Z" fill="#BFF747"/>
</g>
<defs>
<clipPath id="clip0_166_168">
<rect width="96.1538" height="29" fill="white" transform="translate(0.921875 0.28125)"/>
</clipPath>
</defs>
</svg>
