<svg width="102" height="30" viewBox="0 0 102 30" fill="none" xmlns="http://www.w3.org/2000/svg">
<g clip-path="url(#clip0_166_141)">
<path fill-rule="evenodd" clip-rule="evenodd" d="M18.1857 4.43164H2.65405C2.01237 4.43164 1.39692 4.68633 0.942868 5.13976C0.488822 5.5932 0.233306 6.2083 0.232442 6.84999V22.3588C0.231153 22.6776 0.292838 22.9935 0.413958 23.2885C0.535078 23.5834 0.713249 23.8515 0.938245 24.0774C1.16324 24.3033 1.43063 24.4826 1.72508 24.6049C2.01952 24.7272 2.33522 24.7902 2.65405 24.7902H18.1857C18.5042 24.7897 18.8196 24.7265 19.1136 24.604C19.4077 24.4814 19.6747 24.3021 19.8994 24.0763C20.124 23.8504 20.3019 23.5824 20.4228 23.2877C20.5437 22.993 20.6053 22.6773 20.604 22.3588V6.84999C20.6031 6.20887 20.3481 5.59425 19.8947 5.14091C19.4414 4.68757 18.8268 4.4325 18.1857 4.43164ZM9.01813 19.0951C9.0177 19.2017 8.99624 19.3071 8.95496 19.4054C8.91369 19.5036 8.85342 19.5928 8.77761 19.6676C8.7018 19.7425 8.61195 19.8017 8.51321 19.8418C8.41447 19.8819 8.30879 19.9021 8.20222 19.9012H4.80805C4.59482 19.9004 4.39062 19.8151 4.24015 19.664C4.08968 19.5129 4.00519 19.3084 4.0052 19.0951V8.99419C4.00519 8.78096 4.08968 8.57642 4.24015 8.42533C4.39062 8.27425 4.59482 8.18894 4.80805 8.18808H8.20222C8.41575 8.18894 8.62029 8.27414 8.77128 8.42513C8.92227 8.57612 9.00748 8.78066 9.00834 8.99419L9.01813 19.0951ZM16.8508 14.4575C16.8508 14.5642 16.8297 14.6698 16.7886 14.7683C16.7474 14.8667 16.6872 14.956 16.6113 15.031C16.5354 15.106 16.4454 15.1652 16.3464 15.2051C16.2475 15.245 16.1416 15.2649 16.0349 15.2636H12.6408C12.4272 15.2628 12.2227 15.1776 12.0717 15.0266C11.9207 14.8756 11.8355 14.671 11.8346 14.4575V8.99419C11.8355 8.78066 11.9207 8.57612 12.0717 8.42513C12.2227 8.27414 12.4272 8.18894 12.6408 8.18808H16.0349C16.2482 8.18894 16.4524 8.27425 16.6028 8.42533C16.7533 8.57642 16.8378 8.78096 16.8378 8.99419L16.8508 14.4575Z" fill="url(#paint0_linear_166_141)"/>
<path d="M42.4439 5.92312V9.85906H37.7801V24.7902H33.2829V9.85906H28.6191V5.92312H42.4439ZM48.1683 24.7902H44.0104V10.1038H48.1683V12.9171C48.9581 10.9361 50.2211 9.75788 52.4697 9.90148V14.2519C49.5325 14.0234 48.1683 14.7414 48.1683 17.0945V24.7902ZM75.1846 24.9044C72.4595 24.9044 70.7461 23.5989 70.7461 20.5115V4.43164H74.9333V19.9371C74.9333 20.8281 75.5207 21.1447 76.2387 21.1447C76.4459 21.1489 76.653 21.1391 76.8588 21.1153V24.7347C76.3112 24.8681 75.7478 24.9252 75.1846 24.9044ZM83.9181 24.9044C81.1929 24.9044 79.4763 23.5989 79.4763 20.5115V4.43164H83.6635V19.9371C83.6635 20.8281 84.2542 21.1447 84.9853 21.1447C85.1913 21.149 85.3974 21.1391 85.6021 21.1153V24.7347C85.0514 24.8694 84.4846 24.9265 83.9181 24.9044ZM87.6092 17.4405C87.6092 12.904 90.2201 9.80031 94.7174 9.80031C99.2147 9.80031 101.77 12.8942 101.77 17.4405C101.77 21.9867 99.1853 25.1361 94.7174 25.1361C90.2495 25.1361 87.6092 21.9475 87.6092 17.4405ZM91.6855 17.4405C91.6855 19.6499 92.6124 21.4025 94.7174 21.4025C96.8224 21.4025 97.6971 19.6499 97.6971 17.4405C97.6971 15.231 96.7996 13.5241 94.7174 13.5241C92.6352 13.5241 91.6855 15.2277 91.6855 17.4405ZM58.0832 18.7688C59.2473 18.8967 60.4173 18.9652 61.5883 18.9744C64.7736 18.9744 67.4628 18.1193 67.4628 15.0352C67.4628 12.0424 64.6986 9.79378 61.3729 9.79378C56.8952 9.79378 54.0265 13.0411 54.0265 17.5775C54.0265 22.287 56.5003 25.0839 62.0909 25.0839C63.7494 25.0974 65.3961 24.803 66.9472 24.2158V20.6976C65.5112 21.1577 63.8957 21.6146 62.2378 21.6146C60.012 21.6146 58.4618 20.8836 58.0832 18.7688ZM61.2881 12.9987C62.4662 12.9987 63.4127 13.7983 63.4127 14.8916C63.4127 16.2982 61.9277 16.7388 60.2176 16.7388C59.4898 16.7354 58.7632 16.6776 58.044 16.5658C58.0983 15.88 58.2951 15.2131 58.6217 14.6076C58.8837 14.1278 59.2689 13.7264 59.7375 13.4447C60.2061 13.1631 60.7413 13.0114 61.2881 13.0052V12.9987Z" fill="white"/>
</g>
<defs>
<linearGradient id="paint0_linear_166_141" x1="3172.36" y1="1295.98" x2="3172.36" y2="4.43164" gradientUnits="userSpaceOnUse">
<stop stop-color="#0052CC"/>
<stop offset="1" stop-color="#2684FF"/>
</linearGradient>
<clipPath id="clip0_166_141">
<rect width="101.541" height="29" fill="white" transform="translate(0.230469 0.283203)"/>
</clipPath>
</defs>
</svg>
