<svg width="115" height="30" viewBox="0 0 115 30" fill="none" xmlns="http://www.w3.org/2000/svg">
<g clip-path="url(#clip0_166_148)">
<path fill-rule="evenodd" clip-rule="evenodd" d="M36.8594 23.1148L38.2897 19.7912C39.8346 20.9464 41.8929 21.547 43.9237 21.547C45.4228 21.547 46.3717 20.9694 46.3717 20.0938C46.3488 17.6458 37.3912 19.562 37.3224 13.4237C37.2995 10.3064 40.0684 7.90423 43.9925 7.90423C46.3259 7.90423 48.6547 8.48185 50.3188 9.79753L48.9801 13.1899C47.4582 12.218 45.5649 11.5258 43.7633 11.5258C42.5393 11.5258 41.7324 12.1034 41.7324 12.8415C41.7554 15.2436 50.7818 13.9279 50.8734 19.7912C50.8734 22.9773 48.1733 25.219 44.295 25.219C41.4528 25.2144 38.8444 24.5451 36.8594 23.1148ZM91.7833 18.5901C91.0682 19.837 89.7296 20.6897 88.1801 20.6897C85.8926 20.6897 84.0497 18.8423 84.0497 16.5593C84.0497 14.2763 85.8972 12.4289 88.1801 12.4289C89.725 12.4289 91.0682 13.2816 91.7833 14.5285L95.7304 12.3372C94.2543 9.70584 91.412 7.90423 88.1801 7.90423C83.3987 7.90423 79.5205 11.7825 79.5205 16.5639C79.5205 21.3453 83.3987 25.2235 88.1801 25.2235C91.4349 25.2235 94.2543 23.4449 95.7304 20.7906L91.7833 18.5901ZM52.8584 0.720703H57.8003V24.8935H52.8584V0.720703ZM97.6695 0.720703V24.8935H102.611V17.6412L108.475 24.8935H114.801L107.342 16.2797L114.246 8.24347H108.195L102.607 14.9136V0.720703H97.6695Z" fill="white"/>
<path d="M72.4841 18.6367C71.7689 19.8149 70.2928 20.6905 68.6287 20.6905C66.3412 20.6905 64.4983 18.843 64.4983 16.56C64.4983 14.2771 66.3457 12.4296 68.6287 12.4296C70.2928 12.4296 71.7689 13.3511 72.4841 14.5521V18.6367ZM72.4841 8.24879V10.2109C71.6772 8.84933 69.6693 7.90039 67.5652 7.90039C63.2239 7.90039 59.8086 11.7328 59.8086 16.5371C59.8086 21.3414 63.2239 25.2197 67.5652 25.2197C69.6647 25.2197 71.6726 24.2754 72.4841 22.9092V24.8713H77.4259V8.24879H72.4841Z" fill="white"/>
<path fill-rule="evenodd" clip-rule="evenodd" d="M6.31581 18.613C6.31581 20.3 4.95429 21.6615 3.26728 21.6615C1.58027 21.6615 0.21875 20.2954 0.21875 18.613C0.21875 16.9306 1.58027 15.5645 3.26728 15.5645H6.31581V18.613ZM7.83778 18.613C7.83778 16.926 9.19931 15.5645 10.8863 15.5645C12.5733 15.5645 13.9348 16.926 13.9348 18.613V26.232C13.9348 27.919 12.5733 29.2805 10.8863 29.2805C9.19931 29.2805 7.83778 27.919 7.83778 26.232V18.613Z" fill="#E01E5A"/>
<path fill-rule="evenodd" clip-rule="evenodd" d="M10.8858 6.37831C9.19879 6.37831 7.83727 5.01679 7.83727 3.32978C7.83727 1.64277 9.19879 0.28125 10.8858 0.28125C12.5728 0.28125 13.9343 1.64277 13.9343 3.32978V6.37831H10.8858ZM10.8858 7.9232C12.5728 7.9232 13.9343 9.28473 13.9343 10.9717C13.9343 12.6587 12.5728 14.0203 10.8858 14.0203H3.24384C1.55684 14.0203 0.195312 12.6542 0.195312 10.9717C0.195312 9.28931 1.55684 7.9232 3.24384 7.9232H10.8858Z" fill="#36C5F0"/>
<path fill-rule="evenodd" clip-rule="evenodd" d="M23.0975 10.9717C23.0975 9.28473 24.4591 7.9232 26.1461 7.9232C27.8331 7.9232 29.1946 9.28473 29.1946 10.9717C29.1946 12.6587 27.8331 14.0203 26.1461 14.0203H23.0975V10.9717ZM21.5756 10.9717C21.5756 12.6587 20.2141 14.0203 18.527 14.0203C16.84 14.0203 15.4785 12.6587 15.4785 10.9717V3.32978C15.4785 1.64277 16.84 0.28125 18.527 0.28125C20.2141 0.28125 21.5756 1.64277 21.5756 3.32978V10.9717Z" fill="#2EB67D"/>
<path fill-rule="evenodd" clip-rule="evenodd" d="M18.527 23.1835C20.2141 23.1835 21.5756 24.545 21.5756 26.232C21.5756 27.919 20.2141 29.2805 18.527 29.2805C16.84 29.2805 15.4785 27.919 15.4785 26.232V23.1835H18.527ZM18.527 21.6615C16.84 21.6615 15.4785 20.3 15.4785 18.613C15.4785 16.926 16.84 15.5645 18.527 15.5645H26.169C27.856 15.5645 29.2175 16.926 29.2175 18.613C29.2175 20.3 27.856 21.6615 26.169 21.6615H18.527Z" fill="#ECB22E"/>
</g>
<defs>
<clipPath id="clip0_166_148">
<rect width="114.606" height="29" fill="white" transform="translate(0.195312 0.28125)"/>
</clipPath>
</defs>
</svg>
