<svg width="98" height="30" viewBox="0 0 98 30" fill="none" xmlns="http://www.w3.org/2000/svg">
<g clip-path="url(#clip0_166_163)">
<path d="M27.0327 18.6012C25.4556 18.6012 23.9777 17.9335 22.635 16.8464L22.9619 15.3119L22.9761 15.255C23.2673 13.6212 24.1909 10.8787 27.0327 10.8787C29.164 10.8787 30.8975 12.6123 30.8975 14.7435C30.8903 16.8677 29.1569 18.6012 27.0327 18.6012ZM27.0327 6.96427C23.4022 6.96427 20.5891 9.32293 19.4454 13.2019C17.6976 10.5804 16.3761 7.4332 15.6018 4.7832H11.6944V14.9495C11.6944 16.953 10.0603 18.5868 8.05688 18.5868C6.05342 18.5868 4.41956 16.953 4.41956 14.9495V4.7832H0.511763V14.9495C0.497548 19.1128 3.88638 22.5299 8.04949 22.5299C12.2128 22.5299 15.6016 19.1128 15.6016 14.9495V13.2446C16.3617 14.8288 17.2923 16.4272 18.422 17.8482L16.0277 29.1013H20.0276L21.761 20.9385C23.2813 21.9118 25.0291 22.5229 27.0325 22.5229C31.3164 22.5229 34.8047 19.0133 34.8047 14.7293C34.8047 10.4524 31.3166 6.96427 27.0327 6.96427Z" fill="#6FDA44"/>
<path d="M46.7336 7.40467L49.2556 17.571L52.0336 7.40467H55.3441L51.0745 22.0965H47.7637L45.1424 11.8661L42.5278 22.0893H39.2173L34.9473 7.39766H38.258L41.0357 17.564L43.5578 7.39766H46.7334V7.40486L46.7336 7.40467ZM63.2655 6.96417C58.9674 6.96417 55.4863 10.4523 55.4863 14.7434C55.4863 19.0416 58.9744 22.5228 63.2655 22.5228C67.5637 22.5228 71.0519 19.0416 71.0519 14.7434C71.0519 10.4453 67.5637 6.96417 63.2655 6.96417ZM63.2655 19.3258C60.7364 19.3258 58.6903 17.2796 58.6903 14.7506C58.6903 12.2213 60.7434 10.1754 63.2655 10.1754C65.7947 10.1754 67.8407 12.2213 67.8407 14.7506C67.8407 17.2726 65.7947 19.3258 63.2655 19.3258ZM80.5078 10.694C78.2843 10.694 76.4868 12.4984 76.4868 14.7149V22.0893H73.1547V7.40467H76.4868V9.66383C76.4868 9.66383 77.9076 7.39747 80.8275 7.39747H81.8505V10.694H80.5078ZM91.6902 14.1751C94.0557 12.8394 95.6615 10.3032 95.6615 7.39747H92.3294C92.3294 9.84844 90.3403 11.8377 87.8893 11.8377H87.4416V0.314453H84.1098V22.0891H87.4416V15.1697H87.8397C88.1664 15.1697 88.5927 15.3829 88.7845 15.6456L93.5159 22.0893H97.5086L91.6902 14.1751Z" fill="white"/>
</g>
<defs>
<clipPath id="clip0_166_163">
<rect width="97.0549" height="29" fill="white" transform="translate(0.472656 0.285156)"/>
</clipPath>
</defs>
</svg>
