<svg width="31" height="31" viewBox="0 0 31 31" fill="none" xmlns="http://www.w3.org/2000/svg">
<g clip-path="url(#clip0_1103_4149)">
<path d="M9.00166 4.26172C12.9944 4.26172 15.8767 7.55803 15.8766 12.4388C15.851 19.5302 10.52 24.544 2.8293 25.5069C2.11579 25.5962 1.84066 24.6078 2.49772 24.3156C5.44871 23.0035 6.93911 21.3384 7.13161 19.6903C7.27544 18.4589 6.60607 17.3803 5.76557 17.1783C3.58659 16.6547 2.12666 13.9412 2.12666 11.1367C2.12666 7.33976 5.2047 4.26172 9.00166 4.26172Z" fill="#BFF747"/>
<path d="M24.0017 4.26172C27.9944 4.26172 30.8767 7.55803 30.8766 12.4388C30.851 19.5302 25.52 24.544 17.8293 25.5069C17.1158 25.5962 16.8407 24.6078 17.4977 24.3156C20.4487 23.0035 21.9391 21.3384 22.1316 19.6903C22.2754 18.4589 21.6061 17.3803 20.7656 17.1783C18.5866 16.6547 17.1267 13.9412 17.1267 11.1367C17.1267 7.33976 20.2047 4.26172 24.0017 4.26172Z" fill="#BFF747"/>
</g>
<defs>
<clipPath id="clip0_1103_4149">
<rect width="30" height="30" fill="white" transform="translate(0.875 0.511719)"/>
</clipPath>
</defs>
</svg>
