<svg width="40" height="41" viewBox="0 0 40 41" fill="none" xmlns="http://www.w3.org/2000/svg">
<g clip-path="url(#clip0_966_597)">
<path d="M14.9433 6.55273L16.1719 3.38131C16.3791 2.84435 16.7436 2.38248 17.2178 2.0562C17.6919 1.72992 18.2535 1.55443 18.829 1.55273H21.1719C21.7474 1.55443 22.3091 1.72992 22.7832 2.0562C23.2573 2.38248 23.6218 2.84435 23.829 3.38131L25.0576 6.55273L29.229 8.95273L32.6005 8.43845C33.1618 8.36225 33.7332 8.45466 34.2419 8.70394C34.7507 8.95322 35.1738 9.34812 35.4576 9.83845L36.6005 11.8384C36.8933 12.3366 37.0282 12.9118 36.9874 13.4882C36.9466 14.0646 36.732 14.6151 36.3719 15.067L34.2862 17.7242V22.5242L36.429 25.1813C36.7892 25.6332 37.0038 26.1837 37.0446 26.7601C37.0854 27.3365 36.9505 27.9117 36.6576 28.4099L35.5148 30.4099C35.231 30.9002 34.8078 31.2951 34.2991 31.5444C33.7904 31.7937 33.219 31.8861 32.6576 31.8099L29.2862 31.2956L25.1148 33.6956L23.8862 36.867C23.679 37.404 23.3145 37.8658 22.8403 38.1921C22.3662 38.5184 21.8046 38.6939 21.229 38.6956H18.829C18.2535 38.6939 17.6919 38.5184 17.2178 38.1921C16.7436 37.8658 16.3791 37.404 16.1719 36.867L14.9433 33.6956L10.7719 31.2956L7.40047 31.8099C6.83909 31.8861 6.26773 31.7937 5.75899 31.5444C5.25025 31.2951 4.82711 30.9002 4.54333 30.4099L3.40047 28.4099C3.10762 27.9117 2.97269 27.3365 3.0135 26.7601C3.0543 26.1837 3.26893 25.6332 3.62904 25.1813L5.71475 22.5242V17.7242L3.5719 15.067C3.21178 14.6151 2.99716 14.0646 2.95635 13.4882C2.91555 12.9118 3.05047 12.3366 3.34333 11.8384L4.48618 9.83845C4.76996 9.34812 5.19311 8.95322 5.70185 8.70394C6.21058 8.45466 6.78195 8.36225 7.34333 8.43845L10.7148 8.95273L14.9433 6.55273Z" stroke="#BFF747" stroke-width="1.5" stroke-linecap="round" stroke-linejoin="round"/>
<path d="M20.0011 28.6956C24.735 28.6956 28.5725 24.858 28.5725 20.1242C28.5725 15.3903 24.735 11.5527 20.0011 11.5527C15.2672 11.5527 11.4297 15.3903 11.4297 20.1242C11.4297 24.858 15.2672 28.6956 20.0011 28.6956Z" stroke="#BFF747" stroke-width="1.5" stroke-linecap="round" stroke-linejoin="round"/>
<path d="M20 11.5527V20.1242H28.5714" stroke="#BFF747" stroke-width="1.5" stroke-linecap="round" stroke-linejoin="round"/>
<path d="M20.0025 20.123L13.9453 26.1802" stroke="#BFF747" stroke-width="1.5" stroke-linecap="round" stroke-linejoin="round"/>
</g>
<defs>
<clipPath id="clip0_966_597">
<rect width="40" height="40" fill="white" transform="translate(0 0.123047)"/>
</clipPath>
</defs>
</svg>
