<svg width="31" height="31" viewBox="0 0 31 31" fill="none" xmlns="http://www.w3.org/2000/svg">
<g clip-path="url(#clip0_1015_50)">
<path d="M19.1069 28.3571C20.4265 29.2084 21.9991 29.5794 23.5601 29.4077C25.1211 29.236 26.5753 28.532 27.6783 27.4142L28.6426 26.4713C29.0654 26.0389 29.3021 25.4582 29.3021 24.8535C29.3021 24.2488 29.0654 23.668 28.6426 23.2356L24.5498 19.1856C24.121 18.7642 23.5438 18.5281 22.9426 18.5281C22.3414 18.5281 21.7643 18.7642 21.3355 19.1856V19.1856C20.9031 19.6084 20.3224 19.8451 19.7176 19.8451C19.1129 19.8451 18.5322 19.6084 18.0998 19.1856L11.6712 12.7571C11.4568 12.5457 11.2865 12.2939 11.1702 12.0161C11.054 11.7384 10.9941 11.4403 10.9941 11.1392C10.9941 10.8381 11.054 10.54 11.1702 10.2623C11.2865 9.98454 11.4568 9.73268 11.6712 9.52134V9.52134C12.0926 9.09255 12.3287 8.5154 12.3287 7.9142C12.3287 7.313 12.0926 6.73585 11.6712 6.30706L7.59978 2.23563C7.16736 1.81288 6.58665 1.57617 5.98192 1.57617C5.37719 1.57617 4.79648 1.81288 4.36406 2.23563L3.42121 3.19991C2.30338 4.30293 1.59942 5.75721 1.42771 7.3182C1.256 8.8792 1.62701 10.4517 2.47835 11.7713C6.91416 18.3086 12.5582 23.9381 19.1069 28.3571V28.3571Z" stroke="black" stroke-width="1.5" stroke-linecap="round" stroke-linejoin="round"/>
</g>
<defs>
<clipPath id="clip0_1015_50">
<rect width="30" height="30" fill="white" transform="translate(0.335938 0.5)"/>
</clipPath>
</defs>
</svg>
