<svg width="41" height="41" viewBox="0 0 41 41" fill="none" xmlns="http://www.w3.org/2000/svg">
<g clip-path="url(#clip0_961_490)">
<path d="M15.7667 23.916H3.62388C2.83491 23.916 2.19531 24.5556 2.19531 25.3446V37.4874C2.19531 38.2764 2.83491 38.916 3.62388 38.916H15.7667C16.5557 38.916 17.1953 38.2764 17.1953 37.4874V25.3446C17.1953 24.5556 16.5557 23.916 15.7667 23.916Z" stroke="#BFF747" stroke-width="1.5" stroke-linecap="round" stroke-linejoin="round"/>
<path d="M37.9074 23.916H25.7645C24.9755 23.916 24.3359 24.5556 24.3359 25.3446V37.4874C24.3359 38.2764 24.9755 38.916 25.7645 38.916H37.9074C38.6963 38.916 39.3359 38.2764 39.3359 37.4874V25.3446C39.3359 24.5556 38.6963 23.916 37.9074 23.916Z" stroke="#BFF747" stroke-width="1.5" stroke-linecap="round" stroke-linejoin="round"/>
<path d="M26.8527 1.77344H14.7098C13.9208 1.77344 13.2812 2.41303 13.2812 3.20201V15.3449C13.2812 16.1338 13.9208 16.7734 14.7098 16.7734H26.8527C27.6417 16.7734 28.2812 16.1338 28.2812 15.3449V3.20201C28.2812 2.41303 27.6417 1.77344 26.8527 1.77344Z" stroke="#BFF747" stroke-width="1.5" stroke-linecap="round" stroke-linejoin="round"/>
</g>
<defs>
<clipPath id="clip0_961_490">
<rect width="40" height="40" fill="white" transform="translate(0.765625 0.345703)"/>
</clipPath>
</defs>
</svg>
