<svg width="31" height="30" viewBox="0 0 31 30" fill="none" xmlns="http://www.w3.org/2000/svg">
<g clip-path="url(#clip0_1015_141)">
<path d="M26.5757 18.5527C26.9538 17.3856 27.1458 16.1684 27.1458 14.9281C27.1458 13.6924 26.9552 12.4795 26.5793 11.3161C27.4058 11.0058 28.1572 10.5089 28.7812 9.84808C29.8594 8.70665 30.4284 7.21342 30.3836 5.64397C30.2907 2.40369 27.5793 -0.156357 24.3386 -0.0638885C22.7689 -0.0190276 21.3109 0.634431 20.2327 1.7761C19.6882 2.35265 19.2739 3.01892 19.0026 3.73945C17.839 3.36385 16.6262 3.17319 15.39 3.17319C14.1531 3.17319 12.9393 3.36431 11.775 3.74036C10.9352 1.51814 8.78604 -0.0664062 6.27337 -0.0664062C3.03171 -0.0664062 0.394531 2.57077 0.394531 5.8122C0.394531 8.32464 1.97931 10.4736 4.20153 11.3132C3.82525 12.4777 3.63436 13.6915 3.63436 14.9281C3.63436 16.1684 3.82639 17.3856 4.2045 18.5527C1.98068 19.3916 0.394531 21.5414 0.394531 24.055C0.394531 24.9399 0.586335 25.7906 0.964677 26.5835C1.06928 26.8025 1.33157 26.8955 1.55061 26.7909C1.76943 26.6863 1.86235 26.424 1.75798 26.2049C1.4364 25.5311 1.27344 24.8078 1.27344 24.055C1.27344 21.2984 3.51648 19.0556 6.27337 19.0556C9.03048 19.0556 11.2735 21.2984 11.2735 24.055C11.2735 26.8119 9.03048 29.0547 6.27337 29.0547C5.01589 29.0547 3.81403 28.5862 2.88935 27.7354C2.71059 27.5711 2.4325 27.5828 2.26839 27.7613C2.10405 27.9401 2.1155 28.2179 2.29425 28.3823C3.38167 29.3827 4.79479 29.9336 6.27337 29.9336C8.7897 29.9336 10.9416 28.3443 11.7787 26.117C12.9416 26.4924 14.1542 26.6831 15.39 26.6831C16.6259 26.6831 17.8388 26.4924 19.0017 26.1173C19.8388 28.3445 21.9907 29.9336 24.507 29.9336C27.7487 29.9336 30.3859 27.2965 30.3859 24.055C30.3859 21.5414 28.7997 19.3913 26.5757 18.5527ZM20.8717 2.37943C21.7886 1.40851 23.0289 0.852784 24.364 0.814561C24.4125 0.813188 24.4606 0.812501 24.5091 0.812501C27.2003 0.812501 29.4275 2.96193 29.5049 5.66892C29.5431 7.00376 29.0593 8.2736 28.1424 9.24475C27.2255 10.2157 25.9852 10.7714 24.6501 10.8096C24.6016 10.811 24.5533 10.8117 24.505 10.8117C21.8138 10.8117 19.5865 8.66224 19.5092 5.95525C19.4707 4.62041 19.9548 3.35035 20.8717 2.37943ZM18.7552 25.2731C17.6724 25.6252 16.5424 25.8041 15.39 25.8041C14.238 25.8041 13.108 25.6252 12.0252 25.2731C12.1083 24.8799 12.1524 24.4725 12.1524 24.055C12.1524 20.8136 9.51503 18.1766 6.27337 18.1766C5.85337 18.1766 5.44367 18.2213 5.04839 18.3053C4.6934 17.2185 4.51327 16.0844 4.51327 14.9281C4.51327 13.7755 4.69248 12.645 5.04519 11.561C5.44138 11.6457 5.85223 11.6906 6.27337 11.6906C7.28045 11.6906 8.27403 11.4315 9.14721 10.9415C9.3587 10.8227 9.434 10.5549 9.31521 10.3432C9.19642 10.1314 8.92863 10.0564 8.71692 10.1752C7.97488 10.5915 7.12985 10.8117 6.27337 10.8117C3.51625 10.8117 1.27344 8.56886 1.27344 5.81197C1.27344 3.05532 3.51648 0.812501 6.27337 0.812501C9.03048 0.812501 11.2735 3.05532 11.2735 5.8122C11.2735 6.96554 10.8714 8.09072 10.1412 8.98085C9.98721 9.1683 10.0147 9.44525 10.2024 9.59929C10.3898 9.7531 10.6668 9.72586 10.8208 9.53817C11.6793 8.4915 12.1524 7.1681 12.1524 5.81197C12.1524 5.39106 12.1073 4.98022 12.0229 4.58402C13.1066 4.23131 14.2373 4.0521 15.39 4.0521C16.5424 4.0521 17.6726 4.23108 18.7559 4.58333C18.66 5.03698 18.617 5.50504 18.6305 5.98043C18.7218 9.1635 21.3402 11.6908 24.5047 11.6906C24.5613 11.6906 24.6183 11.6899 24.6753 11.6881C25.0355 11.6778 25.3898 11.635 25.7352 11.562C26.0877 12.6455 26.2669 13.7759 26.2669 14.9281C26.2669 16.0844 26.0866 17.2185 25.7318 18.3053C25.3365 18.221 24.9268 18.1766 24.507 18.1766C21.2654 18.1766 18.6282 20.8136 18.6282 24.055C18.6282 24.4727 18.6721 24.8801 18.7552 25.2731ZM24.507 29.0547C21.7499 29.0547 19.5071 26.8119 19.5071 24.0553C19.5071 21.2984 21.7499 19.0556 24.507 19.0556C27.2642 19.0556 29.507 21.2984 29.507 24.0553C29.507 26.8119 27.2642 29.0547 24.507 29.0547Z" fill="black"/>
<path d="M9.26556 3.21766C9.11404 3.11467 8.91469 3.11627 8.765 3.22201C8.61531 3.32753 8.45509 3.41565 8.28663 3.48545C7.68284 3.01304 6.80783 3.01853 6.20838 3.5397C5.89688 3.8107 5.7021 4.18538 5.65678 4.59004C5.01202 4.49414 4.42928 4.13914 4.04705 3.59486C3.95595 3.46531 3.80215 3.39505 3.6449 3.41015C3.4872 3.42549 3.3501 3.52436 3.28579 3.66902C3.2732 3.6974 2.97748 4.37306 3.01525 5.20001C3.04409 5.83287 3.27045 6.64861 4.09603 7.27849C3.79871 7.37439 3.48469 7.41879 3.1718 7.40621C2.9681 7.3982 2.78614 7.53072 2.73121 7.72664C2.67627 7.92256 2.76302 8.13062 2.94086 8.2295C3.63026 8.61242 4.36886 8.80422 5.09052 8.80422C5.78381 8.80422 6.4613 8.62706 7.06417 8.27253C7.82017 7.82781 8.36949 7.14688 8.66772 6.31535C8.67711 6.2943 8.68489 6.27232 8.69107 6.24966C8.84442 5.79808 8.92476 5.30347 8.92476 4.77887C8.92476 4.75598 8.92407 4.73286 8.92316 4.70997C9.17401 4.41426 9.353 4.06384 9.44546 3.68504C9.48849 3.50697 9.41708 3.32066 9.26556 3.21766ZM8.03235 4.64177C8.04104 4.68754 8.04562 4.73492 8.04562 4.78024C8.04562 5.211 7.98153 5.60994 7.85954 5.97043C7.8529 5.98691 7.84741 6.00407 7.84283 6.0217C7.61464 6.66028 7.19921 7.1732 6.61854 7.51493C6.08708 7.82781 5.47711 7.96102 4.85546 7.91593C4.99783 7.84543 5.13538 7.76532 5.26699 7.67606C5.39883 7.58634 5.47207 7.4323 5.45788 7.27323C5.44369 7.11415 5.34435 6.97545 5.19856 6.91068C4.37801 6.54607 3.93925 5.96608 3.89461 5.18719C3.88546 5.02766 3.89347 4.87454 3.91064 4.73424C4.51511 5.23938 5.28942 5.51495 6.09761 5.49412C6.33587 5.48794 6.52584 5.29317 6.52584 5.0549V4.78825C6.52584 4.78642 6.52584 4.78436 6.52584 4.7823C6.52287 4.56006 6.61717 4.3488 6.78517 4.203C7.09919 3.92994 7.57664 3.96313 7.8497 4.27716C7.90463 4.3401 7.97467 4.38473 8.05111 4.40831C8.02433 4.48201 8.01724 4.56234 8.03235 4.64177Z" fill="black"/>
<path d="M23.0605 6.15825H23.6836V8.77873C23.6836 9.02134 23.8804 9.21818 24.123 9.21818C24.3659 9.21818 24.5625 9.02134 24.5625 8.77873V6.15825H25.2411C25.4837 6.15825 25.6806 5.96142 25.6806 5.7188C25.6806 5.47619 25.4837 5.27935 25.2411 5.27935H24.5625V4.04979C24.5625 3.62773 24.906 3.28418 25.3283 3.28418H25.8973C26.1399 3.28418 26.3368 3.08734 26.3368 2.84473C26.3368 2.60188 26.1399 2.40527 25.8973 2.40527H25.3283C24.4215 2.40527 23.6836 3.14296 23.6836 4.04979V5.27935H23.0605C22.8179 5.27935 22.6211 5.47619 22.6211 5.7188C22.6211 5.96142 22.8179 6.15825 23.0605 6.15825Z" fill="black"/>
<path d="M5.27658 26.3275C5.38118 26.3275 5.48578 26.3005 5.57893 26.2467L8.5702 24.5189C8.75673 24.4113 8.87255 24.2106 8.87255 23.9952C8.87255 23.7801 8.75673 23.5793 8.5702 23.4718L5.57893 21.7439C5.39262 21.6361 5.161 21.6361 4.97446 21.7439C4.78792 21.8515 4.67188 22.0522 4.67188 22.2676V25.7231C4.67188 25.9384 4.78792 26.1392 4.97446 26.2467C5.06761 26.3008 5.17198 26.3275 5.27658 26.3275ZM5.55078 22.7428L7.71967 23.9955L5.55078 25.2481V22.7428Z" fill="black"/>
<path d="M26.4167 20.9424H22.5975C21.9342 20.9424 21.3945 21.4821 21.3945 22.1456V25.9641C21.3945 26.6276 21.9342 27.1673 22.5975 27.1673H26.4167C27.08 27.1673 27.6197 26.6276 27.6197 25.9641V22.1456C27.6197 21.4821 27.08 20.9424 26.4167 20.9424ZM26.7408 25.9641C26.7408 26.143 26.5954 26.2884 26.4167 26.2884H22.5975C22.4188 26.2884 22.2734 26.143 22.2734 25.9641V22.1456C22.2734 21.9669 22.4188 21.8213 22.5975 21.8213H26.4167C26.5954 21.8213 26.7408 21.9669 26.7408 22.1456V25.9641Z" fill="black"/>
<path d="M24.5081 22.7266C23.7757 22.7266 23.1797 23.3226 23.1797 24.055C23.1797 24.7874 23.7757 25.3832 24.5081 25.3832C25.2405 25.3832 25.8366 24.7874 25.8366 24.055C25.8366 23.3226 25.2405 22.7266 24.5081 22.7266ZM24.5081 24.5043C24.2602 24.5043 24.0586 24.3026 24.0586 24.055C24.0586 23.8071 24.2602 23.6055 24.5081 23.6055C24.756 23.6055 24.9576 23.8071 24.9576 24.055C24.9576 24.3026 24.756 24.5043 24.5081 24.5043Z" fill="black"/>
<path d="M18.5686 10.3691C18.3258 10.3691 18.1292 10.566 18.1292 10.8086V11.0057C17.5098 11.3707 16.8586 11.6859 16.1892 11.9438C15.6531 12.1503 15.0994 12.322 14.5394 12.4563C14.4533 12.3902 14.3462 12.3501 14.2295 12.3501H12.2174C11.7312 12.3501 11.3359 12.7456 11.3359 13.2315V15.5394C11.3359 16.0255 11.7312 16.4208 12.2174 16.4208H12.6195L12.7719 19.3509C12.7841 19.5855 12.9782 19.7675 13.2105 19.7675C13.218 19.7675 13.2258 19.7673 13.2336 19.7668C13.476 19.7542 13.6623 19.5475 13.6497 19.3052L13.4996 16.4208H14.2295C14.346 16.4208 14.4533 16.381 14.5391 16.3148C14.8957 16.4009 15.2505 16.502 15.5973 16.6172C15.8277 16.6934 16.0763 16.5686 16.1528 16.3384C16.2292 16.1079 16.1042 15.8591 15.874 15.7829C15.5016 15.6593 15.1207 15.5506 14.7376 15.4583V13.313C15.3377 13.1693 15.9307 12.985 16.505 12.7639C17.0603 12.5499 17.6041 12.2993 18.1289 12.0155V16.7566C17.9358 16.6522 17.7405 16.5526 17.5439 16.4581C17.3251 16.3528 17.0626 16.4448 16.9575 16.6636C16.8522 16.8824 16.9442 17.145 17.163 17.2503C17.4903 17.4077 17.814 17.5812 18.1289 17.7662V17.9623C18.1289 18.2051 18.3258 18.4018 18.5684 18.4018C18.811 18.4018 19.0078 18.2051 19.0078 17.9623V10.8086C19.0081 10.566 18.8112 10.3691 18.5686 10.3691ZM13.8589 15.5416L12.2148 15.5394L12.2174 13.229H13.8589V15.5416Z" fill="black"/>
</g>
<defs>
<clipPath id="clip0_1015_141">
<rect width="30" height="30" fill="white" transform="translate(0.335938 -0.0078125)"/>
</clipPath>
</defs>
</svg>
