<svg width="40" height="41" viewBox="0 0 40 41" fill="none" xmlns="http://www.w3.org/2000/svg">
<g clip-path="url(#clip0_961_477)">
<path d="M14.9433 6.55469L16.1719 3.38326C16.3791 2.8463 16.7436 2.38443 17.2178 2.05815C17.6919 1.73187 18.2535 1.55639 18.829 1.55469H21.1719C21.7474 1.55639 22.3091 1.73187 22.7832 2.05815C23.2573 2.38443 23.6218 2.8463 23.829 3.38326L25.0576 6.55469L29.229 8.95469L32.6005 8.4404C33.1618 8.3642 33.7332 8.45662 34.2419 8.7059C34.7507 8.95518 35.1738 9.35007 35.4576 9.8404L36.6005 11.8404C36.8933 12.3385 37.0282 12.9138 36.9874 13.4902C36.9466 14.0666 36.732 14.6171 36.3719 15.069L34.2862 17.7261V22.5261L36.429 25.1833C36.7892 25.6352 37.0038 26.1857 37.0446 26.7621C37.0854 27.3385 36.9505 27.9137 36.6576 28.4118L35.5148 30.4118C35.231 30.9022 34.8078 31.2971 34.2991 31.5463C33.7904 31.7956 33.219 31.888 32.6576 31.8118L29.2862 31.2975L25.1148 33.6975L23.8862 36.869C23.679 37.4059 23.3145 37.8678 22.8403 38.1941C22.3662 38.5204 21.8046 38.6958 21.229 38.6975H18.829C18.2535 38.6958 17.6919 38.5204 17.2178 38.1941C16.7436 37.8678 16.3791 37.4059 16.1719 36.869L14.9433 33.6975L10.7719 31.2975L7.40047 31.8118C6.83909 31.888 6.26773 31.7956 5.75899 31.5463C5.25025 31.2971 4.82711 30.9022 4.54333 30.4118L3.40047 28.4118C3.10762 27.9137 2.97269 27.3385 3.0135 26.7621C3.0543 26.1857 3.26893 25.6352 3.62904 25.1833L5.71475 22.5261V17.7261L3.5719 15.069C3.21178 14.6171 2.99716 14.0666 2.95635 13.4902C2.91555 12.9138 3.05047 12.3385 3.34333 11.8404L4.48618 9.8404C4.76996 9.35007 5.19311 8.95518 5.70185 8.7059C6.21058 8.45662 6.78195 8.3642 7.34333 8.4404L10.7148 8.95469L14.9433 6.55469Z" stroke="#BFF747" stroke-width="1.5" stroke-linecap="round" stroke-linejoin="round"/>
<path d="M20.0011 28.6975C24.735 28.6975 28.5725 24.86 28.5725 20.1261C28.5725 15.3922 24.735 11.5547 20.0011 11.5547C15.2672 11.5547 11.4297 15.3922 11.4297 20.1261C11.4297 24.86 15.2672 28.6975 20.0011 28.6975Z" stroke="#BFF747" stroke-width="1.5" stroke-linecap="round" stroke-linejoin="round"/>
<path d="M20 11.5547V20.1261H28.5714" stroke="#BFF747" stroke-width="1.5" stroke-linecap="round" stroke-linejoin="round"/>
<path d="M20.0025 20.125L13.9453 26.1821" stroke="#BFF747" stroke-width="1.5" stroke-linecap="round" stroke-linejoin="round"/>
</g>
<defs>
<clipPath id="clip0_961_477">
<rect width="40" height="40" fill="white" transform="translate(0 0.125)"/>
</clipPath>
</defs>
</svg>
