<svg width="30" height="31" viewBox="0 0 30 31" fill="none" xmlns="http://www.w3.org/2000/svg">
<g clip-path="url(#clip0_956_146)">
<path d="M28.9286 23.2891V27.5748C28.9286 28.1431 28.7028 28.6881 28.3009 29.09C27.8991 29.4919 27.354 29.7176 26.7857 29.7176H22.5" stroke="#BFF747" stroke-width="1.5" stroke-linecap="round" stroke-linejoin="round"/>
<path d="M22.5 1.86133H26.7857C27.354 1.86133 27.8991 2.08709 28.3009 2.48896C28.7028 2.89082 28.9286 3.43586 28.9286 4.00419V8.2899" stroke="#BFF747" stroke-width="1.5" stroke-linecap="round" stroke-linejoin="round"/>
<path d="M1.07031 8.2899V4.00419C1.07031 3.43586 1.29608 2.89082 1.69794 2.48896C2.0998 2.08709 2.64485 1.86133 3.21317 1.86133H7.49888" stroke="#BFF747" stroke-width="1.5" stroke-linecap="round" stroke-linejoin="round"/>
<path d="M7.49888 29.7176H3.21317C2.64485 29.7176 2.0998 29.4919 1.69794 29.09C1.29608 28.6881 1.07031 28.1431 1.07031 27.5748V23.2891" stroke="#BFF747" stroke-width="1.5" stroke-linecap="round" stroke-linejoin="round"/>
<path d="M24.6412 15.7899C24.6412 15.7899 20.3555 22.2185 14.9983 22.2185C9.64118 22.2185 5.35547 15.7899 5.35547 15.7899C5.35547 15.7899 9.64118 9.36133 14.9983 9.36133C20.3555 9.36133 24.6412 15.7899 24.6412 15.7899Z" stroke="#BFF747" stroke-width="1.5" stroke-linecap="round" stroke-linejoin="round"/>
<path d="M14.9972 16.8616C15.5889 16.8616 16.0686 16.3819 16.0686 15.7902C16.0686 15.1984 15.5889 14.7188 14.9972 14.7188C14.4055 14.7188 13.9258 15.1984 13.9258 15.7902C13.9258 16.3819 14.4055 16.8616 14.9972 16.8616Z" stroke="#BFF747" stroke-width="1.5" stroke-linecap="round" stroke-linejoin="round"/>
</g>
<defs>
<clipPath id="clip0_956_146">
<rect width="30" height="30" fill="white" transform="translate(0 0.789062)"/>
</clipPath>
</defs>
</svg>
