<svg width="40" height="41" viewBox="0 0 40 41" fill="none" xmlns="http://www.w3.org/2000/svg">
<g clip-path="url(#clip0_966_535)">
<path d="M35.7154 1.52734H4.28683C2.70887 1.52734 1.42969 2.80653 1.42969 4.38449V35.8131C1.42969 37.391 2.70887 38.6702 4.28683 38.6702H35.7154C37.2934 38.6702 38.5725 37.391 38.5725 35.8131V4.38449C38.5725 2.80653 37.2934 1.52734 35.7154 1.52734Z" stroke="#BFF747" stroke-width="1.5" stroke-linecap="round" stroke-linejoin="round"/>
<path d="M20 32.9551C25.5228 32.9551 30 28.4779 30 22.9551C30 17.4322 25.5228 12.9551 20 12.9551C14.4772 12.9551 10 17.4322 10 22.9551C10 28.4779 14.4772 32.9551 20 32.9551Z" stroke="#BFF747" stroke-width="1.5" stroke-linecap="round" stroke-linejoin="round"/>
<path d="M1.42969 10.0996H10.0011" stroke="#BFF747" stroke-width="1.5" stroke-linecap="round" stroke-linejoin="round"/>
<path d="M30 10.0996H38.5714" stroke="#BFF747" stroke-width="1.5" stroke-linecap="round" stroke-linejoin="round"/>
<path d="M20 22.8711V32.8711" stroke="#BFF747" stroke-width="1.5" stroke-linecap="round" stroke-linejoin="round"/>
<path d="M11.4297 17.8125L20.0011 22.8696" stroke="#BFF747" stroke-width="1.5" stroke-linecap="round" stroke-linejoin="round"/>
<path d="M28.5714 17.8125L20 22.8696" stroke="#BFF747" stroke-width="1.5" stroke-linecap="round" stroke-linejoin="round"/>
</g>
<defs>
<clipPath id="clip0_966_535">
<rect width="40" height="40" fill="white" transform="translate(0 0.0996094)"/>
</clipPath>
</defs>
</svg>
