<svg width="30" height="30" viewBox="0 0 30 30" fill="none" xmlns="http://www.w3.org/2000/svg">
<g clip-path="url(#clip0_956_198)">
<path d="M6.96317 12.858C10.2177 12.858 12.856 10.2197 12.856 6.96512C12.856 3.71059 10.2177 1.07227 6.96317 1.07227C3.70863 1.07227 1.07031 3.71059 1.07031 6.96512C1.07031 10.2197 3.70863 12.858 6.96317 12.858Z" stroke="#BFF747" stroke-width="1.5" stroke-linecap="round" stroke-linejoin="round"/>
<path d="M23.0335 12.858C26.288 12.858 28.9263 10.2197 28.9263 6.96512C28.9263 3.71059 26.288 1.07227 23.0335 1.07227C19.7789 1.07227 17.1406 3.71059 17.1406 6.96512C17.1406 10.2197 19.7789 12.858 23.0335 12.858Z" stroke="#BFF747" stroke-width="1.5" stroke-linecap="round" stroke-linejoin="round"/>
<path d="M6.96317 28.9302C10.2177 28.9302 12.856 26.2919 12.856 23.0374C12.856 19.7829 10.2177 17.1445 6.96317 17.1445C3.70863 17.1445 1.07031 19.7829 1.07031 23.0374C1.07031 26.2919 3.70863 28.9302 6.96317 28.9302Z" stroke="#BFF747" stroke-width="1.5" stroke-linecap="round" stroke-linejoin="round"/>
<path d="M23.0335 28.9302C26.288 28.9302 28.9263 26.2919 28.9263 23.0374C28.9263 19.7829 26.288 17.1445 23.0335 17.1445C19.7789 17.1445 17.1406 19.7829 17.1406 23.0374C17.1406 26.2919 19.7789 28.9302 23.0335 28.9302Z" stroke="#BFF747" stroke-width="1.5" stroke-linecap="round" stroke-linejoin="round"/>
</g>
<defs>
<clipPath id="clip0_956_198">
<rect width="30" height="30" fill="white"/>
</clipPath>
</defs>
</svg>
