<svg width="41" height="41" viewBox="0 0 41 41" fill="none" xmlns="http://www.w3.org/2000/svg">
<g clip-path="url(#clip0_966_591)">
<path d="M15.7667 23.9141H3.62388C2.83491 23.9141 2.19531 24.5537 2.19531 25.3426V37.4855C2.19531 38.2745 2.83491 38.9141 3.62388 38.9141H15.7667C16.5557 38.9141 17.1953 38.2745 17.1953 37.4855V25.3426C17.1953 24.5537 16.5557 23.9141 15.7667 23.9141Z" stroke="#BFF747" stroke-width="1.5" stroke-linecap="round" stroke-linejoin="round"/>
<path d="M37.9074 23.9141H25.7645C24.9755 23.9141 24.3359 24.5537 24.3359 25.3426V37.4855C24.3359 38.2745 24.9755 38.9141 25.7645 38.9141H37.9074C38.6963 38.9141 39.3359 38.2745 39.3359 37.4855V25.3426C39.3359 24.5537 38.6963 23.9141 37.9074 23.9141Z" stroke="#BFF747" stroke-width="1.5" stroke-linecap="round" stroke-linejoin="round"/>
<path d="M26.8527 1.77148H14.7098C13.9208 1.77148 13.2812 2.41108 13.2812 3.20006V15.3429C13.2812 16.1319 13.9208 16.7715 14.7098 16.7715H26.8527C27.6417 16.7715 28.2812 16.1319 28.2812 15.3429V3.20006C28.2812 2.41108 27.6417 1.77148 26.8527 1.77148Z" stroke="#BFF747" stroke-width="1.5" stroke-linecap="round" stroke-linejoin="round"/>
</g>
<defs>
<clipPath id="clip0_966_591">
<rect width="40" height="40" fill="white" transform="translate(0.765625 0.34375)"/>
</clipPath>
</defs>
</svg>
