<svg width="137" height="137" viewBox="0 0 137 137" fill="none" xmlns="http://www.w3.org/2000/svg">
<path d="M69.7219 11.3418L70.5273 0.988281L72.5241 1.14363L71.7186 11.4972L69.7219 11.3418ZM70.7424 11.4212L70.8897 9.52799L76.7321 9.98252L76.5848 11.8757L70.7424 11.4212Z" fill="#BFF747"/>
<path d="M78.6062 12.2215L81.0522 2.12891L82.9987 2.60064L80.5527 12.6933L78.6062 12.2215ZM79.6011 12.4627L80.0483 10.6171L85.8877 12.0323L85.4404 13.8779L79.6011 12.4627ZM80.6179 8.267L81.0652 6.42149L86.472 7.73186L86.0247 9.57737L80.6179 8.267ZM81.5998 4.21553L82.0471 2.37001L87.8864 3.78521L87.4391 5.63073L81.5998 4.21553Z" fill="#BFF747"/>
<path d="M94.0081 17.3762L94.6497 6.64552L94.6943 6.32459L96.5259 7.13463L95.9828 18.1197L95.9348 18.2282L94.0081 17.3762ZM86.885 14.226L86.933 14.1175L94.6943 6.32459L96.5259 7.13463L96.2778 7.36556L88.7709 15.0601L86.885 14.226ZM89.5637 12.8639L90.7388 11.3072L95.6368 13.4733L95.2758 15.39L89.5637 12.8639Z" fill="#BFF747"/>
<path d="M97.6696 19.3051L103.534 10.7344L105.125 11.8234L99.2613 20.3941L97.6696 19.3051ZM100.706 16.6011L101.72 15.1196L104.389 16.9458C104.813 17.2363 105.21 17.3576 105.578 17.3099C105.952 17.2541 106.264 17.0425 106.515 16.6752L108.168 17.8061C107.615 18.6142 106.921 19.0859 106.086 19.2213C105.258 19.3622 104.408 19.1338 103.534 18.5363L100.706 16.6011ZM106.515 16.6752C106.767 16.3079 106.848 15.944 106.759 15.5836C106.676 15.2149 106.422 14.8854 105.997 14.595L103.328 12.7688L104.342 11.2873L107.17 13.2224C108.044 13.82 108.564 14.5299 108.733 15.3522C108.909 16.1801 108.721 16.998 108.168 17.8061L106.515 16.6752ZM102.347 22.5052L103.008 17.493L104.88 18.1986L104.189 23.6219L104.122 23.7199L102.347 22.5052Z" fill="#BFF747"/>
<path d="M110.786 30.0701L113.016 18.3129L113.396 17.9375L114.804 19.362L112.584 31.1297L112.205 31.5051L110.786 30.0701ZM106.01 25.2375L113.396 17.9375L114.804 19.362L107.418 26.662L106.01 25.2375ZM110.786 30.0701L118.172 22.7701L119.591 24.2051L112.205 31.5051L110.786 30.0701Z" fill="#BFF747"/>
<path d="M119.011 41.7335L119.295 41.6041L130.22 40.8192L131.11 42.5472L130.833 42.6897L119.907 43.4746L119.011 41.7335ZM116.865 37.5652L126.099 32.8125L127.015 34.5932L117.782 39.346L116.865 37.5652ZM119.018 41.7466L125.998 33.298L126.275 33.1555L127.172 34.8966L120.184 43.332L119.907 43.4746L119.018 41.7466ZM121.136 45.8621L130.37 41.1094L131.286 42.8901L122.053 47.6428L121.136 45.8621Z" fill="#BFF747"/>
<path d="M123.85 54.9259C123.61 53.9663 123.614 53.0631 123.861 52.2165C124.118 51.3674 124.589 50.6384 125.273 50.0294C125.966 49.418 126.841 48.9806 127.896 48.7171C128.952 48.4537 129.925 48.4301 130.814 48.6463C131.714 48.8602 132.472 49.2827 133.088 49.9138C133.714 50.5425 134.146 51.3367 134.386 52.2963C134.628 53.2655 134.619 54.1698 134.36 55.0093C134.112 55.8559 133.642 56.585 132.948 57.1964C132.264 57.8054 131.395 58.2416 130.339 58.505C129.284 58.7685 128.306 58.7933 127.407 58.5794C126.517 58.3632 125.759 57.9407 125.133 57.3119C124.519 56.6904 124.091 55.8951 123.85 54.9259ZM125.692 54.466C125.836 55.0418 126.102 55.5157 126.49 55.8876C126.881 56.2692 127.362 56.5213 127.933 56.6438C128.513 56.764 129.154 56.7367 129.854 56.5618C130.564 56.3846 131.142 56.1078 131.589 55.7314C132.035 55.3549 132.341 54.9065 132.507 54.386C132.675 53.8752 132.687 53.3319 132.544 52.7561C132.4 52.1803 132.133 51.7017 131.742 51.3201C131.353 50.9482 130.874 50.7009 130.303 50.5783C129.732 50.4558 129.091 50.4831 128.381 50.6603C127.681 50.8351 127.103 51.112 126.647 51.4908C126.2 51.8672 125.893 52.3109 125.725 52.8217C125.559 53.3422 125.548 53.8903 125.692 54.466Z" fill="#BFF747"/>
<path d="M125.527 62.1368L135.898 61.6055L135.997 63.5316L125.626 64.0629L125.527 62.1368ZM129.518 62.9128L131.311 62.8209L131.477 66.0508C131.503 66.5644 131.647 66.9532 131.908 67.2171C132.179 67.4805 132.536 67.6008 132.981 67.5781L133.083 69.5782C132.106 69.6283 131.31 69.3621 130.695 68.7796C130.082 68.2069 129.748 67.3922 129.694 66.3353L129.518 62.9128ZM132.981 67.5781C133.425 67.5553 133.764 67.3993 133.997 67.1101C134.239 66.8204 134.348 66.4187 134.321 65.9051L134.156 62.6752L135.949 62.5833L136.124 66.0058C136.178 67.0627 135.929 67.9073 135.377 68.5397C134.826 69.182 134.061 69.5281 133.083 69.5782L132.981 67.5781ZM125.817 67.7966L130.204 65.2841L130.778 67.2007L126.046 69.9388L125.927 69.9449L125.817 67.7966Z" fill="#BFF747"/>
<path d="M125.79 72.3781L136.1 73.6172L135.861 75.6057L125.551 74.3665L125.79 72.3781ZM125.668 73.3944L127.553 73.621L126.836 79.5864L124.951 79.3598L125.668 73.3944ZM129.954 73.9095L131.839 74.1361L131.175 79.6596L129.29 79.4331L129.954 73.9095ZM134.093 74.4069L135.978 74.6335L135.261 80.599L133.376 80.3724L134.093 74.4069Z" fill="#BFF747"/>
<path d="M126.413 92.326L128.926 90.6416L129.636 91.5207L127.433 93.5955L126.413 92.326ZM129.47 90.55L132.37 91.4014L131.786 92.9096L129.058 91.6154L129.47 90.55ZM126.752 89.2282L129.47 90.55L129.058 91.6154L126.169 90.7363L126.752 89.2282ZM128.926 90.6416L131.106 88.5423L132.126 89.8118L129.636 91.5207L128.926 90.6416ZM128.728 91.1536L129.844 90.9811L130.536 93.9211L128.927 94.1736L128.728 91.1536ZM128.003 88.2167L129.612 87.9642L129.844 90.9811L128.728 91.1536L128.003 88.2167Z" fill="#BFF747"/>
<path d="M117.173 99.296L125.665 105.273L124.512 106.911L116.02 100.934L117.173 99.296ZM116.584 100.133L118.136 101.226L114.763 106.018L113.211 104.925L116.584 100.133Z" fill="#BFF747"/>
<path d="M111.864 106.507L119.298 113.758L117.9 115.192L110.466 107.94L111.864 106.507ZM111.149 107.239L112.509 108.565L108.313 112.866L106.954 111.541L111.149 107.239ZM114.24 110.254L115.599 111.58L111.715 115.562L110.355 114.236L114.24 110.254ZM117.224 113.165L118.583 114.491L114.388 118.792L113.029 117.466L117.224 113.165Z" fill="#BFF747"/>
<path d="M99.5837 117.142L108.499 123.148L108.753 123.35L107.124 124.516L97.9398 118.465L97.8707 118.369L99.5837 117.142ZM105.917 112.609L105.986 112.705L108.753 123.35L107.124 124.516L107.052 124.185L104.24 113.809L105.917 112.609ZM105.728 115.608L106.472 117.411L102.117 120.528L100.65 119.243L105.728 115.608Z" fill="#BFF747"/>
<path d="M96.0663 119.316L100.469 128.721L98.7228 129.538L94.3196 120.133L96.0663 119.316ZM96.8527 123.305L97.6139 124.93L94.6848 126.302C94.2191 126.52 93.9132 126.799 93.7672 127.141C93.6254 127.491 93.6489 127.868 93.8376 128.271L92.0238 129.12C91.6086 128.233 91.555 127.396 91.8629 126.607C92.1619 125.823 92.7906 125.206 93.749 124.758L96.8527 123.305ZM93.8376 128.271C94.0263 128.674 94.2985 128.929 94.6541 129.035C95.014 129.151 95.4268 129.099 95.8926 128.881L98.8216 127.51L99.5827 129.136L96.479 130.589C95.5206 131.038 94.6445 131.126 93.8507 130.853C93.0479 130.584 92.4389 130.007 92.0238 129.12L93.8376 128.271ZM90.9338 121.718L94.9151 124.834L93.3563 126.088L89.0359 122.738L88.9856 122.631L90.9338 121.718Z" fill="#BFF747"/>
<path d="M80.1262 125.127L89.1034 133.04L89.2327 133.559L87.2894 134.043L78.2979 126.134L78.1686 125.616L80.1262 125.127ZM86.7187 123.483L89.2327 133.559L87.2894 134.043L84.7755 123.967L86.7187 123.483ZM80.1262 125.127L82.6401 135.203L80.6825 135.692L78.1686 125.616L80.1262 125.127Z" fill="#BFF747"/>
<path d="M65.8143 126.244L65.7807 126.554L60.8792 136.35L58.9393 136.233L58.958 135.922L63.8596 126.126L65.8143 126.244ZM70.4938 126.527L69.8679 136.893L67.8688 136.772L68.4947 126.406L70.4938 126.527ZM65.7995 126.243L69.5017 136.558L69.4829 136.869L67.5282 136.751L63.8408 126.437L63.8596 126.126L65.7995 126.243ZM61.1793 125.964L60.5534 136.33L58.5542 136.209L59.1801 125.844L61.1793 125.964Z" fill="#BFF747"/>
<path d="M52.0088 123.685C52.9566 123.968 53.7317 124.431 54.3343 125.075C54.934 125.729 55.3217 126.505 55.4973 127.404C55.6702 128.312 55.6011 129.288 55.2901 130.33C54.9791 131.373 54.5039 132.222 53.8645 132.877C53.2223 133.542 52.4726 133.979 51.6156 134.188C50.7558 134.406 49.852 134.374 48.9043 134.091C47.947 133.806 47.1733 133.337 46.5831 132.687C45.9805 132.042 45.5928 131.266 45.42 130.358C45.2443 129.459 45.312 128.489 45.623 127.446C45.934 126.403 46.4107 125.55 47.0529 124.885C47.6923 124.229 48.4419 123.792 49.3017 123.574C50.1492 123.362 51.0516 123.399 52.0088 123.685ZM51.466 125.505C50.8973 125.335 50.354 125.322 49.836 125.467C49.3086 125.609 48.8467 125.895 48.4505 126.323C48.0514 126.762 47.7486 127.327 47.5422 128.019C47.333 128.72 47.2766 129.358 47.3732 129.934C47.4698 130.51 47.6998 131.002 48.0632 131.41C48.4172 131.815 48.8785 132.102 49.4471 132.271C50.0158 132.441 50.5638 132.455 51.0913 132.313C51.6092 132.168 52.0664 131.881 52.4626 131.453C52.8589 131.024 53.1617 130.459 53.3709 129.757C53.5773 129.066 53.6336 128.427 53.5399 127.842C53.4433 127.266 53.2181 126.776 52.8641 126.371C52.5007 125.963 52.0346 125.674 51.466 125.505Z" fill="#BFF747"/>
<path d="M44.9417 121.451L40.1045 130.641L38.3979 129.742L43.2351 120.553L44.9417 121.451ZM42.2371 124.487L41.401 126.076L38.5391 124.569C38.084 124.33 37.6764 124.255 37.3161 124.344C36.9513 124.443 36.6652 124.689 36.4579 125.083L34.6857 124.15C35.1417 123.284 35.777 122.735 36.5914 122.504C37.3971 122.269 38.2681 122.398 39.2046 122.891L42.2371 124.487ZM36.4579 125.083C36.2506 125.477 36.2119 125.848 36.3418 126.196C36.4671 126.552 36.7572 126.85 37.2123 127.09L40.0742 128.596L39.2381 130.185L36.2055 128.588C35.2691 128.095 34.6698 127.45 34.4078 126.653C34.137 125.851 34.2296 125.017 34.6857 124.15L36.4579 125.083ZM39.9269 118.811L39.8478 123.866L37.9069 123.381L37.968 117.914L38.0233 117.809L39.9269 118.811Z" fill="#BFF747"/>
<path d="M36.0886 116.501L29.7595 124.734L28.1717 123.514L34.5007 115.28L36.0886 116.501ZM35.277 115.877L34.1197 117.383L29.3561 113.721L30.5134 112.215L35.277 115.877ZM32.6459 119.3L31.4886 120.805L27.0779 117.415L28.2352 115.909L32.6459 119.3ZM30.1053 122.605L28.948 124.111L24.1844 120.449L25.3417 118.943L30.1053 122.605Z" fill="#BFF747"/>
<path d="M18.6013 106.863L18.7741 109.883L17.6562 110.047L16.9895 107.096L18.6013 106.863ZM18.5761 110.398L16.3686 112.462L15.3666 111.193L17.8683 109.502L18.5761 110.398ZM21.0961 108.73L18.5761 110.398L17.8683 109.502L20.0942 107.461L21.0961 108.73ZM18.7741 109.883L19.4733 112.828L17.8615 113.06L17.6562 110.047L18.7741 109.883ZM18.4339 109.452L18.0147 110.501L15.1313 109.602L15.7319 108.088L18.4339 109.452ZM21.3315 110.321L20.7308 111.835L18.0147 110.501L18.4339 109.452L21.3315 110.321Z" fill="#BFF747"/>
<path d="M17.2863 95.3601L7.823 99.6367L6.99822 97.8116L16.4616 93.535L17.2863 95.3601ZM16.8648 94.4273L15.1344 95.2093L12.7211 89.8693L14.4516 89.0873L16.8648 94.4273Z" fill="#BFF747"/>
<path d="M13.7782 87.1323L3.75098 89.834L3.22993 87.9002L13.2571 85.1984L13.7782 87.1323ZM13.5119 86.1439L11.6783 86.6379L10.1152 80.8364L11.9487 80.3424L13.5119 86.1439ZM9.34342 87.267L7.50987 87.761L6.06252 82.3893L7.89607 81.8953L9.34342 87.267ZM5.31821 88.3516L3.48466 88.8456L1.92152 83.0441L3.75507 82.5501L5.31821 88.3516Z" fill="#BFF747"/>
<path d="M10.899 71.1627L1.18346 75.7634L0.880667 75.8788L0.709455 73.8833L10.6007 69.0739L10.7189 69.0638L10.899 71.1627ZM11.5648 78.9228L11.4466 78.9329L0.880667 75.8788L0.709455 73.8833L1.03127 73.9897L11.3885 76.8682L11.5648 78.9228ZM9.08185 77.2299L7.15181 76.9488L6.69398 71.6128L8.54792 71.007L9.08185 77.2299Z" fill="#BFF747"/>
<path d="M10.8265 66.9167L0.490967 65.9062L0.678614 63.9868L11.0142 64.9972L10.8265 66.9167ZM6.99427 65.5582L5.2077 65.3836L5.52237 62.1648C5.57241 61.6529 5.48786 61.2471 5.26872 60.9475C5.03974 60.6468 4.70377 60.4749 4.26082 60.4316L4.45568 58.4383C5.43017 58.5336 6.17797 58.9147 6.69907 59.5818C7.22113 60.239 7.43067 61.0942 7.32771 62.1475L6.99427 65.5582ZM4.26082 60.4316C3.81786 60.3883 3.45987 60.4924 3.18684 60.744C2.90397 60.9945 2.73752 61.3758 2.68748 61.8876L2.37281 65.1064L0.586234 64.9318L0.919669 61.521C1.02263 60.4678 1.39385 59.6693 2.03331 59.1257C2.67373 58.5721 3.48119 58.343 4.45568 58.4383L4.26082 60.4316ZM11.3779 61.2764L6.66704 63.1114L6.38365 61.131L11.4691 59.1239L11.5872 59.1355L11.3779 61.2764Z" fill="#BFF747"/>
<path d="M13.9476 50.2516L2.56524 53.9457L2.05347 53.793L2.62617 51.8738L14.0128 48.1655L14.5245 48.3182L13.9476 50.2516ZM12.0047 56.7625L2.05347 53.793L2.62617 51.8738L12.5774 54.8434L12.0047 56.7625ZM13.9476 50.2516L3.99641 47.282L4.57335 45.3487L14.5245 48.3182L13.9476 50.2516Z" fill="#BFF747"/>
<path d="M20.2387 37.453L19.9892 37.2659L14.0673 28.0511L15.1581 26.4427L15.416 26.6176L21.3379 35.8323L20.2387 37.453ZM17.6073 41.3329L9.0127 35.5039L10.1369 33.8464L18.7315 39.6754L17.6073 41.3329ZM20.247 37.4408L9.48704 35.3595L9.2292 35.1847L10.3284 33.564L21.08 35.6575L21.3379 35.8323L20.247 37.4408ZM22.8451 33.61L14.2505 27.781L15.3746 26.1235L23.9692 31.9525L22.8451 33.61Z" fill="#BFF747"/>
<path d="M29.4881 26.8804C28.7622 27.5522 27.9686 27.9833 27.1074 28.1739C26.2394 28.3572 25.374 28.2957 24.511 27.9893C23.6413 27.6757 22.837 27.1196 22.0981 26.3211C21.3591 25.5226 20.8703 24.6814 20.6316 23.7973C20.3862 22.9059 20.3918 22.0383 20.6485 21.1944C20.8984 20.3432 21.3863 19.5818 22.1123 18.91C22.8454 18.2315 23.6423 17.804 24.503 17.6274C25.3643 17.4368 26.2297 17.4983 27.0994 17.812C27.9624 18.1183 28.7633 18.6708 29.5023 19.4693C30.2412 20.2678 30.7334 21.1127 30.9788 22.004C31.2175 22.8881 31.2118 23.7558 30.9619 24.6069C30.7125 25.4441 30.2212 26.2019 29.4881 26.8804ZM28.1983 25.4867C28.6339 25.0836 28.9212 24.6223 29.0603 24.1028C29.2066 23.5766 29.1962 23.0338 29.0289 22.4744C28.8549 21.9078 28.5227 21.3595 28.0323 20.8296C27.5352 20.2924 27.0143 19.9188 26.4695 19.7087C25.9248 19.4986 25.3844 19.4462 24.8484 19.5514C24.3197 19.6499 23.8376 19.9007 23.402 20.3037C22.9665 20.7068 22.6755 21.1714 22.5292 21.6977C22.39 22.2172 22.4041 22.7566 22.5714 23.316C22.7387 23.8754 23.0709 24.4237 23.568 24.9608C24.0584 25.4907 24.5793 25.8644 25.1308 26.0817C25.6756 26.2918 26.2123 26.3476 26.741 26.2491C27.277 26.1439 27.7628 25.8897 28.1983 25.4867Z" fill="#BFF747"/>
<path d="M35.0053 21.9319L29.5432 13.0996L31.1835 12.0852L36.6456 20.9175L35.0053 21.9319ZM33.7625 18.0606L32.8183 16.5339L35.569 14.8328C36.0064 14.5623 36.2778 14.2491 36.3833 13.8932C36.4836 13.5288 36.4167 13.1574 36.1826 12.7788L37.8859 11.7254C38.4009 12.5582 38.5511 13.384 38.3365 14.2028C38.1303 15.0164 37.5772 15.7015 36.6772 16.2581L33.7625 18.0606ZM36.1826 12.7788C35.9485 12.4003 35.6486 12.1787 35.2831 12.1141C34.9123 12.041 34.5082 12.1398 34.0708 12.4103L31.3201 14.1113L30.376 12.5846L33.2906 10.7821C34.1907 10.2255 35.0507 10.0367 35.8708 10.2156C36.6992 10.3894 37.3709 10.8927 37.8859 11.7254L36.1826 12.7788ZM39.8253 18.9511L35.51 16.3171L36.9132 14.8911L41.5924 17.7188L41.6548 17.8197L39.8253 18.9511Z" fill="#BFF747"/>
<path d="M43.7763 16.8098L39.9043 7.17383L41.7627 6.42709L45.6347 16.0631L43.7763 16.8098ZM44.7261 16.4281L44.0181 14.6661L49.5932 12.4259L50.3012 14.1879L44.7261 16.4281ZM43.1165 12.4223L42.4085 10.6603L47.5706 8.58603L48.2786 10.348L43.1165 12.4223ZM41.5622 8.55417L40.8541 6.79216L46.4292 4.55193L47.1373 6.31394L41.5622 8.55417Z" fill="#BFF747"/>
<path d="M60.8022 6.6674L58.0902 5.32709L58.4991 4.27384L61.3951 5.15067L60.8022 6.6674ZM57.7397 4.90055L57.0341 1.96194L58.6325 1.71692L58.8688 4.72746L57.7397 4.90055ZM57.9467 7.91559L57.7397 4.90055L58.8688 4.72746L59.5451 7.67057L57.9467 7.91559ZM58.0902 5.32709L55.1841 4.48184L55.777 2.96511L58.4991 4.27384L58.0902 5.32709ZM58.6328 5.24392L57.9272 4.3615L60.1323 2.29748L61.1524 3.56694L58.6328 5.24392ZM56.4469 7.33503L55.4268 6.06557L57.9272 4.3615L58.6328 5.24392L56.4469 7.33503Z" fill="#BFF747"/>
<g clip-path="url(#clip0_534_1185)">
<path d="M88.0842 85.8582C88.1581 85.8582 88.2327 85.8454 88.3047 85.8187C88.571 85.7206 88.7404 85.4587 88.72 85.1752C88.7041 84.9504 86.8458 62.8771 62.5416 60.9832L62.6002 52.6645C62.6021 52.4033 62.4435 52.167 62.2008 52.0695C61.9587 51.9721 61.6803 52.0319 61.5 52.2231L48.1239 66.3771C47.892 66.6224 47.892 67.0059 48.1232 67.2511L61.5829 81.5319C61.7625 81.7237 62.0422 81.7842 62.2843 81.6861C62.5276 81.5886 62.6862 81.3516 62.6837 81.0885L62.6066 72.9814C78.9578 74.1561 87.4861 85.4829 87.5714 85.5982C87.6944 85.7651 87.8861 85.8582 88.0842 85.8582ZM61.3147 54.2744L61.2624 61.5731C61.2599 61.9107 61.5217 62.1923 61.8593 62.2133C81.4232 63.4505 86.0763 77.7001 87.1446 83.1723C83.9326 79.7896 75.4324 72.3896 61.9976 71.6665C61.8237 71.6557 61.6498 71.7207 61.523 71.8424C61.3962 71.964 61.3242 72.1329 61.3261 72.3087L61.3937 79.473L49.4623 66.8141L61.3147 54.2744Z" fill="white"/>
</g>
<defs>
<clipPath id="clip0_534_1185">
<rect width="40.7714" height="40.7714" fill="white" transform="matrix(-1 0 0 1 88.7212 48.5547)"/>
</clipPath>
</defs>
</svg>
