<svg width="151" height="37" viewBox="0 0 151 37" fill="none" xmlns="http://www.w3.org/2000/svg">
<path d="M44.0537 24.0731H54.8814V20.7945H47.9021V8.44531H44.0537V24.0731Z" fill="white"/>
<path d="M61.2965 21.8873C59.7528 21.8873 58.9483 20.5321 58.9483 18.4994C58.9483 16.4667 59.7528 15.0897 61.2965 15.0897C62.8402 15.0897 63.6664 16.4667 63.6664 18.4994C63.6664 20.5321 62.8402 21.8873 61.2965 21.8873ZM61.3182 24.4227C64.9057 24.4227 67.2539 21.8654 67.2539 18.4994C67.2539 15.1334 64.9057 12.5762 61.3182 12.5762C57.7525 12.5762 55.3608 15.1334 55.3608 18.4994C55.3608 21.8654 57.7525 24.4227 61.3182 24.4227Z" fill="white"/>
<path d="M73.4638 27.9421C75.1162 27.9421 76.5729 27.5705 77.5513 26.6962C78.4428 25.8875 79.0298 24.6635 79.0298 22.9805V12.8825H75.638V14.0847H75.5945C74.9423 13.1448 73.9421 12.5547 72.4637 12.5547C69.7024 12.5547 67.7891 14.8715 67.7891 18.1501C67.7891 21.5816 70.1155 23.4614 72.6159 23.4614C73.9639 23.4614 74.8118 22.9149 75.4641 22.1718H75.5511V23.2865C75.5511 24.6416 74.9205 25.4285 73.4203 25.4285C72.2462 25.4285 71.6592 24.9258 71.4635 24.3356H68.0282C68.3761 26.6743 70.3981 27.9421 73.4638 27.9421ZM73.4421 20.8167C72.1158 20.8167 71.2461 19.7238 71.2461 18.0408C71.2461 16.336 72.1158 15.2431 73.4421 15.2431C74.9205 15.2431 75.7033 16.5108 75.7033 18.0189C75.7033 19.5927 74.9858 20.8167 73.4421 20.8167Z" fill="white"/>
<path d="M86.0035 21.8873C84.4598 21.8873 83.6553 20.5321 83.6553 18.4994C83.6553 16.4667 84.4598 15.0897 86.0035 15.0897C87.5472 15.0897 88.3734 16.4667 88.3734 18.4994C88.3734 20.5321 87.5472 21.8873 86.0035 21.8873ZM86.0253 24.4227C89.6127 24.4227 91.9604 21.8654 91.9604 18.4994C91.9604 15.1334 89.6127 12.5762 86.0253 12.5762C82.4595 12.5762 80.0679 15.1334 80.0679 18.4994C80.0679 21.8654 82.4595 24.4227 86.0253 24.4227Z" fill="white"/>
<path d="M92.9961 24.0731H96.5401V12.8823H92.9961V24.0731ZM92.9961 11.3304H96.5401V8.44531H92.9961V11.3304Z" fill="white"/>
<path d="M98.0776 27.7672H101.622V22.9149H101.665C102.361 23.8548 103.383 24.4231 104.818 24.4231C107.731 24.4231 109.666 22.1062 109.666 18.4779C109.666 15.112 107.862 12.5547 104.905 12.5547C103.383 12.5547 102.296 13.2323 101.535 14.2377H101.469V12.8825H98.0776V27.7672ZM103.905 21.6691C102.383 21.6691 101.513 20.4232 101.513 18.6091C101.513 16.795 102.296 15.418 103.839 15.418C105.361 15.418 106.079 16.6857 106.079 18.6091C106.079 20.5107 105.253 21.6691 103.905 21.6691Z" fill="white"/>
<path d="M115.435 24.4231C118.349 24.4231 120.501 23.1554 120.501 20.7074C120.501 17.8441 118.197 17.3414 116.24 17.0135C114.827 16.7512 113.565 16.642 113.565 15.8551C113.565 15.1557 114.239 14.8278 115.109 14.8278C116.088 14.8278 116.762 15.1338 116.892 16.1392H120.153C119.979 13.9317 118.284 12.5547 115.131 12.5547C112.5 12.5547 110.326 13.7787 110.326 16.1392C110.326 18.7621 112.391 19.2867 114.326 19.6145C115.805 19.8768 117.153 19.9861 117.153 20.9915C117.153 21.7128 116.479 22.1062 115.414 22.1062C114.239 22.1062 113.5 21.5598 113.37 20.4451H110.021C110.13 22.9149 112.174 24.4231 115.435 24.4231Z" fill="white"/>
<path d="M125.316 24.4015C126.86 24.4015 127.838 23.7895 128.643 22.6966H128.708V24.0736H132.1V12.8828H128.556V19.1339C128.556 20.4672 127.816 21.3852 126.599 21.3852C125.468 21.3852 124.925 20.7076 124.925 19.4836V12.8828H121.402V20.2268C121.402 22.7185 122.75 24.4015 125.316 24.4015Z" fill="white"/>
<path d="M133.642 24.0734H137.186V17.8004C137.186 16.4671 137.838 15.5272 138.947 15.5272C140.012 15.5272 140.512 16.2267 140.512 17.4288V24.0734H144.056V17.8004C144.056 16.4671 144.687 15.5272 145.817 15.5272C146.883 15.5272 147.383 16.2267 147.383 17.4288V24.0734H150.927V16.795C150.927 14.2814 149.666 12.5547 147.144 12.5547C145.709 12.5547 144.513 13.1667 143.643 14.5218H143.6C143.034 13.3197 141.925 12.5547 140.469 12.5547C138.86 12.5547 137.794 13.3197 137.099 14.4781H137.033V12.8825H133.642V24.0734Z" fill="white"/>
<path fill-rule="evenodd" clip-rule="evenodd" d="M7.65704 3.48027C6.37621 4.38059 5.21799 5.44507 4.21255 6.64335C8.32124 6.25988 13.5412 6.88603 19.6015 9.9322C26.073 13.185 31.2843 13.295 34.911 12.5917C34.5819 11.5901 34.1676 10.6275 33.6769 9.71233C29.5252 10.1525 24.2028 9.56986 18 6.45217C14.0611 4.47235 10.5891 3.65679 7.65704 3.48027ZM31.2517 6.24217C27.9731 2.55968 23.2085 0.242188 17.9055 0.242188C16.3481 0.242188 14.8371 0.442084 13.3966 0.81772C15.3476 1.35286 17.4201 2.13578 19.6015 3.23223C24.1428 5.51486 28.0636 6.24983 31.2517 6.24217ZM35.6864 16.1075C31.3049 16.9772 25.2546 16.7986 18 13.1521C11.2178 9.74311 5.81967 9.78604 2.17901 10.5994C1.99109 10.6413 1.8076 10.6854 1.62853 10.7313C1.15188 11.7734 0.771399 12.8693 0.498401 14.0072C0.789978 13.9289 1.09128 13.8545 1.40214 13.785C5.8189 12.7983 12.0594 12.8412 19.6015 16.6322C26.3838 20.0412 31.7819 19.9983 35.4226 19.1849C35.5473 19.1571 35.6702 19.1283 35.7911 19.0986C35.8043 18.8148 35.8109 18.5293 35.8109 18.2422C35.8109 17.5199 35.7687 16.8076 35.6864 16.1075ZM35.2065 22.8972C30.8675 23.6598 24.9933 23.3671 18 19.8521C11.2178 16.4431 5.81967 16.486 2.17901 17.2993C1.37089 17.4798 0.643916 17.6997 0.00262315 17.9318C0.000874684 18.035 0 18.1385 0 18.2422C0 28.1833 8.01655 36.2422 17.9055 36.2422C26.1931 36.2422 33.1657 30.582 35.2065 22.8972Z" fill="#BFF747"/>
</svg>
