<svg width="152" height="37" viewBox="0 0 152 37" fill="none" xmlns="http://www.w3.org/2000/svg">
<path d="M44.2192 24.0731H55.0469V20.7945H48.0676V8.44531H44.2192V24.0731Z" fill="white"/>
<path d="M61.462 21.8873C59.9183 21.8873 59.1138 20.5321 59.1138 18.4994C59.1138 16.4667 59.9183 15.0897 61.462 15.0897C63.0057 15.0897 63.8319 16.4667 63.8319 18.4994C63.8319 20.5321 63.0057 21.8873 61.462 21.8873ZM61.4838 24.4227C65.0712 24.4227 67.4194 21.8654 67.4194 18.4994C67.4194 15.1334 65.0712 12.5762 61.4838 12.5762C57.918 12.5762 55.5264 15.1334 55.5264 18.4994C55.5264 21.8654 57.918 24.4227 61.4838 24.4227Z" fill="white"/>
<path d="M73.6293 27.9421C75.2817 27.9421 76.7385 27.5705 77.7169 26.6962C78.6083 25.8875 79.1954 24.6635 79.1954 22.9805V12.8825H75.8036V14.0847H75.7601C75.1078 13.1448 74.1077 12.5547 72.6292 12.5547C69.8679 12.5547 67.9546 14.8715 67.9546 18.1501C67.9546 21.5816 70.281 23.4614 72.7814 23.4614C74.1294 23.4614 74.9773 22.9149 75.6296 22.1718H75.7166V23.2865C75.7166 24.6416 75.0861 25.4285 73.5858 25.4285C72.4118 25.4285 71.8247 24.9258 71.629 24.3356H68.1938C68.5416 26.6743 70.5637 27.9421 73.6293 27.9421ZM73.6076 20.8167C72.2813 20.8167 71.4116 19.7238 71.4116 18.0408C71.4116 16.336 72.2813 15.2431 73.6076 15.2431C75.0861 15.2431 75.8688 16.5108 75.8688 18.0189C75.8688 19.5927 75.1513 20.8167 73.6076 20.8167Z" fill="white"/>
<path d="M86.169 21.8873C84.6253 21.8873 83.8209 20.5321 83.8209 18.4994C83.8209 16.4667 84.6253 15.0897 86.169 15.0897C87.7127 15.0897 88.5389 16.4667 88.5389 18.4994C88.5389 20.5321 87.7127 21.8873 86.169 21.8873ZM86.1908 24.4227C89.7783 24.4227 92.126 21.8654 92.126 18.4994C92.126 15.1334 89.7783 12.5762 86.1908 12.5762C82.625 12.5762 80.2334 15.1334 80.2334 18.4994C80.2334 21.8654 82.625 24.4227 86.1908 24.4227Z" fill="white"/>
<path d="M93.1616 24.0731H96.7056V12.8823H93.1616V24.0731ZM93.1616 11.3304H96.7056V8.44531H93.1616V11.3304Z" fill="white"/>
<path d="M98.2432 27.7672H101.787V22.9149H101.831C102.526 23.8548 103.548 24.4231 104.983 24.4231C107.897 24.4231 109.832 22.1062 109.832 18.4779C109.832 15.112 108.027 12.5547 105.07 12.5547C103.548 12.5547 102.461 13.2323 101.7 14.2377H101.635V12.8825H98.2432V27.7672ZM104.07 21.6691C102.548 21.6691 101.678 20.4232 101.678 18.6091C101.678 16.795 102.461 15.418 104.005 15.418C105.527 15.418 106.244 16.6857 106.244 18.6091C106.244 20.5107 105.418 21.6691 104.07 21.6691Z" fill="white"/>
<path d="M115.601 24.4231C118.514 24.4231 120.667 23.1554 120.667 20.7074C120.667 17.8441 118.362 17.3414 116.405 17.0135C114.992 16.7512 113.731 16.642 113.731 15.8551C113.731 15.1557 114.405 14.8278 115.275 14.8278C116.253 14.8278 116.927 15.1338 117.058 16.1392H120.319C120.145 13.9317 118.449 12.5547 115.296 12.5547C112.666 12.5547 110.491 13.7787 110.491 16.1392C110.491 18.7621 112.557 19.2867 114.492 19.6145C115.97 19.8768 117.318 19.9861 117.318 20.9915C117.318 21.7128 116.644 22.1062 115.579 22.1062C114.405 22.1062 113.666 21.5598 113.535 20.4451H110.187C110.296 22.9149 112.34 24.4231 115.601 24.4231Z" fill="white"/>
<path d="M125.481 24.4015C127.025 24.4015 128.004 23.7895 128.808 22.6966H128.873V24.0736H132.265V12.8828H128.721V19.1339C128.721 20.4672 127.982 21.3852 126.764 21.3852C125.634 21.3852 125.09 20.7076 125.09 19.4836V12.8828H121.568V20.2268C121.568 22.7185 122.916 24.4015 125.481 24.4015Z" fill="white"/>
<path d="M133.807 24.0734H137.351V17.8004C137.351 16.4671 138.003 15.5272 139.112 15.5272C140.178 15.5272 140.678 16.2267 140.678 17.4288V24.0734H144.222V17.8004C144.222 16.4671 144.852 15.5272 145.983 15.5272C147.048 15.5272 147.548 16.2267 147.548 17.4288V24.0734H151.092V16.795C151.092 14.2814 149.831 12.5547 147.309 12.5547C145.874 12.5547 144.678 13.1667 143.809 14.5218H143.765C143.2 13.3197 142.091 12.5547 140.634 12.5547C139.025 12.5547 137.96 13.3197 137.264 14.4781H137.199V12.8825H133.807V24.0734Z" fill="white"/>
<path fill-rule="evenodd" clip-rule="evenodd" d="M22.8794 10.759C21.4071 9.77004 19.6762 9.24219 17.9055 9.24219V0.242188C21.4468 0.242188 24.9087 1.29787 27.8532 3.27574C30.7978 5.2536 33.0927 8.06482 34.448 11.3539C35.8032 14.6429 36.1578 18.2622 35.4669 21.7538C34.776 25.2455 33.0707 28.4528 30.5665 30.9701C28.0625 33.4875 24.872 35.2018 21.3987 35.8963C17.9254 36.5909 14.3251 36.2344 11.0533 34.872C7.78154 33.5096 4.98509 31.2026 3.01762 28.2425C1.05014 25.2824 0 21.8022 0 18.2422H8.95274C8.95274 20.0222 9.47782 21.7623 10.4615 23.2423C11.4453 24.7224 12.8435 25.8759 14.4794 26.5571C16.1153 27.2383 17.9154 27.4165 19.6521 27.0692C21.3887 26.722 22.9839 25.8648 24.2361 24.6062C25.4881 23.3474 26.3408 21.7438 26.6862 19.998C27.0316 18.2522 26.8544 16.4426 26.1767 14.7981C25.4991 13.1535 24.3516 11.7479 22.8794 10.759Z" fill="#BFF747"/>
<path fill-rule="evenodd" clip-rule="evenodd" d="M8.95274 0.242192C8.95274 1.42409 8.72117 2.59441 8.27125 3.68635C7.82133 4.77827 7.16188 5.77042 6.33054 6.60616C5.49921 7.44189 4.51227 8.10482 3.42607 8.55711C2.33987 9.0094 1.17569 9.24219 3.91333e-07 9.24219L0 18.2422C2.35138 18.2422 4.67974 17.7766 6.85214 16.872C9.02454 15.9674 10.9984 14.6416 12.6611 12.9701C14.3238 11.2987 15.6427 9.31437 16.5425 7.1305C17.4424 4.94663 17.9055 2.60598 17.9055 0.242188L8.95274 0.242192Z" fill="#BFF747"/>
</svg>
