<svg width="96" height="101" viewBox="0 0 96 101" fill="none" xmlns="http://www.w3.org/2000/svg">
<path d="M52.2698 9.234C51.5522 9.15719 50.9311 8.92061 50.4065 8.52424C49.8902 8.1212 49.5078 7.59641 49.2595 6.94987C49.012 6.29587 48.9318 5.56149 49.019 4.74674C49.107 3.92451 49.3408 3.22373 49.7203 2.6444C50.1074 2.06587 50.5992 1.63843 51.1958 1.36207C51.8007 1.07903 52.4694 0.976713 53.2019 1.05512C53.9643 1.13672 54.6125 1.40267 55.1465 1.85296C55.6804 2.30325 56.0493 2.8833 56.253 3.59311L55.097 3.79825L54.9761 3.76263C54.8175 3.33739 54.5741 2.99759 54.246 2.74321C53.9179 2.48884 53.5296 2.33766 53.0811 2.28966C52.6102 2.23925 52.1755 2.30991 51.7769 2.50163C51.3784 2.69334 51.0517 2.99103 50.7968 3.39469C50.5419 3.79835 50.3832 4.2917 50.3208 4.87473C50.2584 5.45776 50.3124 5.97765 50.4828 6.43439C50.6539 6.88365 50.9173 7.24828 51.2729 7.52827C51.6293 7.80079 52.0505 7.96306 52.5363 8.01506C52.9101 8.05506 53.2743 8.0071 53.6291 7.87119C53.9921 7.72859 54.2955 7.50779 54.5392 7.20878C54.7837 6.90229 54.9291 6.53227 54.9755 6.09874L54.9983 5.8857L55.4192 6.19159L52.818 5.91317L52.9488 4.69105L56.1779 5.03666L56.3181 5.21044L55.8645 9.44863L54.6872 9.32263L54.8672 7.6408L55.3045 7.6876C55.0653 8.08539 54.7815 8.40657 54.4529 8.65113C54.1317 8.8965 53.7809 9.06685 53.4002 9.1622C53.0278 9.25086 52.651 9.2748 52.2698 9.234Z" fill="#BFF747"/>
<path d="M60.0862 10.8381C59.5328 10.6684 59.0815 10.3964 58.7323 10.022C58.3904 9.64987 58.1669 9.21182 58.0619 8.70787C57.9569 8.20392 57.9926 7.66445 58.1688 7.08947C58.3429 6.52167 58.611 6.0574 58.9732 5.69666C59.3448 5.33095 59.7718 5.09229 60.2542 4.9807C60.746 4.86412 61.2614 4.88845 61.8004 5.0537C62.3395 5.21895 62.7681 5.48794 63.0863 5.86068C63.4139 6.22843 63.6208 6.66927 63.707 7.18319C63.8003 7.69931 63.7556 8.25564 63.5727 8.85219L63.5099 9.05703L63.2986 9.16917L58.6089 7.73152L58.9262 6.69654L63.217 8.01191L62.4834 8.05827C62.5687 7.7542 62.5762 7.47342 62.5057 7.21594C62.4446 6.95347 62.3239 6.73169 62.1435 6.5506C61.9726 6.36452 61.7541 6.23071 61.4882 6.14919C61.2007 6.06106 60.9174 6.04892 60.6384 6.11277C60.3615 6.16943 60.1221 6.29653 59.92 6.49405C59.7201 6.68438 59.5728 6.93408 59.4781 7.24313L59.3459 7.67437C59.2555 7.96906 59.2412 8.25951 59.3028 8.54574C59.3739 8.82699 59.5059 9.07584 59.6991 9.2923C59.8922 9.50875 60.1325 9.66105 60.42 9.74918C60.6931 9.83291 60.9631 9.83705 61.23 9.7616C61.5062 9.68117 61.7476 9.53501 61.9541 9.32312L62.0835 9.36277L62.9539 10.1014C62.5951 10.5025 62.164 10.7674 61.6606 10.8961C61.1644 11.0271 60.6396 11.0077 60.0862 10.8381Z" fill="#BFF747"/>
<path d="M66.2473 13.0857C65.7412 12.8547 65.4096 12.5131 65.2523 12.0612C65.0982 11.6024 65.1444 11.1029 65.3911 10.5627L67.5643 5.80318L68.7439 6.34178L66.6269 10.9782C66.502 11.2517 66.4767 11.4881 66.5511 11.6873C66.6322 11.8897 66.8062 12.0517 67.0729 12.1735L67.6062 12.417L67.606 12.5533L67.1704 13.5072L66.2473 13.0857ZM65.5862 7.80066L66.0686 6.74413L69.5356 8.32717L69.0532 9.38369L65.5862 7.80066Z" fill="#BFF747"/>
<path d="M70.9892 15.8274L74.5239 10.7589C74.8636 10.2717 75.268 9.98096 75.7371 9.88652C76.2105 9.78592 76.6754 9.89473 77.1317 10.2129L77.7329 10.6322L77.133 11.4924L77.0158 11.5619L76.7106 11.349C76.4701 11.1813 76.2578 11.1112 76.0737 11.1386C75.8958 11.1703 75.7208 11.3095 75.5488 11.5561L72.0528 16.5692L70.9892 15.8274ZM72.7867 11.5545L73.4511 10.6019L76.3461 12.6208L75.6817 13.5734L72.7867 11.5545Z" fill="#BFF747"/>
<path d="M74.1536 18.1448L77.8789 13.8379L78.8 14.6346L77.8484 15.7348L77.6158 15.5038C78.0253 15.2716 78.453 15.1793 78.8988 15.227C79.3446 15.2747 79.7466 15.4534 80.1048 15.7633L80.5227 16.1247L79.7629 17.0032L79.2 16.5163C78.9783 16.3245 78.7407 16.2084 78.4873 16.1682C78.2388 16.1222 77.9904 16.1508 77.7421 16.2541C77.4937 16.3574 77.2614 16.5341 77.045 16.7842L75.1344 18.9931L74.1536 18.1448Z" fill="#BFF747"/>
<path d="M79.0731 23.1327C78.6899 22.6989 78.4472 22.2312 78.3451 21.7296C78.248 21.2336 78.2864 20.7433 78.4602 20.2588C78.6339 19.7742 78.9462 19.3329 79.3969 18.9347C79.842 18.5415 80.3132 18.2858 80.8105 18.1674C81.3184 18.0497 81.8072 18.0694 82.2768 18.2262C82.757 18.3838 83.1838 18.6738 83.557 19.0964C83.9303 19.5189 84.1552 19.9722 84.2318 20.4563C84.3189 20.941 84.265 21.425 84.07 21.9082C83.8799 22.3971 83.5511 22.8481 83.0835 23.2612L82.9229 23.403L82.6842 23.3882L79.4367 19.7121L80.248 18.9954L83.2193 22.3589L82.5695 22.0151C82.8011 21.8004 82.9542 21.5649 83.0286 21.3085C83.1137 21.0528 83.1267 20.8006 83.0675 20.552C83.0189 20.304 82.9026 20.0758 82.7184 19.8673C82.5193 19.642 82.2842 19.4836 82.0129 19.3922C81.7472 19.2959 81.4766 19.2792 81.2011 19.342C80.9313 19.3998 80.6752 19.5358 80.4329 19.7498L80.0949 20.0484C79.8639 20.2525 79.6999 20.4926 79.6029 20.7689C79.5165 21.0458 79.4991 21.327 79.5507 21.6125C79.6023 21.8979 79.7276 22.1533 79.9267 22.3787C80.1158 22.5928 80.3438 22.7374 80.6108 22.8125C80.8884 22.8883 81.1706 22.8898 81.4573 22.817L81.5469 22.9184L81.9032 24.0029C81.3877 24.1574 80.8817 24.1581 80.3852 24.0048C79.8937 23.8572 79.4563 23.5665 79.0731 23.1327Z" fill="#BFF747"/>
<path d="M83.2138 28.7042C82.9076 28.213 82.7457 27.7115 82.7281 27.1999C82.7144 26.6947 82.8334 26.2175 83.085 25.7684C83.3366 25.3194 83.7176 24.9358 84.228 24.6177C84.732 24.3036 85.239 24.1294 85.7491 24.095C86.2695 24.063 86.7482 24.1632 87.1854 24.3957C87.6329 24.6306 88.0058 24.9873 88.304 25.4658C88.6021 25.9443 88.7489 26.4285 88.7443 26.9186C88.75 27.4111 88.6167 27.8794 88.3444 28.3237C88.0761 28.7744 87.6771 29.1647 87.1476 29.4947L86.9658 29.608L86.7328 29.5539L84.1385 25.3909L85.0572 24.8184L87.4308 28.6273L86.8469 28.1807C87.1109 28.0073 87.3008 27.8004 87.4167 27.5599C87.5429 27.3218 87.5974 27.0753 87.5802 26.8202C87.5734 26.5676 87.4964 26.3233 87.3493 26.0872C87.1903 25.832 86.9845 25.6369 86.7321 25.5019C86.4861 25.363 86.222 25.3017 85.9399 25.318C85.6642 25.3304 85.3891 25.4221 85.1148 25.593L84.732 25.8316C84.4704 25.9946 84.2689 26.2043 84.1275 26.4607C83.9965 26.7195 83.9328 26.9939 83.9364 27.284C83.94 27.574 84.0213 27.8467 84.1804 28.1019C84.3314 28.3443 84.5324 28.5247 84.7833 28.6429C85.0445 28.7636 85.3225 28.8118 85.6174 28.7875L85.6889 28.9023L85.8608 30.0309C85.3268 30.0979 84.8277 30.0148 84.3634 29.7815C83.9031 29.5546 83.5199 29.1955 83.2138 28.7042Z" fill="#BFF747"/>
<path d="M87.5204 38.055C87.3412 37.4966 87.3055 36.9673 87.4134 36.4669C87.5212 35.9664 87.752 35.5292 88.1056 35.1552C88.4593 34.7811 88.9224 34.5022 89.4951 34.3184C90.0606 34.137 90.5959 34.0954 91.1012 34.1938C91.6136 34.2899 92.0557 34.5112 92.4275 34.8577C92.8064 35.2019 93.0854 35.6532 93.2646 36.2115C93.4024 36.641 93.4537 37.0469 93.4186 37.4292C93.3857 37.8188 93.2675 38.1764 93.0642 38.5022C92.8608 38.828 92.5747 39.1172 92.2057 39.3699L91.585 38.4322L91.5437 38.3033C91.8336 38.0997 92.0303 37.8392 92.1337 37.5218C92.2443 37.2021 92.249 36.8848 92.148 36.5698C92.0446 36.2477 91.8834 35.9916 91.6645 35.8013C91.4455 35.611 91.1829 35.494 90.8767 35.4501C90.5777 35.404 90.2492 35.4383 89.8913 35.5532C89.5406 35.6657 89.2535 35.8289 89.03 36.0428C88.8065 36.2566 88.6575 36.5058 88.583 36.7902C88.5156 37.0724 88.5336 37.3745 88.637 37.6966C88.7105 37.9257 88.8201 38.1194 88.9657 38.278C89.1136 38.4437 89.2893 38.5728 89.4927 38.6655C89.6961 38.7581 89.9203 38.8046 90.1651 38.8049L90.2065 38.9338L90.2474 40.0576C89.7909 40.062 89.3804 39.9884 89.016 39.8369C88.6587 39.6831 88.3534 39.4574 88.1 39.1598C87.856 38.867 87.6628 38.4987 87.5204 38.055Z" fill="#BFF747"/>
<path d="M89.0307 44.654C88.9498 44.0884 89.005 43.5717 89.1963 43.1039C89.3876 42.6361 89.6889 42.2475 90.1003 41.9381C90.5191 41.6276 91.0225 41.4303 91.6104 41.3462C92.1909 41.2632 92.7219 41.3125 93.2035 41.4942C93.6926 41.6749 94.0945 41.9629 94.4093 42.3584C94.724 42.7538 94.9218 43.2343 95.0027 43.7999C95.0847 44.3729 95.03 44.8933 94.8387 45.3611C94.6474 45.8289 94.3424 46.2181 93.9235 46.5286C93.5122 46.838 93.0162 47.0342 92.4358 47.1173C91.8479 47.2013 91.3094 47.1531 90.8203 46.9724C90.3387 46.7907 89.9405 46.5021 89.6258 46.1067C89.311 45.7112 89.1127 45.227 89.0307 44.654ZM90.1916 44.488C90.2385 44.8154 90.3533 45.0875 90.5362 45.3044C90.7191 45.5212 90.9578 45.6769 91.2523 45.7715C91.5468 45.8661 91.8764 45.8873 92.241 45.8352C92.6206 45.7809 92.9347 45.6676 93.1834 45.4953C93.4396 45.322 93.6251 45.1056 93.7399 44.8462C93.8547 44.5868 93.8886 44.2933 93.8418 43.9659C93.796 43.6459 93.6817 43.3775 93.4988 43.1606C93.3159 42.9438 93.0772 42.7881 92.7827 42.6935C92.4957 42.5979 92.1661 42.5767 91.794 42.6299C91.4219 42.6831 91.1078 42.7964 90.8516 42.9697C90.5954 43.143 90.4099 43.3594 90.2951 43.6188C90.1804 43.8783 90.1459 44.168 90.1916 44.488Z" fill="#BFF747"/>
<path d="M89.6855 49.2247L95.3778 49.3839L95.3437 50.6013L93.8897 50.5606L93.9214 50.2344C94.2486 50.3638 94.5256 50.5446 94.7522 50.7765C94.9864 51.0087 95.1631 51.2768 95.2825 51.581C95.4093 51.8854 95.4678 52.2141 95.4579 52.5673C95.4466 52.9731 95.3462 53.335 95.1568 53.6531C94.9747 53.9789 94.7082 54.2309 94.3573 54.4091C94.0137 54.595 93.5864 54.6808 93.0754 54.6665L89.536 54.5675L89.5723 53.2712L92.7171 53.3592C93.0778 53.3693 93.3723 53.3287 93.6004 53.2373C93.8286 53.1459 93.9979 53.0078 94.1084 52.8229C94.2186 52.6454 94.2771 52.4365 94.2839 52.196C94.2902 51.9706 94.2403 51.7361 94.1343 51.4925C94.0281 51.2564 93.8458 51.052 93.5875 50.8793C93.3291 50.7066 92.9745 50.614 92.5236 50.6013L89.6493 50.5209L89.6855 49.2247Z" fill="#BFF747"/>
<path d="M88.7712 58.239C88.8861 57.6334 89.1282 57.1437 89.4975 56.7699C89.8668 56.3962 90.3158 56.1868 90.8447 56.1417L90.9121 57.3596L90.8668 57.4772C90.6179 57.4989 90.4029 57.6035 90.222 57.7911C90.047 57.9874 89.9322 58.2296 89.8776 58.5177C89.8244 58.7983 89.8386 59.0459 89.9204 59.2603C90.0081 59.4836 90.148 59.6134 90.34 59.6498C90.5025 59.6806 90.643 59.6461 90.7614 59.5461C90.8858 59.4549 90.9963 59.2961 91.0928 59.0695L91.5251 58.0612C91.7413 57.5666 92.012 57.2085 92.3371 56.9871C92.6681 56.7744 93.0294 56.7052 93.4209 56.7794C93.7606 56.8439 94.0385 56.9922 94.2546 57.2245C94.4767 57.4656 94.6264 57.7656 94.7037 58.1245C94.7884 58.4849 94.7901 58.8793 94.7089 59.3077C94.5982 59.8912 94.3603 60.3587 93.9953 60.7103C93.6302 61.0619 93.1765 61.2551 92.6343 61.29L92.6118 60.138L92.657 60.0204C92.8898 60.0033 93.093 59.9003 93.2665 59.7113C93.4387 59.5297 93.55 59.306 93.6004 59.0401C93.6481 58.789 93.637 58.565 93.5672 58.3681C93.5034 58.18 93.3865 58.0699 93.2167 58.0376C93.0911 58.0138 92.9668 58.0438 92.8438 58.1276C92.7282 58.2128 92.6272 58.362 92.5409 58.5752L92.0975 59.5814C91.8683 60.1042 91.5986 60.4777 91.2882 60.7019C90.9839 60.9349 90.6138 61.0101 90.1781 60.9275C89.8014 60.8561 89.4923 60.6903 89.2509 60.4303C89.0154 60.1791 88.8538 59.8615 88.7659 59.4775C88.684 59.1024 88.6858 58.6895 88.7712 58.239Z" fill="#BFF747"/>
<path d="M91.5574 69.4131L86.2065 67.4652L86.6192 66.3315L87.9861 66.829L87.853 67.1286C87.5833 66.9024 87.3741 66.6423 87.2251 66.3481C87.0833 66.0564 87.0002 65.7462 86.9759 65.4173C86.9587 65.0911 87.0105 64.7619 87.1314 64.4299C87.2703 64.0485 87.4775 63.7319 87.7531 63.4802C88.0332 63.2382 88.3692 63.0845 88.761 63.0191C89.1528 62.9537 89.5888 63.0085 90.0692 63.1833L93.3857 64.3906L92.9422 65.6092L89.9859 64.533C89.6539 64.4121 89.3652 64.3591 89.1199 64.3737C88.8719 64.3955 88.6641 64.4719 88.4965 64.6028C88.3333 64.7434 88.2105 64.9267 88.1283 65.1528C88.0511 65.3647 88.0257 65.5994 88.0519 65.857C88.0826 66.1242 88.1946 66.377 88.3879 66.6153C88.5785 66.8607 88.8858 67.0606 89.3096 67.2149L92.001 68.1946L91.5574 69.4131Z" fill="#BFF747"/>
<path d="M85.4025 69.0104L92.6367 72.6959L92.204 73.8929L92.1083 73.8821L84.8139 70.1659L85.4025 69.0104Z" fill="#BFF747"/>
<path d="M82.7446 73.6829C83.038 73.2103 83.4188 72.9247 83.8871 72.8261C84.3617 72.7314 84.8513 72.8407 85.3559 73.154L89.801 75.9137L89.117 77.0154L84.7868 74.3271C84.5314 74.1685 84.3001 74.1134 84.0931 74.1618C83.8821 74.2166 83.6992 74.3686 83.5446 74.6177L83.2353 75.1158L83.1002 75.0983L82.2093 74.5452L82.7446 73.6829ZM88.0708 73.6981L89.0575 74.3107L87.0472 77.5487L86.0604 76.9361L88.0708 73.6981Z" fill="#BFF747"/>
<path d="M80.5661 76.3958C80.8129 76.0926 81.0918 75.8689 81.403 75.7248C81.7094 75.5865 82.0222 75.5357 82.3412 75.5725C82.6602 75.6092 82.9538 75.7367 83.222 75.955C83.636 76.292 83.8491 76.7029 83.8615 77.1879C83.8796 77.6777 83.6908 78.2074 83.295 78.777L82.0398 80.6049L81.209 79.9287L82.352 78.2565C82.5564 77.9577 82.6619 77.7091 82.6682 77.5107C82.6746 77.3123 82.5991 77.1491 82.4417 77.021C82.2842 76.8928 82.099 76.8584 81.886 76.9176C81.673 76.9769 81.4787 77.1144 81.3031 77.3301C81.1181 77.5575 81.0073 77.8066 80.971 78.0775C80.9358 78.359 80.9634 78.6287 81.054 78.8866C81.1446 79.1445 81.2948 79.3588 81.5047 79.5297L82.2305 80.1205C82.5104 80.3483 82.8166 80.4424 83.1492 80.403C83.4876 80.3683 83.7802 80.1993 84.027 79.8962C84.2358 79.6396 84.3449 79.3746 84.3543 79.1012C84.3647 78.8382 84.2956 78.6075 84.147 78.409L84.2253 78.3128L85.1328 77.6266C85.4438 78.0543 85.5865 78.5339 85.5609 79.0656C85.5305 79.603 85.3113 80.1225 84.9032 80.6239C84.3954 81.2477 83.8184 81.5874 83.1722 81.643C82.5318 81.7033 81.8851 81.4678 81.2321 80.9362L78.7397 78.9075L79.4658 78.0155L80.7514 79.0619L80.407 79.3777C80.2133 79.1037 80.085 78.7909 80.0222 78.4393C79.9653 78.0925 79.98 77.741 80.0664 77.3848C80.148 77.0344 80.3146 76.7048 80.5661 76.3958Z" fill="#BFF747"/>
<path d="M75.7799 81.7697C76.1827 81.386 76.6231 81.2052 77.1011 81.2274C77.5843 81.2551 78.0307 81.4839 78.4403 81.9139L82.0493 85.7021L81.1104 86.5966L77.5948 82.9063C77.3874 82.6886 77.1774 82.5772 76.9648 82.572C76.7468 82.5721 76.5317 82.6732 76.3194 82.8754L75.8949 83.2799L75.7685 83.229L75.0451 82.4697L75.7799 81.7697ZM80.9314 83.1228L81.7325 83.9637L78.973 86.5927L78.1719 85.7517L80.9314 83.1228Z" fill="#BFF747"/>
<path d="M74.5981 82.7791L78.1792 87.2066L77.171 88.0221L73.5898 83.5946L74.5981 82.7791ZM78.2096 88.2842C78.385 88.1424 78.5837 88.0832 78.8057 88.1067C79.0277 88.1302 79.212 88.2325 79.3586 88.4137C79.4957 88.5832 79.5525 88.7789 79.529 89.001C79.5103 89.2288 79.4103 89.416 79.2291 89.5626C79.0596 89.6997 78.8615 89.7536 78.6348 89.7243C78.4069 89.7055 78.222 89.6085 78.0802 89.4332C77.9384 89.2578 77.8821 89.0568 77.9114 88.83C77.9349 88.608 78.0343 88.4261 78.2096 88.2842Z" fill="#BFF747"/>
<path d="M69.9456 85.9473C70.4297 85.6439 70.9243 85.4846 71.4295 85.4696C71.9347 85.4546 72.4121 85.5723 72.8619 85.8227C73.3157 86.0795 73.7002 86.4595 74.0157 86.9627C74.3271 87.4595 74.4975 87.9649 74.5269 88.4788C74.5602 88.9991 74.4601 89.4833 74.2264 89.9315C73.9927 90.3796 73.6338 90.7554 73.1497 91.0589C72.6593 91.3663 72.1615 91.5275 71.6563 91.5425C71.1511 91.5575 70.6716 91.4367 70.2179 91.1799C69.7681 90.9295 69.3875 90.5559 69.0761 90.059C68.7607 89.5558 68.5863 89.0441 68.5529 88.5238C68.5236 88.0099 68.6257 87.5288 68.8594 87.0807C69.0931 86.6326 69.4551 86.2548 69.9456 85.9473ZM70.5685 86.941C70.2882 87.1166 70.0861 87.3321 69.9621 87.5872C69.8381 87.8424 69.7927 88.1237 69.8258 88.4313C69.8589 88.7388 69.9732 89.0486 70.1689 89.3607C70.3725 89.6856 70.6035 89.9267 70.8619 90.0842C71.1243 90.248 71.3973 90.3297 71.681 90.3293C71.9647 90.3289 72.2466 90.2409 72.5269 90.0652C72.8008 89.8935 72.9997 89.6801 73.1237 89.4249C73.2476 89.1698 73.2931 88.8884 73.26 88.5809C73.2309 88.2797 73.1166 87.9699 72.9169 87.6514C72.7173 87.333 72.4863 87.0918 72.2239 86.928C71.9615 86.7642 71.6885 86.6825 71.4048 86.6829C71.1211 86.6833 70.8423 86.7693 70.5685 86.941Z" fill="#BFF747"/>
<path d="M66.0755 88.3807L68.2342 93.6501L67.1073 94.1118L66.5558 92.7657L66.867 92.6626C66.8811 93.0143 66.828 93.3407 66.7076 93.6419C66.5901 93.95 66.4165 94.2201 66.1867 94.4524C65.9597 94.6916 65.6828 94.8782 65.3558 95.0121C64.9802 95.166 64.6086 95.2208 64.2411 95.1763C63.8694 95.1417 63.5311 95.0001 63.2261 94.7513C62.917 94.5124 62.6656 94.1564 62.4718 93.6834L61.1295 90.4069L62.3295 89.9153L63.5221 92.8266C63.6589 93.1605 63.8153 93.4132 63.9912 93.5849C64.1671 93.7565 64.362 93.8554 64.5758 93.8816C64.7827 93.9105 64.9974 93.8794 65.22 93.7883C65.4287 93.7028 65.623 93.5622 65.8028 93.3667C65.9757 93.174 66.0888 92.9246 66.1421 92.6184C66.1954 92.3122 66.1366 91.9505 65.9656 91.5331L64.8755 88.8723L66.0755 88.3807Z" fill="#BFF747"/>
<path d="M53.2995 96.2397L55.327 97.1977L55.0323 97.9611L52.8877 97.2832L53.2995 96.2397ZM55.5801 97.5128L56.0604 99.6982L54.9567 99.8659L54.7552 97.6382L55.5801 97.5128ZM55.3897 95.2835L55.5801 97.5128L54.7552 97.6382L54.286 95.4511L55.3897 95.2835ZM55.327 97.1977L57.4587 97.8662L57.0581 98.9079L55.0323 97.9611L55.327 97.1977ZM54.9256 97.2587L55.4337 97.9001L53.7805 99.4059L53.0774 98.5318L54.9256 97.2587ZM56.5771 95.7418L57.269 96.6176L55.4337 97.9001L54.9256 97.2587L56.5771 95.7418Z" fill="#BFF747"/>
<path d="M43.2867 92.0714C44.0042 92.1491 44.6251 92.3863 45.1492 92.7833C45.6651 93.1869 46.0468 93.7121 46.2944 94.3589C46.5412 95.0132 46.6206 95.7477 46.5325 96.5624C46.4435 97.3845 46.209 98.085 45.8288 98.6639C45.4411 99.242 44.9488 99.6689 44.3519 99.9446C43.7467 100.227 43.0779 100.328 42.3454 100.249C41.5831 100.167 40.9352 99.9001 40.4018 99.4492C39.8683 98.9983 39.5001 98.4179 39.2971 97.7078L40.4534 97.504L40.5743 97.5398C40.7324 97.9652 40.9754 98.3053 41.3032 98.56C41.6311 98.8147 42.0192 98.9664 42.4676 99.0149C42.9385 99.0658 43.3733 98.9956 43.772 98.8044C44.1708 98.6131 44.4978 98.3158 44.7532 97.9124C45.0085 97.509 45.1677 97.0159 45.2308 96.4329C45.2939 95.8499 45.2405 95.33 45.0706 94.8731C44.8999 94.4236 44.637 94.0587 44.2817 93.7783C43.9256 93.5054 43.5046 93.3426 43.0188 93.2901C42.6451 93.2497 42.2808 93.2972 41.9259 93.4327C41.5627 93.5749 41.2591 93.7954 41.015 94.0941C40.7702 94.4003 40.6243 94.7702 40.5775 95.2037L40.5544 95.4167L40.1339 95.1103L42.7348 95.3916L42.6026 96.6136L39.3739 96.2644L39.2339 96.0904L39.6923 91.8528L40.8694 91.9801L40.6875 93.6617L40.2503 93.6144C40.4899 93.2169 40.7741 92.896 41.103 92.6518C41.4244 92.4068 41.7755 92.2369 42.1562 92.142C42.5287 92.0537 42.9056 92.0302 43.2867 92.0714Z" fill="#BFF747"/>
<path d="M35.4717 90.4596C36.0249 90.6299 36.4759 90.9024 36.8246 91.2772C37.1661 91.6497 37.3891 92.088 37.4935 92.5921C37.5979 93.0962 37.5616 93.6356 37.3847 94.2104C37.21 94.778 36.9414 95.2419 36.5788 95.6023C36.2068 95.9675 35.7795 96.2057 35.297 96.3168C34.8051 96.4328 34.2897 96.4079 33.7508 96.242C33.212 96.0761 32.7837 95.8066 32.4659 95.4335C32.1387 95.0654 31.9323 94.6243 31.8467 94.1103C31.7539 93.5941 31.7993 93.0378 31.9829 92.4415L32.0459 92.2367L32.2573 92.1248L36.9454 93.5678L36.6269 94.6024L32.3376 93.2822L33.0713 93.2366C32.9856 93.5406 32.9779 93.8214 33.048 94.079C33.1088 94.3415 33.2293 94.5634 33.4094 94.7447C33.5802 94.931 33.7985 95.065 34.0643 95.1469C34.3517 95.2353 34.635 95.2478 34.9141 95.1843C35.191 95.1279 35.4306 95.0011 35.6329 94.8038C35.833 94.6137 35.9806 94.3642 36.0757 94.0552L36.2084 93.6241C36.299 93.3295 36.3137 93.0391 36.2524 92.7528C36.1817 92.4715 36.0499 92.2225 35.857 92.0058C35.6642 91.7891 35.424 91.6366 35.1366 91.5481C34.8636 91.4641 34.5936 91.4596 34.3267 91.5347C34.0503 91.6149 33.8088 91.7607 33.602 91.9724L33.4727 91.9326L32.6031 91.193C32.9624 90.7923 33.3938 90.5279 33.8973 90.3997C34.3937 90.2694 34.9184 90.2893 35.4717 90.4596Z" fill="#BFF747"/>
<path d="M29.3128 88.2039C29.8186 88.4355 30.1498 88.7774 30.3066 89.2295C30.4602 89.6885 30.4133 90.1879 30.1661 90.7279L27.9875 95.4849L26.8085 94.9449L28.9307 90.3109C29.0559 90.0375 29.0815 89.8012 29.0074 89.6019C28.9265 89.3995 28.7527 89.2372 28.4862 89.1151L27.9531 88.871L27.9534 88.7347L28.3901 87.7813L29.3128 88.2039ZM29.9678 93.4897L29.4842 94.5456L26.019 92.9586L26.5026 91.9027L29.9678 93.4897Z" fill="#BFF747"/>
<path d="M24.5747 85.4562L21.0342 90.5208C20.6939 91.0075 20.2892 91.2979 19.82 91.3918C19.3465 91.4918 18.8817 91.3825 18.4258 91.0638L17.8251 90.6438L18.4259 89.7843L18.5432 89.715L18.8482 89.9282C19.0885 90.0961 19.3007 90.1665 19.4848 90.1393C19.6628 90.1078 19.8379 89.9688 20.0102 89.7224L23.5119 84.7133L24.5747 85.4562ZM22.7723 89.7271L22.1068 90.679L19.2141 88.6568L19.8796 87.7049L22.7723 89.7271Z" fill="#BFF747"/>
<path d="M21.4128 83.1368L17.6826 87.4395L16.7624 86.6417L17.7153 85.5426L17.9476 85.7739C17.5378 86.0056 17.11 86.0974 16.6643 86.0492C16.2185 86.001 15.8167 85.8218 15.4589 85.5116L15.0414 85.1497L15.8022 84.2721L16.3645 84.7596C16.586 84.9516 16.8235 85.0679 17.0768 85.1085C17.3253 85.1547 17.5737 85.1264 17.8222 85.0234C18.0706 84.9204 18.3032 84.744 18.5199 84.4941L20.433 82.2873L21.4128 83.1368Z" fill="#BFF747"/>
<path d="M16.4988 78.1436C16.8815 78.5779 17.1237 79.0459 17.2252 79.5476C17.3217 80.0437 17.2829 80.5339 17.1085 81.0183C16.9342 81.5026 16.6214 81.9436 16.1703 82.3413C15.7247 82.734 15.2533 82.9892 14.7558 83.107C14.2478 83.2241 13.759 83.2039 13.2896 83.0465C12.8096 82.8884 12.3831 82.5979 12.0103 82.1749C11.6375 81.7519 11.4131 81.2984 11.3371 80.8142C11.2505 80.3294 11.305 79.8455 11.5005 79.3625C11.6911 78.8738 12.0205 78.4232 12.4885 78.0107L12.6493 77.869L12.888 77.884L16.1314 81.5639L15.3193 82.2796L12.3518 78.9128L13.0012 79.2574C12.7693 79.4718 12.616 79.7071 12.5412 79.9634C12.4559 80.219 12.4426 80.4711 12.5015 80.7199C12.5498 80.9679 12.6659 81.1963 12.8498 81.4049C13.0486 81.6305 13.2836 81.7891 13.5548 81.8808C13.8204 81.9774 14.0909 81.9945 14.3665 81.932C14.6364 81.8744 14.8927 81.7388 15.1352 81.525L15.4735 81.2268C15.7048 81.023 15.869 80.783 15.9663 80.5068C16.053 80.23 16.0707 79.9489 16.0195 79.6633C15.9683 79.3778 15.8432 79.1223 15.6444 78.8967C15.4555 78.6824 15.2276 78.5375 14.9607 78.4621C14.6832 78.386 14.4011 78.3842 14.1142 78.4567L14.0247 78.3552L13.6697 77.2702C14.1854 77.1163 14.6914 77.1162 15.1877 77.27C15.679 77.4182 16.116 77.7094 16.4988 78.1436Z" fill="#BFF747"/>
<path d="M12.3649 72.5654C12.6705 73.057 12.8318 73.5587 12.8489 74.0703C12.862 74.5755 12.7425 75.0525 12.4904 75.5013C12.2383 75.9501 11.8568 76.3333 11.3461 76.6508C10.8417 76.9643 10.3345 77.138 9.8244 77.1718C9.30398 77.2032 8.82531 77.1024 8.38841 76.8695C7.94115 76.6341 7.5687 76.277 7.27105 75.7982C6.97341 75.3193 6.82717 74.8349 6.83236 74.3448C6.82718 73.8523 6.96101 73.3841 7.23382 72.9402C7.50266 72.4898 7.90204 72.0999 8.43196 71.7705L8.61392 71.6574L8.84686 71.7118L11.4364 75.8777L10.517 76.4492L8.14775 72.6376L8.73115 73.0849C8.46697 73.2579 8.27681 73.4646 8.16068 73.705C8.03419 73.943 7.97941 74.1894 7.99631 74.4445C8.00287 74.6971 8.07956 74.9415 8.2264 75.1777C8.38515 75.4331 8.59066 75.6285 8.84293 75.7637C9.08882 75.903 9.35282 75.9646 9.63495 75.9486C9.91069 75.9365 10.1858 75.8451 10.4604 75.6745L10.8434 75.4364C11.1052 75.2736 11.3069 75.0642 11.4486 74.8079C11.5799 74.5493 11.6439 74.2749 11.6406 73.9848C11.6374 73.6948 11.5564 73.4221 11.3976 73.1667C11.2468 72.9241 11.046 72.7435 10.7953 72.6249C10.5343 72.504 10.2563 72.4555 9.96138 72.4795L9.88994 72.3645L9.71939 71.2358C10.2534 71.1694 10.7525 71.2531 11.2165 71.4869C11.6765 71.7143 12.0593 72.0738 12.3649 72.5654Z" fill="#BFF747"/>
<path d="M8.06888 63.2103C8.24743 63.7688 8.2825 64.2982 8.17409 64.7985C8.06569 65.2988 7.83444 65.7358 7.48035 66.1094C7.12625 66.4831 6.66279 66.7615 6.08995 66.9446C5.52427 67.1254 4.98885 67.1663 4.48368 67.0674C3.97135 66.9707 3.52951 66.7489 3.15816 66.402C2.77965 66.0574 2.50113 65.6058 2.32258 65.0473C2.18524 64.6176 2.13439 64.2116 2.17001 63.8293C2.20335 63.4398 2.32188 63.0823 2.5256 62.7567C2.72932 62.4312 3.0158 62.1423 3.38504 61.8901L4.00465 62.8285L4.04586 62.9574C3.75568 63.1606 3.55871 63.4209 3.45494 63.7382C3.34401 64.0578 3.33891 64.3751 3.43962 64.6902C3.54263 65.0124 3.7035 65.2688 3.92225 65.4593C4.141 65.6498 4.40344 65.7671 4.70958 65.8113C5.00856 65.8578 5.33707 65.8238 5.69509 65.7094C6.04596 65.5972 6.33326 65.4344 6.55699 65.2208C6.78073 65.0072 6.93001 64.7582 7.00485 64.4739C7.07252 64.1918 7.05485 63.8896 6.95185 63.5674C6.8786 63.3383 6.76925 63.1443 6.62381 62.9856C6.47608 62.8198 6.30056 62.6904 6.09725 62.5976C5.89394 62.5047 5.66985 62.458 5.42499 62.4573L5.38378 62.3284L5.34417 61.2046C5.80068 61.2007 6.21106 61.2748 6.5753 61.4266C6.93239 61.5808 7.23747 61.8069 7.49056 62.1048C7.73419 62.3979 7.92697 62.7664 8.06888 63.2103Z" fill="#BFF747"/>
<path d="M6.56673 56.612C6.64699 57.1777 6.59121 57.6943 6.39939 58.1619C6.20758 58.6295 5.90581 59.0178 5.49408 59.3267C5.07491 59.6368 4.57133 59.8335 3.98334 59.9169C3.40279 59.9993 2.8718 59.9493 2.39038 59.7671C1.90151 59.5859 1.49993 59.2974 1.18562 58.9016C0.871313 58.5058 0.674033 58.0251 0.593779 57.4594C0.512469 56.8863 0.56772 56.366 0.759533 55.8984C0.951346 55.4308 1.25684 55.042 1.67601 54.7319C2.08774 54.423 2.58388 54.2273 3.16443 54.1449C3.75242 54.0615 4.29085 54.1104 4.77971 54.2916C5.26114 54.4739 5.659 54.7629 5.97331 55.1587C6.28761 55.5545 6.48542 56.0389 6.56673 56.612ZM5.40563 56.7767C5.35917 56.4493 5.24462 56.177 5.06197 55.9599C4.87932 55.7429 4.64079 55.5869 4.3464 55.492C4.052 55.3971 3.72245 55.3755 3.35775 55.4273C2.97816 55.4811 2.66389 55.594 2.41496 55.766C2.15857 55.9391 1.97285 56.1552 1.85778 56.4145C1.74272 56.6738 1.70841 56.9672 1.75488 57.2947C1.80028 57.6147 1.91431 57.8833 2.09696 58.1003C2.27961 58.3174 2.51813 58.4734 2.81253 58.5683C3.09948 58.6642 3.42903 58.6858 3.80118 58.633C4.17333 58.5802 4.48759 58.4673 4.74397 58.2943C5.00035 58.1212 5.18608 57.905 5.30114 57.6457C5.41621 57.3865 5.45104 57.0968 5.40563 56.7767Z" fill="#BFF747"/>
<path d="M5.91583 52.0378L0.223759 51.8721L0.259198 50.6548L1.71321 50.6971L1.68115 51.0233C1.35402 50.8935 1.07727 50.7125 0.85089 50.4802C0.616996 50.2478 0.440552 49.9795 0.32156 49.6752C0.195053 49.3707 0.13694 49.0418 0.147222 48.6886C0.159035 48.2829 0.259816 47.9211 0.449566 47.6032C0.63202 47.2776 0.89881 47.0259 1.24994 46.8481C1.59377 46.6626 2.02117 46.5773 2.53214 46.5921L6.07137 46.6952L6.03363 47.9914L2.8889 47.8998C2.52822 47.8893 2.23374 47.9296 2.00547 48.0208C1.77719 48.1119 1.60772 48.2498 1.49705 48.4346C1.3866 48.6119 1.32788 48.8208 1.32088 49.0612C1.31432 49.2867 1.36389 49.5213 1.4696 49.765C1.57554 50.0012 1.7576 50.2058 2.01578 50.3788C2.27397 50.5518 2.62849 50.6448 3.07935 50.6579L5.95357 50.7416L5.91583 52.0378Z" fill="#BFF747"/>
<path d="M6.84004 43.0259C6.72451 43.6315 6.48189 44.1209 6.11218 44.4942C5.74248 44.8675 5.29318 45.0765 4.76428 45.121L4.6982 43.903L4.7436 43.7854C4.99258 43.764 5.20765 43.6596 5.38881 43.4723C5.56399 43.2761 5.67906 43.034 5.73401 42.746C5.78755 42.4654 5.77356 42.2179 5.69205 42.0033C5.60456 41.78 5.46482 41.65 5.27283 41.6134C5.11037 41.5824 4.96988 41.6168 4.85134 41.7166C4.72682 41.8077 4.61618 41.9664 4.5194 42.1928L4.08602 43.2007C3.86925 43.6951 3.59819 44.0528 3.27284 44.2739C2.94151 44.4862 2.58017 44.555 2.1888 44.4803C1.84913 44.4155 1.57137 44.2668 1.35553 44.0343C1.13371 43.793 0.984356 43.4928 0.907459 43.1338C0.823177 42.7733 0.821895 42.3789 0.903615 41.9506C1.01492 41.3673 1.25332 40.9 1.61879 40.5488C1.98427 40.1976 2.43814 40.0049 2.9804 39.9706L3.00166 41.1226L2.95626 41.2402C2.72346 41.2571 2.52017 41.3598 2.3464 41.5486C2.17403 41.73 2.06248 41.9536 2.01176 42.2195C1.96386 42.4705 1.97469 42.6945 2.04425 42.8915C2.10784 43.0796 2.22455 43.1899 2.39439 43.2223C2.51992 43.2463 2.64424 43.2164 2.76735 43.1328C2.88307 43.0477 2.98422 42.8986 3.07079 42.6856L3.51525 41.6798C3.74504 41.1573 4.01523 40.7841 4.32581 40.5602C4.63042 40.3275 5.00055 40.2528 5.43622 40.3359C5.81282 40.4077 6.12169 40.5738 6.36285 40.8341C6.59802 41.0856 6.75933 41.4034 6.84677 41.7874C6.92823 42.1627 6.92599 42.5755 6.84004 43.0259Z" fill="#BFF747"/>
<path d="M4.06691 31.8487L9.41567 33.8027L9.00166 34.936L7.63535 34.4368L7.76874 34.1374C8.03815 34.3639 8.24715 34.6243 8.39572 34.9187C8.53723 35.2105 8.61994 35.5208 8.64386 35.8497C8.66072 36.176 8.60853 36.5051 8.4873 36.8369C8.34801 37.2182 8.14041 37.5346 7.86451 37.7859C7.58413 38.0276 7.248 38.181 6.85612 38.2459C6.46425 38.3108 6.02823 38.2556 5.54808 38.0802L2.23291 36.8691L2.67787 35.6511L5.63293 36.7306C5.9648 36.8518 6.25341 36.9053 6.49878 36.8908C6.74672 36.8694 6.95461 36.7933 7.12243 36.6625C7.28577 36.5221 7.40871 36.3389 7.49126 36.1129C7.56864 35.9011 7.59436 35.6664 7.5684 35.4088C7.53797 35.1416 7.42627 34.8887 7.2333 34.6501C7.04291 34.4045 6.73588 34.2043 6.31222 34.0495L3.62195 33.0668L4.06691 31.8487Z" fill="#BFF747"/>
<path d="M10.2216 32.2577L2.99166 28.564L3.42565 27.3675L3.52137 27.3784L10.8116 31.1029L10.2216 32.2577Z" fill="#BFF747"/>
<path d="M12.8852 27.5892C12.5913 28.0615 12.2101 28.3467 11.7417 28.4448C11.267 28.5389 10.7775 28.4291 10.2733 28.1153L5.83128 25.3505L6.5165 24.2496L10.8437 26.9428C11.099 27.1017 11.3301 27.1571 11.5372 27.1089C11.7483 27.0543 11.9313 26.9025 12.0862 26.6536L12.3961 26.1558L12.5311 26.1735L13.4215 26.7276L12.8852 27.5892ZM7.55901 27.5681L6.57296 26.9544L8.58693 23.7186L9.57298 24.3323L7.55901 27.5681Z" fill="#BFF747"/>
<path d="M15.0662 24.8785C14.819 25.1814 14.5398 25.4047 14.2285 25.5485C13.9219 25.6865 13.6091 25.7369 13.2901 25.6998C12.9711 25.6627 12.6777 25.5348 12.4097 25.3162C11.9961 24.9788 11.7835 24.5676 11.7717 24.0826C11.7541 23.5929 11.9435 23.0634 12.3399 22.4942L13.5972 20.6677L14.4273 21.3449L13.2824 23.0158C13.0776 23.3144 12.9719 23.5628 12.9653 23.7612C12.9587 23.9596 13.034 24.1229 13.1913 24.2512C13.3486 24.3795 13.5337 24.4142 13.7468 24.3551C13.9599 24.2961 14.1543 24.1589 14.3302 23.9433C14.5155 23.7162 14.6265 23.4672 14.6631 23.1963C14.6987 22.9149 14.6713 22.6451 14.5811 22.3872C14.4908 22.1292 14.3408 21.9146 14.1311 21.7436L13.4059 21.1519C13.1263 20.9238 12.8202 20.8293 12.4875 20.8684C12.1491 20.9027 11.8563 21.0713 11.6092 21.3742C11.4001 21.6305 11.2907 21.8954 11.281 22.1689C11.2703 22.4318 11.3391 22.6625 11.4875 22.8612L11.4091 22.9573L10.5008 23.6425C10.1903 23.2145 10.0481 22.7347 10.0743 22.2031C10.1053 21.6657 10.3251 21.1465 10.7338 20.6455C11.2423 20.0223 11.8197 19.6832 12.466 19.6283C13.1064 19.5687 13.7528 19.805 14.4052 20.3373L16.8954 22.3688L16.1683 23.26L14.8839 22.2122L15.2286 21.8967C15.422 22.171 15.5499 22.4839 15.6123 22.8356C15.6689 23.1825 15.6538 23.5339 15.567 23.89C15.485 24.2403 15.318 24.5698 15.0662 24.8785Z" fill="#BFF747"/>
<path d="M19.8575 19.5096C19.4543 19.8929 19.0137 20.0732 18.5357 20.0504C18.0526 20.0222 17.6064 19.7929 17.1973 19.3624L13.5925 15.5702L14.5324 14.6767L18.0439 18.3709C18.2511 18.5889 18.461 18.7006 18.6735 18.706C18.8915 18.7062 19.1068 18.6053 19.3193 18.4033L19.7443 17.9993L19.8706 18.0504L20.5931 18.8105L19.8575 19.5096ZM14.7076 18.1508L13.9074 17.3089L16.6698 14.6831L17.47 15.5249L14.7076 18.1508Z" fill="#BFF747"/>
<path d="M21.0409 18.5002L17.4647 14.0687L18.4739 13.2543L22.05 17.6858L21.0409 18.5002ZM17.4355 12.9911C17.26 13.1327 17.0612 13.1916 16.8392 13.1679C16.6172 13.1442 16.4331 13.0417 16.2867 12.8603C16.1498 12.6907 16.0932 12.4949 16.1169 12.2729C16.1359 12.045 16.2361 11.8579 16.4174 11.7116C16.5871 11.5747 16.7853 11.521 17.012 11.5505C17.2398 11.5695 17.4246 11.6668 17.5662 11.8423C17.7078 12.0178 17.7639 12.2189 17.7343 12.4456C17.7106 12.6676 17.611 12.8494 17.4355 12.9911Z" fill="#BFF747"/>
<path d="M25.6978 15.3384C25.2134 15.6413 24.7186 15.7999 24.2134 15.8144C23.7082 15.8288 23.2309 15.7106 22.7814 15.4597C22.3279 15.2024 21.9438 14.822 21.6289 14.3184C21.318 13.8212 21.1482 13.3157 21.1194 12.8017C21.0867 12.2814 21.1874 11.7973 21.4215 11.3494C21.6557 10.9015 22.015 10.5261 22.4995 10.2232C22.9903 9.91634 23.4883 9.75567 23.9934 9.74123C24.4987 9.72678 24.978 9.84821 25.4314 10.1055C25.8809 10.3564 26.2611 10.7305 26.572 11.2276C26.8868 11.7312 27.0606 12.2431 27.0934 12.7635C27.1222 13.2774 27.0195 13.7583 26.7853 14.2062C26.5511 14.6541 26.1886 15.0315 25.6978 15.3384ZM25.0761 14.344C25.3566 14.1687 25.5589 13.9535 25.6832 13.6984C25.8074 13.4434 25.8532 13.1621 25.8205 12.8546C25.7877 12.547 25.6737 12.237 25.4784 11.9247C25.2752 11.5996 25.0444 11.3582 24.7862 11.2005C24.524 11.0364 24.2511 10.9544 23.9674 10.9544C23.6837 10.9545 23.4017 11.0422 23.1212 11.2176C22.8471 11.3889 22.6479 11.6021 22.5237 11.8572C22.3994 12.1122 22.3537 12.3935 22.3864 12.7011C22.4151 13.0023 22.5292 13.3122 22.7284 13.6309C22.9277 13.9496 23.1584 14.191 23.4206 14.3551C23.6828 14.5192 23.9558 14.6012 24.2395 14.6012C24.5231 14.6011 24.802 14.5154 25.0761 14.344Z" fill="#BFF747"/>
<path d="M29.5698 12.9089L27.417 7.63706L28.5444 7.17666L29.0943 8.52333L28.7831 8.62608C28.7694 8.27439 28.8229 7.94804 28.9436 7.64703C29.0614 7.33907 29.2354 7.06909 29.4654 6.8371C29.6927 6.59815 29.9698 6.41189 30.2969 6.27831C30.6727 6.12485 31.0444 6.07053 31.4118 6.11535C31.7834 6.15037 32.1216 6.29243 32.4263 6.54152C32.7351 6.78081 32.9862 7.13708 33.1794 7.61033L34.518 10.8883L33.3175 11.3785L32.1281 8.46595C31.9917 8.13189 31.8356 7.87894 31.6599 7.7071C31.4842 7.53526 31.2894 7.43614 31.0756 7.40976C30.8688 7.38053 30.6541 7.41139 30.4314 7.50233C30.2226 7.58759 30.0281 7.72789 29.8481 7.92323C29.6749 8.11572 29.5616 8.36502 29.5079 8.67113C29.4543 8.97724 29.5127 9.33908 29.6832 9.75665L30.7703 12.4187L29.5698 12.9089Z" fill="#BFF747"/>
<path d="M42.3546 5.06598L40.3282 4.10571L40.6237 3.34272L42.7675 4.02301L42.3546 5.06598ZM40.0754 3.79031L39.5976 1.60443L40.7014 1.438L40.9005 3.66591L40.0754 3.79031ZM40.2633 6.0199L40.0754 3.79031L40.9005 3.66591L41.3672 5.85347L40.2633 6.0199ZM40.3282 4.10571L38.1972 3.43489L38.599 2.3936L40.6237 3.34272L40.3282 4.10571ZM40.7296 4.04518L40.2223 3.40324L41.8772 1.89933L42.5792 2.77419L40.7296 4.04518ZM39.0765 5.56025L38.3855 4.68371L40.2223 3.40324L40.7296 4.04518L39.0765 5.56025Z" fill="#BFF747"/>
<path d="M54.8541 46.1L39.6921 61.2621L37.2012 58.7712L52.3614 43.6091H38.9998V40.0859H58.3773V59.4635H54.8541V46.1Z" fill="white"/>
</svg>
