<svg width="41" height="41" viewBox="0 0 41 41" fill="none" xmlns="http://www.w3.org/2000/svg">
<path d="M36.3878 1.82617H4.95919C3.38124 1.82617 2.10205 3.10536 2.10205 4.68331V36.1119C2.10205 37.6898 3.38124 38.969 4.95919 38.969H36.3878C37.9657 38.969 39.2449 37.6898 39.2449 36.1119V4.68331C39.2449 3.10536 37.9657 1.82617 36.3878 1.82617Z" stroke="#BFF747" stroke-width="1.5" stroke-linecap="round" stroke-linejoin="round"/>
<path d="M20.6733 33.2539C26.1962 33.2539 30.6733 28.7768 30.6733 23.2539C30.6733 17.7311 26.1962 13.2539 20.6733 13.2539C15.1505 13.2539 10.6733 17.7311 10.6733 23.2539C10.6733 28.7768 15.1505 33.2539 20.6733 33.2539Z" stroke="#BFF747" stroke-width="1.5" stroke-linecap="round" stroke-linejoin="round"/>
<path d="M2.10205 10.3984H10.6735" stroke="#BFF747" stroke-width="1.5" stroke-linecap="round" stroke-linejoin="round"/>
<path d="M30.6733 10.3984H39.2448" stroke="#BFF747" stroke-width="1.5" stroke-linecap="round" stroke-linejoin="round"/>
<path d="M20.6733 23.1699V33.1699" stroke="#BFF747" stroke-width="1.5" stroke-linecap="round" stroke-linejoin="round"/>
<path d="M12.1021 18.1113L20.6735 23.1685" stroke="#BFF747" stroke-width="1.5" stroke-linecap="round" stroke-linejoin="round"/>
<path d="M29.2448 18.1113L20.6733 23.1685" stroke="#BFF747" stroke-width="1.5" stroke-linecap="round" stroke-linejoin="round"/>
</svg>
