<svg width="21" height="21" viewBox="0 0 21 21" fill="none" xmlns="http://www.w3.org/2000/svg">
<g clip-path="url(#clip0_557_302)">
<path d="M20.177 11.9792C20.177 11.9791 20.177 11.9791 20.1769 11.979L16.4008 2.49757C16.3207 2.29611 16.0923 2.19777 15.8909 2.27791C15.8907 2.27796 15.8906 2.27801 15.8904 2.2781L0.571379 8.37801C0.508906 8.405 0.454726 8.44809 0.414337 8.50286C0.286936 8.56906 0.206452 8.7001 0.205078 8.84364V19.0514C0.205078 19.2682 0.380867 19.444 0.597683 19.444H17.0871C17.3039 19.444 17.4797 19.2682 17.4797 19.0514V13.4764L19.9578 12.4894C20.1592 12.409 20.2573 12.1806 20.177 11.9792ZM16.6945 18.6588H0.990289V9.23625H16.6945V18.6588ZM6.7557 8.453L13.3295 5.83354C13.9162 6.45022 14.7291 6.80072 15.5803 6.80406L16.2359 8.453H6.7557ZM17.4797 12.6331V8.84364C17.4797 8.62683 17.3039 8.45104 17.0871 8.45104H17.0808L16.2489 6.36159C16.2397 6.34417 16.2289 6.32758 16.2167 6.31212C16.1746 6.12303 15.9995 5.99401 15.8064 6.00982C15.0144 6.08201 14.2397 5.74839 13.748 5.12331C13.6257 4.97231 13.4106 4.93477 13.2443 5.03537C13.2256 5.03758 13.2071 5.04101 13.1889 5.04558L5.16329 8.24139C5.06617 8.27947 4.98848 8.355 4.94775 8.45104H2.51046L15.8166 3.15283L19.3026 11.906L17.4797 12.6331Z" fill="#BFF747"/>
<path d="M2.05571 16.0083C2.81795 16.2336 3.41442 16.8294 3.64066 17.5913C3.69027 17.7576 3.84324 17.8716 4.01677 17.8716C4.03714 17.8704 4.05736 17.8673 4.07724 17.8626C4.09485 17.8676 4.11286 17.8713 4.13102 17.8736H13.5535C13.5697 17.8715 13.5857 17.8682 13.6014 17.8638C13.7976 17.9115 13.9953 17.7912 14.043 17.595C14.0432 17.5943 14.0434 17.5936 14.0435 17.5929C14.2692 16.8301 14.8657 16.2336 15.6285 16.0079C15.8134 15.9514 15.9284 15.7671 15.8978 15.5761C15.903 15.557 15.9068 15.5376 15.9092 15.518V12.3771C15.9069 12.3574 15.9029 12.338 15.8974 12.319C15.9282 12.128 15.8132 11.9435 15.6281 11.8871C14.8653 11.6615 14.2689 11.0647 14.0439 10.3018C13.9871 10.1156 13.8009 10.0003 13.6089 10.0325C13.5907 10.0274 13.5722 10.0237 13.5535 10.0215H4.13102C4.11124 10.0238 4.09166 10.0278 4.07252 10.0333C3.88157 10.0028 3.69734 10.1177 3.64066 10.3026C3.41486 11.0652 2.81835 11.6615 2.05571 11.8871C1.87074 11.9437 1.75581 12.128 1.78638 12.319C1.78128 12.3381 1.7776 12.3575 1.77539 12.3771V15.518C1.77765 15.5364 1.78133 15.5547 1.78638 15.5725C1.75419 15.7648 1.86937 15.9511 2.05571 16.0083ZM2.5606 12.5365C3.34895 12.2199 3.97378 11.595 4.29042 10.8067H13.3938C13.7105 11.595 14.3355 12.2199 15.124 12.5365V15.3586C14.3359 15.6755 13.7111 16.3003 13.3942 17.0884H4.29042C3.97344 16.3003 3.34871 15.6755 2.5606 15.3586V12.5365Z" fill="#BFF747"/>
<path d="M8.84196 16.3031C10.143 16.3031 11.1976 15.2484 11.1976 13.9474C11.1976 12.6464 10.143 11.5918 8.84196 11.5918C7.54096 11.5918 6.48633 12.6464 6.48633 13.9474C6.4876 15.2479 7.5415 16.3018 8.84196 16.3031ZM8.84196 12.377C9.70927 12.377 10.4124 13.0801 10.4124 13.9474C10.4124 14.8147 9.70927 15.5178 8.84196 15.5178C7.97465 15.5178 7.27154 14.8147 7.27154 13.9474C7.27154 13.0801 7.97465 12.377 8.84196 12.377Z" fill="#BFF747"/>
<path d="M4.52445 14.5372C4.84968 14.5372 5.11336 14.2735 5.11336 13.9483C5.11336 13.6231 4.84968 13.3594 4.52445 13.3594C4.19923 13.3594 3.93555 13.6231 3.93555 13.9483C3.93555 14.2736 4.19923 14.5372 4.52445 14.5372ZM4.52445 13.752C4.63286 13.752 4.72076 13.8399 4.72076 13.9483C4.72076 14.0567 4.63286 14.1446 4.52445 14.1446C4.41605 14.1446 4.32815 14.0567 4.32815 13.9483C4.32815 13.8399 4.41605 13.752 4.52445 13.752Z" fill="#BFF747"/>
<path d="M13.1612 14.5372C13.4864 14.5372 13.7501 14.2735 13.7501 13.9483C13.7501 13.6231 13.4864 13.3594 13.1612 13.3594C12.8359 13.3594 12.5723 13.6231 12.5723 13.9483C12.5723 14.2736 12.8359 14.5372 13.1612 14.5372ZM13.1612 13.752C13.2696 13.752 13.3575 13.8399 13.3575 13.9483C13.3575 14.0567 13.2696 14.1446 13.1612 14.1446C13.0528 14.1446 12.9649 14.0567 12.9649 13.9483C12.9649 13.8399 13.0528 13.752 13.1612 13.752Z" fill="#BFF747"/>
</g>
<defs>
<clipPath id="clip0_557_302">
<rect width="20" height="20" fill="white" transform="translate(0.205078 0.845703)"/>
</clipPath>
</defs>
</svg>
