<svg width="41" height="41" viewBox="0 0 41 41" fill="none" xmlns="http://www.w3.org/2000/svg">
<g clip-path="url(#clip0_1563_1336)">
<path d="M15.1496 24.0391H3.0067C2.21772 24.0391 1.57812 24.6787 1.57812 25.4676V37.6105C1.57812 38.3995 2.21772 39.0391 3.0067 39.0391H15.1496C15.9385 39.0391 16.5781 38.3995 16.5781 37.6105V25.4676C16.5781 24.6787 15.9385 24.0391 15.1496 24.0391Z" stroke="#BFF747" stroke-width="2" stroke-linecap="round" stroke-linejoin="round"/>
<path d="M37.2902 24.0391H25.1473C24.3583 24.0391 23.7188 24.6787 23.7188 25.4676V37.6105C23.7188 38.3995 24.3583 39.0391 25.1473 39.0391H37.2902C38.0792 39.0391 38.7188 38.3995 38.7188 37.6105V25.4676C38.7188 24.6787 38.0792 24.0391 37.2902 24.0391Z" stroke="#BFF747" stroke-width="2" stroke-linecap="round" stroke-linejoin="round"/>
<path d="M26.2355 1.89844H14.0926C13.3037 1.89844 12.6641 2.53803 12.6641 3.32701V15.4699C12.6641 16.2588 13.3037 16.8984 14.0926 16.8984H26.2355C27.0245 16.8984 27.6641 16.2588 27.6641 15.4699V3.32701C27.6641 2.53803 27.0245 1.89844 26.2355 1.89844Z" stroke="#BFF747" stroke-width="2" stroke-linecap="round" stroke-linejoin="round"/>
</g>
<defs>
<clipPath id="clip0_1563_1336">
<rect width="40" height="40" fill="white" transform="translate(0.148438 0.46875)"/>
</clipPath>
</defs>
</svg>
