<svg width="21" height="21" viewBox="0 0 21 21" fill="none" xmlns="http://www.w3.org/2000/svg">
<path d="M12.8882 10.9019L9.34662 14.4434L7.52197 12.6188C7.27783 12.3746 6.88232 12.3746 6.63818 12.6188C6.39404 12.8629 6.39404 13.2584 6.63818 13.5026L8.90472 15.7691C9.02679 15.8912 9.18671 15.9522 9.34662 15.9522C9.50653 15.9522 9.66644 15.8912 9.78851 15.7691L13.772 11.7856C14.0161 11.5415 14.0161 11.146 13.772 10.9019C13.5278 10.6577 13.1323 10.6577 12.8882 10.9019Z" fill="#BFF747"/>
<path d="M15.8301 3.32068H14.8926V2.7207C14.8926 2.37555 14.6127 2.0957 14.2676 2.0957C13.9224 2.0957 13.6426 2.37555 13.6426 2.7207V3.32068H6.76758V2.7207C6.76758 2.37555 6.48773 2.0957 6.14258 2.0957C5.79742 2.0957 5.51758 2.37555 5.51758 2.7207V3.32068H4.58008C2.85706 3.32068 1.45508 4.72266 1.45508 6.44568V16.4707C1.45508 18.1937 2.85706 19.5957 4.58008 19.5957H15.8301C17.5531 19.5957 18.9551 18.1937 18.9551 16.4707V6.44568C18.9551 4.72266 17.5531 3.32068 15.8301 3.32068ZM2.70508 6.44568C2.70508 5.41174 3.54614 4.57068 4.58008 4.57068H5.51758V5.17035C5.51758 5.5155 5.79742 5.79535 6.14258 5.79535C6.48773 5.79535 6.76758 5.5155 6.76758 5.17035V4.57068H13.6426V5.17035C13.6426 5.5155 13.9224 5.79535 14.2676 5.79535C14.6127 5.79535 14.8926 5.5155 14.8926 5.17035V4.57068H15.8301C16.864 4.57068 17.7051 5.41174 17.7051 6.44568V7.07678H2.70508V6.44568ZM15.8301 18.3457H4.58008C3.54614 18.3457 2.70508 17.5046 2.70508 16.4707V8.32678H17.7051V16.4707C17.7051 17.5046 16.864 18.3457 15.8301 18.3457Z" fill="#BFF747"/>
</svg>
