<svg width="41" height="41" viewBox="0 0 41 41" fill="none" xmlns="http://www.w3.org/2000/svg">
<g clip-path="url(#clip0_602_512)">
<path d="M15.1481 24.0391H3.00523C2.21625 24.0391 1.57666 24.6787 1.57666 25.4676V37.6105C1.57666 38.3995 2.21625 39.0391 3.00523 39.0391H15.1481C15.9371 39.0391 16.5767 38.3995 16.5767 37.6105V25.4676C16.5767 24.6787 15.9371 24.0391 15.1481 24.0391Z" stroke="black" stroke-width="2" stroke-linecap="round" stroke-linejoin="round"/>
<path d="M37.2912 24.0391H25.1483C24.3593 24.0391 23.7197 24.6787 23.7197 25.4676V37.6105C23.7197 38.3995 24.3593 39.0391 25.1483 39.0391H37.2912C38.0801 39.0391 38.7197 38.3995 38.7197 37.6105V25.4676C38.7197 24.6787 38.0801 24.0391 37.2912 24.0391Z" stroke="black" stroke-width="2" stroke-linecap="round" stroke-linejoin="round"/>
<path d="M26.234 1.89648H14.0912C13.3022 1.89648 12.6626 2.53608 12.6626 3.32506V15.4679C12.6626 16.2569 13.3022 16.8965 14.0912 16.8965H26.234C27.023 16.8965 27.6626 16.2569 27.6626 15.4679V3.32506C27.6626 2.53608 27.023 1.89648 26.234 1.89648Z" stroke="black" stroke-width="2" stroke-linecap="round" stroke-linejoin="round"/>
</g>
<defs>
<clipPath id="clip0_602_512">
<rect width="40" height="40" fill="white" transform="translate(0.147949 0.46875)"/>
</clipPath>
</defs>
</svg>
