<svg width="31" height="31" viewBox="0 0 31 31" fill="none" xmlns="http://www.w3.org/2000/svg">
<g clip-path="url(#clip0_609_1531)">
<path d="M25.0289 10.7425C25.0289 16.0782 15.386 28.9568 15.386 28.9568C15.386 28.9568 5.74316 16.0782 5.74316 10.7425C5.74316 8.18502 6.7591 5.73232 8.56749 3.92394C10.3759 2.11555 12.8286 1.09961 15.386 1.09961C17.9435 1.09961 20.3962 2.11555 22.2045 3.92394C24.0129 5.73232 25.0289 8.18502 25.0289 10.7425V10.7425Z" stroke="black" stroke-width="1.5" stroke-linecap="round" stroke-linejoin="round"/>
<path d="M15.3862 13.9569C17.1614 13.9569 18.6004 12.5178 18.6004 10.7426C18.6004 8.96741 17.1614 7.52832 15.3862 7.52832C13.611 7.52832 12.1719 8.96741 12.1719 10.7426C12.1719 12.5178 13.611 13.9569 15.3862 13.9569Z" stroke="black" stroke-width="1.5" stroke-linecap="round" stroke-linejoin="round"/>
</g>
<defs>
<clipPath id="clip0_609_1531">
<rect width="30" height="30" fill="white" transform="translate(0.385742 0.0283203)"/>
</clipPath>
</defs>
</svg>
