<svg width="21" height="21" viewBox="0 0 21 21" fill="none" xmlns="http://www.w3.org/2000/svg">
<g clip-path="url(#clip0_557_313)">
<path d="M10.2051 20.8457C15.7184 20.8457 20.2051 16.359 20.2051 10.8457C20.2051 5.33238 15.7185 0.845703 10.2051 0.845703C4.6917 0.845703 0.205078 5.33238 0.205078 10.8457C0.205078 16.359 4.69175 20.8457 10.2051 20.8457ZM10.2051 2.17901C14.9851 2.17901 18.8718 6.06567 18.8718 10.8457C18.8718 15.6257 14.9851 19.5124 10.2051 19.5124C5.42504 19.5124 1.53839 15.6257 1.53839 10.8457C1.53839 6.06567 5.4251 2.17901 10.2051 2.17901Z" fill="#BFF747"/>
<path d="M13.1204 14.0324C13.2438 14.1323 13.3904 14.179 13.5371 14.179C13.7338 14.179 13.9271 14.0924 14.0571 13.9291C14.2871 13.6424 14.2404 13.2224 13.9538 12.9924L10.8704 10.5257V5.51236C10.8704 5.14569 10.5704 4.8457 10.2038 4.8457C9.83709 4.8457 9.53711 5.14569 9.53711 5.51236V10.8457C9.53711 11.0491 9.63046 11.2391 9.78711 11.3657L13.1204 14.0324Z" fill="#BFF747"/>
</g>
<defs>
<clipPath id="clip0_557_313">
<rect width="20" height="20" fill="white" transform="translate(0.205078 0.845703)"/>
</clipPath>
</defs>
</svg>
