<svg width="31" height="31" viewBox="0 0 31 31" fill="none" xmlns="http://www.w3.org/2000/svg">
<g clip-path="url(#clip0_609_1500)">
<path d="M19.1557 27.8854C20.4754 28.7367 22.0479 29.1077 23.6089 28.936C25.1699 28.7643 26.6242 28.0604 27.7272 26.9425L28.6915 25.9997C29.1142 25.5672 29.3509 24.9865 29.3509 24.3818C29.3509 23.7771 29.1142 23.1964 28.6915 22.7639L24.5986 18.7139C24.1698 18.2925 23.5927 18.0564 22.9915 18.0564C22.3903 18.0564 21.8131 18.2925 21.3843 18.7139V18.7139C20.9519 19.1367 20.3712 19.3734 19.7665 19.3734C19.1617 19.3734 18.581 19.1367 18.1486 18.7139L11.72 12.2854C11.5056 12.074 11.3353 11.8222 11.219 11.5444C11.1028 11.2667 11.0429 10.9686 11.0429 10.6675C11.0429 10.3664 11.1028 10.0684 11.219 9.79061C11.3353 9.51286 11.5056 9.261 11.72 9.04966V9.04966C12.1414 8.62087 12.3776 8.04372 12.3776 7.44252C12.3776 6.84132 12.1414 6.26417 11.72 5.83538L7.64861 1.76395C7.21619 1.3412 6.63548 1.10449 6.03075 1.10449C5.42602 1.10449 4.84531 1.3412 4.41289 1.76395L3.47004 2.72824C2.35221 3.83125 1.64825 5.28553 1.47654 6.84652C1.30483 8.40752 1.67584 9.98004 2.52718 11.2997C6.96299 17.8369 12.607 23.4665 19.1557 27.8854V27.8854Z" stroke="black" stroke-width="1.5" stroke-linecap="round" stroke-linejoin="round"/>
</g>
<defs>
<clipPath id="clip0_609_1500">
<rect width="30" height="30" fill="white" transform="translate(0.384766 0.0283203)"/>
</clipPath>
</defs>
</svg>
