<svg width="41" height="41" viewBox="0 0 41 41" fill="none" xmlns="http://www.w3.org/2000/svg">
<g clip-path="url(#clip0_534_1232)">
<path d="M35.8853 2.08008H4.45675C2.8788 2.08008 1.59961 3.35926 1.59961 4.93722V36.3658C1.59961 37.9437 2.8788 39.2229 4.45675 39.2229H35.8853C37.4633 39.2229 38.7425 37.9437 38.7425 36.3658V4.93722C38.7425 3.35926 37.4633 2.08008 35.8853 2.08008Z" stroke="#BFF747" stroke-width="1.5" stroke-linecap="round" stroke-linejoin="round"/>
<path d="M20.1709 33.5078C25.6937 33.5078 30.1709 29.0307 30.1709 23.5078C30.1709 17.985 25.6937 13.5078 20.1709 13.5078C14.6481 13.5078 10.1709 17.985 10.1709 23.5078C10.1709 29.0307 14.6481 33.5078 20.1709 33.5078Z" stroke="#BFF747" stroke-width="1.5" stroke-linecap="round" stroke-linejoin="round"/>
<path d="M1.59961 10.6523H10.171" stroke="#BFF747" stroke-width="1.5" stroke-linecap="round" stroke-linejoin="round"/>
<path d="M30.1709 10.6523H38.7423" stroke="#BFF747" stroke-width="1.5" stroke-linecap="round" stroke-linejoin="round"/>
<path d="M20.1709 23.4238V33.4238" stroke="#BFF747" stroke-width="1.5" stroke-linecap="round" stroke-linejoin="round"/>
<path d="M11.5996 18.3652L20.171 23.4224" stroke="#BFF747" stroke-width="1.5" stroke-linecap="round" stroke-linejoin="round"/>
<path d="M28.7423 18.3652L20.1709 23.4224" stroke="#BFF747" stroke-width="1.5" stroke-linecap="round" stroke-linejoin="round"/>
</g>
<defs>
<clipPath id="clip0_534_1232">
<rect width="40" height="40" fill="white" transform="translate(0.170898 0.652344)"/>
</clipPath>
</defs>
</svg>
