<svg width="40" height="41" viewBox="0 0 40 41" fill="none" xmlns="http://www.w3.org/2000/svg">
<g clip-path="url(#clip0_534_1242)">
<path d="M14.9428 7.23828L16.1714 4.06685C16.3786 3.52989 16.7431 3.06803 17.2173 2.74174C17.6914 2.41546 18.253 2.23998 18.8286 2.23828H21.1714C21.747 2.23998 22.3086 2.41546 22.7827 2.74174C23.2568 3.06803 23.6214 3.52989 23.8286 4.06685L25.0571 7.23828L29.2286 9.63828L32.6 9.124C33.1614 9.0478 33.7327 9.14021 34.2415 9.38949C34.7502 9.63877 35.1733 10.0337 35.4571 10.524L36.6 12.524C36.8928 13.0221 37.0278 13.5974 36.987 14.1738C36.9461 14.7502 36.7315 15.3007 36.3714 15.7526L34.2857 18.4097V23.2097L36.4286 25.8669C36.7887 26.3188 37.0033 26.8692 37.0441 27.4457C37.0849 28.0221 36.95 28.5973 36.6571 29.0954L35.5143 31.0954C35.2305 31.5858 34.8073 31.9806 34.2986 32.2299C33.7899 32.4792 33.2185 32.5716 32.6571 32.4954L29.2857 31.9811L25.1143 34.3811L23.8857 37.5526C23.6785 38.0895 23.314 38.5514 22.8398 38.8777C22.3657 39.204 21.8041 39.3794 21.2286 39.3811H18.8286C18.253 39.3794 17.6914 39.204 17.2173 38.8777C16.7431 38.5514 16.3786 38.0895 16.1714 37.5526L14.9428 34.3811L10.7714 31.9811L7.39998 32.4954C6.8386 32.5716 6.26724 32.4792 5.7585 32.2299C5.24976 31.9806 4.82662 31.5858 4.54284 31.0954L3.39998 29.0954C3.10713 28.5973 2.9722 28.0221 3.01301 27.4457C3.05382 26.8692 3.26844 26.3188 3.62855 25.8669L5.71427 23.2097V18.4097L3.57141 15.7526C3.2113 15.3007 2.99667 14.7502 2.95587 14.1738C2.91506 13.5974 3.04998 13.0221 3.34284 12.524L4.48569 10.524C4.76948 10.0337 5.19262 9.63877 5.70136 9.38949C6.2101 9.14021 6.78146 9.0478 7.34284 9.124L10.7143 9.63828L14.9428 7.23828Z" stroke="#BFF747" stroke-width="2" stroke-linecap="round" stroke-linejoin="round"/>
<path d="M20.0001 29.3811C24.734 29.3811 28.5716 25.5436 28.5716 20.8097C28.5716 16.0758 24.734 12.2383 20.0001 12.2383C15.2663 12.2383 11.4287 16.0758 11.4287 20.8097C11.4287 25.5436 15.2663 29.3811 20.0001 29.3811Z" stroke="#BFF747" stroke-width="2" stroke-linecap="round" stroke-linejoin="round"/>
<path d="M20 12.2383V20.8097H28.5714" stroke="#BFF747" stroke-width="2" stroke-linecap="round" stroke-linejoin="round"/>
<path d="M20.0005 20.8086L13.9434 26.8657" stroke="#BFF747" stroke-width="2" stroke-linecap="round" stroke-linejoin="round"/>
</g>
<defs>
<clipPath id="clip0_534_1242">
<rect width="40" height="40" fill="white" transform="translate(0 0.808594)"/>
</clipPath>
</defs>
</svg>
