<svg width="41" height="41" viewBox="0 0 41 41" fill="none" xmlns="http://www.w3.org/2000/svg">
<path d="M36.3189 1.89648H4.89035C3.31239 1.89648 2.0332 3.17567 2.0332 4.75363V36.1822C2.0332 37.7602 3.31239 39.0393 4.89035 39.0393H36.3189C37.8969 39.0393 39.1761 37.7602 39.1761 36.1822V4.75363C39.1761 3.17567 37.8969 1.89648 36.3189 1.89648Z" stroke="black" stroke-width="1.5" stroke-linecap="round" stroke-linejoin="round"/>
<path d="M20.6045 33.3242C26.1273 33.3242 30.6045 28.8471 30.6045 23.3242C30.6045 17.8014 26.1273 13.3242 20.6045 13.3242C15.0816 13.3242 10.6045 17.8014 10.6045 23.3242C10.6045 28.8471 15.0816 33.3242 20.6045 33.3242Z" stroke="black" stroke-width="1.5" stroke-linecap="round" stroke-linejoin="round"/>
<path d="M2.0332 10.4688H10.6046" stroke="black" stroke-width="1.5" stroke-linecap="round" stroke-linejoin="round"/>
<path d="M30.6045 10.4688H39.1759" stroke="black" stroke-width="1.5" stroke-linecap="round" stroke-linejoin="round"/>
<path d="M20.6045 23.2402V33.2402" stroke="black" stroke-width="1.5" stroke-linecap="round" stroke-linejoin="round"/>
<path d="M12.0332 18.1816L20.6046 23.2388" stroke="black" stroke-width="1.5" stroke-linecap="round" stroke-linejoin="round"/>
<path d="M29.1759 18.1816L20.6045 23.2388" stroke="black" stroke-width="1.5" stroke-linecap="round" stroke-linejoin="round"/>
</svg>
