<svg width="24" height="25" viewBox="0 0 24 25" fill="none" xmlns="http://www.w3.org/2000/svg">
<path d="M22.8099 15.3068L15.669 12.5125L22.872 9.71827C23.2446 9.59408 23.4929 9.15942 23.4308 8.78685C23.3066 7.97961 22.9341 7.23447 22.4994 6.55143C22.1268 5.80629 21.6301 5.18534 21.0091 4.62648C20.6987 4.3781 20.264 4.3781 19.9535 4.62648L13.9303 9.46989L15.1722 1.83221C15.2964 1.39755 15.048 1.02498 14.6754 0.900788C13.9303 0.590313 13.061 0.466124 12.2537 0.528219C11.4465 0.466124 10.5772 0.590313 9.83204 0.900788C9.45947 1.02498 9.21109 1.45964 9.33528 1.83221L10.5772 9.46989L4.55397 4.62648C4.24349 4.31601 3.80883 4.31601 3.49835 4.62648C2.87741 5.12324 2.38065 5.80629 2.00808 6.55143C1.51132 7.23447 1.20084 7.97961 1.01456 8.78685C0.952462 9.22151 1.20084 9.59408 1.57341 9.71827L8.65224 12.5125L1.44922 15.3068C1.07665 15.431 0.828274 15.8657 0.890369 16.2382C1.01456 17.0455 1.32503 17.7906 1.82179 18.4737C2.19436 19.2188 2.69112 19.8397 3.31207 20.3986C3.62255 20.647 4.05721 20.647 4.36769 20.3986L10.3909 15.5552L9.14899 23.1929C9.0248 23.6275 9.27319 24.0001 9.64576 24.1864C10.453 24.4348 11.2602 24.559 12.0675 24.4969C12.8747 24.559 13.744 24.4348 14.4892 24.1864C14.8617 24.0622 15.1101 23.6275 14.9859 23.1929L13.744 15.5552L19.7672 20.3986C20.0777 20.647 20.5124 20.647 20.8849 20.3986C21.5059 19.9018 22.0027 19.2809 22.3752 18.5358C22.872 17.8527 23.1825 17.1076 23.3687 16.3003C23.4308 15.8036 23.2445 15.431 22.8099 15.3068Z" fill="black"/>
</svg>
