<svg width="98" height="29" viewBox="0 0 98 29" fill="none" xmlns="http://www.w3.org/2000/svg">
<g clip-path="url(#clip0_877_2894)">
<path d="M27.0327 18.3239C25.4556 18.3239 23.9777 17.6561 22.635 16.5691L22.9619 15.0346L22.9761 14.9777C23.2673 13.3438 24.1909 10.6014 27.0327 10.6014C29.164 10.6014 30.8975 12.3349 30.8975 14.4661C30.8903 16.5903 29.1569 18.3239 27.0327 18.3239ZM27.0327 6.68692C23.4022 6.68692 20.5891 9.04559 19.4454 12.9246C17.6976 10.303 16.3761 7.15585 15.6018 4.50586H11.6944V14.6722C11.6944 16.6756 10.0603 18.3095 8.05688 18.3095C6.05342 18.3095 4.41956 16.6756 4.41956 14.6722V4.50586H0.511763V14.6722C0.497548 18.8355 3.88638 22.2525 8.04949 22.2525C12.2128 22.2525 15.6016 18.8355 15.6016 14.6722V12.9672C16.3617 14.5514 17.2923 16.1498 18.422 17.5708L16.0277 28.824H20.0276L21.761 20.6611C23.2813 21.6344 25.0291 22.2455 27.0325 22.2455C31.3164 22.2455 34.8047 18.7359 34.8047 14.4519C34.8047 10.1751 31.3166 6.68692 27.0327 6.68692Z" fill="#6FDA44"/>
<path d="M46.7336 7.12733L49.2556 17.2936L52.0336 7.12733H55.3441L51.0745 21.8191H47.7637L45.1424 11.5888L42.5278 21.8119H39.2173L34.9473 7.12031H38.258L41.0357 17.2866L43.5578 7.12031H46.7334V7.12751L46.7336 7.12733ZM63.2655 6.68683C58.9674 6.68683 55.4863 10.175 55.4863 14.466C55.4863 18.7643 58.9744 22.2454 63.2655 22.2454C67.5637 22.2454 71.0519 18.7643 71.0519 14.466C71.0519 10.168 67.5637 6.68683 63.2655 6.68683ZM63.2655 19.0484C60.7364 19.0484 58.6903 17.0023 58.6903 14.4732C58.6903 11.944 60.7434 9.89806 63.2655 9.89806C65.7947 9.89806 67.8407 11.944 67.8407 14.4732C67.8407 16.9953 65.7947 19.0484 63.2655 19.0484ZM80.5078 10.4166C78.2843 10.4166 76.4868 12.2211 76.4868 14.4376V21.8119H73.1547V7.12733H76.4868V9.38648C76.4868 9.38648 77.9076 7.12012 80.8275 7.12012H81.8505V10.4166H80.5078ZM91.6902 13.8978C94.0557 12.5621 95.6615 10.0258 95.6615 7.12012H92.3294C92.3294 9.5711 90.3403 11.5603 87.8893 11.5603H87.4416V0.0371094H84.1098V21.8118H87.4416V14.8923H87.8397C88.1664 14.8923 88.5927 15.1055 88.7845 15.3683L93.5159 21.8119H97.5086L91.6902 13.8978Z" fill="white"/>
</g>
<defs>
<clipPath id="clip0_877_2894">
<rect width="97.0549" height="29" fill="white" transform="translate(0.472656 0.0078125)"/>
</clipPath>
</defs>
</svg>
