<svg width="116" height="29" viewBox="0 0 116 29" fill="none" xmlns="http://www.w3.org/2000/svg">
<g clip-path="url(#clip0_877_2881)">
<path fill-rule="evenodd" clip-rule="evenodd" d="M37.3594 22.8414L38.7897 19.5178C40.3346 20.673 42.3929 21.2735 44.4237 21.2735C45.9228 21.2735 46.8717 20.6959 46.8717 19.8203C46.8488 17.3723 37.8912 19.2886 37.8224 13.1502C37.7995 10.0329 40.5684 7.63079 44.4925 7.63079C46.8259 7.63079 49.1547 8.20841 50.8188 9.52409L49.4801 12.9164C47.9582 11.9446 46.0649 11.2524 44.2633 11.2524C43.0393 11.2524 42.2324 11.83 42.2324 12.568C42.2554 14.9702 51.2818 13.6545 51.3734 19.5178C51.3734 22.7038 48.6733 24.9455 44.795 24.9455C41.9528 24.9409 39.3444 24.2716 37.3594 22.8414ZM92.2833 18.3167C91.5682 19.5636 90.2296 20.4163 88.6801 20.4163C86.3926 20.4163 84.5497 18.5688 84.5497 16.2859C84.5497 14.0029 86.3972 12.1555 88.6801 12.1555C90.225 12.1555 91.5682 13.0081 92.2833 14.255L96.2304 12.0638C94.7543 9.43241 91.912 7.63079 88.6801 7.63079C83.8987 7.63079 80.0205 11.5091 80.0205 16.2905C80.0205 21.0718 83.8987 24.9501 88.6801 24.9501C91.9349 24.9501 94.7543 23.1714 96.2304 20.5171L92.2833 18.3167ZM53.3584 0.447266H58.3003V24.62H53.3584V0.447266ZM98.1695 0.447266V24.62H103.111V17.3678L108.975 24.62H115.301L107.842 16.0062L114.746 7.97003H108.695L103.107 14.6401V0.447266H98.1695Z" fill="white"/>
<path d="M72.9841 18.3633C72.2689 19.5414 70.7928 20.417 69.1287 20.417C66.8412 20.417 64.9983 18.5696 64.9983 16.2866C64.9983 14.0037 66.8457 12.1562 69.1287 12.1562C70.7928 12.1562 72.2689 13.0776 72.9841 14.2787V18.3633ZM72.9841 7.97536V9.93742C72.1772 8.57589 70.1693 7.62695 68.0652 7.62695C63.7239 7.62695 60.3086 11.4594 60.3086 16.2637C60.3086 21.068 63.7239 24.9463 68.0652 24.9463C70.1647 24.9463 72.1726 24.0019 72.9841 22.6358V24.5979H77.9259V7.97536H72.9841Z" fill="white"/>
<path fill-rule="evenodd" clip-rule="evenodd" d="M6.81581 18.3395C6.81581 20.0266 5.45429 21.3881 3.76728 21.3881C2.08027 21.3881 0.71875 20.022 0.71875 18.3395C0.71875 16.6571 2.08027 15.291 3.76728 15.291H6.81581V18.3395ZM8.33778 18.3395C8.33778 16.6525 9.69931 15.291 11.3863 15.291C13.0733 15.291 14.4348 16.6525 14.4348 18.3395V25.9586C14.4348 27.6456 13.0733 29.0071 11.3863 29.0071C9.69931 29.0071 8.33778 27.6456 8.33778 25.9586V18.3395Z" fill="#E01E5A"/>
<path fill-rule="evenodd" clip-rule="evenodd" d="M11.3858 6.10487C9.69879 6.10487 8.33727 4.74335 8.33727 3.05634C8.33727 1.36934 9.69879 0.0078125 11.3858 0.0078125C13.0728 0.0078125 14.4343 1.36934 14.4343 3.05634V6.10487H11.3858ZM11.3858 7.64977C13.0728 7.64977 14.4343 9.01129 14.4343 10.6983C14.4343 12.3853 13.0728 13.7468 11.3858 13.7468H3.74384C2.05684 13.7468 0.695312 12.3807 0.695312 10.6983C0.695312 9.01587 2.05684 7.64977 3.74384 7.64977H11.3858Z" fill="#36C5F0"/>
<path fill-rule="evenodd" clip-rule="evenodd" d="M23.5975 10.6983C23.5975 9.01129 24.9591 7.64977 26.6461 7.64977C28.3331 7.64977 29.6946 9.01129 29.6946 10.6983C29.6946 12.3853 28.3331 13.7468 26.6461 13.7468H23.5975V10.6983ZM22.0756 10.6983C22.0756 12.3853 20.7141 13.7468 19.027 13.7468C17.34 13.7468 15.9785 12.3853 15.9785 10.6983V3.05634C15.9785 1.36934 17.34 0.0078125 19.027 0.0078125C20.7141 0.0078125 22.0756 1.36934 22.0756 3.05634V10.6983Z" fill="#2EB67D"/>
<path fill-rule="evenodd" clip-rule="evenodd" d="M19.027 22.91C20.7141 22.91 22.0756 24.2716 22.0756 25.9586C22.0756 27.6456 20.7141 29.0071 19.027 29.0071C17.34 29.0071 15.9785 27.6456 15.9785 25.9586V22.91H19.027ZM19.027 21.3881C17.34 21.3881 15.9785 20.0266 15.9785 18.3395C15.9785 16.6525 17.34 15.291 19.027 15.291H26.669C28.356 15.291 29.7175 16.6525 29.7175 18.3395C29.7175 20.0266 28.356 21.3881 26.669 21.3881H19.027Z" fill="#ECB22E"/>
</g>
<defs>
<clipPath id="clip0_877_2881">
<rect width="114.606" height="29" fill="white" transform="translate(0.695312 0.0078125)"/>
</clipPath>
</defs>
</svg>
