<svg width="102" height="29" viewBox="0 0 102 29" fill="none" xmlns="http://www.w3.org/2000/svg">
<g clip-path="url(#clip0_877_2875)">
<path fill-rule="evenodd" clip-rule="evenodd" d="M18.1837 4.15625H2.6521C2.01041 4.15625 1.39496 4.41093 0.940915 4.86437C0.486868 5.3178 0.231353 5.93291 0.230489 6.5746V22.0834C0.229199 22.4022 0.290885 22.7181 0.412005 23.0131C0.533125 23.308 0.711296 23.5761 0.936291 23.802C1.16129 24.0279 1.42868 24.2072 1.72312 24.3295C2.01757 24.4518 2.33326 24.5148 2.6521 24.5148H18.1837C18.5023 24.5143 18.8176 24.4511 19.1117 24.3286C19.4058 24.2061 19.6728 24.0267 19.8974 23.8009C20.1221 23.575 20.2999 23.307 20.4209 23.0123C20.5418 22.7176 20.6033 22.4019 20.6021 22.0834V6.5746C20.6012 5.93348 20.3461 5.31886 19.8928 4.86552C19.4394 4.41218 18.8248 4.15711 18.1837 4.15625ZM9.01618 18.8197C9.01575 18.9263 8.99428 19.0317 8.95301 19.13C8.91173 19.2282 8.85146 19.3174 8.77566 19.3923C8.69985 19.4672 8.61 19.5263 8.51126 19.5664C8.41252 19.6065 8.30683 19.6267 8.20027 19.6258H4.8061C4.59287 19.625 4.38867 19.5397 4.23819 19.3886C4.08772 19.2375 4.00324 19.033 4.00324 18.8197V8.7188C4.00324 8.50557 4.08772 8.30103 4.23819 8.14994C4.38867 7.99886 4.59287 7.91355 4.8061 7.91269H8.20027C8.4138 7.91355 8.61834 7.99875 8.76933 8.14974C8.92032 8.30073 9.00553 8.50527 9.00639 8.7188L9.01618 18.8197ZM16.8489 14.1821C16.8489 14.2888 16.8277 14.3944 16.7866 14.4929C16.7455 14.5913 16.6852 14.6806 16.6093 14.7556C16.5334 14.8306 16.4434 14.8898 16.3445 14.9297C16.2455 14.9696 16.1397 14.9895 16.033 14.9882H12.6388C12.4253 14.9874 12.2207 14.9022 12.0697 14.7512C11.9188 14.6002 11.8335 14.3956 11.8327 14.1821V8.7188C11.8335 8.50527 11.9188 8.30073 12.0697 8.14974C12.2207 7.99875 12.4253 7.91355 12.6388 7.91269H16.033C16.2462 7.91355 16.4504 7.99886 16.6009 8.14994C16.7514 8.30103 16.8358 8.50557 16.8358 8.7188L16.8489 14.1821Z" fill="url(#paint0_linear_877_2875)"/>
<path d="M42.4419 5.64773V9.58366H37.7782V24.5148H33.2809V9.58366H28.6172V5.64773H42.4419ZM48.1663 24.5148H44.0085V9.82844H48.1663V12.6417C48.9561 10.6607 50.2191 9.48249 52.4678 9.62609V13.9765C49.5305 13.7481 48.1663 14.4661 48.1663 16.8191V24.5148ZM75.1826 24.629C72.4575 24.629 70.7441 23.3235 70.7441 20.2361V4.15625H74.9313V19.6617C74.9313 20.5527 75.5188 20.8693 76.2368 20.8693C76.4439 20.8735 76.6511 20.8637 76.8569 20.8399V24.4593C76.3093 24.5927 75.7459 24.6498 75.1826 24.629ZM83.9161 24.629C81.191 24.629 79.4743 23.3235 79.4743 20.2361V4.15625H83.6615V19.6617C83.6615 20.5527 84.2523 20.8693 84.9833 20.8693C85.1894 20.8736 85.3954 20.8637 85.6001 20.8399V24.4593C85.0494 24.594 84.4826 24.6511 83.9161 24.629ZM87.6073 17.1651C87.6073 12.6286 90.2182 9.52492 94.7155 9.52492C99.2127 9.52492 101.768 12.6188 101.768 17.1651C101.768 21.7113 99.1834 24.8607 94.7155 24.8607C90.2475 24.8607 87.6073 21.6721 87.6073 17.1651ZM91.6835 17.1651C91.6835 19.3745 92.6104 21.1271 94.7155 21.1271C96.8205 21.1271 97.6952 19.3745 97.6952 17.1651C97.6952 14.9556 96.7977 13.2487 94.7155 13.2487C92.6333 13.2487 91.6835 14.9523 91.6835 17.1651ZM58.0812 18.4934C59.2454 18.6213 60.4154 18.6898 61.5864 18.699C64.7717 18.699 67.4609 17.8439 67.4609 14.7598C67.4609 11.767 64.6966 9.51839 61.371 9.51839C56.8933 9.51839 54.0245 12.7657 54.0245 17.3021C54.0245 22.0116 56.4984 24.8085 62.089 24.8085C63.7475 24.822 65.3941 24.5276 66.9452 23.9404V20.4222C65.5092 20.8823 63.8937 21.3393 62.2358 21.3393C60.01 21.3393 58.4598 20.6082 58.0812 18.4934ZM61.2861 12.7233C62.4643 12.7233 63.4107 13.5229 63.4107 14.6162C63.4107 16.0228 61.9258 16.4634 60.2156 16.4634C59.4878 16.46 58.7613 16.4022 58.0421 16.2904C58.0964 15.6046 58.2931 14.9377 58.6197 14.3322C58.8818 13.8524 59.2669 13.451 59.7355 13.1693C60.2042 12.8877 60.7394 12.736 61.2861 12.7298V12.7233Z" fill="white"/>
</g>
<defs>
<linearGradient id="paint0_linear_877_2875" x1="3172.36" y1="1295.7" x2="3172.36" y2="4.15625" gradientUnits="userSpaceOnUse">
<stop stop-color="#0052CC"/>
<stop offset="1" stop-color="#2684FF"/>
</linearGradient>
<clipPath id="clip0_877_2875">
<rect width="101.541" height="29" fill="white" transform="translate(0.228516 0.0078125)"/>
</clipPath>
</defs>
</svg>
