<svg width="138" height="29" viewBox="0 0 138 29" fill="none" xmlns="http://www.w3.org/2000/svg">
<path d="M50.7438 20.3393C47.5925 20.3393 45.0382 17.7286 45.0382 14.5074C45.0382 11.2867 47.5925 8.67559 50.7442 8.67559C53.8954 8.67559 56.4494 11.2867 56.4494 14.5074C56.4494 17.7286 53.8951 20.3393 50.7438 20.3393ZM56.4677 21.0789C56.4677 21.6131 57.3829 23.1133 58.5043 23.1133H59.2305C59.5121 23.1133 59.7423 22.8828 59.7423 22.6015V6.64161H59.7396C59.7326 6.51118 59.6759 6.38838 59.5813 6.29838C59.4866 6.20837 59.3611 6.15797 59.2305 6.15749H56.9802C56.7079 6.15749 56.4856 6.37303 56.4703 6.64161H56.4677V7.93858C55.0893 6.24042 52.9153 5.53553 50.7352 5.53553C45.7801 5.53553 41.7637 9.55231 41.7637 14.5078C41.7637 19.4633 45.7801 23.4801 50.7352 23.4801C52.9153 23.4801 55.291 22.6344 56.4677 21.0771V21.0797V21.0789ZM65.1191 18.7936C66.6212 19.8339 68.2611 20.3393 69.8367 20.3393C71.3384 20.3393 72.8897 19.5608 72.8897 18.2063C72.8897 16.3984 69.508 16.1167 67.3836 15.3946C65.2581 14.6726 63.4277 13.1795 63.4277 10.7619C63.4277 7.06298 66.7239 5.53516 69.8005 5.53516C71.7496 5.53516 73.7605 6.17766 75.0645 7.09883C75.5139 7.43877 75.2401 7.82987 75.2401 7.82987L73.9954 9.60722C73.8557 9.80745 73.5658 9.96733 73.2599 9.76374C72.4213 9.2094 71.4874 8.67522 69.8001 8.67522C67.7116 8.67522 66.793 9.54222 66.793 10.6166C66.793 11.9053 68.2622 12.3102 69.9831 12.7495C72.9827 13.5575 76.255 14.5299 76.255 18.2067C76.255 21.4659 73.2061 23.4801 69.8367 23.4801C67.2835 23.4801 65.1094 22.7521 63.2861 21.4144C62.9066 21.0341 63.1718 20.6811 63.1718 20.6811L64.4101 18.9127C64.6623 18.5818 64.9798 18.6976 65.1191 18.7936ZM93.1316 21.0793C93.1316 21.6131 94.0465 23.1133 95.1675 23.1133H95.894C96.1757 23.1133 96.4062 22.8828 96.4062 22.6015V6.64161H96.4032C96.3959 6.51124 96.3392 6.38855 96.2446 6.29858C96.15 6.20861 96.0246 6.15815 95.894 6.15749H93.6438C93.3711 6.15749 93.1492 6.37303 93.1342 6.64161H93.1316V7.93858C91.7529 6.24042 89.5788 5.53553 87.3991 5.53553C82.444 5.53553 78.4268 9.55231 78.4268 14.5074C78.4268 19.4626 82.444 23.4797 87.3991 23.4797C89.5788 23.4797 91.9546 22.634 93.1313 21.0767V21.0793H93.1316ZM87.4077 20.3397C84.2561 20.3397 81.7018 17.7286 81.7018 14.5074C81.7018 11.2867 84.2561 8.67559 87.4077 8.67559C90.5586 8.67559 93.1133 11.2867 93.1133 14.5074C93.1133 17.7286 90.5586 20.3393 87.4077 20.3393V20.3397ZM116.568 21.6277L116.567 13.3696C116.567 8.71444 113.631 5.57363 108.947 5.57363C106.712 5.57363 104.883 6.86649 104.235 7.97705V7.96136L104.232 7.97406C104.23 6.85043 103.319 6.19596 102.195 6.19596H101.473C101.191 6.19596 100.96 6.42682 100.96 6.70848V22.6688H100.963C100.978 22.9377 101.201 23.1533 101.473 23.1533H103.723C103.757 23.1533 103.791 23.1491 103.824 23.1432C103.839 23.1398 103.853 23.1338 103.867 23.1297C103.884 23.1249 103.901 23.1208 103.917 23.114C103.938 23.1058 103.956 23.0946 103.974 23.0842C103.983 23.0786 103.993 23.0748 104.002 23.0692C104.024 23.054 104.045 23.0373 104.065 23.0192C104.068 23.0158 104.072 23.0136 104.075 23.0106C104.169 22.9209 104.225 22.7986 104.232 22.6688H104.235V13.2415C104.235 10.7413 106.262 8.71406 108.763 8.71406C111.263 8.71406 113.29 10.7413 113.29 13.2415L113.292 21.1219L113.292 21.1189C113.292 21.126 113.294 21.1335 113.294 21.1406V22.6688H113.297C113.312 22.9377 113.534 23.1533 113.806 23.1533H116.056C116.091 23.1533 116.124 23.1491 116.157 23.1432C116.171 23.1402 116.183 23.1346 116.196 23.1316C116.214 23.126 116.233 23.1211 116.251 23.114C116.269 23.1066 116.286 23.0957 116.303 23.086C116.314 23.0804 116.325 23.0759 116.335 23.0692C116.356 23.055 116.375 23.039 116.394 23.0225C116.399 23.0188 116.404 23.0151 116.409 23.0102C116.43 22.99 116.449 22.9676 116.466 22.9444C116.525 22.8647 116.56 22.7694 116.566 22.6703L116.566 22.6688H116.569L116.568 21.6277ZM134.118 21.0793C134.118 21.6131 135.032 23.1133 136.154 23.1133H136.88C137.162 23.1133 137.392 22.8828 137.392 22.6015V6.64161H137.39C137.382 6.51121 137.326 6.38852 137.231 6.29855C137.136 6.20859 137.011 6.15814 136.88 6.15749H134.63C134.5 6.15787 134.374 6.20823 134.279 6.29825C134.185 6.38827 134.128 6.51112 134.121 6.64161H134.118V7.93858C132.738 6.24042 130.565 5.53553 128.385 5.53553C123.43 5.53553 119.413 9.55231 119.413 14.5074C119.413 19.4626 123.43 23.4797 128.385 23.4797C130.565 23.4797 132.94 22.634 134.117 21.0767L134.118 21.0793ZM128.394 20.3397C125.243 20.3397 122.688 17.7286 122.688 14.5074C122.688 11.2867 125.243 8.67559 128.394 8.67559C131.545 8.67559 134.099 11.2867 134.099 14.5074C134.099 17.7286 131.545 20.3393 128.394 20.3393V20.3397Z" fill="white"/>
<path d="M25.1609 15.3606C21.3919 15.3606 18.3371 18.4154 18.3371 22.1837C18.3371 25.9524 21.3919 29.0078 25.1609 29.0078C28.9292 29.0078 31.984 25.9524 31.984 22.1837C31.984 18.4154 28.9292 15.3606 25.1609 15.3606ZM7.43283 15.3609C3.6645 15.3612 0.609375 18.4154 0.609375 22.184C0.609375 25.9524 3.6645 29.0075 7.43283 29.0075C11.2015 29.0075 14.2566 25.9524 14.2566 22.184C14.2566 18.4154 11.2018 15.3609 7.43283 15.3609ZM23.1202 6.83127C23.1202 10.5996 20.0654 13.6554 16.297 13.6554C12.5281 13.6554 9.47325 10.5996 9.47325 6.83127C9.47325 3.06294 12.5281 0.0078125 16.297 0.0078125C20.0654 0.0078125 23.1198 3.06294 23.1198 6.83127H23.1202Z" fill="url(#paint0_radial_877_2890)"/>
<defs>
<radialGradient id="paint0_radial_877_2890" cx="0" cy="0" r="1" gradientUnits="userSpaceOnUse" gradientTransform="translate(16.2967 1584.92) scale(2078.98 1921.63)">
<stop stop-color="#FFB900"/>
<stop offset="0.6" stop-color="#F95D8F"/>
<stop offset="0.9991" stop-color="#F95353"/>
</radialGradient>
</defs>
</svg>
