<svg width="98" height="29" viewBox="0 0 98 29" fill="none" xmlns="http://www.w3.org/2000/svg">
<g clip-path="url(#clip0_877_2898)">
<path d="M89.085 13.9084H85.6829C83.4929 13.9084 82.3195 15.5485 82.3195 18.2817V28.1618H75.8672V13.9074H73.1291C70.939 13.9074 69.7667 15.5475 69.7667 18.2807V28.1608H63.3133V8.63636H69.7667V11.6044C70.8231 9.30032 72.2699 8.63636 74.4213 8.63636H82.3205V11.6044C83.3769 9.30032 84.8238 8.63636 86.9752 8.63636H89.086L89.085 13.9084ZM61.9051 19.9217H48.4525C48.8043 22.1089 50.1728 23.3585 52.4798 23.3585C54.2002 23.3585 55.4132 22.6549 55.8046 21.4062L61.5137 23.0067C60.1065 26.4038 56.6252 28.474 52.4798 28.474C45.4795 28.474 42.2727 23.0453 42.2727 18.3996C42.2727 13.8311 45.0881 8.36383 52.0884 8.36383C59.5188 8.36383 61.9824 13.9084 61.9824 18.0091C61.9873 18.6475 61.9615 19.2858 61.9051 19.9217ZM55.648 16.1342C55.4915 14.4545 54.2785 12.8936 52.0894 12.8936C50.0549 12.8936 48.8439 13.7905 48.4525 16.1342H55.648ZM31.0111 28.1608H36.6805L43.7591 8.63834H37.2682L33.8265 20L30.3065 8.63735H23.8531L31.0111 28.1608ZM4.57443 28.1608H10.9881V13.9084H17.0906V28.1618H23.4647V8.63735H10.9881V7.42735C10.9881 6.09942 11.9266 5.27988 13.4131 5.27988H17.0896V0.0078125H12.3577C7.70298 0.0078125 4.57443 2.85889 4.57443 7.03591V8.63735H0.9375V13.9094H4.57443V28.1608Z" fill="white"/>
<path d="M93.0757 28.7459C95.2786 28.7459 97.0644 26.9621 97.0644 24.7621C97.0644 22.5621 95.2786 20.7793 93.0757 20.7793C90.8727 20.7793 89.0859 22.5631 89.0859 24.7631C89.0859 26.9631 90.8727 28.7459 93.0757 28.7459Z" fill="#BFF747"/>
</g>
<defs>
<clipPath id="clip0_877_2898">
<rect width="96.1538" height="29" fill="white" transform="translate(0.923828 0.0078125)"/>
</clipPath>
</defs>
</svg>
