<svg width="136" height="25" viewBox="0 0 136 25" fill="none" xmlns="http://www.w3.org/2000/svg">
<g clip-path="url(#clip0_877_2902)">
<path d="M12.2439 0.0078125C13.3923 0.0078125 14.4523 0.097032 15.424 0.361157C16.3957 0.537829 17.1907 0.891173 17.8974 1.33285C18.6041 1.77453 19.1341 2.39289 19.4875 3.1888C19.8408 3.98294 20.0175 4.95552 20.0175 6.01555C20.0175 7.25137 19.7525 8.31229 19.1341 9.10731C18.6041 9.90145 17.7207 10.6081 16.6607 11.1382C18.1624 11.5798 19.3108 12.374 20.0175 13.4349C20.7242 14.4949 21.1659 15.82 21.1659 17.3217C21.1659 18.5575 20.9008 19.6184 20.4592 20.5018C20.0175 21.3851 19.3108 22.1802 18.5158 22.7102C17.7207 23.2411 16.749 23.6828 15.689 23.9469C14.629 24.211 13.5689 24.3886 12.5089 24.3886H0.671875V0.0078125H12.2439ZM11.5372 9.90145C12.5089 9.90145 13.3039 9.63645 13.9223 9.19477C14.5406 8.75309 14.8057 7.95806 14.8057 6.98636C14.8057 6.45635 14.7173 5.92633 14.5406 5.57299C14.364 5.21964 14.099 4.95463 13.7456 4.68963C13.3923 4.51295 13.0389 4.33628 12.5972 4.24795C12.1556 4.15961 11.7139 4.15961 11.1839 4.15961H6.06038V9.90145H11.5372ZM11.8022 20.3251C12.3322 20.3251 12.8623 20.2368 13.3039 20.1493C13.7456 20.0601 14.1873 19.8834 14.5406 19.6184C14.894 19.3534 15.159 19.0884 15.424 18.6467C15.6007 18.205 15.7773 17.6741 15.7773 17.0567C15.7773 15.82 15.424 14.9366 14.7173 14.3174C14.0106 13.7874 13.0389 13.5232 11.8906 13.5232H6.06038V20.3251H11.8022ZM28.8511 20.2368C29.5578 20.9435 30.6178 21.2968 32.0312 21.2968C33.0029 21.2968 33.8863 21.0318 34.5929 20.5901C35.2996 20.0592 35.7413 19.5301 35.918 18.9992H40.2464C39.5398 21.1193 38.4797 22.6219 37.0663 23.5927C35.653 24.476 33.9746 25.0069 31.9429 25.0069C30.5295 25.0069 29.2928 24.741 28.1444 24.2994C26.996 23.8577 26.1127 23.2402 25.3176 22.3568C24.5226 21.5618 23.9043 20.5901 23.5509 19.4409C23.1092 18.2925 22.9326 17.0567 22.9326 15.6424C22.9326 14.3174 23.1092 13.0816 23.5509 11.9323C23.9926 10.7839 24.611 9.81312 25.406 8.92976C26.201 8.13473 27.1727 7.42804 28.2327 6.98636C29.3811 6.54468 30.5295 6.27968 31.9429 6.27968C33.4446 6.27968 34.7696 6.54468 35.918 7.16304C37.0664 7.78139 37.9497 8.48808 38.6564 9.54811C39.3631 10.5198 39.8931 11.6673 40.2464 12.9049C40.4231 14.1416 40.5115 15.3783 40.4231 16.7917H27.6144C27.6144 18.205 28.1444 19.5301 28.8511 20.2368ZM34.4163 10.9615C33.7979 10.3431 32.8262 9.98979 31.6778 9.98979C30.8828 9.98979 30.2645 10.1656 29.7345 10.4315C29.2044 10.6965 28.8511 11.0489 28.4977 11.4032C28.1444 11.7574 27.9677 12.1982 27.8794 12.6399C27.7911 13.0816 27.7027 13.434 27.7027 13.7882H35.653C35.4763 12.4632 35.0346 11.5798 34.4163 10.9615ZM47.3133 0.0078125V9.19477H47.4017C48.02 8.13473 48.8151 7.42804 49.7867 6.98636C50.7584 6.54468 51.6418 6.27968 52.6135 6.27968C53.9385 6.27968 54.9986 6.45635 55.7936 6.80969C56.5886 7.16304 57.2953 7.69305 57.737 8.31141C58.1787 8.92976 58.532 9.72478 58.7087 10.6081C58.8854 11.4915 58.9737 12.4641 58.9737 13.6116V24.4769H54.1152V14.4949C54.1152 12.9932 53.8502 11.9332 53.4085 11.2265C52.9669 10.5198 52.1718 10.1665 51.0235 10.1665C49.6984 10.1665 48.7267 10.6081 48.1967 11.3157C47.5783 12.1099 47.3133 13.4349 47.3133 15.2016V24.4769H42.4549V0.0078125H47.3133ZM62.5071 9.37144C63.0372 8.57641 63.6555 8.0464 64.4505 7.5155C65.2456 7.07382 66.1289 6.72136 67.1006 6.5438C68.0723 6.36713 69.0431 6.27879 70.0157 6.27879C70.8991 6.27879 71.7824 6.36713 72.755 6.45546C73.6384 6.5438 74.5217 6.80793 75.2275 7.16215C76.0226 7.51461 76.5526 8.04551 77.0835 8.66387C77.5243 9.2831 77.7893 10.1665 77.7893 11.2265V20.5018C77.7893 21.2968 77.8776 22.0918 77.966 22.7994C78.0552 23.5061 78.3184 24.1245 78.5843 24.4769H73.6375C73.4599 24.3002 73.3716 23.9469 73.2841 23.6828C73.1958 23.4169 73.1958 23.0644 73.1958 22.7994C72.4008 23.5936 71.5174 24.1245 70.4574 24.4769C69.3974 24.8303 68.3373 24.9186 67.2773 24.9186C66.3939 24.9186 65.6872 24.8303 64.8922 24.5661C64.1855 24.3895 63.5672 24.0352 62.9488 23.5936C62.4188 23.1519 61.9771 22.6219 61.6238 21.916C61.3588 21.2085 61.1821 20.5018 61.1821 19.5301C61.1821 18.5575 61.3588 17.6741 61.7121 17.0567C62.0655 16.4383 62.5071 15.9083 63.0372 15.4666C63.5672 15.1142 64.2739 14.7599 64.9806 14.5833C65.6872 14.4075 66.3939 14.2308 67.189 14.1416L69.309 13.8766C70.0157 13.7882 70.6341 13.6999 71.1641 13.6116C71.6941 13.4349 72.1358 13.2582 72.4891 12.9932C72.8425 12.7282 72.9308 12.3749 72.9308 11.8448C72.9308 11.3148 72.8425 10.8732 72.6658 10.6081C72.4891 10.3431 72.2241 10.0781 71.9591 9.90145C71.6932 9.72478 71.3408 9.63645 70.9874 9.54899C70.6341 9.45977 70.1924 9.45977 69.7507 9.45977C68.779 9.45977 68.0723 9.63645 67.5423 10.0781C67.0123 10.5198 66.6589 11.2265 66.5706 12.1099H61.7121C61.7121 11.0498 62.0655 10.0781 62.5071 9.37144ZM72.1349 16.2617C71.8708 16.35 71.5174 16.4383 71.1632 16.5267C70.8099 16.6159 70.4565 16.6159 70.0148 16.7033C69.6624 16.7917 69.2207 16.7917 68.8665 16.88L67.8064 17.145C67.4531 17.2334 67.0997 17.41 66.9231 17.5867C66.6581 17.7634 66.4814 18.0284 66.3047 18.2934C66.0406 18.6467 66.0406 19.0001 66.0406 19.4418C66.0406 19.8834 66.1289 20.2368 66.3056 20.5018C66.4823 20.7668 66.6589 21.0327 66.924 21.2085C67.189 21.3851 67.5423 21.4744 67.8956 21.5618C68.249 21.6493 68.6015 21.6502 69.0431 21.6502C70.0157 21.6502 70.7215 21.4744 71.2515 21.2085C71.7824 20.856 72.1349 20.5018 72.4008 20.0601C72.6658 19.6184 72.8425 19.1767 72.8425 18.7351C72.9308 18.2934 72.9308 17.9409 72.9308 17.675V15.82C72.6658 15.9966 72.4008 16.1742 72.1349 16.2617ZM85.1221 6.72136V9.19477H85.2104C85.8279 8.13473 86.6238 7.42804 87.5946 6.98636C88.5672 6.54468 89.6272 6.27968 90.598 6.27968C91.9231 6.27968 92.9831 6.45635 93.7781 6.80969C94.6615 7.16304 95.2807 7.69305 95.7224 8.31141C96.1641 8.92976 96.5165 9.72478 96.7816 10.6081C96.9582 11.4915 97.0474 12.4641 97.0474 13.6116V24.4769H92.189V14.4949C92.189 12.9932 91.9231 11.9332 91.4814 11.2265C91.0397 10.5198 90.2447 10.0781 89.008 10.0781C87.6829 10.0781 86.7104 10.6081 86.0929 11.4032C85.4745 12.1982 85.2095 13.5232 85.2095 15.29V24.5652H80.351V6.72136H85.1221ZM107.911 9.90145C107.117 9.90145 106.498 10.0781 105.969 10.4324C105.438 10.7848 104.997 11.2265 104.643 11.8457C104.29 12.3757 104.113 12.9941 103.936 13.7008C103.76 14.4084 103.76 15.0258 103.76 15.7334C103.76 16.3509 103.848 17.0584 103.936 17.6759C104.113 18.3835 104.289 18.9126 104.643 19.4426C104.997 19.9735 105.35 20.4152 105.88 20.7677C106.41 21.121 107.028 21.2986 107.823 21.2986C108.972 21.2986 109.855 20.9452 110.561 20.326C111.18 19.7085 111.622 18.8252 111.71 17.6759H116.392C116.04 20.061 115.156 21.8277 113.653 23.0653C112.152 24.3011 110.209 24.9204 107.823 24.9204C106.498 24.9204 105.261 24.6554 104.201 24.2137C103.052 23.772 102.168 23.1536 101.374 22.3586C100.58 21.5636 99.9599 20.5919 99.5182 19.5319C99.0765 18.3835 98.9007 17.2342 98.9007 15.9092C98.9007 14.4958 99.0765 13.2591 99.5182 12.1107C99.9599 10.9624 100.491 9.90234 101.285 9.01898C102.08 8.13562 103.052 7.51726 104.113 6.98725C105.26 6.54557 106.497 6.28056 107.91 6.28056C108.971 6.28056 109.943 6.45723 110.914 6.72224C111.884 6.98725 112.769 7.42893 113.475 7.95806C114.27 8.48896 114.889 9.19477 115.33 10.0781C115.772 10.8732 116.038 11.9332 116.125 13.0816H111.355C111.181 10.9615 110.032 9.90145 107.911 9.90145ZM26.6427 1.6862H36.5363V4.07127H26.6427V1.6862ZM123.724 20.2368C124.432 20.9435 125.579 21.2968 126.904 21.2968C127.877 21.2968 128.76 21.0318 129.466 20.5901C130.173 20.0592 130.615 19.5301 130.791 18.9992H135.032C134.324 21.1193 133.265 22.6219 131.851 23.5927C130.437 24.476 128.759 25.0069 126.727 25.0069C125.314 25.0069 124.077 24.741 122.928 24.2994C121.841 23.894 120.87 23.2268 120.102 22.3568C119.307 21.5618 118.689 20.5901 118.336 19.4409C117.894 18.2925 117.717 17.0567 117.717 15.6424C117.717 14.3174 117.894 13.0816 118.336 11.9323C118.761 10.8244 119.39 9.80602 120.191 8.92976C120.986 8.13473 121.957 7.42804 123.017 6.98636C124.166 6.54468 125.402 6.27968 126.727 6.27968C128.228 6.27968 129.553 6.54468 130.614 7.16304C131.762 7.78139 132.645 8.48808 133.353 9.54811C134.059 10.5198 134.589 11.6673 134.943 12.9049C135.295 14.1407 135.384 15.4657 135.295 16.88H122.486C122.486 18.205 123.017 19.5301 123.724 20.2368ZM129.378 10.9615C128.759 10.3431 127.787 9.98979 126.639 9.98979C125.844 9.98979 125.225 10.1656 124.695 10.4315C124.165 10.6965 123.723 11.0489 123.459 11.4032C123.195 11.7574 122.928 12.1982 122.841 12.6399C122.753 13.0816 122.665 13.434 122.665 13.7882H130.615C130.349 12.4632 129.908 11.5798 129.378 10.9615Z" fill="white"/>
</g>
<defs>
<clipPath id="clip0_877_2902">
<rect width="134.698" height="25" fill="white" transform="translate(0.650391 0.0078125)"/>
</clipPath>
</defs>
</svg>
