<svg width="194" height="204" viewBox="0 0 194 204" fill="none" xmlns="http://www.w3.org/2000/svg">
<path d="M105.867 18.0226C104.412 17.8668 103.153 17.3871 102.089 16.5835C101.042 15.7663 100.267 14.7023 99.7636 13.3914C99.2617 12.0654 99.0991 10.5764 99.276 8.9245C99.4544 7.25741 99.9284 5.83656 100.698 4.66195C101.483 3.48897 102.48 2.62231 103.689 2.06198C104.916 1.48811 106.272 1.28066 107.757 1.43963C109.303 1.60508 110.617 2.1443 111.7 3.05728C112.782 3.97026 113.53 5.14633 113.943 6.58548L111.599 7.00142L111.354 6.92919C111.033 6.067 110.539 5.37804 109.874 4.8623C109.209 4.34655 108.421 4.04002 107.512 3.94269C106.557 3.8405 105.676 3.98376 104.868 4.37247C104.06 4.76118 103.397 5.36475 102.88 6.18318C102.364 7.00162 102.042 8.00189 101.915 9.18401C101.789 10.3661 101.898 11.4202 102.244 12.3463C102.591 13.2572 103.125 13.9965 103.846 14.5641C104.568 15.1167 105.422 15.4457 106.407 15.5511C107.165 15.6322 107.904 15.535 108.623 15.2594C109.359 14.9703 109.974 14.5226 110.468 13.9164C110.964 13.2949 111.259 12.5447 111.353 11.6657L111.399 11.2338L112.253 11.854L106.979 11.2895L107.244 8.81159L113.791 9.51234L114.075 9.86466L113.155 18.4577L110.768 18.2023L111.133 14.7923L112.02 14.8872C111.535 15.6937 110.959 16.3449 110.293 16.8408C109.642 17.3383 108.931 17.6837 108.159 17.877C107.404 18.0568 106.64 18.1053 105.867 18.0226Z" fill="#BFF747"/>
<path d="M121.715 21.2746C120.593 20.9306 119.678 20.3791 118.971 19.6201C118.277 18.8655 117.824 17.9773 117.611 16.9556C117.398 15.9338 117.471 14.84 117.828 13.6742C118.181 12.523 118.725 11.5816 119.459 10.8502C120.212 10.1087 121.078 9.62486 122.056 9.3986C123.053 9.16223 124.098 9.21157 125.191 9.54662C126.284 9.88166 127.153 10.4271 127.798 11.1828C128.462 11.9284 128.882 12.8222 129.057 13.8642C129.246 14.9107 129.155 16.0387 128.785 17.2482L128.657 17.6635L128.229 17.8909L118.72 14.976L119.364 12.8775L128.063 15.5445L126.576 15.6385C126.749 15.022 126.764 14.4527 126.621 13.9306C126.497 13.3985 126.253 12.9488 125.887 12.5816C125.54 12.2043 125.097 11.933 124.558 11.7678C123.975 11.5891 123.401 11.5645 122.835 11.6939C122.274 11.8088 121.788 12.0665 121.379 12.467C120.973 12.8529 120.675 13.3591 120.483 13.9858L120.214 14.8601C120.031 15.4576 120.002 16.0465 120.127 16.6268C120.271 17.1971 120.539 17.7016 120.931 18.1405C121.322 18.5794 121.809 18.8882 122.392 19.0668C122.946 19.2366 123.493 19.245 124.035 19.092C124.595 18.929 125.084 18.6326 125.503 18.203L125.765 18.2834L127.53 19.7809C126.802 20.5941 125.928 21.1312 124.908 21.3923C123.902 21.6578 122.838 21.6186 121.715 21.2746Z" fill="#BFF747"/>
<path d="M134.21 25.8322C133.184 25.3637 132.512 24.6713 132.193 23.755C131.88 22.8248 131.974 21.812 132.474 20.7167L136.88 11.0667L139.272 12.1587L134.98 21.5592C134.727 22.1138 134.675 22.593 134.826 22.9969C134.991 23.4072 135.343 23.7357 135.884 23.9826L136.965 24.4764L136.965 24.7527L136.082 26.6868L134.21 25.8322ZM132.87 15.1166L133.848 12.9745L140.877 16.1841L139.899 18.3263L132.87 15.1166Z" fill="#BFF747"/>
<path d="M143.822 31.3905L150.988 21.1139C151.677 20.1262 152.497 19.5367 153.448 19.3452C154.408 19.1412 155.351 19.3618 156.276 20.007L157.495 20.8571L156.278 22.6011L156.041 22.742L155.422 22.3104C154.934 21.9704 154.504 21.8282 154.131 21.8838C153.77 21.9481 153.415 22.2303 153.066 22.7304L145.978 32.8945L143.822 31.3905ZM147.466 22.7271L148.813 20.7956L154.683 24.889L153.336 26.8205L147.466 22.7271Z" fill="#BFF747"/>
<path d="M150.238 36.0897L157.791 27.3574L159.659 28.9728L157.729 31.2034L157.258 30.7351C158.088 30.2643 158.955 30.0773 159.859 30.1739C160.763 30.2706 161.578 30.633 162.304 31.2612L163.151 31.994L161.611 33.7751L160.47 32.7879C160.02 32.3991 159.538 32.1638 159.025 32.0821C158.521 31.9889 158.017 32.047 157.514 32.2564C157.01 32.4657 156.539 32.824 156.1 33.3312L152.226 37.8098L150.238 36.0897Z" fill="#BFF747"/>
<path d="M160.21 46.2035C159.433 45.3239 158.941 44.3756 158.734 43.3585C158.537 42.3529 158.615 41.3589 158.967 40.3764C159.32 39.394 159.953 38.4992 160.866 37.6919C161.769 36.8947 162.724 36.3761 163.733 36.1362C164.762 35.8976 165.753 35.9373 166.706 36.2554C167.679 36.5749 168.544 37.163 169.301 38.0197C170.058 38.8764 170.514 39.7955 170.669 40.777C170.846 41.7597 170.737 42.741 170.341 43.7208C169.956 44.712 169.289 45.6263 168.341 46.4639L168.016 46.7515L167.532 46.7215L160.947 39.268L162.592 37.8149L168.616 44.6344L167.299 43.9374C167.769 43.5021 168.079 43.0246 168.23 42.5048C168.402 41.9864 168.429 41.4751 168.309 40.971C168.21 40.4681 167.974 40.0054 167.601 39.5828C167.197 39.1258 166.72 38.8048 166.17 38.6195C165.632 38.4242 165.083 38.3903 164.525 38.5176C163.977 38.6349 163.458 38.9106 162.967 39.3445L162.282 39.9499C161.813 40.3637 161.481 40.8506 161.284 41.4107C161.109 41.9722 161.074 42.5423 161.178 43.1211C161.283 43.6999 161.537 44.2177 161.941 44.6747C162.324 45.1087 162.786 45.4019 163.328 45.5542C163.89 45.7078 164.463 45.7109 165.044 45.5633L165.226 45.7689L165.948 47.9679C164.903 48.2811 163.877 48.2824 162.87 47.9717C161.874 47.6725 160.987 47.083 160.21 46.2035Z" fill="#BFF747"/>
<path d="M168.607 57.4984C167.986 56.5023 167.658 55.4856 167.622 54.4484C167.594 53.424 167.835 52.4566 168.345 51.546C168.856 50.6355 169.628 49.8577 170.663 49.2129C171.685 48.576 172.713 48.2227 173.747 48.153C174.802 48.0882 175.773 48.2914 176.659 48.7627C177.567 49.2389 178.323 49.9621 178.927 50.9323C179.532 51.9025 179.829 52.8844 179.82 53.878C179.832 54.8765 179.561 55.8261 179.009 56.7269C178.465 57.6406 177.656 58.432 176.583 59.1011L176.214 59.3308L175.741 59.2212L170.482 50.7806L172.344 49.6198L177.157 57.3424L175.973 56.4369C176.508 56.0854 176.893 55.6659 177.128 55.1782C177.384 54.6955 177.495 54.1956 177.46 53.6786C177.446 53.1664 177.29 52.671 176.992 52.1924C176.669 51.6749 176.252 51.2794 175.74 51.0056C175.241 50.7239 174.706 50.5996 174.134 50.6327C173.575 50.6578 173.017 50.8437 172.461 51.1903L171.685 51.674C171.154 52.0045 170.746 52.4297 170.459 52.9496C170.194 53.4743 170.064 54.0307 170.072 54.6188C170.079 55.2069 170.244 55.7597 170.566 56.2771C170.873 56.7687 171.28 57.1343 171.789 57.3741C172.318 57.6188 172.882 57.7165 173.48 57.6672L173.625 57.9L173.973 60.1882C172.891 60.3241 171.879 60.1556 170.938 59.6826C170.004 59.2225 169.227 58.4944 168.607 57.4984Z" fill="#BFF747"/>
<path d="M177.338 76.4588C176.975 75.3268 176.903 74.2535 177.121 73.2389C177.34 72.2243 177.808 71.3378 178.525 70.5794C179.242 69.821 180.181 69.2555 181.342 68.8829C182.488 68.515 183.574 68.4307 184.598 68.6302C185.637 68.825 186.534 69.2737 187.287 69.9763C188.056 70.6742 188.621 71.5891 188.985 72.7211C189.264 73.5919 189.368 74.4149 189.297 75.1902C189.23 75.9799 188.991 76.7051 188.578 77.3657C188.166 78.0262 187.586 78.6126 186.838 79.1248L185.579 77.2236L185.496 76.9624C186.083 76.5496 186.482 76.0214 186.692 75.3779C186.916 74.7297 186.926 74.0863 186.721 73.4477C186.511 72.7946 186.184 72.2752 185.74 71.8894C185.296 71.5037 184.764 71.2663 184.143 71.1774C183.537 71.0839 182.871 71.1535 182.145 71.3864C181.434 71.6146 180.852 71.9455 180.399 72.3791C179.946 72.8126 179.644 73.3178 179.493 73.8945C179.356 74.4666 179.393 75.0791 179.602 75.7322C179.751 76.1966 179.973 76.5896 180.269 76.911C180.569 77.247 180.925 77.5088 181.337 77.6966C181.75 77.8844 182.204 77.9787 182.7 77.9794L182.784 78.2407L182.867 80.5191C181.942 80.528 181.109 80.3789 180.371 80.0718C179.646 79.76 179.027 79.3024 178.513 78.6989C178.019 78.1053 177.627 77.3586 177.338 76.4588Z" fill="#BFF747"/>
<path d="M180.399 89.8385C180.235 88.6918 180.347 87.6442 180.734 86.6957C181.122 85.7472 181.733 84.9593 182.567 84.3319C183.416 83.7023 184.437 83.3023 185.629 83.1318C186.806 82.9635 187.883 83.0636 188.859 83.432C189.851 83.7983 190.666 84.3823 191.304 85.1841C191.942 85.9858 192.343 86.9601 192.507 88.1068C192.673 89.2686 192.562 90.3237 192.174 91.2722C191.787 92.2207 191.168 93.0097 190.319 93.6393C189.485 94.2667 188.479 94.6645 187.302 94.8329C186.11 95.0033 185.019 94.9054 184.027 94.5392C183.051 94.1707 182.243 93.5856 181.605 92.7839C180.967 91.9821 180.565 91.0003 180.399 89.8385ZM182.752 89.5019C182.847 90.1658 183.08 90.7175 183.451 91.1572C183.822 91.5969 184.306 91.9126 184.903 92.1043C185.5 92.2961 186.168 92.3391 186.908 92.2334C187.677 92.1233 188.314 91.8936 188.818 91.5444C189.338 91.1929 189.714 90.7542 189.947 90.2282C190.179 89.7022 190.248 89.1073 190.153 88.4434C190.06 87.7946 189.829 87.2504 189.458 86.8107C189.087 86.371 188.603 86.0553 188.006 85.8636C187.424 85.6697 186.756 85.6267 186.001 85.7346C185.247 85.8425 184.61 86.0721 184.09 86.4236C183.571 86.775 183.195 87.2137 182.962 87.7397C182.73 88.2657 182.66 88.8531 182.752 89.5019Z" fill="#BFF747"/>
<path d="M181.729 99.105L193.27 99.4279L193.201 101.896L190.253 101.814L190.318 101.152C190.981 101.415 191.543 101.781 192.002 102.251C192.477 102.722 192.835 103.266 193.077 103.882C193.334 104.5 193.453 105.166 193.433 105.882C193.41 106.705 193.206 107.439 192.822 108.084C192.453 108.744 191.913 109.255 191.201 109.617C190.505 109.994 189.638 110.168 188.602 110.139L181.426 109.938L181.5 107.31L187.876 107.488C188.607 107.508 189.204 107.426 189.667 107.241C190.129 107.055 190.473 106.775 190.697 106.4C190.92 106.041 191.039 105.617 191.052 105.13C191.065 104.672 190.964 104.197 190.749 103.703C190.534 103.224 190.164 102.81 189.641 102.46C189.117 102.11 188.398 101.922 187.483 101.896L181.656 101.733L181.729 99.105Z" fill="#BFF747"/>
<path d="M179.875 117.382C180.107 116.154 180.598 115.162 181.347 114.404C182.096 113.646 183.006 113.221 184.079 113.13L184.215 115.599L184.123 115.838C183.619 115.882 183.183 116.094 182.816 116.474C182.461 116.872 182.228 117.363 182.118 117.947C182.01 118.516 182.039 119.018 182.204 119.453C182.382 119.906 182.666 120.169 183.055 120.243C183.385 120.305 183.67 120.235 183.91 120.033C184.162 119.848 184.386 119.526 184.582 119.066L185.458 117.022C185.896 116.019 186.445 115.293 187.104 114.844C187.776 114.413 188.508 114.273 189.302 114.423C189.991 114.554 190.554 114.855 190.992 115.325C191.443 115.814 191.746 116.422 191.903 117.15C192.075 117.881 192.078 118.681 191.913 119.549C191.689 120.732 191.207 121.68 190.466 122.393C189.726 123.106 188.806 123.498 187.707 123.568L187.661 121.233L187.753 120.994C188.225 120.96 188.637 120.751 188.989 120.368C189.338 119.999 189.564 119.546 189.666 119.007C189.762 118.497 189.74 118.043 189.598 117.644C189.469 117.263 189.232 117.039 188.888 116.974C188.633 116.926 188.381 116.987 188.132 117.157C187.897 117.329 187.693 117.632 187.518 118.064L186.619 120.104C186.154 121.164 185.607 121.921 184.978 122.376C184.361 122.848 183.61 123.001 182.727 122.833C181.963 122.689 181.337 122.353 180.847 121.825C180.37 121.316 180.042 120.672 179.864 119.894C179.698 119.133 179.701 118.296 179.875 117.382Z" fill="#BFF747"/>
<path d="M185.527 140.037L174.678 136.087L175.515 133.789L178.286 134.797L178.017 135.405C177.47 134.946 177.045 134.419 176.744 133.822C176.456 133.231 176.288 132.602 176.238 131.935C176.203 131.274 176.308 130.606 176.553 129.933C176.835 129.16 177.255 128.518 177.814 128.008C178.382 127.517 179.063 127.205 179.858 127.073C180.652 126.94 181.536 127.051 182.51 127.406L189.234 129.854L188.335 132.324L182.341 130.142C181.668 129.897 181.083 129.79 180.585 129.819C180.082 129.863 179.661 130.018 179.321 130.284C178.99 130.569 178.742 130.941 178.575 131.399C178.418 131.829 178.367 132.304 178.42 132.827C178.482 133.368 178.709 133.881 179.101 134.364C179.488 134.862 180.111 135.267 180.97 135.58L186.427 137.566L185.527 140.037Z" fill="#BFF747"/>
<path d="M173.045 139.22L187.713 146.693L186.836 149.12L186.642 149.098L171.852 141.563L173.045 139.22Z" fill="#BFF747"/>
<path d="M167.656 148.694C168.251 147.736 169.023 147.157 169.972 146.957C170.935 146.765 171.927 146.987 172.95 147.622L181.963 153.217L180.576 155.451L171.797 150C171.279 149.679 170.81 149.567 170.39 149.665C169.962 149.776 169.591 150.084 169.278 150.589L168.651 151.6L168.377 151.564L166.57 150.442L167.656 148.694ZM178.455 148.725L180.455 149.967L176.379 156.532L174.379 155.29L178.455 148.725Z" fill="#BFF747"/>
<path d="M163.241 154.195C163.741 153.58 164.307 153.126 164.938 152.834C165.559 152.554 166.193 152.451 166.84 152.525C167.487 152.6 168.082 152.858 168.626 153.301C169.465 153.984 169.897 154.817 169.922 155.801C169.959 156.794 169.576 157.868 168.774 159.023L166.229 162.729L164.544 161.358L166.862 157.967C167.276 157.361 167.49 156.857 167.503 156.455C167.516 156.053 167.363 155.722 167.044 155.462C166.724 155.202 166.349 155.133 165.917 155.253C165.485 155.373 165.091 155.652 164.735 156.089C164.36 156.55 164.135 157.055 164.062 157.604C163.99 158.175 164.046 158.722 164.23 159.245C164.414 159.768 164.718 160.202 165.144 160.549L166.615 161.747C167.183 162.208 167.804 162.399 168.478 162.319C169.164 162.249 169.758 161.906 170.258 161.292C170.681 160.772 170.902 160.234 170.921 159.68C170.943 159.147 170.802 158.679 170.501 158.277L170.66 158.082L172.5 156.69C173.131 157.557 173.42 158.53 173.368 159.608C173.306 160.697 172.862 161.751 172.034 162.767C171.005 164.032 169.835 164.721 168.525 164.834C167.226 164.956 165.915 164.478 164.591 163.401L159.538 159.287L161.01 157.479L163.616 159.6L162.918 160.241C162.525 159.685 162.265 159.051 162.138 158.338C162.023 157.635 162.052 156.922 162.228 156.2C162.393 155.49 162.731 154.821 163.241 154.195Z" fill="#BFF747"/>
<path d="M153.537 165.09C154.353 164.312 155.246 163.946 156.216 163.991C157.195 164.047 158.1 164.511 158.931 165.383L166.248 173.063L164.345 174.877L157.217 167.395C156.796 166.953 156.37 166.727 155.939 166.717C155.497 166.717 155.061 166.922 154.631 167.332L153.77 168.152L153.514 168.049L152.047 166.509L153.537 165.09ZM163.982 167.834L165.606 169.539L160.011 174.869L158.387 173.164L163.982 167.834Z" fill="#BFF747"/>
<path d="M151.139 167.138L158.4 176.115L156.356 177.768L149.095 168.791L151.139 167.138ZM158.462 178.299C158.817 178.012 159.22 177.892 159.67 177.94C160.12 177.987 160.494 178.195 160.791 178.562C161.069 178.906 161.184 179.303 161.137 179.753C161.099 180.215 160.896 180.594 160.529 180.891C160.185 181.169 159.783 181.279 159.323 181.219C158.861 181.181 158.487 180.984 158.199 180.629C157.912 180.273 157.797 179.866 157.857 179.406C157.904 178.956 158.106 178.587 158.462 178.299Z" fill="#BFF747"/>
<path d="M141.703 173.562C142.684 172.947 143.687 172.624 144.712 172.594C145.736 172.563 146.704 172.802 147.616 173.309C148.536 173.83 149.316 174.601 149.955 175.621C150.587 176.628 150.932 177.653 150.992 178.695C151.059 179.75 150.856 180.731 150.382 181.64C149.909 182.549 149.181 183.311 148.199 183.926C147.205 184.549 146.196 184.876 145.171 184.907C144.147 184.937 143.175 184.692 142.255 184.171C141.343 183.664 140.571 182.906 139.94 181.899C139.3 180.878 138.947 179.841 138.879 178.786C138.82 177.744 139.027 176.769 139.501 175.86C139.974 174.951 140.708 174.185 141.703 173.562ZM142.966 175.577C142.398 175.933 141.988 176.37 141.736 176.887C141.485 177.404 141.393 177.975 141.46 178.598C141.527 179.222 141.759 179.85 142.156 180.483C142.568 181.142 143.037 181.63 143.561 181.95C144.093 182.282 144.646 182.447 145.221 182.447C145.797 182.446 146.368 182.267 146.937 181.911C147.492 181.563 147.895 181.13 148.147 180.613C148.398 180.096 148.49 179.525 148.423 178.902C148.364 178.291 148.132 177.663 147.727 177.017C147.323 176.371 146.854 175.883 146.322 175.55C145.79 175.218 145.237 175.053 144.661 175.053C144.086 175.054 143.521 175.229 142.966 175.577Z" fill="#BFF747"/>
<path d="M133.86 178.495L138.237 189.179L135.952 190.115L134.834 187.386L135.465 187.177C135.494 187.89 135.386 188.551 135.142 189.162C134.904 189.787 134.552 190.334 134.086 190.805C133.626 191.29 133.064 191.669 132.401 191.94C131.639 192.252 130.886 192.363 130.141 192.273C129.387 192.203 128.702 191.916 128.083 191.411C127.456 190.927 126.947 190.205 126.554 189.246L123.832 182.603L126.265 181.606L128.683 187.509C128.961 188.186 129.278 188.698 129.634 189.046C129.991 189.394 130.386 189.595 130.82 189.648C131.239 189.707 131.674 189.644 132.126 189.459C132.549 189.285 132.943 189.001 133.307 188.604C133.658 188.213 133.887 187.708 133.995 187.087C134.103 186.466 133.984 185.733 133.637 184.886L131.427 179.492L133.86 178.495Z" fill="#BFF747"/>
<path d="M107.956 194.43L112.067 196.373L111.47 197.92L107.122 196.546L107.956 194.43ZM112.58 197.011L113.554 201.442L111.316 201.782L110.908 197.266L112.58 197.011ZM112.194 192.491L112.58 197.011L110.908 197.266L109.957 192.831L112.194 192.491ZM112.067 196.373L116.389 197.728L115.577 199.84L111.47 197.92L112.067 196.373ZM111.253 196.496L112.283 197.797L108.932 200.85L107.506 199.077L111.253 196.496ZM114.602 193.421L116.005 195.196L112.283 197.797L111.253 196.496L114.602 193.421Z" fill="#BFF747"/>
<path d="M87.6545 185.979C89.1092 186.136 90.368 186.617 91.4307 187.422C92.4767 188.241 93.2507 189.305 93.7527 190.617C94.2531 191.943 94.414 193.433 94.2353 195.084C94.055 196.751 93.5794 198.172 92.8086 199.345C92.0226 200.517 91.0244 201.383 89.8142 201.942C88.5871 202.514 87.231 202.72 85.746 202.56C84.2003 202.392 82.8867 201.852 81.8051 200.938C80.7235 200.023 79.977 198.846 79.5655 197.407L81.9098 196.994L82.1549 197.066C82.4755 197.929 82.9682 198.618 83.6329 199.135C84.2976 199.651 85.0845 199.959 85.9937 200.057C86.9484 200.16 87.83 200.018 88.6385 199.63C89.4469 199.242 90.1101 198.639 90.6278 197.822C91.1455 197.004 91.4683 196.004 91.5962 194.822C91.724 193.64 91.6157 192.586 91.2714 191.659C90.9253 190.748 90.3921 190.008 89.6718 189.44C88.9498 188.886 88.0963 188.556 87.1113 188.45C86.3536 188.368 85.615 188.464 84.8954 188.739C84.159 189.027 83.5434 189.474 83.0486 190.08C82.5522 190.701 82.2564 191.451 82.1613 192.33L82.1146 192.761L81.262 192.14L86.5354 192.711L86.2674 195.188L79.7211 194.48L79.4373 194.128L80.3667 185.535L82.7533 185.794L82.3845 189.203L81.4981 189.107C81.9838 188.301 82.5601 187.651 83.2269 187.156C83.8786 186.659 84.5904 186.314 85.3624 186.122C86.1176 185.943 86.8817 185.895 87.6545 185.979Z" fill="#BFF747"/>
<path d="M71.8115 182.709C72.9332 183.055 73.8476 183.607 74.5546 184.367C75.2471 185.122 75.6992 186.011 75.9108 187.033C76.1225 188.055 76.049 189.149 75.6903 190.314C75.3361 191.465 74.7914 192.406 74.0562 193.136C73.302 193.877 72.4357 194.36 71.4574 194.585C70.46 194.82 69.415 194.77 68.3225 194.433C67.2299 194.097 66.3615 193.551 65.7172 192.794C65.0539 192.048 64.6355 191.154 64.4619 190.111C64.2737 189.065 64.3657 187.937 64.7379 186.728L64.8657 186.313L65.2943 186.086L74.7996 189.011L74.1539 191.109L65.4571 188.432L66.9447 188.34C66.771 188.956 66.7552 189.526 66.8975 190.048C67.0207 190.58 67.265 191.03 67.6303 191.398C67.9765 191.775 68.4191 192.047 68.9581 192.213C69.5408 192.392 70.1151 192.418 70.681 192.289C71.2425 192.175 71.7283 191.917 72.1384 191.517C72.5441 191.132 72.8434 190.626 73.0362 190L73.3052 189.126C73.4891 188.528 73.5188 187.939 73.3945 187.359C73.2511 186.789 72.9839 186.284 72.5929 185.844C72.2018 185.405 71.7149 185.096 71.1322 184.916C70.5787 184.746 70.0313 184.737 69.49 184.889C68.9297 185.052 68.4399 185.347 68.0208 185.777L67.7586 185.696L65.9954 184.196C66.7239 183.384 67.5986 182.848 68.6195 182.588C69.6258 182.324 70.6898 182.364 71.8115 182.709Z" fill="#BFF747"/>
<path d="M59.3214 178.136C60.3469 178.605 61.0185 179.298 61.3363 180.215C61.6478 181.146 61.5528 182.158 61.0514 183.253L56.6342 192.898L54.2438 191.803L58.5467 182.408C58.8006 181.853 58.8524 181.374 58.7022 180.97C58.5381 180.56 58.1858 180.231 57.6454 179.983L56.5645 179.488L56.5653 179.212L57.4506 177.279L59.3214 178.136ZM60.6495 188.853L59.669 190.994L52.6431 187.776L53.6236 185.635L60.6495 188.853Z" fill="#BFF747"/>
<path d="M49.7165 172.566L42.5381 182.834C41.8482 183.821 41.0276 184.41 40.0762 184.6C39.1161 184.803 38.1738 184.581 37.2494 183.935L36.0314 183.084L37.2497 181.341L37.4875 181.2L38.1058 181.633C38.593 181.973 39.0233 182.116 39.3966 182.061C39.7574 181.997 40.1125 181.715 40.4618 181.215L47.5616 171.059L49.7165 172.566ZM46.062 181.225L44.7128 183.155L38.8478 179.055L40.197 177.125L46.062 181.225Z" fill="#BFF747"/>
<path d="M43.3052 167.862L35.7422 176.586L33.8765 174.969L35.8084 172.74L36.2795 173.209C35.4485 173.679 34.5812 173.865 33.6774 173.767C32.7737 173.669 31.959 173.306 31.2334 172.677L30.387 171.943L31.9295 170.164L33.0697 171.152C33.5188 171.542 34.0002 171.778 34.5139 171.86C35.0176 171.954 35.5214 171.896 36.0251 171.687C36.5289 171.479 37.0004 171.121 37.4397 170.614L41.3186 166.14L43.3052 167.862Z" fill="#BFF747"/>
<path d="M33.3412 157.738C34.1173 158.618 34.6082 159.567 34.8141 160.585C35.0098 161.59 34.931 162.584 34.5775 163.566C34.224 164.548 33.5899 165.443 32.6752 166.249C31.7718 167.045 30.8159 167.562 29.8073 167.801C28.7773 168.039 27.7863 167.998 26.8345 167.679C25.8612 167.358 24.9966 166.769 24.2408 165.912C23.4849 165.054 23.0299 164.134 22.8758 163.153C22.7002 162.17 22.8106 161.189 23.2072 160.209C23.5936 159.219 24.2613 158.305 25.2104 157.468L25.5362 157.181L26.0203 157.212L32.5963 164.673L30.9498 166.124L24.9331 159.298L26.2497 159.996C25.7796 160.431 25.4687 160.908 25.3172 161.428C25.1441 161.946 25.1173 162.457 25.2367 162.961C25.3346 163.464 25.5699 163.927 25.9428 164.35C26.346 164.808 26.8225 165.129 27.3723 165.315C27.9107 165.511 28.4593 165.546 29.018 165.419C29.5653 165.302 30.0848 165.027 30.5765 164.594L31.2625 163.989C31.7313 163.576 32.0644 163.089 32.2617 162.529C32.4374 161.968 32.4734 161.398 32.3695 160.819C32.2656 160.24 32.0121 159.722 31.6089 159.265C31.226 158.83 30.7639 158.537 30.2228 158.384C29.6602 158.229 29.0881 158.226 28.5065 158.373L28.3251 158.167L27.6052 155.967C28.6508 155.655 29.6767 155.655 30.6829 155.967C31.6791 156.267 32.5652 156.858 33.3412 157.738Z" fill="#BFF747"/>
<path d="M24.959 146.43C25.5786 147.426 25.9057 148.443 25.9404 149.481C25.9669 150.505 25.7246 151.472 25.2135 152.382C24.7023 153.292 23.929 154.069 22.8934 154.713C21.8707 155.349 20.8423 155.701 19.8082 155.769C18.753 155.833 17.7825 155.629 16.8967 155.156C15.9898 154.679 15.2347 153.955 14.6312 152.984C14.0277 152.013 13.7312 151.031 13.7417 150.037C13.7312 149.039 14.0025 148.09 14.5557 147.189C15.1008 146.276 15.9105 145.486 16.9849 144.818L17.3539 144.589L17.8262 144.699L23.0766 153.145L21.2125 154.304L16.4087 146.576L17.5916 147.483C17.0559 147.834 16.6704 148.253 16.4349 148.74C16.1785 149.223 16.0674 149.722 16.1017 150.24C16.1149 150.752 16.2705 151.247 16.5682 151.726C16.89 152.244 17.3067 152.64 17.8182 152.914C18.3167 153.197 18.852 153.322 19.424 153.289C19.9831 153.265 20.541 153.079 21.0976 152.733L21.8743 152.251C22.405 151.921 22.814 151.496 23.1012 150.976C23.3675 150.452 23.4973 149.896 23.4907 149.308C23.484 148.72 23.3198 148.167 22.9979 147.649C22.6921 147.157 22.2851 146.791 21.7767 146.55C21.2474 146.305 20.6838 146.207 20.0859 146.255L19.941 146.022L19.5952 143.734C20.6781 143.599 21.6898 143.769 22.6306 144.243C23.5633 144.704 24.3395 145.433 24.959 146.43Z" fill="#BFF747"/>
<path d="M16.2507 127.461C16.6127 128.593 16.6838 129.666 16.464 130.681C16.2442 131.695 15.7753 132.581 15.0574 133.339C14.3395 134.096 13.3998 134.661 12.2383 135.032C11.0914 135.399 10.0058 135.482 8.98158 135.281C7.94282 135.085 7.04698 134.635 6.29406 133.932C5.52662 133.233 4.9619 132.317 4.59989 131.185C4.32143 130.314 4.21832 129.491 4.29055 128.716C4.35814 127.926 4.59846 127.201 5.01152 126.541C5.42457 125.881 6.00541 125.295 6.75405 124.784L8.01034 126.686L8.09388 126.948C7.50554 127.36 7.10617 127.888 6.89578 128.531C6.67087 129.179 6.66052 129.822 6.86472 130.461C7.07357 131.114 7.39975 131.634 7.84327 132.02C8.28679 132.407 8.8189 132.645 9.43961 132.734C10.0458 132.828 10.7118 132.76 11.4378 132.528C12.1491 132.3 12.7317 131.97 13.1853 131.537C13.6389 131.104 13.9416 130.599 14.0933 130.022C14.2305 129.45 14.1947 128.838 13.9859 128.185C13.8373 127.72 13.6157 127.327 13.3208 127.005C13.0212 126.669 12.6654 126.406 12.2531 126.218C11.8409 126.03 11.3866 125.935 10.8901 125.934L10.8066 125.673L10.7262 123.394C11.6518 123.386 12.4839 123.536 13.2224 123.844C13.9464 124.157 14.565 124.615 15.0781 125.219C15.5721 125.813 15.9629 126.56 16.2507 127.461Z" fill="#BFF747"/>
<path d="M13.2017 114.082C13.3644 115.229 13.2513 116.277 12.8624 117.225C12.4735 118.173 11.8616 118.96 11.0269 119.587C10.177 120.215 9.15595 120.614 7.96377 120.783C6.78669 120.95 5.7101 120.849 4.734 120.479C3.74281 120.112 2.92859 119.527 2.29132 118.725C1.65406 117.922 1.25406 116.947 1.09135 115.8C0.926487 114.639 1.03851 113.583 1.42742 112.635C1.81632 111.687 2.43572 110.899 3.2856 110.27C4.1204 109.644 5.12633 109.247 6.30341 109.08C7.49558 108.911 8.58726 109.01 9.57845 109.378C10.5546 109.747 11.3612 110.333 11.9985 111.136C12.6358 111.938 13.0368 112.92 13.2017 114.082ZM10.8475 114.416C10.7533 113.752 10.5211 113.2 10.1507 112.76C9.7804 112.32 9.29679 112.004 8.69989 111.811C8.103 111.619 7.43482 111.575 6.69538 111.68C5.92575 111.789 5.28857 112.018 4.78384 112.367C4.26402 112.718 3.88746 113.156 3.65415 113.682C3.42085 114.208 3.3513 114.803 3.44551 115.466C3.53757 116.115 3.76877 116.66 4.13909 117.1C4.50942 117.54 4.99303 117.856 5.58993 118.049C6.17174 118.243 6.83991 118.287 7.59445 118.18C8.34899 118.073 8.98617 117.844 9.50599 117.493C10.0258 117.142 10.4024 116.704 10.6357 116.178C10.869 115.653 10.9396 115.065 10.8475 114.416Z" fill="#BFF747"/>
<path d="M11.8836 104.809L0.342798 104.473L0.414651 102.005L3.36271 102.091L3.29771 102.752C2.63445 102.489 2.07332 102.122 1.61433 101.651C1.1401 101.18 0.782353 100.635 0.541091 100.019C0.284595 99.4011 0.16677 98.7344 0.187617 98.0183C0.211568 97.1956 0.415904 96.462 0.800627 95.8175C1.17056 95.1574 1.71148 94.647 2.4234 94.2866C3.12053 93.9104 3.9871 93.7374 5.02311 93.7675L12.199 93.9765L12.1225 96.6046L5.74646 96.4189C5.01516 96.3977 4.41809 96.4794 3.95526 96.6641C3.49243 96.8489 3.14882 97.1286 2.92444 97.5033C2.7005 97.8627 2.58143 98.2862 2.56724 98.7738C2.55393 99.2308 2.65445 99.7064 2.86879 100.201C3.08357 100.68 3.4527 101.094 3.97618 101.445C4.49967 101.796 5.21847 101.984 6.1326 102.011L11.9602 102.181L11.8836 104.809Z" fill="#BFF747"/>
<path d="M13.7572 86.5364C13.523 87.7641 13.0311 88.7564 12.2815 89.5133C11.5319 90.2703 10.6209 90.6939 9.54854 90.7841L9.41457 88.3146L9.50662 88.0761C10.0114 88.0328 10.4475 87.8212 10.8148 87.4413C11.17 87.0436 11.4033 86.5527 11.5147 85.9688C11.6233 85.3999 11.5949 84.898 11.4296 84.463C11.2522 84.0102 10.9689 83.7466 10.5796 83.6724C10.2503 83.6095 9.9654 83.6793 9.72506 83.8817C9.4726 84.0663 9.24827 84.3881 9.05205 84.8472L8.17336 86.8907C7.73384 87.8931 7.18426 88.6183 6.5246 89.0666C5.85283 89.497 5.12019 89.6365 4.32669 89.4851C3.63799 89.3537 3.07482 89.0523 2.6372 88.5809C2.18746 88.0916 1.88464 87.483 1.72873 86.755C1.55784 86.0241 1.55524 85.2245 1.72093 84.3562C1.94661 83.1734 2.42996 82.226 3.17098 81.5139C3.912 80.8019 4.83223 80.4111 5.93168 80.3416L5.97478 82.6774L5.88273 82.9158C5.41072 82.9499 4.99855 83.1583 4.64621 83.5411C4.29673 83.9089 4.07057 84.3623 3.96773 84.9012C3.8706 85.4103 3.89256 85.8645 4.03361 86.2638C4.16254 86.6453 4.39918 86.8689 4.74353 86.9346C4.99805 86.9831 5.25011 86.9226 5.49971 86.753C5.73433 86.5805 5.93941 86.2783 6.11495 85.8463L7.01609 83.8071C7.48201 82.7477 8.02982 81.9911 8.65954 81.5371C9.27713 81.0653 10.0276 80.9137 10.9109 81.0822C11.6745 81.2279 12.3007 81.5646 12.7897 82.0924C13.2665 82.6023 13.5936 83.2466 13.7709 84.0252C13.936 84.7861 13.9315 85.6231 13.7572 86.5364Z" fill="#BFF747"/>
<path d="M8.1345 63.8737L18.9793 67.8354L18.1399 70.1332L15.3696 69.1212L15.6401 68.5141C16.1863 68.9733 16.6101 69.5013 16.9113 70.0981C17.1982 70.6898 17.3659 71.319 17.4144 71.9858C17.4486 72.6474 17.3428 73.3146 17.097 73.9875C16.8146 74.7605 16.3937 75.4019 15.8343 75.9116C15.2658 76.4016 14.5843 76.7125 13.7897 76.8442C12.9952 76.9758 12.1111 76.8638 11.1376 76.5082L4.41602 74.0527L5.31818 71.5831L11.3096 73.7719C11.9825 74.0177 12.5677 74.126 13.0652 74.0967C13.5679 74.0532 13.9894 73.8989 14.3297 73.6337C14.6608 73.349 14.9101 72.9776 15.0775 72.5195C15.2344 72.09 15.2865 71.6141 15.2339 71.0919C15.1722 70.5501 14.9457 70.0373 14.5545 69.5536C14.1684 69.0556 13.5459 68.6497 12.6869 68.3359L7.23234 66.3433L8.1345 63.8737Z" fill="#BFF747"/>
<path d="M20.614 64.7031L5.95496 57.214L6.83489 54.7881L7.02897 54.8102L21.8101 62.3617L20.614 64.7031Z" fill="#BFF747"/>
<path d="M26.0129 55.2389C25.4169 56.1965 24.6441 56.7747 23.6945 56.9736C22.7319 57.1644 21.7395 56.9417 20.7172 56.3055L11.7108 50.6999L13.1002 48.4677L21.8736 53.9283C22.3912 54.2505 22.86 54.3627 23.2798 54.265C23.7078 54.1543 24.0788 53.8466 24.3929 53.342L25.0211 52.3326L25.295 52.3685L27.1002 53.492L26.0129 55.2389ZM15.2139 55.1961L13.2146 53.9518L17.298 47.3911L19.2973 48.6354L15.2139 55.1961Z" fill="#BFF747"/>
<path d="M30.4358 49.7428C29.9348 50.3569 29.3686 50.8097 28.7374 51.1013C28.1158 51.381 27.4816 51.4832 26.8348 51.408C26.188 51.3327 25.593 51.0735 25.0497 50.6303C24.2112 49.9462 23.78 49.1125 23.7561 48.1291C23.7204 47.1361 24.1044 46.0626 24.9082 44.9086L27.4574 41.2052L29.1404 42.5782L26.8191 45.966C26.4038 46.5714 26.1895 47.0752 26.1762 47.4774C26.1628 47.8796 26.3155 48.2107 26.6344 48.4709C26.9533 48.731 27.3287 48.8013 27.7607 48.6816C28.1928 48.562 28.587 48.2837 28.9435 47.8467C29.3193 47.3861 29.5443 46.8812 29.6186 46.332C29.6907 45.7614 29.6353 45.2146 29.4522 44.6915C29.2692 44.1684 28.9651 43.7334 28.5399 43.3866L27.0695 42.187C26.5026 41.7245 25.882 41.5329 25.2075 41.6121C24.5213 41.6817 23.9277 42.0236 23.4266 42.6377C23.0027 43.1574 22.7809 43.6944 22.7613 44.2489C22.7396 44.7819 22.8791 45.2498 23.1799 45.6526L23.021 45.8475L21.1794 47.2367C20.5498 46.369 20.2615 45.3961 20.3147 44.3183C20.3775 43.2286 20.8232 42.176 21.6518 41.1603C22.6828 39.8966 23.8535 39.2091 25.1638 39.0979C26.4623 38.977 27.7729 39.4562 29.0957 40.5353L34.1445 44.6543L32.6704 46.4613L30.0662 44.3367L30.7651 43.6971C31.1573 44.2531 31.4166 44.8876 31.5431 45.6006C31.6578 46.304 31.6271 47.0166 31.4512 47.7386C31.2849 48.4488 30.9464 49.1168 30.4358 49.7428Z" fill="#BFF747"/>
<path d="M40.153 38.8574C39.3355 39.6345 38.4422 39.9999 37.473 39.9538C36.4934 39.8966 35.5888 39.4317 34.7592 38.5589L27.4505 30.87L29.3562 29.0586L36.4759 36.5487C36.8959 36.9905 37.3214 37.217 37.7524 37.2279C38.1944 37.2283 38.6308 37.0238 39.0617 36.6142L39.9234 35.7951L40.1795 35.8987L41.6444 37.4398L40.153 38.8574ZM29.7112 36.1022L28.0888 34.3954L33.6898 29.0714L35.3123 30.7782L29.7112 36.1022Z" fill="#BFF747"/>
<path d="M42.5519 36.8098L35.3011 27.8248L37.3472 26.1736L44.598 35.1586L42.5519 36.8098ZM35.2418 25.6398C34.886 25.927 34.483 26.0465 34.0329 25.9985C33.5828 25.9504 33.2094 25.7425 32.9127 25.3748C32.6351 25.0308 32.5203 24.6338 32.5684 24.1837C32.6069 23.7217 32.81 23.3424 33.1777 23.0456C33.5217 22.768 33.9235 22.6592 34.3832 22.7191C34.8452 22.7577 35.2197 22.9548 35.5069 23.3107C35.794 23.6665 35.9077 24.0743 35.8477 24.5339C35.7996 24.984 35.5977 25.3527 35.2418 25.6398Z" fill="#BFF747"/>
<path d="M51.994 30.4001C51.0118 31.0142 50.0086 31.3359 48.9843 31.3652C47.96 31.3945 46.9922 31.1548 46.0808 30.646C45.1614 30.1244 44.3825 29.3531 43.7442 28.3321C43.1139 27.3241 42.7695 26.299 42.7112 25.2569C42.6447 24.2019 42.8489 23.2204 43.3237 22.3123C43.7985 21.4042 44.527 20.6431 45.5092 20.029C46.5043 19.4068 47.514 19.081 48.5383 19.0517C49.5626 19.0224 50.5345 19.2686 51.4539 19.7903C52.3652 20.299 53.136 21.0574 53.7663 22.0655C54.4047 23.0864 54.7571 24.1244 54.8236 25.1794C54.8819 26.2215 54.6737 27.1965 54.1989 28.1046C53.7241 29.0127 52.9891 29.7779 51.994 30.4001ZM50.7334 28.384C51.3021 28.0285 51.7123 27.5922 51.9643 27.0751C52.2162 26.558 52.309 25.9877 52.2426 25.3641C52.1763 24.7405 51.9451 24.112 51.5491 23.4788C51.137 22.8197 50.6692 22.3302 50.1457 22.0104C49.6141 21.6777 49.0607 21.5114 48.4855 21.5115C47.9103 21.5117 47.3384 21.6895 46.7698 22.045C46.2141 22.3925 45.8103 22.8248 45.5583 23.3418C45.3064 23.8589 45.2136 24.4292 45.28 25.0529C45.3383 25.6636 45.5694 26.292 45.9735 26.9382C46.3775 27.5843 46.8453 28.0738 47.3769 28.4065C47.9086 28.7392 48.4619 28.9055 49.0371 28.9054C49.6123 28.9053 50.1777 28.7315 50.7334 28.384Z" fill="#BFF747"/>
<path d="M59.8441 25.4732L55.4793 14.7843L57.7652 13.8508L58.8802 16.5812L58.2491 16.7896C58.2213 16.0765 58.3298 15.4148 58.5745 14.8045C58.8134 14.1801 59.1661 13.6327 59.6326 13.1623C60.0933 12.6779 60.6552 12.3002 61.3184 12.0294C62.0804 11.7182 62.8339 11.6081 63.579 11.699C64.3324 11.77 65.018 12.058 65.6358 12.5631C66.262 13.0482 66.771 13.7706 67.1628 14.7301L69.8768 21.3762L67.4427 22.3702L65.0313 16.4649C64.7547 15.7876 64.4382 15.2747 64.0819 14.9263C63.7256 14.5779 63.3308 14.3769 62.8973 14.3234C62.478 14.2642 62.0425 14.3267 61.591 14.5111C61.1677 14.684 60.7735 14.9685 60.4084 15.3645C60.0574 15.7548 59.8275 16.2603 59.7187 16.8809C59.61 17.5015 59.7284 18.2352 60.0742 19.0818L62.2782 24.4792L59.8441 25.4732Z" fill="#BFF747"/>
<path d="M85.7648 9.57202L81.6562 7.62503L82.2554 6.07806L86.602 7.45736L85.7648 9.57202ZM81.1436 6.98556L80.1748 2.55362L82.413 2.21617L82.8166 6.73332L81.1436 6.98556ZM81.5246 11.5061L81.1436 6.98556L82.8166 6.73332L83.7628 11.1687L81.5246 11.5061ZM81.6562 7.62503L77.3356 6.26493L78.1502 4.15368L82.2554 6.07806L81.6562 7.62503ZM82.4701 7.50232L81.4415 6.20077L84.7968 3.15154L86.2203 4.92534L82.4701 7.50232ZM79.1182 10.5742L77.7173 8.79695L81.4415 6.20077L82.4701 7.50232L79.1182 10.5742Z" fill="#BFF747"/>
</svg>
