<svg width="14" height="14" viewBox="0 0 14 14" fill="none" xmlns="http://www.w3.org/2000/svg">
<g clip-path="url(#clip0_577_3190)">
<path d="M1.68008 0.125C0.777322 0.125 0.0429688 0.859403 0.0429688 1.76211C0.0429688 2.66482 0.777018 3.39917 1.68008 3.39917C2.58314 3.39917 3.31719 2.66482 3.31719 1.76211C3.31719 0.859403 2.58279 0.125 1.68008 0.125Z" fill="white"/>
<path d="M6.97891 0.125C6.0762 0.125 5.3418 0.859403 5.3418 1.76211C5.3418 2.66482 6.0762 3.39917 6.97891 3.39917C7.88167 3.39917 8.61617 2.66482 8.61617 1.76211C8.61617 0.859403 7.88197 0.125 6.97891 0.125Z" fill="white"/>
<path d="M12.3627 3.39922C13.2653 3.39922 13.9998 2.66487 13.9998 1.76216C13.9998 0.859454 13.2659 0.125 12.3627 0.125C11.4595 0.125 10.7256 0.859404 10.7256 1.76211C10.7256 2.66482 11.4601 3.39922 12.3627 3.39922Z" fill="white"/>
<path d="M1.63741 8.64542C2.54012 8.64542 3.27468 7.91122 3.27468 7.00836C3.27468 6.10545 2.54012 5.37109 1.63741 5.37109C0.734708 5.37109 0 6.1055 0 7.00836C0 7.91122 0.734708 8.64542 1.63741 8.64542Z" fill="white"/>
<path d="M6.93594 8.64542C7.83849 8.64542 8.57305 7.91122 8.57305 7.00836C8.57305 6.10545 7.8391 5.37109 6.93594 5.37109C6.03293 5.37109 5.29883 6.10545 5.29883 7.00836C5.29883 7.91122 6.03323 8.64542 6.93594 8.64542Z" fill="white"/>
<path d="M12.3203 8.64542C13.2232 8.64542 13.9574 7.91122 13.9574 7.00836C13.9574 6.10545 13.2232 5.37109 12.3203 5.37109C11.4174 5.37109 10.6826 6.10545 10.6826 7.00836C10.6826 7.91122 11.4172 8.64542 12.3203 8.64542Z" fill="white"/>
<path d="M1.67501 10.6006C0.772306 10.6006 0.0375977 11.3348 0.0375977 12.2377C0.0375977 13.1403 0.772306 13.8748 1.67501 13.8748C2.57772 13.8748 3.31207 13.1406 3.31207 12.2377C3.31207 11.3348 2.57772 10.6006 1.67501 10.6006Z" fill="white"/>
<path d="M6.97384 10.6006C6.07108 10.6006 5.33643 11.3348 5.33643 12.2377C5.33643 13.1403 6.07083 13.8748 6.97384 13.8748C7.8764 13.8748 8.6109 13.1406 8.6109 12.2377C8.6109 11.3348 7.8764 10.6006 6.97384 10.6006Z" fill="white"/>
<path d="M12.3578 10.6006C11.4553 10.6006 10.7207 11.3348 10.7207 12.2377C10.7207 13.1403 11.4553 13.8748 12.3578 13.8748C13.2607 13.8748 13.9949 13.1406 13.9949 12.2377C13.9949 11.3348 13.2604 10.6006 12.3578 10.6006Z" fill="white"/>
</g>
<defs>
<clipPath id="clip0_577_3190">
<rect width="14" height="14" fill="white"/>
</clipPath>
</defs>
</svg>
