<svg width="40" height="41" viewBox="0 0 40 41" fill="none" xmlns="http://www.w3.org/2000/svg">
<g clip-path="url(#clip0_837_3375)">
<path d="M14.9433 6.5L16.1719 3.32857C16.3791 2.79161 16.7436 2.32974 17.2178 2.00346C17.6919 1.67718 18.2535 1.5017 18.829 1.5H21.1719C21.7474 1.5017 22.3091 1.67718 22.7832 2.00346C23.2573 2.32974 23.6218 2.79161 23.829 3.32857L25.0576 6.5L29.229 8.9L32.6005 8.38571C33.1618 8.30952 33.7332 8.40193 34.2419 8.65121C34.7507 8.90049 35.1738 9.29539 35.4576 9.78571L36.6005 11.7857C36.8933 12.2839 37.0282 12.8591 36.9874 13.4355C36.9466 14.0119 36.732 14.5624 36.3719 15.0143L34.2862 17.6714V22.4714L36.429 25.1286C36.7892 25.5805 37.0038 26.131 37.0446 26.7074C37.0854 27.2838 36.9505 27.859 36.6576 28.3571L35.5148 30.3571C35.231 30.8475 34.8078 31.2424 34.2991 31.4916C33.7904 31.7409 33.219 31.8333 32.6576 31.7571L29.2862 31.2429L25.1148 33.6429L23.8862 36.8143C23.679 37.3512 23.3145 37.8131 22.8403 38.1394C22.3662 38.4657 21.8046 38.6412 21.229 38.6429H18.829C18.2535 38.6412 17.6919 38.4657 17.2178 38.1394C16.7436 37.8131 16.3791 37.3512 16.1719 36.8143L14.9433 33.6429L10.7719 31.2429L7.40047 31.7571C6.83909 31.8333 6.26773 31.7409 5.75899 31.4916C5.25025 31.2424 4.82711 30.8475 4.54333 30.3571L3.40047 28.3571C3.10762 27.859 2.97269 27.2838 3.0135 26.7074C3.0543 26.131 3.26893 25.5805 3.62904 25.1286L5.71475 22.4714V17.6714L3.5719 15.0143C3.21178 14.5624 2.99716 14.0119 2.95635 13.4355C2.91555 12.8591 3.05047 12.2839 3.34333 11.7857L4.48618 9.78571C4.76996 9.29539 5.19311 8.90049 5.70185 8.65121C6.21058 8.40193 6.78195 8.30952 7.34333 8.38571L10.7148 8.9L14.9433 6.5Z" stroke="#BFF747" stroke-width="1.5" stroke-linecap="round" stroke-linejoin="round"/>
<path d="M20.0011 28.6429C24.735 28.6429 28.5725 24.8053 28.5725 20.0714C28.5725 15.3376 24.735 11.5 20.0011 11.5C15.2672 11.5 11.4297 15.3376 11.4297 20.0714C11.4297 24.8053 15.2672 28.6429 20.0011 28.6429Z" stroke="#BFF747" stroke-width="1.5" stroke-linecap="round" stroke-linejoin="round"/>
<path d="M20 11.5V20.0714H28.5714" stroke="#BFF747" stroke-width="1.5" stroke-linecap="round" stroke-linejoin="round"/>
<path d="M20.0005 20.0703L13.9434 26.1275" stroke="#BFF747" stroke-width="1.5" stroke-linecap="round" stroke-linejoin="round"/>
</g>
<defs>
<clipPath id="clip0_837_3375">
<rect width="40" height="40" fill="white" transform="translate(0 0.0703125)"/>
</clipPath>
</defs>
</svg>
