<svg width="60" height="60" viewBox="0 0 60 60" fill="none" xmlns="http://www.w3.org/2000/svg">
<g clip-path="url(#clip0_105_36)">
<path d="M11.2727 11.2727C16.275 6.27047 22.9257 3.51562 30 3.51562C35.4098 3.51562 40.6402 5.16129 45.0388 8.19926L41.643 8.54754L42.0018 12.0448L51.1424 11.1073L50.2049 1.96664L46.7075 2.32535L47.0115 5.28914C42.0336 1.85824 36.1181 0 30 0C21.9867 0 14.4531 3.12059 8.78684 8.78684C3.12059 14.4531 0 21.9867 0 30C0 35.9991 1.76531 41.7896 5.10504 46.7455L8.02043 44.7809C7.98 44.7207 7.94074 44.6602 7.90078 44.5998C5.0318 40.2667 3.51562 35.2238 3.51562 30C3.51562 22.9259 6.27047 16.275 11.2727 11.2727Z" fill="black"/>
<path d="M54.8949 13.2539L51.9794 15.2186C52.0198 15.2786 52.0591 15.3394 52.099 15.3996C54.9679 19.7327 56.4842 24.7757 56.4842 29.9994C56.4842 37.0737 53.7293 43.7244 48.7271 48.7267C43.7249 53.7289 37.0742 56.4838 29.9998 56.4838C24.59 56.4838 19.3596 54.8381 14.961 51.8002L18.3568 51.4519L17.998 47.9546L8.85742 48.8921L9.79492 58.0328L13.2923 57.6741L12.9883 54.7103C17.9663 58.1412 23.8818 59.9994 29.9998 59.9994C38.0131 59.9994 45.5467 56.8788 51.2131 51.2126C56.8793 45.5463 59.9998 38.0127 59.9998 29.9994C59.9998 24.0004 58.2346 18.2098 54.8949 13.2539Z" fill="black"/>
<path d="M14.6465 33.6891L16.9222 31.5857C18.6463 29.9996 18.974 28.9306 18.974 27.7582C18.974 25.5169 17.0602 24.0859 14.2845 24.0859C11.9052 24.0859 10.1984 25.0859 9.28467 26.6031L11.8191 28.0169C12.3018 27.2411 13.0949 26.8445 13.9742 26.8445C15.0086 26.8445 15.5258 27.31 15.5258 28.0859C15.5258 28.5859 15.3879 29.1377 14.4224 30.0341L9.90529 34.2582V36.396H19.3015V33.6892L14.6465 33.6891Z" fill="black"/>
<path d="M30.1466 34.0864H31.9396V31.3796H30.1466V29.328H26.9225V31.3796H24.4744L29.3879 24.3281H25.8535L20.4399 31.8623V34.0864H26.819V36.3967H30.1466V34.0864Z" fill="black"/>
<path d="M35.0436 38.1197L40.733 21.8789H37.8193L32.1299 38.1197H35.0436Z" fill="black"/>
<path d="M43.6296 28.8969V27.0349H46.8018L42.7331 36.3967H46.4571L50.7155 26.466V24.3281H40.7158V28.8969H43.6296Z" fill="black"/>
</g>
<defs>
<clipPath id="clip0_105_36">
<rect width="60" height="60" fill="white"/>
</clipPath>
</defs>
</svg>
