<svg width="21" height="20" viewBox="0 0 21 20" fill="none" xmlns="http://www.w3.org/2000/svg">
<g clip-path="url(#clip0_805_295)">
<path d="M20.177 11.1296C20.177 11.1295 20.177 11.1295 20.1769 11.1294L16.4008 1.64796C16.3207 1.4465 16.0923 1.34816 15.8909 1.4283C15.8907 1.42835 15.8906 1.4284 15.8904 1.42849L0.571379 7.5284C0.508906 7.55539 0.454726 7.59848 0.414337 7.65325C0.286936 7.71945 0.206452 7.85049 0.205078 7.99403V18.2018C0.205078 18.4186 0.380867 18.5944 0.597683 18.5944H17.0871C17.3039 18.5944 17.4797 18.4186 17.4797 18.2018V12.6268L19.9578 11.6398C20.1592 11.5594 20.2573 11.331 20.177 11.1296ZM16.6945 17.8092H0.990289V8.38664H16.6945V17.8092ZM6.7557 7.60339L13.3295 4.98393C13.9162 5.60061 14.7291 5.95111 15.5803 5.95445L16.2359 7.60339H6.7557ZM17.4797 11.7835V7.99403C17.4797 7.77722 17.3039 7.60143 17.0871 7.60143H17.0808L16.2489 5.51198C16.2397 5.49456 16.2289 5.47797 16.2167 5.46251C16.1746 5.27343 15.9995 5.14441 15.8064 5.16021C15.0144 5.2324 14.2397 4.89878 13.748 4.2737C13.6257 4.1227 13.4106 4.08516 13.2443 4.18576C13.2256 4.18797 13.2071 4.1914 13.1889 4.19597L5.16329 7.39178C5.06617 7.42986 4.98848 7.50539 4.94775 7.60143H2.51046L15.8166 2.30322L19.3026 11.0564L17.4797 11.7835Z" fill="#BFF747"/>
<path d="M2.05571 15.1587C2.81795 15.384 3.41442 15.9797 3.64066 16.7417C3.69027 16.908 3.84324 17.022 4.01677 17.022C4.03714 17.0207 4.05736 17.0177 4.07724 17.013C4.09485 17.018 4.11286 17.0217 4.13102 17.024H13.5535C13.5697 17.0219 13.5857 17.0186 13.6014 17.0142C13.7976 17.0619 13.9953 16.9416 14.043 16.7454C14.0432 16.7447 14.0434 16.744 14.0435 16.7433C14.2692 15.9805 14.8657 15.384 15.6285 15.1583C15.8134 15.1018 15.9284 14.9175 15.8978 14.7265C15.903 14.7074 15.9068 14.688 15.9092 14.6683V11.5275C15.9069 11.5078 15.9029 11.4884 15.8974 11.4694C15.9282 11.2783 15.8132 11.0939 15.6281 11.0375C14.8653 10.8119 14.2689 10.2151 14.0439 9.45219C13.9871 9.26595 13.8009 9.15072 13.6089 9.18287C13.5907 9.17781 13.5722 9.17413 13.5535 9.17188H4.13102C4.11124 9.17423 4.09166 9.17816 4.07252 9.18365C3.88157 9.15323 3.69734 9.26811 3.64066 9.45298C3.41486 10.2156 2.81835 10.8119 2.05571 11.0375C1.87074 11.0941 1.75581 11.2784 1.78638 11.4694C1.78128 11.4885 1.7776 11.5079 1.77539 11.5275V14.6683C1.77765 14.6868 1.78133 14.7051 1.78638 14.7229C1.75419 14.9152 1.86937 15.1015 2.05571 15.1587ZM2.5606 11.6869C3.34895 11.3703 3.97378 10.7454 4.29042 9.95709H13.3938C13.7105 10.7454 14.3355 11.3703 15.124 11.6869V14.509C14.3359 14.8259 13.7111 15.4507 13.3942 16.2388H4.29042C3.97344 15.4507 3.34871 14.8259 2.5606 14.509V11.6869Z" fill="#BFF747"/>
<path d="M8.84196 15.4535C10.143 15.4535 11.1976 14.3988 11.1976 13.0978C11.1976 11.7968 10.143 10.7422 8.84196 10.7422C7.54096 10.7422 6.48633 11.7968 6.48633 13.0978C6.4876 14.3983 7.5415 15.4522 8.84196 15.4535ZM8.84196 11.5274C9.70927 11.5274 10.4124 12.2305 10.4124 13.0978C10.4124 13.9651 9.70927 14.6682 8.84196 14.6682C7.97465 14.6682 7.27154 13.9651 7.27154 13.0978C7.27154 12.2305 7.97465 11.5274 8.84196 11.5274Z" fill="#BFF747"/>
<path d="M4.52445 13.6876C4.84968 13.6876 5.11336 13.4239 5.11336 13.0987C5.11336 12.7734 4.84968 12.5098 4.52445 12.5098C4.19923 12.5098 3.93555 12.7734 3.93555 13.0987C3.93555 13.4239 4.19923 13.6876 4.52445 13.6876ZM4.52445 12.9024C4.63286 12.9024 4.72076 12.9903 4.72076 13.0987C4.72076 13.2071 4.63286 13.295 4.52445 13.295C4.41605 13.295 4.32815 13.2071 4.32815 13.0987C4.32815 12.9903 4.41605 12.9024 4.52445 12.9024Z" fill="#BFF747"/>
<path d="M13.1612 13.6876C13.4864 13.6876 13.7501 13.4239 13.7501 13.0987C13.7501 12.7734 13.4864 12.5098 13.1612 12.5098C12.8359 12.5098 12.5723 12.7734 12.5723 13.0987C12.5723 13.4239 12.8359 13.6876 13.1612 13.6876ZM13.1612 12.9024C13.2696 12.9024 13.3575 12.9903 13.3575 13.0987C13.3575 13.2071 13.2696 13.295 13.1612 13.295C13.0528 13.295 12.9649 13.2071 12.9649 13.0987C12.9649 12.9903 13.0528 12.9024 13.1612 12.9024Z" fill="#BFF747"/>
</g>
<defs>
<clipPath id="clip0_805_295">
<rect width="20" height="20" fill="white" transform="translate(0.205078 -0.00390625)"/>
</clipPath>
</defs>
</svg>
