<svg width="41" height="41" viewBox="0 0 41 41" fill="none" xmlns="http://www.w3.org/2000/svg">
<g clip-path="url(#clip0_765_3582)">
<path d="M15.7648 24.2363H3.62193C2.83295 24.2363 2.19336 24.8759 2.19336 25.6649V37.8078C2.19336 38.5967 2.83295 39.2363 3.62193 39.2363H15.7648C16.5538 39.2363 17.1934 38.5967 17.1934 37.8078V25.6649C17.1934 24.8759 16.5538 24.2363 15.7648 24.2363Z" stroke="#BFF747" stroke-width="1.5" stroke-linecap="round" stroke-linejoin="round"/>
<path d="M37.9074 24.2363H25.7645C24.9755 24.2363 24.3359 24.8759 24.3359 25.6649V37.8078C24.3359 38.5967 24.9755 39.2363 25.7645 39.2363H37.9074C38.6963 39.2363 39.3359 38.5967 39.3359 37.8078V25.6649C39.3359 24.8759 38.6963 24.2363 37.9074 24.2363Z" stroke="#BFF747" stroke-width="1.5" stroke-linecap="round" stroke-linejoin="round"/>
<path d="M26.8507 2.09375H14.7079C13.9189 2.09375 13.2793 2.73334 13.2793 3.52232V15.6652C13.2793 16.4542 13.9189 17.0938 14.7079 17.0938H26.8507C27.6397 17.0938 28.2793 16.4542 28.2793 15.6652V3.52232C28.2793 2.73334 27.6397 2.09375 26.8507 2.09375Z" stroke="#BFF747" stroke-width="1.5" stroke-linecap="round" stroke-linejoin="round"/>
</g>
<defs>
<clipPath id="clip0_765_3582">
<rect width="40" height="40" fill="white" transform="translate(0.763672 0.666016)"/>
</clipPath>
</defs>
</svg>
