<svg width="26" height="26" viewBox="0 0 26 26" fill="none" xmlns="http://www.w3.org/2000/svg">
<g clip-path="url(#clip0_765_2975)">
<path d="M6.19978 11.0089C8.91189 11.0089 11.1105 8.81033 11.1105 6.09821C11.1105 3.3861 8.91189 1.1875 6.19978 1.1875C3.48766 1.1875 1.28906 3.3861 1.28906 6.09821C1.28906 8.81033 3.48766 11.0089 6.19978 11.0089Z" stroke="white" stroke-linecap="round" stroke-linejoin="round"/>
<path d="M19.5924 11.0089C22.3045 11.0089 24.5031 8.81033 24.5031 6.09821C24.5031 3.3861 22.3045 1.1875 19.5924 1.1875C16.8802 1.1875 14.6816 3.3861 14.6816 6.09821C14.6816 8.81033 16.8802 11.0089 19.5924 11.0089Z" stroke="white" stroke-linecap="round" stroke-linejoin="round"/>
<path d="M6.19978 24.4015C8.91189 24.4015 11.1105 22.2029 11.1105 19.4908C11.1105 16.7787 8.91189 14.5801 6.19978 14.5801C3.48766 14.5801 1.28906 16.7787 1.28906 19.4908C1.28906 22.2029 3.48766 24.4015 6.19978 24.4015Z" stroke="white" stroke-linecap="round" stroke-linejoin="round"/>
<path d="M19.5924 24.4015C22.3045 24.4015 24.5031 22.2029 24.5031 19.4908C24.5031 16.7787 22.3045 14.5801 19.5924 14.5801C16.8802 14.5801 14.6816 16.7787 14.6816 19.4908C14.6816 22.2029 16.8802 24.4015 19.5924 24.4015Z" stroke="white" stroke-linecap="round" stroke-linejoin="round"/>
</g>
<defs>
<clipPath id="clip0_765_2975">
<rect width="25" height="25" fill="white" transform="translate(0.396484 0.294922)"/>
</clipPath>
</defs>
</svg>
