<svg width="20" height="21" viewBox="0 0 20 21" fill="none" xmlns="http://www.w3.org/2000/svg">
<g clip-path="url(#clip0_826_1502)">
<path d="M4.43242 12.318L3.73625 14.9169L1.19176 14.9707C0.431328 13.5603 0 11.9466 0 10.2317C0 8.57348 0.403281 7.00973 1.11812 5.63281H1.11867L3.38398 6.04812L4.37633 8.29984C4.16863 8.90535 4.05543 9.55535 4.05543 10.2317C4.05551 10.9658 4.18848 11.6691 4.43242 12.318Z" fill="#FBBB00"/>
<path d="M19.8261 8.36328C19.941 8.9682 20.0009 9.59293 20.0009 10.2314C20.0009 10.9473 19.9256 11.6457 19.7822 12.3193C19.2954 14.6116 18.0234 16.6133 16.2613 18.0298L16.2608 18.0292L13.4075 17.8836L13.0037 15.3627C14.1729 14.677 15.0866 13.6039 15.568 12.3193H10.2207V8.36328H15.646H19.8261Z" fill="#518EF8"/>
<path d="M16.2595 18.0289L16.2601 18.0295C14.5464 19.4069 12.3694 20.2311 9.99965 20.2311C6.19141 20.2311 2.88043 18.1025 1.19141 14.9701L4.43207 12.3174C5.27656 14.5712 7.45074 16.1756 9.99965 16.1756C11.0952 16.1756 12.1216 15.8795 13.0024 15.3624L16.2595 18.0289Z" fill="#28B446"/>
<path d="M16.382 2.53363L13.1425 5.18582C12.2309 4.61605 11.1534 4.28691 9.99906 4.28691C7.39246 4.28691 5.17762 5.96492 4.37543 8.29957L1.11773 5.63254H1.11719C2.78148 2.42375 6.13422 0.231445 9.99906 0.231445C12.4254 0.231445 14.6502 1.09574 16.382 2.53363Z" fill="#F14336"/>
</g>
<defs>
<clipPath id="clip0_826_1502">
<rect width="20" height="20" fill="white" transform="translate(0 0.231445)"/>
</clipPath>
</defs>
</svg>
