<svg width="16" height="16" viewBox="0 0 16 16" fill="none" xmlns="http://www.w3.org/2000/svg">
<g clip-path="url(#clip0_877_273)">
<path d="M13.303 5.70033C13.303 8.36819 8.48158 14.8075 8.48158 14.8075C8.48158 14.8075 3.66016 8.36819 3.66016 5.70033C3.66016 4.42161 4.16813 3.19526 5.07232 2.29107C5.97651 1.38688 7.20286 0.878906 8.48158 0.878906C9.76031 0.878906 10.9867 1.38688 11.8908 2.29107C12.795 3.19526 13.303 4.42161 13.303 5.70033V5.70033Z" stroke="black" stroke-linecap="round" stroke-linejoin="round"/>
<path d="M8.48214 7.30804C9.36974 7.30804 10.0893 6.58849 10.0893 5.70089C10.0893 4.81329 9.36974 4.09375 8.48214 4.09375C7.59454 4.09375 6.875 4.81329 6.875 5.70089C6.875 6.58849 7.59454 7.30804 8.48214 7.30804Z" stroke="black" stroke-linecap="round" stroke-linejoin="round"/>
</g>
<defs>
<clipPath id="clip0_877_273">
<rect width="15" height="15" fill="white" transform="translate(0.982422 0.34375)"/>
</clipPath>
</defs>
</svg>
