<svg width="41" height="41" viewBox="0 0 41 41" fill="none" xmlns="http://www.w3.org/2000/svg">
<g clip-path="url(#clip0_765_3601)">
<path d="M9.54855 17.81C13.8879 17.81 17.4057 14.2922 17.4057 9.95285C17.4057 5.61347 13.8879 2.0957 9.54855 2.0957C5.20917 2.0957 1.69141 5.61347 1.69141 9.95285C1.69141 14.2922 5.20917 17.81 9.54855 17.81Z" stroke="#BFF747" stroke-width="1.5" stroke-linecap="round" stroke-linejoin="round"/>
<path d="M30.9763 17.81C35.3157 17.81 38.8334 14.2922 38.8334 9.95285C38.8334 5.61347 35.3157 2.0957 30.9763 2.0957C26.6369 2.0957 23.1191 5.61347 23.1191 9.95285C23.1191 14.2922 26.6369 17.81 30.9763 17.81Z" stroke="#BFF747" stroke-width="1.5" stroke-linecap="round" stroke-linejoin="round"/>
<path d="M9.54855 39.2397C13.8879 39.2397 17.4057 35.7219 17.4057 31.3825C17.4057 27.0432 13.8879 23.5254 9.54855 23.5254C5.20917 23.5254 1.69141 27.0432 1.69141 31.3825C1.69141 35.7219 5.20917 39.2397 9.54855 39.2397Z" stroke="#BFF747" stroke-width="1.5" stroke-linecap="round" stroke-linejoin="round"/>
<path d="M30.9763 39.2397C35.3157 39.2397 38.8334 35.7219 38.8334 31.3825C38.8334 27.0432 35.3157 23.5254 30.9763 23.5254C26.6369 23.5254 23.1191 27.0432 23.1191 31.3825C23.1191 35.7219 26.6369 39.2397 30.9763 39.2397Z" stroke="#BFF747" stroke-width="1.5" stroke-linecap="round" stroke-linejoin="round"/>
</g>
<defs>
<clipPath id="clip0_765_3601">
<rect width="40" height="40" fill="white" transform="translate(0.263672 0.666016)"/>
</clipPath>
</defs>
</svg>
