<svg width="21" height="20" viewBox="0 0 21 20" fill="none" xmlns="http://www.w3.org/2000/svg">
<g clip-path="url(#clip0_805_306)">
<path d="M10.2051 19.9961C15.7184 19.9961 20.2051 15.5094 20.2051 9.99609C20.2051 4.48277 15.7185 -0.00390625 10.2051 -0.00390625C4.6917 -0.00390625 0.205078 4.48277 0.205078 9.99609C0.205078 15.5094 4.69175 19.9961 10.2051 19.9961ZM10.2051 1.3294C14.9851 1.3294 18.8718 5.21606 18.8718 9.99609C18.8718 14.7761 14.9851 18.6628 10.2051 18.6628C5.42504 18.6628 1.53839 14.7761 1.53839 9.99609C1.53839 5.21606 5.4251 1.3294 10.2051 1.3294Z" fill="#BFF747"/>
<path d="M13.1204 13.1828C13.2438 13.2827 13.3904 13.3294 13.5371 13.3294C13.7338 13.3294 13.9271 13.2428 14.0571 13.0794C14.2871 12.7928 14.2404 12.3728 13.9538 12.1428L10.8704 9.67608V4.66275C10.8704 4.29608 10.5704 3.99609 10.2038 3.99609C9.83709 3.99609 9.53711 4.29608 9.53711 4.66275V9.9961C9.53711 10.1995 9.63046 10.3894 9.78711 10.5161L13.1204 13.1828Z" fill="#BFF747"/>
</g>
<defs>
<clipPath id="clip0_805_306">
<rect width="20" height="20" fill="white" transform="translate(0.205078 -0.00390625)"/>
</clipPath>
</defs>
</svg>
