<svg width="16" height="16" viewBox="0 0 16 16" fill="none" xmlns="http://www.w3.org/2000/svg">
<g clip-path="url(#clip0_877_255)">
<path d="M9.78784 14.2733C10.4476 14.6989 11.2339 14.8844 12.0144 14.7986C12.7949 14.7127 13.522 14.3607 14.0735 13.8018L14.5557 13.3304C14.7671 13.1142 14.8854 12.8238 14.8854 12.5215C14.8854 12.2191 14.7671 11.9287 14.5557 11.7125L12.5093 9.68754C12.2949 9.47684 12.0063 9.35878 11.7057 9.35878C11.4051 9.35878 11.1165 9.47684 10.9021 9.68754V9.68754C10.6859 9.89892 10.3956 10.0173 10.0932 10.0173C9.79083 10.0173 9.50047 9.89892 9.28426 9.68754L6.06998 6.47326C5.96275 6.36759 5.8776 6.24166 5.81948 6.10278C5.76137 5.96391 5.73144 5.81487 5.73144 5.66433C5.73144 5.51378 5.76137 5.36474 5.81948 5.22587C5.8776 5.087 5.96275 4.96107 6.06998 4.8554V4.8554C6.28068 4.641 6.39874 4.35243 6.39874 4.05183C6.39874 3.75123 6.28068 3.46265 6.06998 3.24826L4.03426 1.21254C3.81806 1.00116 3.5277 0.882812 3.22534 0.882812C2.92297 0.882812 2.63261 1.00116 2.41641 1.21254L1.94498 1.69468C1.38606 2.24619 1.03409 2.97333 0.948232 3.75383C0.862377 4.53433 1.04788 5.32058 1.47355 5.9804C3.69145 9.24904 6.51348 12.0638 9.78784 14.2733V14.2733Z" stroke="black" stroke-linecap="round" stroke-linejoin="round"/>
</g>
<defs>
<clipPath id="clip0_877_255">
<rect width="15" height="15" fill="white" transform="translate(0.402344 0.34375)"/>
</clipPath>
</defs>
</svg>
