<svg width="21" height="20" viewBox="0 0 21 20" fill="none" xmlns="http://www.w3.org/2000/svg">
<path d="M12.8882 10.0522L9.34662 13.5938L7.52197 11.7692C7.27783 11.525 6.88232 11.525 6.63818 11.7692C6.39404 12.0133 6.39404 12.4088 6.63818 12.653L8.90472 14.9195C9.02679 15.0416 9.18671 15.1026 9.34662 15.1026C9.50653 15.1026 9.66644 15.0416 9.78851 14.9195L13.772 10.936C14.0161 10.6919 14.0161 10.2964 13.772 10.0522C13.5278 9.80811 13.1323 9.80811 12.8882 10.0522Z" fill="#BFF747"/>
<path d="M15.8301 2.47107H14.8926V1.87109C14.8926 1.52594 14.6127 1.24609 14.2676 1.24609C13.9224 1.24609 13.6426 1.52594 13.6426 1.87109V2.47107H6.76758V1.87109C6.76758 1.52594 6.48773 1.24609 6.14258 1.24609C5.79742 1.24609 5.51758 1.52594 5.51758 1.87109V2.47107H4.58008C2.85706 2.47107 1.45508 3.87305 1.45508 5.59607V15.6211C1.45508 17.3441 2.85706 18.7461 4.58008 18.7461H15.8301C17.5531 18.7461 18.9551 17.3441 18.9551 15.6211V5.59607C18.9551 3.87305 17.5531 2.47107 15.8301 2.47107ZM2.70508 5.59607C2.70508 4.56213 3.54614 3.72107 4.58008 3.72107H5.51758V4.32074C5.51758 4.66589 5.79742 4.94574 6.14258 4.94574C6.48773 4.94574 6.76758 4.66589 6.76758 4.32074V3.72107H13.6426V4.32074C13.6426 4.66589 13.9224 4.94574 14.2676 4.94574C14.6127 4.94574 14.8926 4.66589 14.8926 4.32074V3.72107H15.8301C16.864 3.72107 17.7051 4.56213 17.7051 5.59607V6.22717H2.70508V5.59607ZM15.8301 17.4961H4.58008C3.54614 17.4961 2.70508 16.655 2.70508 15.6211V7.47717H17.7051V15.6211C17.7051 16.655 16.864 17.4961 15.8301 17.4961Z" fill="#BFF747"/>
</svg>
