<svg width="41" height="41" viewBox="0 0 41 41" fill="none" xmlns="http://www.w3.org/2000/svg">
<g clip-path="url(#clip0_765_3461)">
<path d="M15.707 6.64258L16.9356 3.47115C17.1428 2.93419 17.5073 2.47232 17.9814 2.14604C18.4556 1.81976 19.0172 1.64428 19.5927 1.64258H21.9356C22.5111 1.64428 23.0727 1.81976 23.5469 2.14604C24.021 2.47232 24.3855 2.93419 24.5927 3.47115L25.8213 6.64258L29.9927 9.04258L33.3641 8.52829C33.9255 8.45209 34.4969 8.54451 35.0056 8.79379C35.5144 9.04307 35.9375 9.43796 36.2213 9.92829L37.3641 11.9283C37.657 12.4264 37.7919 13.0017 37.7511 13.5781C37.7103 14.1545 37.4957 14.705 37.1356 15.1569L35.0499 17.814V22.614L37.1927 25.2712C37.5528 25.7231 37.7674 26.2735 37.8083 26.8499C37.8491 27.4264 37.7141 28.0016 37.4213 28.4997L36.2784 30.4997C35.9946 30.9901 35.5715 31.3849 35.0628 31.6342C34.554 31.8835 33.9827 31.9759 33.4213 31.8997L30.0499 31.3854L25.8784 33.7854L24.6499 36.9569C24.4427 37.4938 24.0781 37.9557 23.604 38.282C23.1299 38.6083 22.5683 38.7837 21.9927 38.7854H19.5927C19.0172 38.7837 18.4556 38.6083 17.9814 38.282C17.5073 37.9557 17.1428 37.4938 16.9356 36.9569L15.707 33.7854L11.5356 31.3854L8.16414 31.8997C7.60276 31.9759 7.0314 31.8835 6.52266 31.6342C6.01392 31.3849 5.59078 30.9901 5.307 30.4997L4.16414 28.4997C3.87129 28.0016 3.73636 27.4264 3.77717 26.8499C3.81798 26.2735 4.0326 25.7231 4.39271 25.2712L6.47843 22.614V17.814L4.33557 15.1569C3.97546 14.705 3.76083 14.1545 3.72003 13.5781C3.67922 13.0017 3.81414 12.4264 4.107 11.9283L5.24985 9.92829C5.53364 9.43796 5.95678 9.04307 6.46552 8.79379C6.97426 8.54451 7.54562 8.45209 8.107 8.52829L11.4784 9.04258L15.707 6.64258Z" stroke="#BFF747" stroke-width="1.5" stroke-linecap="round" stroke-linejoin="round"/>
<path d="M20.7628 28.7854C25.4967 28.7854 29.3343 24.9479 29.3343 20.214C29.3343 15.4801 25.4967 11.6426 20.7628 11.6426C16.029 11.6426 12.1914 15.4801 12.1914 20.214C12.1914 24.9479 16.029 28.7854 20.7628 28.7854Z" stroke="#BFF747" stroke-width="1.5" stroke-linecap="round" stroke-linejoin="round"/>
<path d="M20.7637 11.6426V20.214H29.3351" stroke="#BFF747" stroke-width="1.5" stroke-linecap="round" stroke-linejoin="round"/>
<path d="M20.7642 20.2129L14.707 26.27" stroke="#BFF747" stroke-width="1.5" stroke-linecap="round" stroke-linejoin="round"/>
</g>
<defs>
<clipPath id="clip0_765_3461">
<rect width="40" height="40" fill="white" transform="translate(0.763672 0.212891)"/>
</clipPath>
</defs>
</svg>
